<?xml version="1.0" encoding="utf-8" standalone="no"?>
<!DOCTYPE svg PUBLIC "-//W3C//DTD SVG 1.1//EN"
  "http://www.w3.org/Graphics/SVG/1.1/DTD/svg11.dtd">
<svg xmlns:xlink="http://www.w3.org/1999/xlink" width="648pt" height="432pt" viewBox="0 0 648 432" xmlns="http://www.w3.org/2000/svg" version="1.1">
 <metadata>
  <rdf:RDF xmlns:dc="http://purl.org/dc/elements/1.1/" xmlns:cc="http://creativecommons.org/ns#" xmlns:rdf="http://www.w3.org/1999/02/22-rdf-syntax-ns#">
   <cc:Work>
    <dc:type rdf:resource="http://purl.org/dc/dcmitype/StillImage"/>
    <dc:date>2025-07-03T04:33:05.732497</dc:date>
    <dc:format>image/svg+xml</dc:format>
    <dc:creator>
     <cc:Agent>
      <dc:title>Matplotlib v3.10.3, https://matplotlib.org/</dc:title>
     </cc:Agent>
    </dc:creator>
   </cc:Work>
  </rdf:RDF>
 </metadata>
 <defs>
  <style type="text/css">*{stroke-linejoin: round; stroke-linecap: butt}</style>
 </defs>
 <g id="figure_1">
  <g id="patch_1">
   <path d="M 0 432 
L 648 432 
L 648 0 
L 0 0 
z
" style="fill: #ffffff"/>
  </g>
  <g id="axes_1">
   <g id="patch_2">
    <path d="M 62.82 375.84 
L 637.2 375.84 
L 637.2 28.32 
L 62.82 28.32 
z
" style="fill: #ffffff"/>
   </g>
   <g id="FillBetweenPolyCollection_1"/>
   <g id="FillBetweenPolyCollection_2"/>
   <g id="matplotlib.axis_1">
    <g id="xtick_1">
     <g id="line2d_1">
      <path d="M 157.036482 375.84 
L 157.036482 28.32 
" clip-path="url(#paec5380135)" style="fill: none; stroke-dasharray: 0.7,1.155; stroke-dashoffset: 0; stroke: #b0b0b0; stroke-opacity: 0.6; stroke-width: 0.7"/>
     </g>
     <g id="line2d_2">
      <defs>
       <path id="m073b318c79" d="M 0 0 
L 0 6 
" style="stroke: #000000; stroke-width: 1.2"/>
      </defs>
      <g>
       <use xlink:href="#m073b318c79" x="157.036482" y="375.84" style="stroke: #000000; stroke-width: 1.2"/>
      </g>
     </g>
     <g id="text_1">
      <!-- 5 -->
      <g transform="translate(153.537107 395.798281) scale(0.11 -0.11)">
       <defs>
        <path id="DejaVuSans-35" d="M 691 4666 
L 3169 4666 
L 3169 4134 
L 1269 4134 
L 1269 2991 
Q 1406 3038 1543 3061 
Q 1681 3084 1819 3084 
Q 2600 3084 3056 2656 
Q 3513 2228 3513 1497 
Q 3513 744 3044 326 
Q 2575 -91 1722 -91 
Q 1428 -91 1123 -41 
Q 819 9 494 109 
L 494 744 
Q 775 591 1075 516 
Q 1375 441 1709 441 
Q 2250 441 2565 725 
Q 2881 1009 2881 1497 
Q 2881 1984 2565 2268 
Q 2250 2553 1709 2553 
Q 1456 2553 1204 2497 
Q 953 2441 691 2322 
L 691 4666 
z
" transform="scale(0.015625)"/>
       </defs>
       <use xlink:href="#DejaVuSans-35"/>
      </g>
     </g>
    </g>
    <g id="xtick_2">
     <g id="line2d_3">
      <path d="M 270.550316 375.84 
L 270.550316 28.32 
" clip-path="url(#paec5380135)" style="fill: none; stroke-dasharray: 0.7,1.155; stroke-dashoffset: 0; stroke: #b0b0b0; stroke-opacity: 0.6; stroke-width: 0.7"/>
     </g>
     <g id="line2d_4">
      <g>
       <use xlink:href="#m073b318c79" x="270.550316" y="375.84" style="stroke: #000000; stroke-width: 1.2"/>
      </g>
     </g>
     <g id="text_2">
      <!-- 10 -->
      <g transform="translate(263.551566 395.798281) scale(0.11 -0.11)">
       <defs>
        <path id="DejaVuSans-31" d="M 794 531 
L 1825 531 
L 1825 4091 
L 703 3866 
L 703 4441 
L 1819 4666 
L 2450 4666 
L 2450 531 
L 3481 531 
L 3481 0 
L 794 0 
L 794 531 
z
" transform="scale(0.015625)"/>
        <path id="DejaVuSans-30" d="M 2034 4250 
Q 1547 4250 1301 3770 
Q 1056 3291 1056 2328 
Q 1056 1369 1301 889 
Q 1547 409 2034 409 
Q 2525 409 2770 889 
Q 3016 1369 3016 2328 
Q 3016 3291 2770 3770 
Q 2525 4250 2034 4250 
z
M 2034 4750 
Q 2819 4750 3233 4129 
Q 3647 3509 3647 2328 
Q 3647 1150 3233 529 
Q 2819 -91 2034 -91 
Q 1250 -91 836 529 
Q 422 1150 422 2328 
Q 422 3509 836 4129 
Q 1250 4750 2034 4750 
z
" transform="scale(0.015625)"/>
       </defs>
       <use xlink:href="#DejaVuSans-31"/>
       <use xlink:href="#DejaVuSans-30" transform="translate(63.623047 0)"/>
      </g>
     </g>
    </g>
    <g id="xtick_3">
     <g id="line2d_5">
      <path d="M 384.06415 375.84 
L 384.06415 28.32 
" clip-path="url(#paec5380135)" style="fill: none; stroke-dasharray: 0.7,1.155; stroke-dashoffset: 0; stroke: #b0b0b0; stroke-opacity: 0.6; stroke-width: 0.7"/>
     </g>
     <g id="line2d_6">
      <g>
       <use xlink:href="#m073b318c79" x="384.06415" y="375.84" style="stroke: #000000; stroke-width: 1.2"/>
      </g>
     </g>
     <g id="text_3">
      <!-- 15 -->
      <g transform="translate(377.0654 395.798281) scale(0.11 -0.11)">
       <use xlink:href="#DejaVuSans-31"/>
       <use xlink:href="#DejaVuSans-35" transform="translate(63.623047 0)"/>
      </g>
     </g>
    </g>
    <g id="xtick_4">
     <g id="line2d_7">
      <path d="M 497.577984 375.84 
L 497.577984 28.32 
" clip-path="url(#paec5380135)" style="fill: none; stroke-dasharray: 0.7,1.155; stroke-dashoffset: 0; stroke: #b0b0b0; stroke-opacity: 0.6; stroke-width: 0.7"/>
     </g>
     <g id="line2d_8">
      <g>
       <use xlink:href="#m073b318c79" x="497.577984" y="375.84" style="stroke: #000000; stroke-width: 1.2"/>
      </g>
     </g>
     <g id="text_4">
      <!-- 20 -->
      <g transform="translate(490.579234 395.798281) scale(0.11 -0.11)">
       <defs>
        <path id="DejaVuSans-32" d="M 1228 531 
L 3431 531 
L 3431 0 
L 469 0 
L 469 531 
Q 828 903 1448 1529 
Q 2069 2156 2228 2338 
Q 2531 2678 2651 2914 
Q 2772 3150 2772 3378 
Q 2772 3750 2511 3984 
Q 2250 4219 1831 4219 
Q 1534 4219 1204 4116 
Q 875 4013 500 3803 
L 500 4441 
Q 881 4594 1212 4672 
Q 1544 4750 1819 4750 
Q 2544 4750 2975 4387 
Q 3406 4025 3406 3419 
Q 3406 3131 3298 2873 
Q 3191 2616 2906 2266 
Q 2828 2175 2409 1742 
Q 1991 1309 1228 531 
z
" transform="scale(0.015625)"/>
       </defs>
       <use xlink:href="#DejaVuSans-32"/>
       <use xlink:href="#DejaVuSans-30" transform="translate(63.623047 0)"/>
      </g>
     </g>
    </g>
    <g id="xtick_5">
     <g id="line2d_9">
      <path d="M 611.091818 375.84 
L 611.091818 28.32 
" clip-path="url(#paec5380135)" style="fill: none; stroke-dasharray: 0.7,1.155; stroke-dashoffset: 0; stroke: #b0b0b0; stroke-opacity: 0.6; stroke-width: 0.7"/>
     </g>
     <g id="line2d_10">
      <g>
       <use xlink:href="#m073b318c79" x="611.091818" y="375.84" style="stroke: #000000; stroke-width: 1.2"/>
      </g>
     </g>
     <g id="text_5">
      <!-- 25 -->
      <g transform="translate(604.093068 395.798281) scale(0.11 -0.11)">
       <use xlink:href="#DejaVuSans-32"/>
       <use xlink:href="#DejaVuSans-35" transform="translate(63.623047 0)"/>
      </g>
     </g>
    </g>
    <g id="xtick_6">
     <g id="line2d_11">
      <defs>
       <path id="mbbae727cdc" d="M 0 0 
L 0 3 
" style="stroke: #000000; stroke-width: 0.8"/>
      </defs>
      <g>
       <use xlink:href="#mbbae727cdc" x="66.225415" y="375.84" style="stroke: #000000; stroke-width: 0.8"/>
      </g>
     </g>
    </g>
    <g id="xtick_7">
     <g id="line2d_12">
      <g>
       <use xlink:href="#mbbae727cdc" x="88.928182" y="375.84" style="stroke: #000000; stroke-width: 0.8"/>
      </g>
     </g>
    </g>
    <g id="xtick_8">
     <g id="line2d_13">
      <g>
       <use xlink:href="#mbbae727cdc" x="111.630949" y="375.84" style="stroke: #000000; stroke-width: 0.8"/>
      </g>
     </g>
    </g>
    <g id="xtick_9">
     <g id="line2d_14">
      <g>
       <use xlink:href="#mbbae727cdc" x="134.333715" y="375.84" style="stroke: #000000; stroke-width: 0.8"/>
      </g>
     </g>
    </g>
    <g id="xtick_10">
     <g id="line2d_15">
      <g>
       <use xlink:href="#mbbae727cdc" x="179.739249" y="375.84" style="stroke: #000000; stroke-width: 0.8"/>
      </g>
     </g>
    </g>
    <g id="xtick_11">
     <g id="line2d_16">
      <g>
       <use xlink:href="#mbbae727cdc" x="202.442016" y="375.84" style="stroke: #000000; stroke-width: 0.8"/>
      </g>
     </g>
    </g>
    <g id="xtick_12">
     <g id="line2d_17">
      <g>
       <use xlink:href="#mbbae727cdc" x="225.144783" y="375.84" style="stroke: #000000; stroke-width: 0.8"/>
      </g>
     </g>
    </g>
    <g id="xtick_13">
     <g id="line2d_18">
      <g>
       <use xlink:href="#mbbae727cdc" x="247.847549" y="375.84" style="stroke: #000000; stroke-width: 0.8"/>
      </g>
     </g>
    </g>
    <g id="xtick_14">
     <g id="line2d_19">
      <g>
       <use xlink:href="#mbbae727cdc" x="293.253083" y="375.84" style="stroke: #000000; stroke-width: 0.8"/>
      </g>
     </g>
    </g>
    <g id="xtick_15">
     <g id="line2d_20">
      <g>
       <use xlink:href="#mbbae727cdc" x="315.95585" y="375.84" style="stroke: #000000; stroke-width: 0.8"/>
      </g>
     </g>
    </g>
    <g id="xtick_16">
     <g id="line2d_21">
      <g>
       <use xlink:href="#mbbae727cdc" x="338.658617" y="375.84" style="stroke: #000000; stroke-width: 0.8"/>
      </g>
     </g>
    </g>
    <g id="xtick_17">
     <g id="line2d_22">
      <g>
       <use xlink:href="#mbbae727cdc" x="361.361383" y="375.84" style="stroke: #000000; stroke-width: 0.8"/>
      </g>
     </g>
    </g>
    <g id="xtick_18">
     <g id="line2d_23">
      <g>
       <use xlink:href="#mbbae727cdc" x="406.766917" y="375.84" style="stroke: #000000; stroke-width: 0.8"/>
      </g>
     </g>
    </g>
    <g id="xtick_19">
     <g id="line2d_24">
      <g>
       <use xlink:href="#mbbae727cdc" x="429.469684" y="375.84" style="stroke: #000000; stroke-width: 0.8"/>
      </g>
     </g>
    </g>
    <g id="xtick_20">
     <g id="line2d_25">
      <g>
       <use xlink:href="#mbbae727cdc" x="452.172451" y="375.84" style="stroke: #000000; stroke-width: 0.8"/>
      </g>
     </g>
    </g>
    <g id="xtick_21">
     <g id="line2d_26">
      <g>
       <use xlink:href="#mbbae727cdc" x="474.875217" y="375.84" style="stroke: #000000; stroke-width: 0.8"/>
      </g>
     </g>
    </g>
    <g id="xtick_22">
     <g id="line2d_27">
      <g>
       <use xlink:href="#mbbae727cdc" x="520.280751" y="375.84" style="stroke: #000000; stroke-width: 0.8"/>
      </g>
     </g>
    </g>
    <g id="xtick_23">
     <g id="line2d_28">
      <g>
       <use xlink:href="#mbbae727cdc" x="542.983518" y="375.84" style="stroke: #000000; stroke-width: 0.8"/>
      </g>
     </g>
    </g>
    <g id="xtick_24">
     <g id="line2d_29">
      <g>
       <use xlink:href="#mbbae727cdc" x="565.686285" y="375.84" style="stroke: #000000; stroke-width: 0.8"/>
      </g>
     </g>
    </g>
    <g id="xtick_25">
     <g id="line2d_30">
      <g>
       <use xlink:href="#mbbae727cdc" x="588.389051" y="375.84" style="stroke: #000000; stroke-width: 0.8"/>
      </g>
     </g>
    </g>
    <g id="xtick_26">
     <g id="line2d_31">
      <g>
       <use xlink:href="#mbbae727cdc" x="633.794585" y="375.84" style="stroke: #000000; stroke-width: 0.8"/>
      </g>
     </g>
    </g>
    <g id="text_6">
     <!-- Average Time Between Pings (in Minutes) -->
     <g transform="translate(214.848594 417.963906) scale(0.13 -0.13)">
      <defs>
       <path id="DejaVuSans-41" d="M 2188 4044 
L 1331 1722 
L 3047 1722 
L 2188 4044 
z
M 1831 4666 
L 2547 4666 
L 4325 0 
L 3669 0 
L 3244 1197 
L 1141 1197 
L 716 0 
L 50 0 
L 1831 4666 
z
" transform="scale(0.015625)"/>
       <path id="DejaVuSans-76" d="M 191 3500 
L 800 3500 
L 1894 563 
L 2988 3500 
L 3597 3500 
L 2284 0 
L 1503 0 
L 191 3500 
z
" transform="scale(0.015625)"/>
       <path id="DejaVuSans-65" d="M 3597 1894 
L 3597 1613 
L 953 1613 
Q 991 1019 1311 708 
Q 1631 397 2203 397 
Q 2534 397 2845 478 
Q 3156 559 3463 722 
L 3463 178 
Q 3153 47 2828 -22 
Q 2503 -91 2169 -91 
Q 1331 -91 842 396 
Q 353 884 353 1716 
Q 353 2575 817 3079 
Q 1281 3584 2069 3584 
Q 2775 3584 3186 3129 
Q 3597 2675 3597 1894 
z
M 3022 2063 
Q 3016 2534 2758 2815 
Q 2500 3097 2075 3097 
Q 1594 3097 1305 2825 
Q 1016 2553 972 2059 
L 3022 2063 
z
" transform="scale(0.015625)"/>
       <path id="DejaVuSans-72" d="M 2631 2963 
Q 2534 3019 2420 3045 
Q 2306 3072 2169 3072 
Q 1681 3072 1420 2755 
Q 1159 2438 1159 1844 
L 1159 0 
L 581 0 
L 581 3500 
L 1159 3500 
L 1159 2956 
Q 1341 3275 1631 3429 
Q 1922 3584 2338 3584 
Q 2397 3584 2469 3576 
Q 2541 3569 2628 3553 
L 2631 2963 
z
" transform="scale(0.015625)"/>
       <path id="DejaVuSans-61" d="M 2194 1759 
Q 1497 1759 1228 1600 
Q 959 1441 959 1056 
Q 959 750 1161 570 
Q 1363 391 1709 391 
Q 2188 391 2477 730 
Q 2766 1069 2766 1631 
L 2766 1759 
L 2194 1759 
z
M 3341 1997 
L 3341 0 
L 2766 0 
L 2766 531 
Q 2569 213 2275 61 
Q 1981 -91 1556 -91 
Q 1019 -91 701 211 
Q 384 513 384 1019 
Q 384 1609 779 1909 
Q 1175 2209 1959 2209 
L 2766 2209 
L 2766 2266 
Q 2766 2663 2505 2880 
Q 2244 3097 1772 3097 
Q 1472 3097 1187 3025 
Q 903 2953 641 2809 
L 641 3341 
Q 956 3463 1253 3523 
Q 1550 3584 1831 3584 
Q 2591 3584 2966 3190 
Q 3341 2797 3341 1997 
z
" transform="scale(0.015625)"/>
       <path id="DejaVuSans-67" d="M 2906 1791 
Q 2906 2416 2648 2759 
Q 2391 3103 1925 3103 
Q 1463 3103 1205 2759 
Q 947 2416 947 1791 
Q 947 1169 1205 825 
Q 1463 481 1925 481 
Q 2391 481 2648 825 
Q 2906 1169 2906 1791 
z
M 3481 434 
Q 3481 -459 3084 -895 
Q 2688 -1331 1869 -1331 
Q 1566 -1331 1297 -1286 
Q 1028 -1241 775 -1147 
L 775 -588 
Q 1028 -725 1275 -790 
Q 1522 -856 1778 -856 
Q 2344 -856 2625 -561 
Q 2906 -266 2906 331 
L 2906 616 
Q 2728 306 2450 153 
Q 2172 0 1784 0 
Q 1141 0 747 490 
Q 353 981 353 1791 
Q 353 2603 747 3093 
Q 1141 3584 1784 3584 
Q 2172 3584 2450 3431 
Q 2728 3278 2906 2969 
L 2906 3500 
L 3481 3500 
L 3481 434 
z
" transform="scale(0.015625)"/>
       <path id="DejaVuSans-20" transform="scale(0.015625)"/>
       <path id="DejaVuSans-54" d="M -19 4666 
L 3928 4666 
L 3928 4134 
L 2272 4134 
L 2272 0 
L 1638 0 
L 1638 4134 
L -19 4134 
L -19 4666 
z
" transform="scale(0.015625)"/>
       <path id="DejaVuSans-69" d="M 603 3500 
L 1178 3500 
L 1178 0 
L 603 0 
L 603 3500 
z
M 603 4863 
L 1178 4863 
L 1178 4134 
L 603 4134 
L 603 4863 
z
" transform="scale(0.015625)"/>
       <path id="DejaVuSans-6d" d="M 3328 2828 
Q 3544 3216 3844 3400 
Q 4144 3584 4550 3584 
Q 5097 3584 5394 3201 
Q 5691 2819 5691 2113 
L 5691 0 
L 5113 0 
L 5113 2094 
Q 5113 2597 4934 2840 
Q 4756 3084 4391 3084 
Q 3944 3084 3684 2787 
Q 3425 2491 3425 1978 
L 3425 0 
L 2847 0 
L 2847 2094 
Q 2847 2600 2669 2842 
Q 2491 3084 2119 3084 
Q 1678 3084 1418 2786 
Q 1159 2488 1159 1978 
L 1159 0 
L 581 0 
L 581 3500 
L 1159 3500 
L 1159 2956 
Q 1356 3278 1631 3431 
Q 1906 3584 2284 3584 
Q 2666 3584 2933 3390 
Q 3200 3197 3328 2828 
z
" transform="scale(0.015625)"/>
       <path id="DejaVuSans-42" d="M 1259 2228 
L 1259 519 
L 2272 519 
Q 2781 519 3026 730 
Q 3272 941 3272 1375 
Q 3272 1813 3026 2020 
Q 2781 2228 2272 2228 
L 1259 2228 
z
M 1259 4147 
L 1259 2741 
L 2194 2741 
Q 2656 2741 2882 2914 
Q 3109 3088 3109 3444 
Q 3109 3797 2882 3972 
Q 2656 4147 2194 4147 
L 1259 4147 
z
M 628 4666 
L 2241 4666 
Q 2963 4666 3353 4366 
Q 3744 4066 3744 3513 
Q 3744 3084 3544 2831 
Q 3344 2578 2956 2516 
Q 3422 2416 3680 2098 
Q 3938 1781 3938 1306 
Q 3938 681 3513 340 
Q 3088 0 2303 0 
L 628 0 
L 628 4666 
z
" transform="scale(0.015625)"/>
       <path id="DejaVuSans-74" d="M 1172 4494 
L 1172 3500 
L 2356 3500 
L 2356 3053 
L 1172 3053 
L 1172 1153 
Q 1172 725 1289 603 
Q 1406 481 1766 481 
L 2356 481 
L 2356 0 
L 1766 0 
Q 1100 0 847 248 
Q 594 497 594 1153 
L 594 3053 
L 172 3053 
L 172 3500 
L 594 3500 
L 594 4494 
L 1172 4494 
z
" transform="scale(0.015625)"/>
       <path id="DejaVuSans-77" d="M 269 3500 
L 844 3500 
L 1563 769 
L 2278 3500 
L 2956 3500 
L 3675 769 
L 4391 3500 
L 4966 3500 
L 4050 0 
L 3372 0 
L 2619 2869 
L 1863 0 
L 1184 0 
L 269 3500 
z
" transform="scale(0.015625)"/>
       <path id="DejaVuSans-6e" d="M 3513 2113 
L 3513 0 
L 2938 0 
L 2938 2094 
Q 2938 2591 2744 2837 
Q 2550 3084 2163 3084 
Q 1697 3084 1428 2787 
Q 1159 2491 1159 1978 
L 1159 0 
L 581 0 
L 581 3500 
L 1159 3500 
L 1159 2956 
Q 1366 3272 1645 3428 
Q 1925 3584 2291 3584 
Q 2894 3584 3203 3211 
Q 3513 2838 3513 2113 
z
" transform="scale(0.015625)"/>
       <path id="DejaVuSans-50" d="M 1259 4147 
L 1259 2394 
L 2053 2394 
Q 2494 2394 2734 2622 
Q 2975 2850 2975 3272 
Q 2975 3691 2734 3919 
Q 2494 4147 2053 4147 
L 1259 4147 
z
M 628 4666 
L 2053 4666 
Q 2838 4666 3239 4311 
Q 3641 3956 3641 3272 
Q 3641 2581 3239 2228 
Q 2838 1875 2053 1875 
L 1259 1875 
L 1259 0 
L 628 0 
L 628 4666 
z
" transform="scale(0.015625)"/>
       <path id="DejaVuSans-73" d="M 2834 3397 
L 2834 2853 
Q 2591 2978 2328 3040 
Q 2066 3103 1784 3103 
Q 1356 3103 1142 2972 
Q 928 2841 928 2578 
Q 928 2378 1081 2264 
Q 1234 2150 1697 2047 
L 1894 2003 
Q 2506 1872 2764 1633 
Q 3022 1394 3022 966 
Q 3022 478 2636 193 
Q 2250 -91 1575 -91 
Q 1294 -91 989 -36 
Q 684 19 347 128 
L 347 722 
Q 666 556 975 473 
Q 1284 391 1588 391 
Q 1994 391 2212 530 
Q 2431 669 2431 922 
Q 2431 1156 2273 1281 
Q 2116 1406 1581 1522 
L 1381 1569 
Q 847 1681 609 1914 
Q 372 2147 372 2553 
Q 372 3047 722 3315 
Q 1072 3584 1716 3584 
Q 2034 3584 2315 3537 
Q 2597 3491 2834 3397 
z
" transform="scale(0.015625)"/>
       <path id="DejaVuSans-28" d="M 1984 4856 
Q 1566 4138 1362 3434 
Q 1159 2731 1159 2009 
Q 1159 1288 1364 580 
Q 1569 -128 1984 -844 
L 1484 -844 
Q 1016 -109 783 600 
Q 550 1309 550 2009 
Q 550 2706 781 3412 
Q 1013 4119 1484 4856 
L 1984 4856 
z
" transform="scale(0.015625)"/>
       <path id="DejaVuSans-4d" d="M 628 4666 
L 1569 4666 
L 2759 1491 
L 3956 4666 
L 4897 4666 
L 4897 0 
L 4281 0 
L 4281 4097 
L 3078 897 
L 2444 897 
L 1241 4097 
L 1241 0 
L 628 0 
L 628 4666 
z
" transform="scale(0.015625)"/>
       <path id="DejaVuSans-75" d="M 544 1381 
L 544 3500 
L 1119 3500 
L 1119 1403 
Q 1119 906 1312 657 
Q 1506 409 1894 409 
Q 2359 409 2629 706 
Q 2900 1003 2900 1516 
L 2900 3500 
L 3475 3500 
L 3475 0 
L 2900 0 
L 2900 538 
Q 2691 219 2414 64 
Q 2138 -91 1772 -91 
Q 1169 -91 856 284 
Q 544 659 544 1381 
z
M 1991 3584 
L 1991 3584 
z
" transform="scale(0.015625)"/>
       <path id="DejaVuSans-29" d="M 513 4856 
L 1013 4856 
Q 1481 4119 1714 3412 
Q 1947 2706 1947 2009 
Q 1947 1309 1714 600 
Q 1481 -109 1013 -844 
L 513 -844 
Q 928 -128 1133 580 
Q 1338 1288 1338 2009 
Q 1338 2731 1133 3434 
Q 928 4138 513 4856 
z
" transform="scale(0.015625)"/>
      </defs>
      <use xlink:href="#DejaVuSans-41"/>
      <use xlink:href="#DejaVuSans-76" transform="translate(62.533203 0)"/>
      <use xlink:href="#DejaVuSans-65" transform="translate(121.712891 0)"/>
      <use xlink:href="#DejaVuSans-72" transform="translate(183.236328 0)"/>
      <use xlink:href="#DejaVuSans-61" transform="translate(224.349609 0)"/>
      <use xlink:href="#DejaVuSans-67" transform="translate(285.628906 0)"/>
      <use xlink:href="#DejaVuSans-65" transform="translate(349.105469 0)"/>
      <use xlink:href="#DejaVuSans-20" transform="translate(410.628906 0)"/>
      <use xlink:href="#DejaVuSans-54" transform="translate(442.416016 0)"/>
      <use xlink:href="#DejaVuSans-69" transform="translate(500.375 0)"/>
      <use xlink:href="#DejaVuSans-6d" transform="translate(528.158203 0)"/>
      <use xlink:href="#DejaVuSans-65" transform="translate(625.570312 0)"/>
      <use xlink:href="#DejaVuSans-20" transform="translate(687.09375 0)"/>
      <use xlink:href="#DejaVuSans-42" transform="translate(718.880859 0)"/>
      <use xlink:href="#DejaVuSans-65" transform="translate(787.484375 0)"/>
      <use xlink:href="#DejaVuSans-74" transform="translate(849.007812 0)"/>
      <use xlink:href="#DejaVuSans-77" transform="translate(888.216797 0)"/>
      <use xlink:href="#DejaVuSans-65" transform="translate(970.003906 0)"/>
      <use xlink:href="#DejaVuSans-65" transform="translate(1031.527344 0)"/>
      <use xlink:href="#DejaVuSans-6e" transform="translate(1093.050781 0)"/>
      <use xlink:href="#DejaVuSans-20" transform="translate(1156.429688 0)"/>
      <use xlink:href="#DejaVuSans-50" transform="translate(1188.216797 0)"/>
      <use xlink:href="#DejaVuSans-69" transform="translate(1246.269531 0)"/>
      <use xlink:href="#DejaVuSans-6e" transform="translate(1274.052734 0)"/>
      <use xlink:href="#DejaVuSans-67" transform="translate(1337.431641 0)"/>
      <use xlink:href="#DejaVuSans-73" transform="translate(1400.908203 0)"/>
      <use xlink:href="#DejaVuSans-20" transform="translate(1453.007812 0)"/>
      <use xlink:href="#DejaVuSans-28" transform="translate(1484.794922 0)"/>
      <use xlink:href="#DejaVuSans-69" transform="translate(1523.808594 0)"/>
      <use xlink:href="#DejaVuSans-6e" transform="translate(1551.591797 0)"/>
      <use xlink:href="#DejaVuSans-20" transform="translate(1614.970703 0)"/>
      <use xlink:href="#DejaVuSans-4d" transform="translate(1646.757812 0)"/>
      <use xlink:href="#DejaVuSans-69" transform="translate(1733.037109 0)"/>
      <use xlink:href="#DejaVuSans-6e" transform="translate(1760.820312 0)"/>
      <use xlink:href="#DejaVuSans-75" transform="translate(1824.199219 0)"/>
      <use xlink:href="#DejaVuSans-74" transform="translate(1887.578125 0)"/>
      <use xlink:href="#DejaVuSans-65" transform="translate(1926.787109 0)"/>
      <use xlink:href="#DejaVuSans-73" transform="translate(1988.310547 0)"/>
      <use xlink:href="#DejaVuSans-29" transform="translate(2040.410156 0)"/>
     </g>
    </g>
   </g>
   <g id="matplotlib.axis_2">
    <g id="ytick_1">
     <g id="line2d_32">
      <path d="M 62.82 375.84 
L 637.2 375.84 
" clip-path="url(#paec5380135)" style="fill: none; stroke-dasharray: 0.7,1.155; stroke-dashoffset: 0; stroke: #b0b0b0; stroke-opacity: 0.6; stroke-width: 0.7"/>
     </g>
     <g id="line2d_33">
      <defs>
       <path id="mf9737e1c61" d="M 0 0 
L -6 0 
" style="stroke: #000000; stroke-width: 1.2"/>
      </defs>
      <g>
       <use xlink:href="#mf9737e1c61" x="62.82" y="375.84" style="stroke: #000000; stroke-width: 1.2"/>
      </g>
     </g>
     <g id="text_7">
      <!-- 0.0 -->
      <g transform="translate(33.726563 380.019141) scale(0.11 -0.11)">
       <defs>
        <path id="DejaVuSans-2e" d="M 684 794 
L 1344 794 
L 1344 0 
L 684 0 
L 684 794 
z
" transform="scale(0.015625)"/>
       </defs>
       <use xlink:href="#DejaVuSans-30"/>
       <use xlink:href="#DejaVuSans-2e" transform="translate(63.623047 0)"/>
       <use xlink:href="#DejaVuSans-30" transform="translate(95.410156 0)"/>
      </g>
     </g>
    </g>
    <g id="ytick_2">
     <g id="line2d_34">
      <path d="M 62.82 306.336 
L 637.2 306.336 
" clip-path="url(#paec5380135)" style="fill: none; stroke-dasharray: 0.7,1.155; stroke-dashoffset: 0; stroke: #b0b0b0; stroke-opacity: 0.6; stroke-width: 0.7"/>
     </g>
     <g id="line2d_35">
      <g>
       <use xlink:href="#mf9737e1c61" x="62.82" y="306.336" style="stroke: #000000; stroke-width: 1.2"/>
      </g>
     </g>
     <g id="text_8">
      <!-- 0.2 -->
      <g transform="translate(33.726563 310.515141) scale(0.11 -0.11)">
       <use xlink:href="#DejaVuSans-30"/>
       <use xlink:href="#DejaVuSans-2e" transform="translate(63.623047 0)"/>
       <use xlink:href="#DejaVuSans-32" transform="translate(95.410156 0)"/>
      </g>
     </g>
    </g>
    <g id="ytick_3">
     <g id="line2d_36">
      <path d="M 62.82 236.832 
L 637.2 236.832 
" clip-path="url(#paec5380135)" style="fill: none; stroke-dasharray: 0.7,1.155; stroke-dashoffset: 0; stroke: #b0b0b0; stroke-opacity: 0.6; stroke-width: 0.7"/>
     </g>
     <g id="line2d_37">
      <g>
       <use xlink:href="#mf9737e1c61" x="62.82" y="236.832" style="stroke: #000000; stroke-width: 1.2"/>
      </g>
     </g>
     <g id="text_9">
      <!-- 0.4 -->
      <g transform="translate(33.726563 241.011141) scale(0.11 -0.11)">
       <defs>
        <path id="DejaVuSans-34" d="M 2419 4116 
L 825 1625 
L 2419 1625 
L 2419 4116 
z
M 2253 4666 
L 3047 4666 
L 3047 1625 
L 3713 1625 
L 3713 1100 
L 3047 1100 
L 3047 0 
L 2419 0 
L 2419 1100 
L 313 1100 
L 313 1709 
L 2253 4666 
z
" transform="scale(0.015625)"/>
       </defs>
       <use xlink:href="#DejaVuSans-30"/>
       <use xlink:href="#DejaVuSans-2e" transform="translate(63.623047 0)"/>
       <use xlink:href="#DejaVuSans-34" transform="translate(95.410156 0)"/>
      </g>
     </g>
    </g>
    <g id="ytick_4">
     <g id="line2d_38">
      <path d="M 62.82 167.328 
L 637.2 167.328 
" clip-path="url(#paec5380135)" style="fill: none; stroke-dasharray: 0.7,1.155; stroke-dashoffset: 0; stroke: #b0b0b0; stroke-opacity: 0.6; stroke-width: 0.7"/>
     </g>
     <g id="line2d_39">
      <g>
       <use xlink:href="#mf9737e1c61" x="62.82" y="167.328" style="stroke: #000000; stroke-width: 1.2"/>
      </g>
     </g>
     <g id="text_10">
      <!-- 0.6 -->
      <g transform="translate(33.726563 171.507141) scale(0.11 -0.11)">
       <defs>
        <path id="DejaVuSans-36" d="M 2113 2584 
Q 1688 2584 1439 2293 
Q 1191 2003 1191 1497 
Q 1191 994 1439 701 
Q 1688 409 2113 409 
Q 2538 409 2786 701 
Q 3034 994 3034 1497 
Q 3034 2003 2786 2293 
Q 2538 2584 2113 2584 
z
M 3366 4563 
L 3366 3988 
Q 3128 4100 2886 4159 
Q 2644 4219 2406 4219 
Q 1781 4219 1451 3797 
Q 1122 3375 1075 2522 
Q 1259 2794 1537 2939 
Q 1816 3084 2150 3084 
Q 2853 3084 3261 2657 
Q 3669 2231 3669 1497 
Q 3669 778 3244 343 
Q 2819 -91 2113 -91 
Q 1303 -91 875 529 
Q 447 1150 447 2328 
Q 447 3434 972 4092 
Q 1497 4750 2381 4750 
Q 2619 4750 2861 4703 
Q 3103 4656 3366 4563 
z
" transform="scale(0.015625)"/>
       </defs>
       <use xlink:href="#DejaVuSans-30"/>
       <use xlink:href="#DejaVuSans-2e" transform="translate(63.623047 0)"/>
       <use xlink:href="#DejaVuSans-36" transform="translate(95.410156 0)"/>
      </g>
     </g>
    </g>
    <g id="ytick_5">
     <g id="line2d_40">
      <path d="M 62.82 97.824 
L 637.2 97.824 
" clip-path="url(#paec5380135)" style="fill: none; stroke-dasharray: 0.7,1.155; stroke-dashoffset: 0; stroke: #b0b0b0; stroke-opacity: 0.6; stroke-width: 0.7"/>
     </g>
     <g id="line2d_41">
      <g>
       <use xlink:href="#mf9737e1c61" x="62.82" y="97.824" style="stroke: #000000; stroke-width: 1.2"/>
      </g>
     </g>
     <g id="text_11">
      <!-- 0.8 -->
      <g transform="translate(33.726563 102.003141) scale(0.11 -0.11)">
       <defs>
        <path id="DejaVuSans-38" d="M 2034 2216 
Q 1584 2216 1326 1975 
Q 1069 1734 1069 1313 
Q 1069 891 1326 650 
Q 1584 409 2034 409 
Q 2484 409 2743 651 
Q 3003 894 3003 1313 
Q 3003 1734 2745 1975 
Q 2488 2216 2034 2216 
z
M 1403 2484 
Q 997 2584 770 2862 
Q 544 3141 544 3541 
Q 544 4100 942 4425 
Q 1341 4750 2034 4750 
Q 2731 4750 3128 4425 
Q 3525 4100 3525 3541 
Q 3525 3141 3298 2862 
Q 3072 2584 2669 2484 
Q 3125 2378 3379 2068 
Q 3634 1759 3634 1313 
Q 3634 634 3220 271 
Q 2806 -91 2034 -91 
Q 1263 -91 848 271 
Q 434 634 434 1313 
Q 434 1759 690 2068 
Q 947 2378 1403 2484 
z
M 1172 3481 
Q 1172 3119 1398 2916 
Q 1625 2713 2034 2713 
Q 2441 2713 2670 2916 
Q 2900 3119 2900 3481 
Q 2900 3844 2670 4047 
Q 2441 4250 2034 4250 
Q 1625 4250 1398 4047 
Q 1172 3844 1172 3481 
z
" transform="scale(0.015625)"/>
       </defs>
       <use xlink:href="#DejaVuSans-30"/>
       <use xlink:href="#DejaVuSans-2e" transform="translate(63.623047 0)"/>
       <use xlink:href="#DejaVuSans-38" transform="translate(95.410156 0)"/>
      </g>
     </g>
    </g>
    <g id="ytick_6">
     <g id="line2d_42">
      <path d="M 62.82 28.32 
L 637.2 28.32 
" clip-path="url(#paec5380135)" style="fill: none; stroke-dasharray: 0.7,1.155; stroke-dashoffset: 0; stroke: #b0b0b0; stroke-opacity: 0.6; stroke-width: 0.7"/>
     </g>
     <g id="line2d_43">
      <g>
       <use xlink:href="#mf9737e1c61" x="62.82" y="28.32" style="stroke: #000000; stroke-width: 1.2"/>
      </g>
     </g>
     <g id="text_12">
      <!-- 1.0 -->
      <g transform="translate(33.726563 32.499141) scale(0.11 -0.11)">
       <use xlink:href="#DejaVuSans-31"/>
       <use xlink:href="#DejaVuSans-2e" transform="translate(63.623047 0)"/>
       <use xlink:href="#DejaVuSans-30" transform="translate(95.410156 0)"/>
      </g>
     </g>
    </g>
    <g id="ytick_7">
     <g id="line2d_44">
      <defs>
       <path id="m802d775a86" d="M 0 0 
L -3 0 
" style="stroke: #000000; stroke-width: 0.8"/>
      </defs>
      <g>
       <use xlink:href="#m802d775a86" x="62.82" y="358.464" style="stroke: #000000; stroke-width: 0.8"/>
      </g>
     </g>
    </g>
    <g id="ytick_8">
     <g id="line2d_45">
      <g>
       <use xlink:href="#m802d775a86" x="62.82" y="341.088" style="stroke: #000000; stroke-width: 0.8"/>
      </g>
     </g>
    </g>
    <g id="ytick_9">
     <g id="line2d_46">
      <g>
       <use xlink:href="#m802d775a86" x="62.82" y="323.712" style="stroke: #000000; stroke-width: 0.8"/>
      </g>
     </g>
    </g>
    <g id="ytick_10">
     <g id="line2d_47">
      <g>
       <use xlink:href="#m802d775a86" x="62.82" y="288.96" style="stroke: #000000; stroke-width: 0.8"/>
      </g>
     </g>
    </g>
    <g id="ytick_11">
     <g id="line2d_48">
      <g>
       <use xlink:href="#m802d775a86" x="62.82" y="271.584" style="stroke: #000000; stroke-width: 0.8"/>
      </g>
     </g>
    </g>
    <g id="ytick_12">
     <g id="line2d_49">
      <g>
       <use xlink:href="#m802d775a86" x="62.82" y="254.208" style="stroke: #000000; stroke-width: 0.8"/>
      </g>
     </g>
    </g>
    <g id="ytick_13">
     <g id="line2d_50">
      <g>
       <use xlink:href="#m802d775a86" x="62.82" y="219.456" style="stroke: #000000; stroke-width: 0.8"/>
      </g>
     </g>
    </g>
    <g id="ytick_14">
     <g id="line2d_51">
      <g>
       <use xlink:href="#m802d775a86" x="62.82" y="202.08" style="stroke: #000000; stroke-width: 0.8"/>
      </g>
     </g>
    </g>
    <g id="ytick_15">
     <g id="line2d_52">
      <g>
       <use xlink:href="#m802d775a86" x="62.82" y="184.704" style="stroke: #000000; stroke-width: 0.8"/>
      </g>
     </g>
    </g>
    <g id="ytick_16">
     <g id="line2d_53">
      <g>
       <use xlink:href="#m802d775a86" x="62.82" y="149.952" style="stroke: #000000; stroke-width: 0.8"/>
      </g>
     </g>
    </g>
    <g id="ytick_17">
     <g id="line2d_54">
      <g>
       <use xlink:href="#m802d775a86" x="62.82" y="132.576" style="stroke: #000000; stroke-width: 0.8"/>
      </g>
     </g>
    </g>
    <g id="ytick_18">
     <g id="line2d_55">
      <g>
       <use xlink:href="#m802d775a86" x="62.82" y="115.2" style="stroke: #000000; stroke-width: 0.8"/>
      </g>
     </g>
    </g>
    <g id="ytick_19">
     <g id="line2d_56">
      <g>
       <use xlink:href="#m802d775a86" x="62.82" y="80.448" style="stroke: #000000; stroke-width: 0.8"/>
      </g>
     </g>
    </g>
    <g id="ytick_20">
     <g id="line2d_57">
      <g>
       <use xlink:href="#m802d775a86" x="62.82" y="63.072" style="stroke: #000000; stroke-width: 0.8"/>
      </g>
     </g>
    </g>
    <g id="ytick_21">
     <g id="line2d_58">
      <g>
       <use xlink:href="#m802d775a86" x="62.82" y="45.696" style="stroke: #000000; stroke-width: 0.8"/>
      </g>
     </g>
    </g>
    <g id="text_13">
     <!-- Fraction of Stops Exhibiting Merging -->
     <g transform="translate(21.022969 319.476094) rotate(-90) scale(0.13 -0.13)">
      <defs>
       <path id="DejaVuSans-46" d="M 628 4666 
L 3309 4666 
L 3309 4134 
L 1259 4134 
L 1259 2759 
L 3109 2759 
L 3109 2228 
L 1259 2228 
L 1259 0 
L 628 0 
L 628 4666 
z
" transform="scale(0.015625)"/>
       <path id="DejaVuSans-63" d="M 3122 3366 
L 3122 2828 
Q 2878 2963 2633 3030 
Q 2388 3097 2138 3097 
Q 1578 3097 1268 2742 
Q 959 2388 959 1747 
Q 959 1106 1268 751 
Q 1578 397 2138 397 
Q 2388 397 2633 464 
Q 2878 531 3122 666 
L 3122 134 
Q 2881 22 2623 -34 
Q 2366 -91 2075 -91 
Q 1284 -91 818 406 
Q 353 903 353 1747 
Q 353 2603 823 3093 
Q 1294 3584 2113 3584 
Q 2378 3584 2631 3529 
Q 2884 3475 3122 3366 
z
" transform="scale(0.015625)"/>
       <path id="DejaVuSans-6f" d="M 1959 3097 
Q 1497 3097 1228 2736 
Q 959 2375 959 1747 
Q 959 1119 1226 758 
Q 1494 397 1959 397 
Q 2419 397 2687 759 
Q 2956 1122 2956 1747 
Q 2956 2369 2687 2733 
Q 2419 3097 1959 3097 
z
M 1959 3584 
Q 2709 3584 3137 3096 
Q 3566 2609 3566 1747 
Q 3566 888 3137 398 
Q 2709 -91 1959 -91 
Q 1206 -91 779 398 
Q 353 888 353 1747 
Q 353 2609 779 3096 
Q 1206 3584 1959 3584 
z
" transform="scale(0.015625)"/>
       <path id="DejaVuSans-66" d="M 2375 4863 
L 2375 4384 
L 1825 4384 
Q 1516 4384 1395 4259 
Q 1275 4134 1275 3809 
L 1275 3500 
L 2222 3500 
L 2222 3053 
L 1275 3053 
L 1275 0 
L 697 0 
L 697 3053 
L 147 3053 
L 147 3500 
L 697 3500 
L 697 3744 
Q 697 4328 969 4595 
Q 1241 4863 1831 4863 
L 2375 4863 
z
" transform="scale(0.015625)"/>
       <path id="DejaVuSans-53" d="M 3425 4513 
L 3425 3897 
Q 3066 4069 2747 4153 
Q 2428 4238 2131 4238 
Q 1616 4238 1336 4038 
Q 1056 3838 1056 3469 
Q 1056 3159 1242 3001 
Q 1428 2844 1947 2747 
L 2328 2669 
Q 3034 2534 3370 2195 
Q 3706 1856 3706 1288 
Q 3706 609 3251 259 
Q 2797 -91 1919 -91 
Q 1588 -91 1214 -16 
Q 841 59 441 206 
L 441 856 
Q 825 641 1194 531 
Q 1563 422 1919 422 
Q 2459 422 2753 634 
Q 3047 847 3047 1241 
Q 3047 1584 2836 1778 
Q 2625 1972 2144 2069 
L 1759 2144 
Q 1053 2284 737 2584 
Q 422 2884 422 3419 
Q 422 4038 858 4394 
Q 1294 4750 2059 4750 
Q 2388 4750 2728 4690 
Q 3069 4631 3425 4513 
z
" transform="scale(0.015625)"/>
       <path id="DejaVuSans-70" d="M 1159 525 
L 1159 -1331 
L 581 -1331 
L 581 3500 
L 1159 3500 
L 1159 2969 
Q 1341 3281 1617 3432 
Q 1894 3584 2278 3584 
Q 2916 3584 3314 3078 
Q 3713 2572 3713 1747 
Q 3713 922 3314 415 
Q 2916 -91 2278 -91 
Q 1894 -91 1617 61 
Q 1341 213 1159 525 
z
M 3116 1747 
Q 3116 2381 2855 2742 
Q 2594 3103 2138 3103 
Q 1681 3103 1420 2742 
Q 1159 2381 1159 1747 
Q 1159 1113 1420 752 
Q 1681 391 2138 391 
Q 2594 391 2855 752 
Q 3116 1113 3116 1747 
z
" transform="scale(0.015625)"/>
       <path id="DejaVuSans-45" d="M 628 4666 
L 3578 4666 
L 3578 4134 
L 1259 4134 
L 1259 2753 
L 3481 2753 
L 3481 2222 
L 1259 2222 
L 1259 531 
L 3634 531 
L 3634 0 
L 628 0 
L 628 4666 
z
" transform="scale(0.015625)"/>
       <path id="DejaVuSans-78" d="M 3513 3500 
L 2247 1797 
L 3578 0 
L 2900 0 
L 1881 1375 
L 863 0 
L 184 0 
L 1544 1831 
L 300 3500 
L 978 3500 
L 1906 2253 
L 2834 3500 
L 3513 3500 
z
" transform="scale(0.015625)"/>
       <path id="DejaVuSans-68" d="M 3513 2113 
L 3513 0 
L 2938 0 
L 2938 2094 
Q 2938 2591 2744 2837 
Q 2550 3084 2163 3084 
Q 1697 3084 1428 2787 
Q 1159 2491 1159 1978 
L 1159 0 
L 581 0 
L 581 4863 
L 1159 4863 
L 1159 2956 
Q 1366 3272 1645 3428 
Q 1925 3584 2291 3584 
Q 2894 3584 3203 3211 
Q 3513 2838 3513 2113 
z
" transform="scale(0.015625)"/>
       <path id="DejaVuSans-62" d="M 3116 1747 
Q 3116 2381 2855 2742 
Q 2594 3103 2138 3103 
Q 1681 3103 1420 2742 
Q 1159 2381 1159 1747 
Q 1159 1113 1420 752 
Q 1681 391 2138 391 
Q 2594 391 2855 752 
Q 3116 1113 3116 1747 
z
M 1159 2969 
Q 1341 3281 1617 3432 
Q 1894 3584 2278 3584 
Q 2916 3584 3314 3078 
Q 3713 2572 3713 1747 
Q 3713 922 3314 415 
Q 2916 -91 2278 -91 
Q 1894 -91 1617 61 
Q 1341 213 1159 525 
L 1159 0 
L 581 0 
L 581 4863 
L 1159 4863 
L 1159 2969 
z
" transform="scale(0.015625)"/>
      </defs>
      <use xlink:href="#DejaVuSans-46"/>
      <use xlink:href="#DejaVuSans-72" transform="translate(50.269531 0)"/>
      <use xlink:href="#DejaVuSans-61" transform="translate(91.382812 0)"/>
      <use xlink:href="#DejaVuSans-63" transform="translate(152.662109 0)"/>
      <use xlink:href="#DejaVuSans-74" transform="translate(207.642578 0)"/>
      <use xlink:href="#DejaVuSans-69" transform="translate(246.851562 0)"/>
      <use xlink:href="#DejaVuSans-6f" transform="translate(274.634766 0)"/>
      <use xlink:href="#DejaVuSans-6e" transform="translate(335.816406 0)"/>
      <use xlink:href="#DejaVuSans-20" transform="translate(399.195312 0)"/>
      <use xlink:href="#DejaVuSans-6f" transform="translate(430.982422 0)"/>
      <use xlink:href="#DejaVuSans-66" transform="translate(492.164062 0)"/>
      <use xlink:href="#DejaVuSans-20" transform="translate(527.369141 0)"/>
      <use xlink:href="#DejaVuSans-53" transform="translate(559.15625 0)"/>
      <use xlink:href="#DejaVuSans-74" transform="translate(622.632812 0)"/>
      <use xlink:href="#DejaVuSans-6f" transform="translate(661.841797 0)"/>
      <use xlink:href="#DejaVuSans-70" transform="translate(723.023438 0)"/>
      <use xlink:href="#DejaVuSans-73" transform="translate(786.5 0)"/>
      <use xlink:href="#DejaVuSans-20" transform="translate(838.599609 0)"/>
      <use xlink:href="#DejaVuSans-45" transform="translate(870.386719 0)"/>
      <use xlink:href="#DejaVuSans-78" transform="translate(933.570312 0)"/>
      <use xlink:href="#DejaVuSans-68" transform="translate(992.75 0)"/>
      <use xlink:href="#DejaVuSans-69" transform="translate(1056.128906 0)"/>
      <use xlink:href="#DejaVuSans-62" transform="translate(1083.912109 0)"/>
      <use xlink:href="#DejaVuSans-69" transform="translate(1147.388672 0)"/>
      <use xlink:href="#DejaVuSans-74" transform="translate(1175.171875 0)"/>
      <use xlink:href="#DejaVuSans-69" transform="translate(1214.380859 0)"/>
      <use xlink:href="#DejaVuSans-6e" transform="translate(1242.164062 0)"/>
      <use xlink:href="#DejaVuSans-67" transform="translate(1305.542969 0)"/>
      <use xlink:href="#DejaVuSans-20" transform="translate(1369.019531 0)"/>
      <use xlink:href="#DejaVuSans-4d" transform="translate(1400.806641 0)"/>
      <use xlink:href="#DejaVuSans-65" transform="translate(1487.085938 0)"/>
      <use xlink:href="#DejaVuSans-72" transform="translate(1548.609375 0)"/>
      <use xlink:href="#DejaVuSans-67" transform="translate(1587.972656 0)"/>
      <use xlink:href="#DejaVuSans-69" transform="translate(1651.449219 0)"/>
      <use xlink:href="#DejaVuSans-6e" transform="translate(1679.232422 0)"/>
      <use xlink:href="#DejaVuSans-67" transform="translate(1742.611328 0)"/>
     </g>
    </g>
   </g>
   <g id="line2d_59">
    <path d="M 88.928182 324.05952 
L 100.279565 325.4496 
L 111.630949 321.27936 
L 122.982332 323.88576 
L 134.333715 320.6712 
L 145.685099 319.97616 
L 157.036482 316.15344 
L 168.387866 318.15168 
L 179.739249 315.71904 
L 191.090632 313.63392 
L 202.442016 312.07008 
L 213.793399 315.024 
L 225.144783 314.50272 
L 236.496166 307.81296 
L 247.847549 311.9832 
L 259.198933 310.68 
L 270.550316 312.59136 
L 281.9017 308.76864 
L 293.253083 308.0736 
L 304.604466 307.2048 
L 315.95585 300.42816 
L 327.307233 302.07888 
L 338.658617 308.508 
L 350.01 298.42992 
L 361.361383 301.73136 
L 372.712767 295.64976 
L 384.06415 295.9104 
L 395.415534 297.99552 
L 406.766917 291.21888 
L 418.1183 293.56464 
L 429.469684 295.99728 
L 440.821067 290.43696 
L 452.172451 297.56112 
L 463.523834 293.47776 
L 474.875217 295.30224 
L 486.226601 288.78624 
L 497.577984 289.65504 
L 508.929368 292.69584 
L 520.280751 293.04336 
L 531.632134 287.04864 
L 542.983518 290.6976 
L 554.334901 286.61424 
L 565.686285 285.0504 
L 577.037668 298.42992 
L 588.389051 298.9512 
L 599.740435 295.64976 
L 611.091818 292.69584 
" clip-path="url(#paec5380135)" style="fill: none; stroke: #31688e; stroke-width: 1.4; stroke-linecap: square"/>
    <defs>
     <path id="m6b2ae423f4" d="M 0 2.8 
C 0.742569 2.8 1.454824 2.504974 1.979899 1.979899 
C 2.504974 1.454824 2.8 0.742569 2.8 0 
C 2.8 -0.742569 2.504974 -1.454824 1.979899 -1.979899 
C 1.454824 -2.504974 0.742569 -2.8 0 -2.8 
C -0.742569 -2.8 -1.454824 -2.504974 -1.979899 -1.979899 
C -2.504974 -1.454824 -2.8 -0.742569 -2.8 0 
C -2.8 0.742569 -2.504974 1.454824 -1.979899 1.979899 
C -1.454824 2.504974 -0.742569 2.8 0 2.8 
z
" style="stroke: #ffffff; stroke-width: 0.75"/>
    </defs>
    <g clip-path="url(#paec5380135)">
     <use xlink:href="#m6b2ae423f4" x="88.928182" y="324.05952" style="fill: #31688e; stroke: #ffffff; stroke-width: 0.75"/>
     <use xlink:href="#m6b2ae423f4" x="100.279565" y="325.4496" style="fill: #31688e; stroke: #ffffff; stroke-width: 0.75"/>
     <use xlink:href="#m6b2ae423f4" x="111.630949" y="321.27936" style="fill: #31688e; stroke: #ffffff; stroke-width: 0.75"/>
     <use xlink:href="#m6b2ae423f4" x="122.982332" y="323.88576" style="fill: #31688e; stroke: #ffffff; stroke-width: 0.75"/>
     <use xlink:href="#m6b2ae423f4" x="134.333715" y="320.6712" style="fill: #31688e; stroke: #ffffff; stroke-width: 0.75"/>
     <use xlink:href="#m6b2ae423f4" x="145.685099" y="319.97616" style="fill: #31688e; stroke: #ffffff; stroke-width: 0.75"/>
     <use xlink:href="#m6b2ae423f4" x="157.036482" y="316.15344" style="fill: #31688e; stroke: #ffffff; stroke-width: 0.75"/>
     <use xlink:href="#m6b2ae423f4" x="168.387866" y="318.15168" style="fill: #31688e; stroke: #ffffff; stroke-width: 0.75"/>
     <use xlink:href="#m6b2ae423f4" x="179.739249" y="315.71904" style="fill: #31688e; stroke: #ffffff; stroke-width: 0.75"/>
     <use xlink:href="#m6b2ae423f4" x="191.090632" y="313.63392" style="fill: #31688e; stroke: #ffffff; stroke-width: 0.75"/>
     <use xlink:href="#m6b2ae423f4" x="202.442016" y="312.07008" style="fill: #31688e; stroke: #ffffff; stroke-width: 0.75"/>
     <use xlink:href="#m6b2ae423f4" x="213.793399" y="315.024" style="fill: #31688e; stroke: #ffffff; stroke-width: 0.75"/>
     <use xlink:href="#m6b2ae423f4" x="225.144783" y="314.50272" style="fill: #31688e; stroke: #ffffff; stroke-width: 0.75"/>
     <use xlink:href="#m6b2ae423f4" x="236.496166" y="307.81296" style="fill: #31688e; stroke: #ffffff; stroke-width: 0.75"/>
     <use xlink:href="#m6b2ae423f4" x="247.847549" y="311.9832" style="fill: #31688e; stroke: #ffffff; stroke-width: 0.75"/>
     <use xlink:href="#m6b2ae423f4" x="259.198933" y="310.68" style="fill: #31688e; stroke: #ffffff; stroke-width: 0.75"/>
     <use xlink:href="#m6b2ae423f4" x="270.550316" y="312.59136" style="fill: #31688e; stroke: #ffffff; stroke-width: 0.75"/>
     <use xlink:href="#m6b2ae423f4" x="281.9017" y="308.76864" style="fill: #31688e; stroke: #ffffff; stroke-width: 0.75"/>
     <use xlink:href="#m6b2ae423f4" x="293.253083" y="308.0736" style="fill: #31688e; stroke: #ffffff; stroke-width: 0.75"/>
     <use xlink:href="#m6b2ae423f4" x="304.604466" y="307.2048" style="fill: #31688e; stroke: #ffffff; stroke-width: 0.75"/>
     <use xlink:href="#m6b2ae423f4" x="315.95585" y="300.42816" style="fill: #31688e; stroke: #ffffff; stroke-width: 0.75"/>
     <use xlink:href="#m6b2ae423f4" x="327.307233" y="302.07888" style="fill: #31688e; stroke: #ffffff; stroke-width: 0.75"/>
     <use xlink:href="#m6b2ae423f4" x="338.658617" y="308.508" style="fill: #31688e; stroke: #ffffff; stroke-width: 0.75"/>
     <use xlink:href="#m6b2ae423f4" x="350.01" y="298.42992" style="fill: #31688e; stroke: #ffffff; stroke-width: 0.75"/>
     <use xlink:href="#m6b2ae423f4" x="361.361383" y="301.73136" style="fill: #31688e; stroke: #ffffff; stroke-width: 0.75"/>
     <use xlink:href="#m6b2ae423f4" x="372.712767" y="295.64976" style="fill: #31688e; stroke: #ffffff; stroke-width: 0.75"/>
     <use xlink:href="#m6b2ae423f4" x="384.06415" y="295.9104" style="fill: #31688e; stroke: #ffffff; stroke-width: 0.75"/>
     <use xlink:href="#m6b2ae423f4" x="395.415534" y="297.99552" style="fill: #31688e; stroke: #ffffff; stroke-width: 0.75"/>
     <use xlink:href="#m6b2ae423f4" x="406.766917" y="291.21888" style="fill: #31688e; stroke: #ffffff; stroke-width: 0.75"/>
     <use xlink:href="#m6b2ae423f4" x="418.1183" y="293.56464" style="fill: #31688e; stroke: #ffffff; stroke-width: 0.75"/>
     <use xlink:href="#m6b2ae423f4" x="429.469684" y="295.99728" style="fill: #31688e; stroke: #ffffff; stroke-width: 0.75"/>
     <use xlink:href="#m6b2ae423f4" x="440.821067" y="290.43696" style="fill: #31688e; stroke: #ffffff; stroke-width: 0.75"/>
     <use xlink:href="#m6b2ae423f4" x="452.172451" y="297.56112" style="fill: #31688e; stroke: #ffffff; stroke-width: 0.75"/>
     <use xlink:href="#m6b2ae423f4" x="463.523834" y="293.47776" style="fill: #31688e; stroke: #ffffff; stroke-width: 0.75"/>
     <use xlink:href="#m6b2ae423f4" x="474.875217" y="295.30224" style="fill: #31688e; stroke: #ffffff; stroke-width: 0.75"/>
     <use xlink:href="#m6b2ae423f4" x="486.226601" y="288.78624" style="fill: #31688e; stroke: #ffffff; stroke-width: 0.75"/>
     <use xlink:href="#m6b2ae423f4" x="497.577984" y="289.65504" style="fill: #31688e; stroke: #ffffff; stroke-width: 0.75"/>
     <use xlink:href="#m6b2ae423f4" x="508.929368" y="292.69584" style="fill: #31688e; stroke: #ffffff; stroke-width: 0.75"/>
     <use xlink:href="#m6b2ae423f4" x="520.280751" y="293.04336" style="fill: #31688e; stroke: #ffffff; stroke-width: 0.75"/>
     <use xlink:href="#m6b2ae423f4" x="531.632134" y="287.04864" style="fill: #31688e; stroke: #ffffff; stroke-width: 0.75"/>
     <use xlink:href="#m6b2ae423f4" x="542.983518" y="290.6976" style="fill: #31688e; stroke: #ffffff; stroke-width: 0.75"/>
     <use xlink:href="#m6b2ae423f4" x="554.334901" y="286.61424" style="fill: #31688e; stroke: #ffffff; stroke-width: 0.75"/>
     <use xlink:href="#m6b2ae423f4" x="565.686285" y="285.0504" style="fill: #31688e; stroke: #ffffff; stroke-width: 0.75"/>
     <use xlink:href="#m6b2ae423f4" x="577.037668" y="298.42992" style="fill: #31688e; stroke: #ffffff; stroke-width: 0.75"/>
     <use xlink:href="#m6b2ae423f4" x="588.389051" y="298.9512" style="fill: #31688e; stroke: #ffffff; stroke-width: 0.75"/>
     <use xlink:href="#m6b2ae423f4" x="599.740435" y="295.64976" style="fill: #31688e; stroke: #ffffff; stroke-width: 0.75"/>
     <use xlink:href="#m6b2ae423f4" x="611.091818" y="292.69584" style="fill: #31688e; stroke: #ffffff; stroke-width: 0.75"/>
    </g>
   </g>
   <g id="line2d_60">
    <path d="M 88.928182 54.384 
L 100.279565 73.23696 
L 111.630949 95.91264 
L 122.982332 116.85072 
L 134.333715 137.09376 
L 145.685099 155.1648 
L 157.036482 169.84752 
L 168.387866 189.4824 
L 179.739249 201.29808 
L 191.090632 212.41872 
L 202.442016 228.23088 
L 213.793399 235.5288 
L 225.144783 242.30544 
L 236.496166 246.3888 
L 247.847549 255.59808 
L 259.198933 259.07328 
L 270.550316 267.84816 
L 281.9017 278.9688 
L 293.253083 277.57872 
L 304.604466 284.70288 
L 315.95585 287.48304 
L 327.307233 284.00784 
L 338.658617 299.64624 
L 350.01 307.46544 
L 361.361383 309.55056 
L 372.712767 304.85904 
L 384.06415 317.196 
L 395.415534 319.28112 
L 406.766917 315.71904 
L 418.1183 320.75808 
L 429.469684 326.40528 
L 440.821067 326.3184 
L 452.172451 335.78832 
L 463.523834 337.26528 
L 474.875217 335.61456 
L 486.226601 342.47808 
L 497.577984 344.73696 
L 508.929368 341.60928 
L 520.280751 345.51888 
L 531.632134 345.432 
L 542.983518 347.604 
L 554.334901 349.94976 
L 565.686285 348.99408 
L 577.037668 353.59872 
L 588.389051 356.20512 
L 599.740435 353.16432 
L 611.091818 355.59696 
" clip-path="url(#paec5380135)" style="fill: none; stroke: #35b779; stroke-width: 1.4; stroke-linecap: square"/>
    <defs>
     <path id="m2a7e3f3362" d="M 0 2.8 
C 0.742569 2.8 1.454824 2.504974 1.979899 1.979899 
C 2.504974 1.454824 2.8 0.742569 2.8 0 
C 2.8 -0.742569 2.504974 -1.454824 1.979899 -1.979899 
C 1.454824 -2.504974 0.742569 -2.8 0 -2.8 
C -0.742569 -2.8 -1.454824 -2.504974 -1.979899 -1.979899 
C -2.504974 -1.454824 -2.8 -0.742569 -2.8 0 
C -2.8 0.742569 -2.504974 1.454824 -1.979899 1.979899 
C -1.454824 2.504974 -0.742569 2.8 0 2.8 
z
" style="stroke: #ffffff; stroke-width: 0.75"/>
    </defs>
    <g clip-path="url(#paec5380135)">
     <use xlink:href="#m2a7e3f3362" x="88.928182" y="54.384" style="fill: #35b779; stroke: #ffffff; stroke-width: 0.75"/>
     <use xlink:href="#m2a7e3f3362" x="100.279565" y="73.23696" style="fill: #35b779; stroke: #ffffff; stroke-width: 0.75"/>
     <use xlink:href="#m2a7e3f3362" x="111.630949" y="95.91264" style="fill: #35b779; stroke: #ffffff; stroke-width: 0.75"/>
     <use xlink:href="#m2a7e3f3362" x="122.982332" y="116.85072" style="fill: #35b779; stroke: #ffffff; stroke-width: 0.75"/>
     <use xlink:href="#m2a7e3f3362" x="134.333715" y="137.09376" style="fill: #35b779; stroke: #ffffff; stroke-width: 0.75"/>
     <use xlink:href="#m2a7e3f3362" x="145.685099" y="155.1648" style="fill: #35b779; stroke: #ffffff; stroke-width: 0.75"/>
     <use xlink:href="#m2a7e3f3362" x="157.036482" y="169.84752" style="fill: #35b779; stroke: #ffffff; stroke-width: 0.75"/>
     <use xlink:href="#m2a7e3f3362" x="168.387866" y="189.4824" style="fill: #35b779; stroke: #ffffff; stroke-width: 0.75"/>
     <use xlink:href="#m2a7e3f3362" x="179.739249" y="201.29808" style="fill: #35b779; stroke: #ffffff; stroke-width: 0.75"/>
     <use xlink:href="#m2a7e3f3362" x="191.090632" y="212.41872" style="fill: #35b779; stroke: #ffffff; stroke-width: 0.75"/>
     <use xlink:href="#m2a7e3f3362" x="202.442016" y="228.23088" style="fill: #35b779; stroke: #ffffff; stroke-width: 0.75"/>
     <use xlink:href="#m2a7e3f3362" x="213.793399" y="235.5288" style="fill: #35b779; stroke: #ffffff; stroke-width: 0.75"/>
     <use xlink:href="#m2a7e3f3362" x="225.144783" y="242.30544" style="fill: #35b779; stroke: #ffffff; stroke-width: 0.75"/>
     <use xlink:href="#m2a7e3f3362" x="236.496166" y="246.3888" style="fill: #35b779; stroke: #ffffff; stroke-width: 0.75"/>
     <use xlink:href="#m2a7e3f3362" x="247.847549" y="255.59808" style="fill: #35b779; stroke: #ffffff; stroke-width: 0.75"/>
     <use xlink:href="#m2a7e3f3362" x="259.198933" y="259.07328" style="fill: #35b779; stroke: #ffffff; stroke-width: 0.75"/>
     <use xlink:href="#m2a7e3f3362" x="270.550316" y="267.84816" style="fill: #35b779; stroke: #ffffff; stroke-width: 0.75"/>
     <use xlink:href="#m2a7e3f3362" x="281.9017" y="278.9688" style="fill: #35b779; stroke: #ffffff; stroke-width: 0.75"/>
     <use xlink:href="#m2a7e3f3362" x="293.253083" y="277.57872" style="fill: #35b779; stroke: #ffffff; stroke-width: 0.75"/>
     <use xlink:href="#m2a7e3f3362" x="304.604466" y="284.70288" style="fill: #35b779; stroke: #ffffff; stroke-width: 0.75"/>
     <use xlink:href="#m2a7e3f3362" x="315.95585" y="287.48304" style="fill: #35b779; stroke: #ffffff; stroke-width: 0.75"/>
     <use xlink:href="#m2a7e3f3362" x="327.307233" y="284.00784" style="fill: #35b779; stroke: #ffffff; stroke-width: 0.75"/>
     <use xlink:href="#m2a7e3f3362" x="338.658617" y="299.64624" style="fill: #35b779; stroke: #ffffff; stroke-width: 0.75"/>
     <use xlink:href="#m2a7e3f3362" x="350.01" y="307.46544" style="fill: #35b779; stroke: #ffffff; stroke-width: 0.75"/>
     <use xlink:href="#m2a7e3f3362" x="361.361383" y="309.55056" style="fill: #35b779; stroke: #ffffff; stroke-width: 0.75"/>
     <use xlink:href="#m2a7e3f3362" x="372.712767" y="304.85904" style="fill: #35b779; stroke: #ffffff; stroke-width: 0.75"/>
     <use xlink:href="#m2a7e3f3362" x="384.06415" y="317.196" style="fill: #35b779; stroke: #ffffff; stroke-width: 0.75"/>
     <use xlink:href="#m2a7e3f3362" x="395.415534" y="319.28112" style="fill: #35b779; stroke: #ffffff; stroke-width: 0.75"/>
     <use xlink:href="#m2a7e3f3362" x="406.766917" y="315.71904" style="fill: #35b779; stroke: #ffffff; stroke-width: 0.75"/>
     <use xlink:href="#m2a7e3f3362" x="418.1183" y="320.75808" style="fill: #35b779; stroke: #ffffff; stroke-width: 0.75"/>
     <use xlink:href="#m2a7e3f3362" x="429.469684" y="326.40528" style="fill: #35b779; stroke: #ffffff; stroke-width: 0.75"/>
     <use xlink:href="#m2a7e3f3362" x="440.821067" y="326.3184" style="fill: #35b779; stroke: #ffffff; stroke-width: 0.75"/>
     <use xlink:href="#m2a7e3f3362" x="452.172451" y="335.78832" style="fill: #35b779; stroke: #ffffff; stroke-width: 0.75"/>
     <use xlink:href="#m2a7e3f3362" x="463.523834" y="337.26528" style="fill: #35b779; stroke: #ffffff; stroke-width: 0.75"/>
     <use xlink:href="#m2a7e3f3362" x="474.875217" y="335.61456" style="fill: #35b779; stroke: #ffffff; stroke-width: 0.75"/>
     <use xlink:href="#m2a7e3f3362" x="486.226601" y="342.47808" style="fill: #35b779; stroke: #ffffff; stroke-width: 0.75"/>
     <use xlink:href="#m2a7e3f3362" x="497.577984" y="344.73696" style="fill: #35b779; stroke: #ffffff; stroke-width: 0.75"/>
     <use xlink:href="#m2a7e3f3362" x="508.929368" y="341.60928" style="fill: #35b779; stroke: #ffffff; stroke-width: 0.75"/>
     <use xlink:href="#m2a7e3f3362" x="520.280751" y="345.51888" style="fill: #35b779; stroke: #ffffff; stroke-width: 0.75"/>
     <use xlink:href="#m2a7e3f3362" x="531.632134" y="345.432" style="fill: #35b779; stroke: #ffffff; stroke-width: 0.75"/>
     <use xlink:href="#m2a7e3f3362" x="542.983518" y="347.604" style="fill: #35b779; stroke: #ffffff; stroke-width: 0.75"/>
     <use xlink:href="#m2a7e3f3362" x="554.334901" y="349.94976" style="fill: #35b779; stroke: #ffffff; stroke-width: 0.75"/>
     <use xlink:href="#m2a7e3f3362" x="565.686285" y="348.99408" style="fill: #35b779; stroke: #ffffff; stroke-width: 0.75"/>
     <use xlink:href="#m2a7e3f3362" x="577.037668" y="353.59872" style="fill: #35b779; stroke: #ffffff; stroke-width: 0.75"/>
     <use xlink:href="#m2a7e3f3362" x="588.389051" y="356.20512" style="fill: #35b779; stroke: #ffffff; stroke-width: 0.75"/>
     <use xlink:href="#m2a7e3f3362" x="599.740435" y="353.16432" style="fill: #35b779; stroke: #ffffff; stroke-width: 0.75"/>
     <use xlink:href="#m2a7e3f3362" x="611.091818" y="355.59696" style="fill: #35b779; stroke: #ffffff; stroke-width: 0.75"/>
    </g>
   </g>
   <g id="line2d_61"/>
   <g id="line2d_62"/>
   <g id="patch_3">
    <path d="M 62.82 375.84 
L 62.82 28.32 
" style="fill: none; stroke: #000000; stroke-width: 0.8; stroke-linejoin: miter; stroke-linecap: square"/>
   </g>
   <g id="patch_4">
    <path d="M 637.2 375.84 
L 637.2 28.32 
" style="fill: none; stroke: #000000; stroke-width: 0.8; stroke-linejoin: miter; stroke-linecap: square"/>
   </g>
   <g id="patch_5">
    <path d="M 62.82 375.84 
L 637.2 375.84 
" style="fill: none; stroke: #000000; stroke-width: 0.8; stroke-linejoin: miter; stroke-linecap: square"/>
   </g>
   <g id="patch_6">
    <path d="M 62.82 28.32 
L 637.2 28.32 
" style="fill: none; stroke: #000000; stroke-width: 0.8; stroke-linejoin: miter; stroke-linecap: square"/>
   </g>
   <g id="text_14">
    <!-- Impact of Ping Frequency on Stop Merging -->
    <g transform="translate(180.455 22.32) scale(0.16 -0.16)">
     <defs>
      <path id="DejaVuSans-49" d="M 628 4666 
L 1259 4666 
L 1259 0 
L 628 0 
L 628 4666 
z
" transform="scale(0.015625)"/>
      <path id="DejaVuSans-71" d="M 947 1747 
Q 947 1113 1208 752 
Q 1469 391 1925 391 
Q 2381 391 2643 752 
Q 2906 1113 2906 1747 
Q 2906 2381 2643 2742 
Q 2381 3103 1925 3103 
Q 1469 3103 1208 2742 
Q 947 2381 947 1747 
z
M 2906 525 
Q 2725 213 2448 61 
Q 2172 -91 1784 -91 
Q 1150 -91 751 415 
Q 353 922 353 1747 
Q 353 2572 751 3078 
Q 1150 3584 1784 3584 
Q 2172 3584 2448 3432 
Q 2725 3281 2906 2969 
L 2906 3500 
L 3481 3500 
L 3481 -1331 
L 2906 -1331 
L 2906 525 
z
" transform="scale(0.015625)"/>
      <path id="DejaVuSans-79" d="M 2059 -325 
Q 1816 -950 1584 -1140 
Q 1353 -1331 966 -1331 
L 506 -1331 
L 506 -850 
L 844 -850 
Q 1081 -850 1212 -737 
Q 1344 -625 1503 -206 
L 1606 56 
L 191 3500 
L 800 3500 
L 1894 763 
L 2988 3500 
L 3597 3500 
L 2059 -325 
z
" transform="scale(0.015625)"/>
     </defs>
     <use xlink:href="#DejaVuSans-49"/>
     <use xlink:href="#DejaVuSans-6d" transform="translate(29.492188 0)"/>
     <use xlink:href="#DejaVuSans-70" transform="translate(126.904297 0)"/>
     <use xlink:href="#DejaVuSans-61" transform="translate(190.380859 0)"/>
     <use xlink:href="#DejaVuSans-63" transform="translate(251.660156 0)"/>
     <use xlink:href="#DejaVuSans-74" transform="translate(306.640625 0)"/>
     <use xlink:href="#DejaVuSans-20" transform="translate(345.849609 0)"/>
     <use xlink:href="#DejaVuSans-6f" transform="translate(377.636719 0)"/>
     <use xlink:href="#DejaVuSans-66" transform="translate(438.818359 0)"/>
     <use xlink:href="#DejaVuSans-20" transform="translate(474.023438 0)"/>
     <use xlink:href="#DejaVuSans-50" transform="translate(505.810547 0)"/>
     <use xlink:href="#DejaVuSans-69" transform="translate(563.863281 0)"/>
     <use xlink:href="#DejaVuSans-6e" transform="translate(591.646484 0)"/>
     <use xlink:href="#DejaVuSans-67" transform="translate(655.025391 0)"/>
     <use xlink:href="#DejaVuSans-20" transform="translate(718.501953 0)"/>
     <use xlink:href="#DejaVuSans-46" transform="translate(750.289062 0)"/>
     <use xlink:href="#DejaVuSans-72" transform="translate(800.558594 0)"/>
     <use xlink:href="#DejaVuSans-65" transform="translate(839.421875 0)"/>
     <use xlink:href="#DejaVuSans-71" transform="translate(900.945312 0)"/>
     <use xlink:href="#DejaVuSans-75" transform="translate(964.421875 0)"/>
     <use xlink:href="#DejaVuSans-65" transform="translate(1027.800781 0)"/>
     <use xlink:href="#DejaVuSans-6e" transform="translate(1089.324219 0)"/>
     <use xlink:href="#DejaVuSans-63" transform="translate(1152.703125 0)"/>
     <use xlink:href="#DejaVuSans-79" transform="translate(1207.683594 0)"/>
     <use xlink:href="#DejaVuSans-20" transform="translate(1266.863281 0)"/>
     <use xlink:href="#DejaVuSans-6f" transform="translate(1298.650391 0)"/>
     <use xlink:href="#DejaVuSans-6e" transform="translate(1359.832031 0)"/>
     <use xlink:href="#DejaVuSans-20" transform="translate(1423.210938 0)"/>
     <use xlink:href="#DejaVuSans-53" transform="translate(1454.998047 0)"/>
     <use xlink:href="#DejaVuSans-74" transform="translate(1518.474609 0)"/>
     <use xlink:href="#DejaVuSans-6f" transform="translate(1557.683594 0)"/>
     <use xlink:href="#DejaVuSans-70" transform="translate(1618.865234 0)"/>
     <use xlink:href="#DejaVuSans-20" transform="translate(1682.341797 0)"/>
     <use xlink:href="#DejaVuSans-4d" transform="translate(1714.128906 0)"/>
     <use xlink:href="#DejaVuSans-65" transform="translate(1800.408203 0)"/>
     <use xlink:href="#DejaVuSans-72" transform="translate(1861.931641 0)"/>
     <use xlink:href="#DejaVuSans-67" transform="translate(1901.294922 0)"/>
     <use xlink:href="#DejaVuSans-69" transform="translate(1964.771484 0)"/>
     <use xlink:href="#DejaVuSans-6e" transform="translate(1992.554688 0)"/>
     <use xlink:href="#DejaVuSans-67" transform="translate(2055.933594 0)"/>
    </g>
   </g>
   <g id="legend_1">
    <g id="patch_7">
     <path d="M 533.833181 87.976025 
L 623.5124 87.976025 
Q 625.7124 87.976025 625.7124 85.776025 
L 625.7124 37.4704 
Q 625.7124 35.2704 623.5124 35.2704 
L 533.833181 35.2704 
Q 531.633181 35.2704 531.633181 37.4704 
L 531.633181 85.776025 
Q 531.633181 87.976025 533.833181 87.976025 
z
" style="fill: #ffffff; opacity: 0.8; stroke: #cccccc; stroke-width: 0.24; stroke-linejoin: miter"/>
    </g>
    <g id="text_15">
     <!-- Algorithm -->
     <g transform="translate(549.288728 48.788525) scale(0.12 -0.12)">
      <defs>
       <path id="DejaVuSans-6c" d="M 603 4863 
L 1178 4863 
L 1178 0 
L 603 0 
L 603 4863 
z
" transform="scale(0.015625)"/>
      </defs>
      <use xlink:href="#DejaVuSans-41"/>
      <use xlink:href="#DejaVuSans-6c" transform="translate(68.408203 0)"/>
      <use xlink:href="#DejaVuSans-67" transform="translate(96.191406 0)"/>
      <use xlink:href="#DejaVuSans-6f" transform="translate(159.667969 0)"/>
      <use xlink:href="#DejaVuSans-72" transform="translate(220.849609 0)"/>
      <use xlink:href="#DejaVuSans-69" transform="translate(261.962891 0)"/>
      <use xlink:href="#DejaVuSans-74" transform="translate(289.746094 0)"/>
      <use xlink:href="#DejaVuSans-68" transform="translate(328.955078 0)"/>
      <use xlink:href="#DejaVuSans-6d" transform="translate(392.333984 0)"/>
     </g>
    </g>
    <g id="line2d_63">
     <path d="M 536.033181 61.292431 
L 547.033181 61.292431 
L 558.033181 61.292431 
" style="fill: none; stroke: #31688e; stroke-width: 1.4; stroke-linecap: square"/>
     <g>
      <use xlink:href="#m6b2ae423f4" x="547.033181" y="61.292431" style="fill: #31688e; stroke: #ffffff; stroke-width: 0.75"/>
     </g>
    </g>
    <g id="text_16">
     <!-- lachesis -->
     <g transform="translate(566.833181 65.142431) scale(0.11 -0.11)">
      <use xlink:href="#DejaVuSans-6c"/>
      <use xlink:href="#DejaVuSans-61" transform="translate(27.783203 0)"/>
      <use xlink:href="#DejaVuSans-63" transform="translate(89.0625 0)"/>
      <use xlink:href="#DejaVuSans-68" transform="translate(144.042969 0)"/>
      <use xlink:href="#DejaVuSans-65" transform="translate(207.421875 0)"/>
      <use xlink:href="#DejaVuSans-73" transform="translate(268.945312 0)"/>
      <use xlink:href="#DejaVuSans-69" transform="translate(321.044922 0)"/>
      <use xlink:href="#DejaVuSans-73" transform="translate(348.828125 0)"/>
     </g>
    </g>
    <g id="line2d_64">
     <path d="M 536.033181 77.438369 
L 547.033181 77.438369 
L 558.033181 77.438369 
" style="fill: none; stroke: #35b779; stroke-width: 1.4; stroke-linecap: square"/>
     <g>
      <use xlink:href="#m2a7e3f3362" x="547.033181" y="77.438369" style="fill: #35b779; stroke: #ffffff; stroke-width: 0.75"/>
     </g>
    </g>
    <g id="text_17">
     <!-- ta-dbscan -->
     <g transform="translate(566.833181 81.288369) scale(0.11 -0.11)">
      <defs>
       <path id="DejaVuSans-2d" d="M 313 2009 
L 1997 2009 
L 1997 1497 
L 313 1497 
L 313 2009 
z
" transform="scale(0.015625)"/>
       <path id="DejaVuSans-64" d="M 2906 2969 
L 2906 4863 
L 3481 4863 
L 3481 0 
L 2906 0 
L 2906 525 
Q 2725 213 2448 61 
Q 2172 -91 1784 -91 
Q 1150 -91 751 415 
Q 353 922 353 1747 
Q 353 2572 751 3078 
Q 1150 3584 1784 3584 
Q 2172 3584 2448 3432 
Q 2725 3281 2906 2969 
z
M 947 1747 
Q 947 1113 1208 752 
Q 1469 391 1925 391 
Q 2381 391 2643 752 
Q 2906 1113 2906 1747 
Q 2906 2381 2643 2742 
Q 2381 3103 1925 3103 
Q 1469 3103 1208 2742 
Q 947 2381 947 1747 
z
" transform="scale(0.015625)"/>
      </defs>
      <use xlink:href="#DejaVuSans-74"/>
      <use xlink:href="#DejaVuSans-61" transform="translate(39.208984 0)"/>
      <use xlink:href="#DejaVuSans-2d" transform="translate(100.488281 0)"/>
      <use xlink:href="#DejaVuSans-64" transform="translate(136.572266 0)"/>
      <use xlink:href="#DejaVuSans-62" transform="translate(200.048828 0)"/>
      <use xlink:href="#DejaVuSans-73" transform="translate(263.525391 0)"/>
      <use xlink:href="#DejaVuSans-63" transform="translate(315.625 0)"/>
      <use xlink:href="#DejaVuSans-61" transform="translate(370.605469 0)"/>
      <use xlink:href="#DejaVuSans-6e" transform="translate(431.884766 0)"/>
     </g>
    </g>
   </g>
  </g>
 </g>
 <defs>
  <clipPath id="paec5380135">
   <rect x="62.82" y="28.32" width="574.38" height="347.52"/>
  </clipPath>
 </defs>
</svg>
