<?xml version="1.0" encoding="utf-8" standalone="no"?>
<!DOCTYPE svg PUBLIC "-//W3C//DTD SVG 1.1//EN"
  "http://www.w3.org/Graphics/SVG/1.1/DTD/svg11.dtd">
<svg xmlns:xlink="http://www.w3.org/1999/xlink" width="280.362205pt" height="207.891341pt" viewBox="0 0 280.362205 207.891341" xmlns="http://www.w3.org/2000/svg" version="1.1">
 <metadata>
  <rdf:RDF xmlns:dc="http://purl.org/dc/elements/1.1/" xmlns:cc="http://creativecommons.org/ns#" xmlns:rdf="http://www.w3.org/1999/02/22-rdf-syntax-ns#">
   <cc:Work>
    <dc:type rdf:resource="http://purl.org/dc/dcmitype/StillImage"/>
    <dc:date>2025-06-27T16:00:31.658018</dc:date>
    <dc:format>image/svg+xml</dc:format>
    <dc:creator>
     <cc:Agent>
      <dc:title>Matplotlib v3.9.2, https://matplotlib.org/</dc:title>
     </cc:Agent>
    </dc:creator>
   </cc:Work>
  </rdf:RDF>
 </metadata>
 <defs>
  <style type="text/css">*{stroke-linejoin: round; stroke-linecap: butt}</style>
 </defs>
 <g id="figure_1">
  <g id="patch_1">
   <path d="M 0 207.891341 
L 280.362205 207.891341 
L 280.362205 0 
L 0 0 
z
" style="fill: #ffffff"/>
  </g>
  <g id="axes_1">
   <g id="patch_2">
    <path d="M 43.78125 170.335091 
L 271.622384 170.335091 
L 271.622384 9.295111 
L 43.78125 9.295111 
z
" style="fill: #ffffff"/>
   </g>
   <g id="PolyCollection_1">
    <defs>
     <path id="m508994b180" d="M 54.137665 -39.025328 
L 54.137665 -37.55625 
L 55.178511 -37.55625 
L 56.219357 -37.55625 
L 57.260202 -37.55625 
L 58.301048 -37.55625 
L 59.341894 -37.55625 
L 60.38274 -37.55625 
L 61.423585 -37.55625 
L 62.464431 -37.55625 
L 63.505277 -37.55625 
L 64.546123 -37.55625 
L 65.586968 -37.55625 
L 66.627814 -37.55625 
L 67.66866 -37.55625 
L 68.709506 -37.55625 
L 69.750351 -37.55625 
L 70.791197 -37.55625 
L 71.832043 -37.55625 
L 72.872889 -37.55625 
L 73.913734 -37.55625 
L 74.95458 -37.55625 
L 75.995426 -37.55625 
L 77.036272 -37.55625 
L 78.077117 -37.55625 
L 79.117963 -37.55625 
L 80.158809 -37.55625 
L 81.199655 -37.55625 
L 82.2405 -37.55625 
L 83.281346 -37.55625 
L 84.322192 -37.55625 
L 85.363038 -37.55625 
L 86.403883 -37.55625 
L 87.444729 -37.55625 
L 88.485575 -37.55625 
L 89.52642 -37.55625 
L 90.567266 -37.55625 
L 91.608112 -37.55625 
L 92.648958 -37.55625 
L 93.689803 -37.55625 
L 94.730649 -37.55625 
L 95.771495 -37.55625 
L 96.812341 -37.55625 
L 97.853186 -37.55625 
L 98.894032 -37.55625 
L 99.934878 -37.55625 
L 100.975724 -37.55625 
L 102.016569 -37.55625 
L 103.057415 -37.55625 
L 104.098261 -37.55625 
L 105.139107 -37.55625 
L 106.179952 -37.55625 
L 107.220798 -37.55625 
L 108.261644 -37.55625 
L 109.30249 -37.55625 
L 110.343335 -37.55625 
L 111.384181 -37.55625 
L 112.425027 -37.55625 
L 113.465873 -37.55625 
L 114.506718 -37.55625 
L 115.547564 -37.55625 
L 116.58841 -37.55625 
L 117.629256 -37.55625 
L 118.670101 -37.55625 
L 119.710947 -37.55625 
L 120.751793 -37.55625 
L 121.792639 -37.55625 
L 122.833484 -37.55625 
L 123.87433 -37.55625 
L 124.915176 -37.55625 
L 125.956022 -37.55625 
L 126.996867 -37.55625 
L 128.037713 -37.55625 
L 129.078559 -37.55625 
L 130.119405 -37.55625 
L 131.16025 -37.55625 
L 132.201096 -37.55625 
L 133.241942 -37.55625 
L 134.282788 -37.55625 
L 135.323633 -37.55625 
L 136.364479 -37.55625 
L 137.405325 -37.55625 
L 138.44617 -37.55625 
L 139.487016 -37.55625 
L 140.527862 -37.55625 
L 141.568708 -37.55625 
L 142.609553 -37.55625 
L 143.650399 -37.55625 
L 144.691245 -37.55625 
L 145.732091 -37.55625 
L 146.772936 -37.55625 
L 147.813782 -37.55625 
L 148.854628 -37.55625 
L 149.895474 -37.55625 
L 150.936319 -37.55625 
L 151.977165 -37.55625 
L 153.018011 -37.55625 
L 154.058857 -37.55625 
L 155.099702 -37.55625 
L 156.140548 -37.55625 
L 157.181394 -37.55625 
L 158.22224 -37.55625 
L 159.263085 -37.55625 
L 160.303931 -37.55625 
L 161.344777 -37.55625 
L 162.385623 -37.55625 
L 163.426468 -37.55625 
L 164.467314 -37.55625 
L 165.50816 -37.55625 
L 166.549006 -37.55625 
L 167.589851 -37.55625 
L 168.630697 -37.55625 
L 169.671543 -37.55625 
L 170.712389 -37.55625 
L 171.753234 -37.55625 
L 172.79408 -37.55625 
L 173.834926 -37.55625 
L 174.875772 -37.55625 
L 175.916617 -37.55625 
L 176.957463 -37.55625 
L 177.998309 -37.55625 
L 179.039155 -37.55625 
L 180.08 -37.55625 
L 181.120846 -37.55625 
L 182.161692 -37.55625 
L 183.202538 -37.55625 
L 184.243383 -37.55625 
L 185.284229 -37.55625 
L 186.325075 -37.55625 
L 187.36592 -37.55625 
L 188.406766 -37.55625 
L 189.447612 -37.55625 
L 190.488458 -37.55625 
L 191.529303 -37.55625 
L 192.570149 -37.55625 
L 193.610995 -37.55625 
L 194.651841 -37.55625 
L 195.692686 -37.55625 
L 196.733532 -37.55625 
L 197.774378 -37.55625 
L 198.815224 -37.55625 
L 199.856069 -37.55625 
L 200.896915 -37.55625 
L 201.937761 -37.55625 
L 202.978607 -37.55625 
L 204.019452 -37.55625 
L 205.060298 -37.55625 
L 206.101144 -37.55625 
L 207.14199 -37.55625 
L 208.182835 -37.55625 
L 209.223681 -37.55625 
L 210.264527 -37.55625 
L 211.305373 -37.55625 
L 212.346218 -37.55625 
L 213.387064 -37.55625 
L 214.42791 -37.55625 
L 215.468756 -37.55625 
L 216.509601 -37.55625 
L 217.550447 -37.55625 
L 218.591293 -37.55625 
L 219.632139 -37.55625 
L 220.672984 -37.55625 
L 221.71383 -37.55625 
L 222.754676 -37.55625 
L 223.795522 -37.55625 
L 224.836367 -37.55625 
L 225.877213 -37.55625 
L 226.918059 -37.55625 
L 227.958905 -37.55625 
L 228.99975 -37.55625 
L 230.040596 -37.55625 
L 231.081442 -37.55625 
L 232.122288 -37.55625 
L 233.163133 -37.55625 
L 234.203979 -37.55625 
L 235.244825 -37.55625 
L 236.285671 -37.55625 
L 237.326516 -37.55625 
L 238.367362 -37.55625 
L 239.408208 -37.55625 
L 240.449053 -37.55625 
L 241.489899 -37.55625 
L 242.530745 -37.55625 
L 243.571591 -37.55625 
L 244.612436 -37.55625 
L 245.653282 -37.55625 
L 246.694128 -37.55625 
L 247.734974 -37.55625 
L 248.775819 -37.55625 
L 249.816665 -37.55625 
L 250.857511 -37.55625 
L 251.898357 -37.55625 
L 252.939202 -37.55625 
L 253.980048 -37.55625 
L 255.020894 -37.55625 
L 256.06174 -37.55625 
L 257.102585 -37.55625 
L 258.143431 -37.55625 
L 259.184277 -37.55625 
L 260.225123 -37.55625 
L 261.265968 -37.55625 
L 261.265968 -37.610442 
L 261.265968 -37.610442 
L 260.225123 -37.626152 
L 259.184277 -37.645869 
L 258.143431 -37.670455 
L 257.102585 -37.700914 
L 256.06174 -37.738407 
L 255.020894 -37.784261 
L 253.980048 -37.839986 
L 252.939202 -37.907276 
L 251.898357 -37.988023 
L 250.857511 -38.084315 
L 249.816665 -38.198434 
L 248.775819 -38.332857 
L 247.734974 -38.490238 
L 246.694128 -38.673402 
L 245.653282 -38.885318 
L 244.612436 -39.129081 
L 243.571591 -39.407885 
L 242.530745 -39.724987 
L 241.489899 -40.083682 
L 240.449053 -40.487265 
L 239.408208 -40.939 
L 238.367362 -41.442085 
L 237.326516 -41.999626 
L 236.285671 -42.614608 
L 235.244825 -43.289878 
L 234.203979 -44.028121 
L 233.163133 -44.831855 
L 232.122288 -45.703419 
L 231.081442 -46.644973 
L 230.040596 -47.658492 
L 228.99975 -48.745772 
L 227.958905 -49.908422 
L 226.918059 -51.147866 
L 225.877213 -52.465328 
L 224.836367 -53.861819 
L 223.795522 -55.338108 
L 222.754676 -56.894686 
L 221.71383 -58.531718 
L 220.672984 -60.248983 
L 219.632139 -62.045805 
L 218.591293 -63.920971 
L 217.550447 -65.872646 
L 216.509601 -67.898282 
L 215.468756 -69.994528 
L 214.42791 -72.157145 
L 213.387064 -74.380922 
L 212.346218 -76.65962 
L 211.305373 -78.985915 
L 210.264527 -81.351382 
L 209.223681 -83.746489 
L 208.182835 -86.160629 
L 207.14199 -88.582181 
L 206.101144 -90.998603 
L 205.060298 -93.39656 
L 204.019452 -95.762083 
L 202.978607 -98.080762 
L 201.937761 -100.337963 
L 200.896915 -102.519074 
L 199.856069 -104.609775 
L 198.815224 -106.596309 
L 197.774378 -108.465777 
L 196.733532 -110.206426 
L 195.692686 -111.807924 
L 194.651841 -113.261633 
L 193.610995 -114.560847 
L 192.570149 -115.701001 
L 191.529303 -116.679838 
L 190.488458 -117.497531 
L 189.447612 -118.156747 
L 188.406766 -118.662654 
L 187.36592 -119.022863 
L 186.325075 -119.247309 
L 185.284229 -119.348069 
L 184.243383 -119.339118 
L 183.202538 -119.236035 
L 182.161692 -119.055661 
L 181.120846 -118.815715 
L 180.08 -118.5344 
L 179.039155 -118.229974 
L 177.998309 -117.920343 
L 176.957463 -117.622654 
L 175.916617 -117.352921 
L 174.875772 -117.125686 
L 173.834926 -116.953734 
L 172.79408 -116.847869 
L 171.753234 -116.816748 
L 170.712389 -116.866794 
L 169.671543 -117.002179 
L 168.630697 -117.224879 
L 167.589851 -117.5348 
L 166.549006 -117.929963 
L 165.50816 -118.406752 
L 164.467314 -118.960207 
L 163.426468 -119.584343 
L 162.385623 -120.272511 
L 161.344777 -121.017751 
L 160.303931 -121.813155 
L 159.263085 -122.652208 
L 158.22224 -123.529107 
L 157.181394 -124.439038 
L 156.140548 -125.378404 
L 155.099702 -126.345003 
L 154.058857 -127.338133 
L 153.018011 -128.358645 
L 151.977165 -129.408908 
L 150.936319 -130.492729 
L 149.895474 -131.615189 
L 148.854628 -132.78243 
L 147.813782 -134.001383 
L 146.772936 -135.279461 
L 145.732091 -136.624208 
L 144.691245 -138.042938 
L 143.650399 -139.542359 
L 142.609553 -141.12821 
L 141.568708 -142.804909 
L 140.527862 -144.575242 
L 139.487016 -146.440097 
L 138.44617 -148.398246 
L 137.405325 -150.4462 
L 136.364479 -152.578132 
L 135.323633 -154.785871 
L 134.282788 -157.058977 
L 133.241942 -159.384884 
L 132.201096 -161.749105 
L 131.16025 -164.135505 
L 130.119405 -166.526608 
L 129.078559 -168.903945 
L 128.037713 -171.24841 
L 126.996867 -173.54063 
L 125.956022 -175.761312 
L 124.915176 -177.891563 
L 123.87433 -179.913173 
L 122.833484 -181.808846 
L 121.792639 -183.562374 
L 120.751793 -185.158751 
L 119.710947 -186.584228 
L 118.670101 -187.826312 
L 117.629256 -188.873715 
L 116.58841 -189.716273 
L 115.547564 -190.344831 
L 114.506718 -190.751125 
L 113.465873 -190.92766 
L 112.425027 -190.867613 
L 111.384181 -190.564755 
L 110.343335 -190.01342 
L 109.30249 -189.208514 
L 108.261644 -188.145573 
L 107.220798 -186.820865 
L 106.179952 -185.231544 
L 105.139107 -183.375828 
L 104.098261 -181.253218 
L 103.057415 -178.864711 
L 102.016569 -176.213037 
L 100.975724 -173.30286 
L 99.934878 -170.140968 
L 98.894032 -166.736415 
L 97.853186 -163.100618 
L 96.812341 -159.247389 
L 95.771495 -155.192913 
L 94.730649 -150.955654 
L 93.689803 -146.556195 
L 92.648958 -142.017022 
L 91.608112 -137.362251 
L 90.567266 -132.617301 
L 89.52642 -127.808541 
L 88.485575 -122.962905 
L 87.444729 -118.107491 
L 86.403883 -113.269159 
L 85.363038 -108.474141 
L 84.322192 -103.747661 
L 83.281346 -99.113597 
L 82.2405 -94.594164 
L 81.199655 -90.209648 
L 80.158809 -85.978189 
L 79.117963 -81.915607 
L 78.077117 -78.035284 
L 77.036272 -74.348098 
L 75.995426 -70.862405 
L 74.95458 -67.584068 
L 73.913734 -64.516534 
L 72.872889 -61.660943 
L 71.832043 -59.016279 
L 70.791197 -56.579541 
L 69.750351 -54.345945 
L 68.709506 -52.309134 
L 67.66866 -50.461407 
L 66.627814 -48.793943 
L 65.586968 -47.297036 
L 64.546123 -45.960314 
L 63.505277 -44.772955 
L 62.464431 -43.723886 
L 61.423585 -42.801968 
L 60.38274 -41.996156 
L 59.341894 -41.295652 
L 58.301048 -40.69002 
L 57.260202 -40.169289 
L 56.219357 -39.724035 
L 55.178511 -39.34544 
L 54.137665 -39.025328 
z
" style="stroke: #1f77b4; stroke-width: 1.5"/>
    </defs>
    <g clip-path="url(#p34e9f6d6d4)">
     <use xlink:href="#m508994b180" x="0" y="207.891341" style="fill: #1f77b4; fill-opacity: 0.25; stroke: #1f77b4; stroke-width: 1.5"/>
    </g>
   </g>
   <g id="matplotlib.axis_1">
    <g id="xtick_1">
     <g id="line2d_1">
      <path d="M 54.137665 170.335091 
L 54.137665 9.295111 
" clip-path="url(#p34e9f6d6d4)" style="fill: none; stroke: #b0b0b0; stroke-opacity: 0.3; stroke-width: 0.8; stroke-linecap: square"/>
     </g>
     <g id="line2d_2">
      <defs>
       <path id="mf66290b1fb" d="M 0 0 
L 0 3.5 
" style="stroke: #000000; stroke-width: 0.8"/>
      </defs>
      <g>
       <use xlink:href="#mf66290b1fb" x="54.137665" y="170.335091" style="stroke: #000000; stroke-width: 0.8"/>
      </g>
     </g>
     <g id="text_1">
      <!-- 0.0 -->
      <g transform="translate(46.186103 184.933529) scale(0.1 -0.1)">
       <defs>
        <path id="DejaVuSans-30" d="M 2034 4250 
Q 1547 4250 1301 3770 
Q 1056 3291 1056 2328 
Q 1056 1369 1301 889 
Q 1547 409 2034 409 
Q 2525 409 2770 889 
Q 3016 1369 3016 2328 
Q 3016 3291 2770 3770 
Q 2525 4250 2034 4250 
z
M 2034 4750 
Q 2819 4750 3233 4129 
Q 3647 3509 3647 2328 
Q 3647 1150 3233 529 
Q 2819 -91 2034 -91 
Q 1250 -91 836 529 
Q 422 1150 422 2328 
Q 422 3509 836 4129 
Q 1250 4750 2034 4750 
z
" transform="scale(0.015625)"/>
        <path id="DejaVuSans-2e" d="M 684 794 
L 1344 794 
L 1344 0 
L 684 0 
L 684 794 
z
" transform="scale(0.015625)"/>
       </defs>
       <use xlink:href="#DejaVuSans-30"/>
       <use xlink:href="#DejaVuSans-2e" x="63.623047"/>
       <use xlink:href="#DejaVuSans-30" x="95.410156"/>
      </g>
     </g>
    </g>
    <g id="xtick_2">
     <g id="line2d_3">
      <path d="M 106.90591 170.335091 
L 106.90591 9.295111 
" clip-path="url(#p34e9f6d6d4)" style="fill: none; stroke: #b0b0b0; stroke-opacity: 0.3; stroke-width: 0.8; stroke-linecap: square"/>
     </g>
     <g id="line2d_4">
      <g>
       <use xlink:href="#mf66290b1fb" x="106.90591" y="170.335091" style="stroke: #000000; stroke-width: 0.8"/>
      </g>
     </g>
     <g id="text_2">
      <!-- 0.2 -->
      <g transform="translate(98.954347 184.933529) scale(0.1 -0.1)">
       <defs>
        <path id="DejaVuSans-32" d="M 1228 531 
L 3431 531 
L 3431 0 
L 469 0 
L 469 531 
Q 828 903 1448 1529 
Q 2069 2156 2228 2338 
Q 2531 2678 2651 2914 
Q 2772 3150 2772 3378 
Q 2772 3750 2511 3984 
Q 2250 4219 1831 4219 
Q 1534 4219 1204 4116 
Q 875 4013 500 3803 
L 500 4441 
Q 881 4594 1212 4672 
Q 1544 4750 1819 4750 
Q 2544 4750 2975 4387 
Q 3406 4025 3406 3419 
Q 3406 3131 3298 2873 
Q 3191 2616 2906 2266 
Q 2828 2175 2409 1742 
Q 1991 1309 1228 531 
z
" transform="scale(0.015625)"/>
       </defs>
       <use xlink:href="#DejaVuSans-30"/>
       <use xlink:href="#DejaVuSans-2e" x="63.623047"/>
       <use xlink:href="#DejaVuSans-32" x="95.410156"/>
      </g>
     </g>
    </g>
    <g id="xtick_3">
     <g id="line2d_5">
      <path d="M 159.674154 170.335091 
L 159.674154 9.295111 
" clip-path="url(#p34e9f6d6d4)" style="fill: none; stroke: #b0b0b0; stroke-opacity: 0.3; stroke-width: 0.8; stroke-linecap: square"/>
     </g>
     <g id="line2d_6">
      <g>
       <use xlink:href="#mf66290b1fb" x="159.674154" y="170.335091" style="stroke: #000000; stroke-width: 0.8"/>
      </g>
     </g>
     <g id="text_3">
      <!-- 0.4 -->
      <g transform="translate(151.722591 184.933529) scale(0.1 -0.1)">
       <defs>
        <path id="DejaVuSans-34" d="M 2419 4116 
L 825 1625 
L 2419 1625 
L 2419 4116 
z
M 2253 4666 
L 3047 4666 
L 3047 1625 
L 3713 1625 
L 3713 1100 
L 3047 1100 
L 3047 0 
L 2419 0 
L 2419 1100 
L 313 1100 
L 313 1709 
L 2253 4666 
z
" transform="scale(0.015625)"/>
       </defs>
       <use xlink:href="#DejaVuSans-30"/>
       <use xlink:href="#DejaVuSans-2e" x="63.623047"/>
       <use xlink:href="#DejaVuSans-34" x="95.410156"/>
      </g>
     </g>
    </g>
    <g id="xtick_4">
     <g id="line2d_7">
      <path d="M 212.442398 170.335091 
L 212.442398 9.295111 
" clip-path="url(#p34e9f6d6d4)" style="fill: none; stroke: #b0b0b0; stroke-opacity: 0.3; stroke-width: 0.8; stroke-linecap: square"/>
     </g>
     <g id="line2d_8">
      <g>
       <use xlink:href="#mf66290b1fb" x="212.442398" y="170.335091" style="stroke: #000000; stroke-width: 0.8"/>
      </g>
     </g>
     <g id="text_4">
      <!-- 0.6 -->
      <g transform="translate(204.490836 184.933529) scale(0.1 -0.1)">
       <defs>
        <path id="DejaVuSans-36" d="M 2113 2584 
Q 1688 2584 1439 2293 
Q 1191 2003 1191 1497 
Q 1191 994 1439 701 
Q 1688 409 2113 409 
Q 2538 409 2786 701 
Q 3034 994 3034 1497 
Q 3034 2003 2786 2293 
Q 2538 2584 2113 2584 
z
M 3366 4563 
L 3366 3988 
Q 3128 4100 2886 4159 
Q 2644 4219 2406 4219 
Q 1781 4219 1451 3797 
Q 1122 3375 1075 2522 
Q 1259 2794 1537 2939 
Q 1816 3084 2150 3084 
Q 2853 3084 3261 2657 
Q 3669 2231 3669 1497 
Q 3669 778 3244 343 
Q 2819 -91 2113 -91 
Q 1303 -91 875 529 
Q 447 1150 447 2328 
Q 447 3434 972 4092 
Q 1497 4750 2381 4750 
Q 2619 4750 2861 4703 
Q 3103 4656 3366 4563 
z
" transform="scale(0.015625)"/>
       </defs>
       <use xlink:href="#DejaVuSans-30"/>
       <use xlink:href="#DejaVuSans-2e" x="63.623047"/>
       <use xlink:href="#DejaVuSans-36" x="95.410156"/>
      </g>
     </g>
    </g>
    <g id="xtick_5">
     <g id="line2d_9">
      <path d="M 265.210643 170.335091 
L 265.210643 9.295111 
" clip-path="url(#p34e9f6d6d4)" style="fill: none; stroke: #b0b0b0; stroke-opacity: 0.3; stroke-width: 0.8; stroke-linecap: square"/>
     </g>
     <g id="line2d_10">
      <g>
       <use xlink:href="#mf66290b1fb" x="265.210643" y="170.335091" style="stroke: #000000; stroke-width: 0.8"/>
      </g>
     </g>
     <g id="text_5">
      <!-- 0.8 -->
      <g transform="translate(257.25908 184.933529) scale(0.1 -0.1)">
       <defs>
        <path id="DejaVuSans-38" d="M 2034 2216 
Q 1584 2216 1326 1975 
Q 1069 1734 1069 1313 
Q 1069 891 1326 650 
Q 1584 409 2034 409 
Q 2484 409 2743 651 
Q 3003 894 3003 1313 
Q 3003 1734 2745 1975 
Q 2488 2216 2034 2216 
z
M 1403 2484 
Q 997 2584 770 2862 
Q 544 3141 544 3541 
Q 544 4100 942 4425 
Q 1341 4750 2034 4750 
Q 2731 4750 3128 4425 
Q 3525 4100 3525 3541 
Q 3525 3141 3298 2862 
Q 3072 2584 2669 2484 
Q 3125 2378 3379 2068 
Q 3634 1759 3634 1313 
Q 3634 634 3220 271 
Q 2806 -91 2034 -91 
Q 1263 -91 848 271 
Q 434 634 434 1313 
Q 434 1759 690 2068 
Q 947 2378 1403 2484 
z
M 1172 3481 
Q 1172 3119 1398 2916 
Q 1625 2713 2034 2713 
Q 2441 2713 2670 2916 
Q 2900 3119 2900 3481 
Q 2900 3844 2670 4047 
Q 2441 4250 2034 4250 
Q 1625 4250 1398 4047 
Q 1172 3844 1172 3481 
z
" transform="scale(0.015625)"/>
       </defs>
       <use xlink:href="#DejaVuSans-30"/>
       <use xlink:href="#DejaVuSans-2e" x="63.623047"/>
       <use xlink:href="#DejaVuSans-38" x="95.410156"/>
      </g>
     </g>
    </g>
    <g id="text_6">
     <!-- q (Trajectory Completeness) -->
     <g transform="translate(87.210411 198.611654) scale(0.1 -0.1)">
      <defs>
       <path id="DejaVuSans-71" d="M 947 1747 
Q 947 1113 1208 752 
Q 1469 391 1925 391 
Q 2381 391 2643 752 
Q 2906 1113 2906 1747 
Q 2906 2381 2643 2742 
Q 2381 3103 1925 3103 
Q 1469 3103 1208 2742 
Q 947 2381 947 1747 
z
M 2906 525 
Q 2725 213 2448 61 
Q 2172 -91 1784 -91 
Q 1150 -91 751 415 
Q 353 922 353 1747 
Q 353 2572 751 3078 
Q 1150 3584 1784 3584 
Q 2172 3584 2448 3432 
Q 2725 3281 2906 2969 
L 2906 3500 
L 3481 3500 
L 3481 -1331 
L 2906 -1331 
L 2906 525 
z
" transform="scale(0.015625)"/>
       <path id="DejaVuSans-20" transform="scale(0.015625)"/>
       <path id="DejaVuSans-28" d="M 1984 4856 
Q 1566 4138 1362 3434 
Q 1159 2731 1159 2009 
Q 1159 1288 1364 580 
Q 1569 -128 1984 -844 
L 1484 -844 
Q 1016 -109 783 600 
Q 550 1309 550 2009 
Q 550 2706 781 3412 
Q 1013 4119 1484 4856 
L 1984 4856 
z
" transform="scale(0.015625)"/>
       <path id="DejaVuSans-54" d="M -19 4666 
L 3928 4666 
L 3928 4134 
L 2272 4134 
L 2272 0 
L 1638 0 
L 1638 4134 
L -19 4134 
L -19 4666 
z
" transform="scale(0.015625)"/>
       <path id="DejaVuSans-72" d="M 2631 2963 
Q 2534 3019 2420 3045 
Q 2306 3072 2169 3072 
Q 1681 3072 1420 2755 
Q 1159 2438 1159 1844 
L 1159 0 
L 581 0 
L 581 3500 
L 1159 3500 
L 1159 2956 
Q 1341 3275 1631 3429 
Q 1922 3584 2338 3584 
Q 2397 3584 2469 3576 
Q 2541 3569 2628 3553 
L 2631 2963 
z
" transform="scale(0.015625)"/>
       <path id="DejaVuSans-61" d="M 2194 1759 
Q 1497 1759 1228 1600 
Q 959 1441 959 1056 
Q 959 750 1161 570 
Q 1363 391 1709 391 
Q 2188 391 2477 730 
Q 2766 1069 2766 1631 
L 2766 1759 
L 2194 1759 
z
M 3341 1997 
L 3341 0 
L 2766 0 
L 2766 531 
Q 2569 213 2275 61 
Q 1981 -91 1556 -91 
Q 1019 -91 701 211 
Q 384 513 384 1019 
Q 384 1609 779 1909 
Q 1175 2209 1959 2209 
L 2766 2209 
L 2766 2266 
Q 2766 2663 2505 2880 
Q 2244 3097 1772 3097 
Q 1472 3097 1187 3025 
Q 903 2953 641 2809 
L 641 3341 
Q 956 3463 1253 3523 
Q 1550 3584 1831 3584 
Q 2591 3584 2966 3190 
Q 3341 2797 3341 1997 
z
" transform="scale(0.015625)"/>
       <path id="DejaVuSans-6a" d="M 603 3500 
L 1178 3500 
L 1178 -63 
Q 1178 -731 923 -1031 
Q 669 -1331 103 -1331 
L -116 -1331 
L -116 -844 
L 38 -844 
Q 366 -844 484 -692 
Q 603 -541 603 -63 
L 603 3500 
z
M 603 4863 
L 1178 4863 
L 1178 4134 
L 603 4134 
L 603 4863 
z
" transform="scale(0.015625)"/>
       <path id="DejaVuSans-65" d="M 3597 1894 
L 3597 1613 
L 953 1613 
Q 991 1019 1311 708 
Q 1631 397 2203 397 
Q 2534 397 2845 478 
Q 3156 559 3463 722 
L 3463 178 
Q 3153 47 2828 -22 
Q 2503 -91 2169 -91 
Q 1331 -91 842 396 
Q 353 884 353 1716 
Q 353 2575 817 3079 
Q 1281 3584 2069 3584 
Q 2775 3584 3186 3129 
Q 3597 2675 3597 1894 
z
M 3022 2063 
Q 3016 2534 2758 2815 
Q 2500 3097 2075 3097 
Q 1594 3097 1305 2825 
Q 1016 2553 972 2059 
L 3022 2063 
z
" transform="scale(0.015625)"/>
       <path id="DejaVuSans-63" d="M 3122 3366 
L 3122 2828 
Q 2878 2963 2633 3030 
Q 2388 3097 2138 3097 
Q 1578 3097 1268 2742 
Q 959 2388 959 1747 
Q 959 1106 1268 751 
Q 1578 397 2138 397 
Q 2388 397 2633 464 
Q 2878 531 3122 666 
L 3122 134 
Q 2881 22 2623 -34 
Q 2366 -91 2075 -91 
Q 1284 -91 818 406 
Q 353 903 353 1747 
Q 353 2603 823 3093 
Q 1294 3584 2113 3584 
Q 2378 3584 2631 3529 
Q 2884 3475 3122 3366 
z
" transform="scale(0.015625)"/>
       <path id="DejaVuSans-74" d="M 1172 4494 
L 1172 3500 
L 2356 3500 
L 2356 3053 
L 1172 3053 
L 1172 1153 
Q 1172 725 1289 603 
Q 1406 481 1766 481 
L 2356 481 
L 2356 0 
L 1766 0 
Q 1100 0 847 248 
Q 594 497 594 1153 
L 594 3053 
L 172 3053 
L 172 3500 
L 594 3500 
L 594 4494 
L 1172 4494 
z
" transform="scale(0.015625)"/>
       <path id="DejaVuSans-6f" d="M 1959 3097 
Q 1497 3097 1228 2736 
Q 959 2375 959 1747 
Q 959 1119 1226 758 
Q 1494 397 1959 397 
Q 2419 397 2687 759 
Q 2956 1122 2956 1747 
Q 2956 2369 2687 2733 
Q 2419 3097 1959 3097 
z
M 1959 3584 
Q 2709 3584 3137 3096 
Q 3566 2609 3566 1747 
Q 3566 888 3137 398 
Q 2709 -91 1959 -91 
Q 1206 -91 779 398 
Q 353 888 353 1747 
Q 353 2609 779 3096 
Q 1206 3584 1959 3584 
z
" transform="scale(0.015625)"/>
       <path id="DejaVuSans-79" d="M 2059 -325 
Q 1816 -950 1584 -1140 
Q 1353 -1331 966 -1331 
L 506 -1331 
L 506 -850 
L 844 -850 
Q 1081 -850 1212 -737 
Q 1344 -625 1503 -206 
L 1606 56 
L 191 3500 
L 800 3500 
L 1894 763 
L 2988 3500 
L 3597 3500 
L 2059 -325 
z
" transform="scale(0.015625)"/>
       <path id="DejaVuSans-43" d="M 4122 4306 
L 4122 3641 
Q 3803 3938 3442 4084 
Q 3081 4231 2675 4231 
Q 1875 4231 1450 3742 
Q 1025 3253 1025 2328 
Q 1025 1406 1450 917 
Q 1875 428 2675 428 
Q 3081 428 3442 575 
Q 3803 722 4122 1019 
L 4122 359 
Q 3791 134 3420 21 
Q 3050 -91 2638 -91 
Q 1578 -91 968 557 
Q 359 1206 359 2328 
Q 359 3453 968 4101 
Q 1578 4750 2638 4750 
Q 3056 4750 3426 4639 
Q 3797 4528 4122 4306 
z
" transform="scale(0.015625)"/>
       <path id="DejaVuSans-6d" d="M 3328 2828 
Q 3544 3216 3844 3400 
Q 4144 3584 4550 3584 
Q 5097 3584 5394 3201 
Q 5691 2819 5691 2113 
L 5691 0 
L 5113 0 
L 5113 2094 
Q 5113 2597 4934 2840 
Q 4756 3084 4391 3084 
Q 3944 3084 3684 2787 
Q 3425 2491 3425 1978 
L 3425 0 
L 2847 0 
L 2847 2094 
Q 2847 2600 2669 2842 
Q 2491 3084 2119 3084 
Q 1678 3084 1418 2786 
Q 1159 2488 1159 1978 
L 1159 0 
L 581 0 
L 581 3500 
L 1159 3500 
L 1159 2956 
Q 1356 3278 1631 3431 
Q 1906 3584 2284 3584 
Q 2666 3584 2933 3390 
Q 3200 3197 3328 2828 
z
" transform="scale(0.015625)"/>
       <path id="DejaVuSans-70" d="M 1159 525 
L 1159 -1331 
L 581 -1331 
L 581 3500 
L 1159 3500 
L 1159 2969 
Q 1341 3281 1617 3432 
Q 1894 3584 2278 3584 
Q 2916 3584 3314 3078 
Q 3713 2572 3713 1747 
Q 3713 922 3314 415 
Q 2916 -91 2278 -91 
Q 1894 -91 1617 61 
Q 1341 213 1159 525 
z
M 3116 1747 
Q 3116 2381 2855 2742 
Q 2594 3103 2138 3103 
Q 1681 3103 1420 2742 
Q 1159 2381 1159 1747 
Q 1159 1113 1420 752 
Q 1681 391 2138 391 
Q 2594 391 2855 752 
Q 3116 1113 3116 1747 
z
" transform="scale(0.015625)"/>
       <path id="DejaVuSans-6c" d="M 603 4863 
L 1178 4863 
L 1178 0 
L 603 0 
L 603 4863 
z
" transform="scale(0.015625)"/>
       <path id="DejaVuSans-6e" d="M 3513 2113 
L 3513 0 
L 2938 0 
L 2938 2094 
Q 2938 2591 2744 2837 
Q 2550 3084 2163 3084 
Q 1697 3084 1428 2787 
Q 1159 2491 1159 1978 
L 1159 0 
L 581 0 
L 581 3500 
L 1159 3500 
L 1159 2956 
Q 1366 3272 1645 3428 
Q 1925 3584 2291 3584 
Q 2894 3584 3203 3211 
Q 3513 2838 3513 2113 
z
" transform="scale(0.015625)"/>
       <path id="DejaVuSans-73" d="M 2834 3397 
L 2834 2853 
Q 2591 2978 2328 3040 
Q 2066 3103 1784 3103 
Q 1356 3103 1142 2972 
Q 928 2841 928 2578 
Q 928 2378 1081 2264 
Q 1234 2150 1697 2047 
L 1894 2003 
Q 2506 1872 2764 1633 
Q 3022 1394 3022 966 
Q 3022 478 2636 193 
Q 2250 -91 1575 -91 
Q 1294 -91 989 -36 
Q 684 19 347 128 
L 347 722 
Q 666 556 975 473 
Q 1284 391 1588 391 
Q 1994 391 2212 530 
Q 2431 669 2431 922 
Q 2431 1156 2273 1281 
Q 2116 1406 1581 1522 
L 1381 1569 
Q 847 1681 609 1914 
Q 372 2147 372 2553 
Q 372 3047 722 3315 
Q 1072 3584 1716 3584 
Q 2034 3584 2315 3537 
Q 2597 3491 2834 3397 
z
" transform="scale(0.015625)"/>
       <path id="DejaVuSans-29" d="M 513 4856 
L 1013 4856 
Q 1481 4119 1714 3412 
Q 1947 2706 1947 2009 
Q 1947 1309 1714 600 
Q 1481 -109 1013 -844 
L 513 -844 
Q 928 -128 1133 580 
Q 1338 1288 1338 2009 
Q 1338 2731 1133 3434 
Q 928 4138 513 4856 
z
" transform="scale(0.015625)"/>
      </defs>
      <use xlink:href="#DejaVuSans-71"/>
      <use xlink:href="#DejaVuSans-20" x="63.476562"/>
      <use xlink:href="#DejaVuSans-28" x="95.263672"/>
      <use xlink:href="#DejaVuSans-54" x="134.277344"/>
      <use xlink:href="#DejaVuSans-72" x="180.611328"/>
      <use xlink:href="#DejaVuSans-61" x="221.724609"/>
      <use xlink:href="#DejaVuSans-6a" x="283.003906"/>
      <use xlink:href="#DejaVuSans-65" x="310.787109"/>
      <use xlink:href="#DejaVuSans-63" x="372.310547"/>
      <use xlink:href="#DejaVuSans-74" x="427.291016"/>
      <use xlink:href="#DejaVuSans-6f" x="466.5"/>
      <use xlink:href="#DejaVuSans-72" x="527.681641"/>
      <use xlink:href="#DejaVuSans-79" x="568.794922"/>
      <use xlink:href="#DejaVuSans-20" x="627.974609"/>
      <use xlink:href="#DejaVuSans-43" x="659.761719"/>
      <use xlink:href="#DejaVuSans-6f" x="729.585938"/>
      <use xlink:href="#DejaVuSans-6d" x="790.767578"/>
      <use xlink:href="#DejaVuSans-70" x="888.179688"/>
      <use xlink:href="#DejaVuSans-6c" x="951.65625"/>
      <use xlink:href="#DejaVuSans-65" x="979.439453"/>
      <use xlink:href="#DejaVuSans-74" x="1040.962891"/>
      <use xlink:href="#DejaVuSans-65" x="1080.171875"/>
      <use xlink:href="#DejaVuSans-6e" x="1141.695312"/>
      <use xlink:href="#DejaVuSans-65" x="1205.074219"/>
      <use xlink:href="#DejaVuSans-73" x="1266.597656"/>
      <use xlink:href="#DejaVuSans-73" x="1318.697266"/>
      <use xlink:href="#DejaVuSans-29" x="1370.796875"/>
     </g>
    </g>
   </g>
   <g id="matplotlib.axis_2">
    <g id="ytick_1">
     <g id="line2d_11">
      <path d="M 43.78125 170.335091 
L 271.622384 170.335091 
" clip-path="url(#p34e9f6d6d4)" style="fill: none; stroke: #b0b0b0; stroke-opacity: 0.3; stroke-width: 0.8; stroke-linecap: square"/>
     </g>
     <g id="line2d_12">
      <defs>
       <path id="mef6e91b36e" d="M 0 0 
L -3.5 0 
" style="stroke: #000000; stroke-width: 0.8"/>
      </defs>
      <g>
       <use xlink:href="#mef6e91b36e" x="43.78125" y="170.335091" style="stroke: #000000; stroke-width: 0.8"/>
      </g>
     </g>
     <g id="text_7">
      <!-- 0.0 -->
      <g transform="translate(20.878125 174.13431) scale(0.1 -0.1)">
       <use xlink:href="#DejaVuSans-30"/>
       <use xlink:href="#DejaVuSans-2e" x="63.623047"/>
       <use xlink:href="#DejaVuSans-30" x="95.410156"/>
      </g>
     </g>
    </g>
    <g id="ytick_2">
     <g id="line2d_13">
      <path d="M 43.78125 143.779113 
L 271.622384 143.779113 
" clip-path="url(#p34e9f6d6d4)" style="fill: none; stroke: #b0b0b0; stroke-opacity: 0.3; stroke-width: 0.8; stroke-linecap: square"/>
     </g>
     <g id="line2d_14">
      <g>
       <use xlink:href="#mef6e91b36e" x="43.78125" y="143.779113" style="stroke: #000000; stroke-width: 0.8"/>
      </g>
     </g>
     <g id="text_8">
      <!-- 0.5 -->
      <g transform="translate(20.878125 147.578331) scale(0.1 -0.1)">
       <defs>
        <path id="DejaVuSans-35" d="M 691 4666 
L 3169 4666 
L 3169 4134 
L 1269 4134 
L 1269 2991 
Q 1406 3038 1543 3061 
Q 1681 3084 1819 3084 
Q 2600 3084 3056 2656 
Q 3513 2228 3513 1497 
Q 3513 744 3044 326 
Q 2575 -91 1722 -91 
Q 1428 -91 1123 -41 
Q 819 9 494 109 
L 494 744 
Q 775 591 1075 516 
Q 1375 441 1709 441 
Q 2250 441 2565 725 
Q 2881 1009 2881 1497 
Q 2881 1984 2565 2268 
Q 2250 2553 1709 2553 
Q 1456 2553 1204 2497 
Q 953 2441 691 2322 
L 691 4666 
z
" transform="scale(0.015625)"/>
       </defs>
       <use xlink:href="#DejaVuSans-30"/>
       <use xlink:href="#DejaVuSans-2e" x="63.623047"/>
       <use xlink:href="#DejaVuSans-35" x="95.410156"/>
      </g>
     </g>
    </g>
    <g id="ytick_3">
     <g id="line2d_15">
      <path d="M 43.78125 117.223134 
L 271.622384 117.223134 
" clip-path="url(#p34e9f6d6d4)" style="fill: none; stroke: #b0b0b0; stroke-opacity: 0.3; stroke-width: 0.8; stroke-linecap: square"/>
     </g>
     <g id="line2d_16">
      <g>
       <use xlink:href="#mef6e91b36e" x="43.78125" y="117.223134" style="stroke: #000000; stroke-width: 0.8"/>
      </g>
     </g>
     <g id="text_9">
      <!-- 1.0 -->
      <g transform="translate(20.878125 121.022353) scale(0.1 -0.1)">
       <defs>
        <path id="DejaVuSans-31" d="M 794 531 
L 1825 531 
L 1825 4091 
L 703 3866 
L 703 4441 
L 1819 4666 
L 2450 4666 
L 2450 531 
L 3481 531 
L 3481 0 
L 794 0 
L 794 531 
z
" transform="scale(0.015625)"/>
       </defs>
       <use xlink:href="#DejaVuSans-31"/>
       <use xlink:href="#DejaVuSans-2e" x="63.623047"/>
       <use xlink:href="#DejaVuSans-30" x="95.410156"/>
      </g>
     </g>
    </g>
    <g id="ytick_4">
     <g id="line2d_17">
      <path d="M 43.78125 90.667155 
L 271.622384 90.667155 
" clip-path="url(#p34e9f6d6d4)" style="fill: none; stroke: #b0b0b0; stroke-opacity: 0.3; stroke-width: 0.8; stroke-linecap: square"/>
     </g>
     <g id="line2d_18">
      <g>
       <use xlink:href="#mef6e91b36e" x="43.78125" y="90.667155" style="stroke: #000000; stroke-width: 0.8"/>
      </g>
     </g>
     <g id="text_10">
      <!-- 1.5 -->
      <g transform="translate(20.878125 94.466374) scale(0.1 -0.1)">
       <use xlink:href="#DejaVuSans-31"/>
       <use xlink:href="#DejaVuSans-2e" x="63.623047"/>
       <use xlink:href="#DejaVuSans-35" x="95.410156"/>
      </g>
     </g>
    </g>
    <g id="ytick_5">
     <g id="line2d_19">
      <path d="M 43.78125 64.111176 
L 271.622384 64.111176 
" clip-path="url(#p34e9f6d6d4)" style="fill: none; stroke: #b0b0b0; stroke-opacity: 0.3; stroke-width: 0.8; stroke-linecap: square"/>
     </g>
     <g id="line2d_20">
      <g>
       <use xlink:href="#mef6e91b36e" x="43.78125" y="64.111176" style="stroke: #000000; stroke-width: 0.8"/>
      </g>
     </g>
     <g id="text_11">
      <!-- 2.0 -->
      <g transform="translate(20.878125 67.910395) scale(0.1 -0.1)">
       <use xlink:href="#DejaVuSans-32"/>
       <use xlink:href="#DejaVuSans-2e" x="63.623047"/>
       <use xlink:href="#DejaVuSans-30" x="95.410156"/>
      </g>
     </g>
    </g>
    <g id="ytick_6">
     <g id="line2d_21">
      <path d="M 43.78125 37.555198 
L 271.622384 37.555198 
" clip-path="url(#p34e9f6d6d4)" style="fill: none; stroke: #b0b0b0; stroke-opacity: 0.3; stroke-width: 0.8; stroke-linecap: square"/>
     </g>
     <g id="line2d_22">
      <g>
       <use xlink:href="#mef6e91b36e" x="43.78125" y="37.555198" style="stroke: #000000; stroke-width: 0.8"/>
      </g>
     </g>
     <g id="text_12">
      <!-- 2.5 -->
      <g transform="translate(20.878125 41.354416) scale(0.1 -0.1)">
       <use xlink:href="#DejaVuSans-32"/>
       <use xlink:href="#DejaVuSans-2e" x="63.623047"/>
       <use xlink:href="#DejaVuSans-35" x="95.410156"/>
      </g>
     </g>
    </g>
    <g id="ytick_7">
     <g id="line2d_23">
      <path d="M 43.78125 10.999219 
L 271.622384 10.999219 
" clip-path="url(#p34e9f6d6d4)" style="fill: none; stroke: #b0b0b0; stroke-opacity: 0.3; stroke-width: 0.8; stroke-linecap: square"/>
     </g>
     <g id="line2d_24">
      <g>
       <use xlink:href="#mef6e91b36e" x="43.78125" y="10.999219" style="stroke: #000000; stroke-width: 0.8"/>
      </g>
     </g>
     <g id="text_13">
      <!-- 3.0 -->
      <g transform="translate(20.878125 14.798438) scale(0.1 -0.1)">
       <defs>
        <path id="DejaVuSans-33" d="M 2597 2516 
Q 3050 2419 3304 2112 
Q 3559 1806 3559 1356 
Q 3559 666 3084 287 
Q 2609 -91 1734 -91 
Q 1441 -91 1130 -33 
Q 819 25 488 141 
L 488 750 
Q 750 597 1062 519 
Q 1375 441 1716 441 
Q 2309 441 2620 675 
Q 2931 909 2931 1356 
Q 2931 1769 2642 2001 
Q 2353 2234 1838 2234 
L 1294 2234 
L 1294 2753 
L 1863 2753 
Q 2328 2753 2575 2939 
Q 2822 3125 2822 3475 
Q 2822 3834 2567 4026 
Q 2313 4219 1838 4219 
Q 1578 4219 1281 4162 
Q 984 4106 628 3988 
L 628 4550 
Q 988 4650 1302 4700 
Q 1616 4750 1894 4750 
Q 2613 4750 3031 4423 
Q 3450 4097 3450 3541 
Q 3450 3153 3228 2886 
Q 3006 2619 2597 2516 
z
" transform="scale(0.015625)"/>
       </defs>
       <use xlink:href="#DejaVuSans-33"/>
       <use xlink:href="#DejaVuSans-2e" x="63.623047"/>
       <use xlink:href="#DejaVuSans-30" x="95.410156"/>
      </g>
     </g>
    </g>
    <g id="text_14">
     <!-- Density -->
     <g transform="translate(14.798438 108.823695) rotate(-90) scale(0.1 -0.1)">
      <defs>
       <path id="DejaVuSans-44" d="M 1259 4147 
L 1259 519 
L 2022 519 
Q 2988 519 3436 956 
Q 3884 1394 3884 2338 
Q 3884 3275 3436 3711 
Q 2988 4147 2022 4147 
L 1259 4147 
z
M 628 4666 
L 1925 4666 
Q 3281 4666 3915 4102 
Q 4550 3538 4550 2338 
Q 4550 1131 3912 565 
Q 3275 0 1925 0 
L 628 0 
L 628 4666 
z
" transform="scale(0.015625)"/>
       <path id="DejaVuSans-69" d="M 603 3500 
L 1178 3500 
L 1178 0 
L 603 0 
L 603 3500 
z
M 603 4863 
L 1178 4863 
L 1178 4134 
L 603 4134 
L 603 4863 
z
" transform="scale(0.015625)"/>
      </defs>
      <use xlink:href="#DejaVuSans-44"/>
      <use xlink:href="#DejaVuSans-65" x="77.001953"/>
      <use xlink:href="#DejaVuSans-6e" x="138.525391"/>
      <use xlink:href="#DejaVuSans-73" x="201.904297"/>
      <use xlink:href="#DejaVuSans-69" x="254.003906"/>
      <use xlink:href="#DejaVuSans-74" x="281.787109"/>
      <use xlink:href="#DejaVuSans-79" x="320.996094"/>
     </g>
    </g>
   </g>
   <g id="patch_3">
    <path d="M 43.78125 170.335091 
L 43.78125 9.295111 
" style="fill: none; stroke: #000000; stroke-width: 0.8; stroke-linejoin: miter; stroke-linecap: square"/>
   </g>
   <g id="patch_4">
    <path d="M 43.78125 170.335091 
L 271.622384 170.335091 
" style="fill: none; stroke: #000000; stroke-width: 0.8; stroke-linejoin: miter; stroke-linecap: square"/>
   </g>
   <g id="text_15">
    <!-- N = 200 -->
    <g transform="translate(232.169753 24.185703) scale(0.09 -0.09)">
     <defs>
      <path id="DejaVuSans-4e" d="M 628 4666 
L 1478 4666 
L 3547 763 
L 3547 4666 
L 4159 4666 
L 4159 0 
L 3309 0 
L 1241 3903 
L 1241 0 
L 628 0 
L 628 4666 
z
" transform="scale(0.015625)"/>
      <path id="DejaVuSans-3d" d="M 678 2906 
L 4684 2906 
L 4684 2381 
L 678 2381 
L 678 2906 
z
M 678 1631 
L 4684 1631 
L 4684 1100 
L 678 1100 
L 678 1631 
z
" transform="scale(0.015625)"/>
     </defs>
     <use xlink:href="#DejaVuSans-4e"/>
     <use xlink:href="#DejaVuSans-20" x="74.804688"/>
     <use xlink:href="#DejaVuSans-3d" x="106.591797"/>
     <use xlink:href="#DejaVuSans-20" x="190.380859"/>
     <use xlink:href="#DejaVuSans-32" x="222.167969"/>
     <use xlink:href="#DejaVuSans-30" x="285.791016"/>
     <use xlink:href="#DejaVuSans-30" x="349.414062"/>
    </g>
   </g>
  </g>
 </g>
 <defs>
  <clipPath id="p34e9f6d6d4">
   <rect x="43.78125" y="9.295111" width="227.841134" height="161.039981"/>
  </clipPath>
 </defs>
</svg>
