<?xml version="1.0" encoding="utf-8" standalone="no"?>
<!DOCTYPE svg PUBLIC "-//W3C//DTD SVG 1.1//EN"
  "http://www.w3.org/Graphics/SVG/1.1/DTD/svg11.dtd">
<svg xmlns:xlink="http://www.w3.org/1999/xlink" width="280.370625pt" height="207.99625pt" viewBox="0 0 280.370625 207.99625" xmlns="http://www.w3.org/2000/svg" version="1.1">
 <metadata>
  <rdf:RDF xmlns:dc="http://purl.org/dc/elements/1.1/" xmlns:cc="http://creativecommons.org/ns#" xmlns:rdf="http://www.w3.org/1999/02/22-rdf-syntax-ns#">
   <cc:Work>
    <dc:type rdf:resource="http://purl.org/dc/dcmitype/StillImage"/>
    <dc:date>2025-07-04T01:42:58.582958</dc:date>
    <dc:format>image/svg+xml</dc:format>
    <dc:creator>
     <cc:Agent>
      <dc:title>Matplotlib v3.9.2, https://matplotlib.org/</dc:title>
     </cc:Agent>
    </dc:creator>
   </cc:Work>
  </rdf:RDF>
 </metadata>
 <defs>
  <style type="text/css">*{stroke-linejoin: round; stroke-linecap: butt}</style>
 </defs>
 <g id="figure_1">
  <g id="patch_1">
   <path d="M 0 207.99625 
L 280.370625 207.99625 
L 280.370625 0 
L 0 0 
z
" style="fill: #ffffff"/>
  </g>
  <g id="axes_1">
   <g id="patch_2">
    <path d="M 34.240625 170.44 
L 273.170625 170.44 
L 273.170625 7.2 
L 34.240625 7.2 
z
" style="fill: #ffffff"/>
   </g>
   <g id="PolyCollection_1">
    <defs>
     <path id="m09d9c614d6" d="M 45.10108 -37.629041 
L 45.10108 -37.55625 
L 46.192583 -37.55625 
L 47.284085 -37.55625 
L 48.375588 -37.55625 
L 49.467091 -37.55625 
L 50.558594 -37.55625 
L 51.650097 -37.55625 
L 52.7416 -37.55625 
L 53.833103 -37.55625 
L 54.924606 -37.55625 
L 56.016109 -37.55625 
L 57.107612 -37.55625 
L 58.199115 -37.55625 
L 59.290618 -37.55625 
L 60.382121 -37.55625 
L 61.473624 -37.55625 
L 62.565127 -37.55625 
L 63.65663 -37.55625 
L 64.748133 -37.55625 
L 65.839636 -37.55625 
L 66.931139 -37.55625 
L 68.022642 -37.55625 
L 69.114145 -37.55625 
L 70.205648 -37.55625 
L 71.297151 -37.55625 
L 72.388654 -37.55625 
L 73.480157 -37.55625 
L 74.57166 -37.55625 
L 75.663163 -37.55625 
L 76.754666 -37.55625 
L 77.846169 -37.55625 
L 78.937672 -37.55625 
L 80.029175 -37.55625 
L 81.120678 -37.55625 
L 82.212181 -37.55625 
L 83.303683 -37.55625 
L 84.395186 -37.55625 
L 85.486689 -37.55625 
L 86.578192 -37.55625 
L 87.669695 -37.55625 
L 88.761198 -37.55625 
L 89.852701 -37.55625 
L 90.944204 -37.55625 
L 92.035707 -37.55625 
L 93.12721 -37.55625 
L 94.218713 -37.55625 
L 95.310216 -37.55625 
L 96.401719 -37.55625 
L 97.493222 -37.55625 
L 98.584725 -37.55625 
L 99.676228 -37.55625 
L 100.767731 -37.55625 
L 101.859234 -37.55625 
L 102.950737 -37.55625 
L 104.04224 -37.55625 
L 105.133743 -37.55625 
L 106.225246 -37.55625 
L 107.316749 -37.55625 
L 108.408252 -37.55625 
L 109.499755 -37.55625 
L 110.591258 -37.55625 
L 111.682761 -37.55625 
L 112.774264 -37.55625 
L 113.865767 -37.55625 
L 114.95727 -37.55625 
L 116.048773 -37.55625 
L 117.140276 -37.55625 
L 118.231778 -37.55625 
L 119.323281 -37.55625 
L 120.414784 -37.55625 
L 121.506287 -37.55625 
L 122.59779 -37.55625 
L 123.689293 -37.55625 
L 124.780796 -37.55625 
L 125.872299 -37.55625 
L 126.963802 -37.55625 
L 128.055305 -37.55625 
L 129.146808 -37.55625 
L 130.238311 -37.55625 
L 131.329814 -37.55625 
L 132.421317 -37.55625 
L 133.51282 -37.55625 
L 134.604323 -37.55625 
L 135.695826 -37.55625 
L 136.787329 -37.55625 
L 137.878832 -37.55625 
L 138.970335 -37.55625 
L 140.061838 -37.55625 
L 141.153341 -37.55625 
L 142.244844 -37.55625 
L 143.336347 -37.55625 
L 144.42785 -37.55625 
L 145.519353 -37.55625 
L 146.610856 -37.55625 
L 147.702359 -37.55625 
L 148.793862 -37.55625 
L 149.885365 -37.55625 
L 150.976868 -37.55625 
L 152.068371 -37.55625 
L 153.159874 -37.55625 
L 154.251376 -37.55625 
L 155.342879 -37.55625 
L 156.434382 -37.55625 
L 157.525885 -37.55625 
L 158.617388 -37.55625 
L 159.708891 -37.55625 
L 160.800394 -37.55625 
L 161.891897 -37.55625 
L 162.9834 -37.55625 
L 164.074903 -37.55625 
L 165.166406 -37.55625 
L 166.257909 -37.55625 
L 167.349412 -37.55625 
L 168.440915 -37.55625 
L 169.532418 -37.55625 
L 170.623921 -37.55625 
L 171.715424 -37.55625 
L 172.806927 -37.55625 
L 173.89843 -37.55625 
L 174.989933 -37.55625 
L 176.081436 -37.55625 
L 177.172939 -37.55625 
L 178.264442 -37.55625 
L 179.355945 -37.55625 
L 180.447448 -37.55625 
L 181.538951 -37.55625 
L 182.630454 -37.55625 
L 183.721957 -37.55625 
L 184.81346 -37.55625 
L 185.904963 -37.55625 
L 186.996466 -37.55625 
L 188.087969 -37.55625 
L 189.179472 -37.55625 
L 190.270974 -37.55625 
L 191.362477 -37.55625 
L 192.45398 -37.55625 
L 193.545483 -37.55625 
L 194.636986 -37.55625 
L 195.728489 -37.55625 
L 196.819992 -37.55625 
L 197.911495 -37.55625 
L 199.002998 -37.55625 
L 200.094501 -37.55625 
L 201.186004 -37.55625 
L 202.277507 -37.55625 
L 203.36901 -37.55625 
L 204.460513 -37.55625 
L 205.552016 -37.55625 
L 206.643519 -37.55625 
L 207.735022 -37.55625 
L 208.826525 -37.55625 
L 209.918028 -37.55625 
L 211.009531 -37.55625 
L 212.101034 -37.55625 
L 213.192537 -37.55625 
L 214.28404 -37.55625 
L 215.375543 -37.55625 
L 216.467046 -37.55625 
L 217.558549 -37.55625 
L 218.650052 -37.55625 
L 219.741555 -37.55625 
L 220.833058 -37.55625 
L 221.924561 -37.55625 
L 223.016064 -37.55625 
L 224.107567 -37.55625 
L 225.199069 -37.55625 
L 226.290572 -37.55625 
L 227.382075 -37.55625 
L 228.473578 -37.55625 
L 229.565081 -37.55625 
L 230.656584 -37.55625 
L 231.748087 -37.55625 
L 232.83959 -37.55625 
L 233.931093 -37.55625 
L 235.022596 -37.55625 
L 236.114099 -37.55625 
L 237.205602 -37.55625 
L 238.297105 -37.55625 
L 239.388608 -37.55625 
L 240.480111 -37.55625 
L 241.571614 -37.55625 
L 242.663117 -37.55625 
L 243.75462 -37.55625 
L 244.846123 -37.55625 
L 245.937626 -37.55625 
L 247.029129 -37.55625 
L 248.120632 -37.55625 
L 249.212135 -37.55625 
L 250.303638 -37.55625 
L 251.395141 -37.55625 
L 252.486644 -37.55625 
L 253.578147 -37.55625 
L 254.66965 -37.55625 
L 255.761153 -37.55625 
L 256.852656 -37.55625 
L 257.944159 -37.55625 
L 259.035662 -37.55625 
L 260.127165 -37.55625 
L 261.218667 -37.55625 
L 262.31017 -37.55625 
L 262.31017 -37.629011 
L 262.31017 -37.629011 
L 261.218667 -37.751176 
L 260.127165 -38.018652 
L 259.035662 -38.527536 
L 257.944159 -39.36281 
L 256.852656 -40.53158 
L 255.761153 -41.895304 
L 254.66965 -43.159404 
L 253.578147 -43.963143 
L 252.486644 -44.043189 
L 251.395141 -43.372059 
L 250.303638 -42.173266 
L 249.212135 -40.802005 
L 248.120632 -39.577569 
L 247.029129 -38.674404 
L 245.937626 -38.116572 
L 244.846123 -37.844899 
L 243.75462 -37.798248 
L 242.663117 -37.969434 
L 241.571614 -38.423641 
L 240.480111 -39.277679 
L 239.388608 -40.639957 
L 238.297105 -42.52403 
L 237.205602 -44.775462 
L 236.114099 -47.06727 
L 235.022596 -48.994855 
L 233.931093 -50.240235 
L 232.83959 -50.719924 
L 231.748087 -50.628222 
L 230.656584 -50.348609 
L 229.565081 -50.28993 
L 228.473578 -50.744251 
L 227.382075 -51.82266 
L 226.290572 -53.446502 
L 225.199069 -55.346208 
L 224.107567 -57.078543 
L 223.016064 -58.129746 
L 221.924561 -58.124406 
L 220.833058 -57.035121 
L 219.741555 -55.229288 
L 218.650052 -53.287733 
L 217.558549 -51.706117 
L 216.467046 -50.676188 
L 215.375543 -50.065109 
L 214.28404 -49.559098 
L 213.192537 -48.856373 
L 212.101034 -47.821647 
L 211.009531 -46.57115 
L 209.918028 -45.474487 
L 208.826525 -45.058409 
L 207.735022 -45.826916 
L 206.643519 -48.064398 
L 205.552016 -51.710326 
L 204.460513 -56.356275 
L 203.36901 -61.345936 
L 202.277507 -65.914643 
L 201.186004 -69.324025 
L 200.094501 -71.000223 
L 199.002998 -70.691279 
L 197.911495 -68.589703 
L 196.819992 -65.30621 
L 195.728489 -61.643061 
L 194.636986 -58.276797 
L 193.545483 -55.555654 
L 192.45398 -53.533398 
L 191.362477 -52.174567 
L 190.270974 -51.55055 
L 189.179472 -51.886275 
L 188.087969 -53.448958 
L 186.996466 -56.374492 
L 185.904963 -60.545372 
L 184.81346 -65.588245 
L 183.721957 -70.988928 
L 182.630454 -76.249098 
L 181.538951 -80.972283 
L 180.447448 -84.830507 
L 179.355945 -87.505934 
L 178.264442 -88.765343 
L 177.172939 -88.687001 
L 176.081436 -87.839598 
L 174.989933 -87.172683 
L 173.89843 -87.598737 
L 172.806927 -89.524493 
L 171.715424 -92.670076 
L 170.623921 -96.33547 
L 169.532418 -99.960468 
L 168.440915 -103.578974 
L 167.349412 -107.783655 
L 166.257909 -113.154191 
L 165.166406 -119.561926 
L 164.074903 -125.953034 
L 162.9834 -130.882573 
L 161.891897 -133.429941 
L 160.800394 -133.741517 
L 159.708891 -132.732502 
L 158.617388 -131.226391 
L 157.525885 -129.314081 
L 156.434382 -126.480371 
L 155.342879 -122.318785 
L 154.251376 -117.158594 
L 153.159874 -112.091418 
L 152.068371 -108.453879 
L 150.976868 -107.21587 
L 149.885365 -108.649137 
L 148.793862 -112.314713 
L 147.702359 -117.205764 
L 146.610856 -121.968624 
L 145.519353 -125.2881 
L 144.42785 -126.467889 
L 143.336347 -125.957468 
L 142.244844 -125.393152 
L 141.153341 -126.918055 
L 140.061838 -132.036764 
L 138.970335 -140.654838 
L 137.878832 -150.918202 
L 136.787329 -160.001251 
L 135.695826 -165.410878 
L 134.604323 -166.080193 
L 133.51282 -162.715195 
L 132.421317 -157.351682 
L 131.329814 -152.480292 
L 130.238311 -150.166213 
L 129.146808 -151.441677 
L 128.055305 -156.116929 
L 126.963802 -163.059964 
L 125.872299 -170.808395 
L 124.780796 -178.157425 
L 123.689293 -184.385436 
L 122.59779 -189.107223 
L 121.506287 -192.053807 
L 120.414784 -193.022917 
L 119.323281 -191.939898 
L 118.231778 -188.839014 
L 117.140276 -183.769188 
L 116.048773 -176.824566 
L 114.95727 -168.371195 
L 113.865767 -159.227467 
L 112.774264 -150.496517 
L 111.682761 -143.088041 
L 110.591258 -137.329472 
L 109.499755 -133.008879 
L 108.408252 -129.760085 
L 107.316749 -127.378068 
L 106.225246 -125.776683 
L 105.133743 -124.69471 
L 104.04224 -123.494601 
L 102.950737 -121.289845 
L 101.859234 -117.345824 
L 100.767731 -111.490727 
L 99.676228 -104.276096 
L 98.584725 -96.798517 
L 97.493222 -90.298092 
L 96.401719 -85.750116 
L 95.310216 -83.622119 
L 94.218713 -83.848254 
L 93.12721 -85.968979 
L 92.035707 -89.328246 
L 90.944204 -93.216216 
L 89.852701 -96.914862 
L 88.761198 -99.723506 
L 87.669695 -101.081904 
L 86.578192 -100.772761 
L 85.486689 -99.00453 
L 84.395186 -96.209213 
L 83.303683 -92.67237 
L 82.212181 -88.334501 
L 81.120678 -82.971358 
L 80.029175 -76.588437 
L 78.937672 -69.656314 
L 77.846169 -62.979108 
L 76.754666 -57.319826 
L 75.663163 -53.06817 
L 74.57166 -50.143031 
L 73.480157 -48.137246 
L 72.388654 -46.59036 
L 71.297151 -45.238432 
L 70.205648 -44.115285 
L 69.114145 -43.462597 
L 68.022642 -43.518201 
L 66.931139 -44.321191 
L 65.839636 -45.647737 
L 64.748133 -47.096491 
L 63.65663 -48.252268 
L 62.565127 -48.832786 
L 61.473624 -48.764661 
L 60.382121 -48.184794 
L 59.290618 -47.375324 
L 58.199115 -46.636247 
L 57.107612 -46.130731 
L 56.016109 -45.791273 
L 54.924606 -45.369414 
L 53.833103 -44.612678 
L 52.7416 -43.442823 
L 51.650097 -42.005267 
L 50.558594 -40.569464 
L 49.467091 -39.374389 
L 48.375588 -38.530674 
L 47.284085 -38.019405 
L 46.192583 -37.751336 
L 45.10108 -37.629041 
z
" style="stroke: #1f77b4; stroke-width: 1.5"/>
    </defs>
    <g clip-path="url(#p4313d94118)">
     <use xlink:href="#m09d9c614d6" x="0" y="207.99625" style="fill: #1f77b4; fill-opacity: 0.25; stroke: #1f77b4; stroke-width: 1.5"/>
    </g>
   </g>
   <g id="matplotlib.axis_1">
    <g id="xtick_1">
     <g id="line2d_1">
      <path d="M 59.936019 170.44 
L 59.936019 7.2 
" clip-path="url(#p4313d94118)" style="fill: none; stroke: #b0b0b0; stroke-opacity: 0.3; stroke-width: 0.8; stroke-linecap: square"/>
     </g>
     <g id="line2d_2">
      <defs>
       <path id="m49b71bfc9a" d="M 0 0 
L 0 3.5 
" style="stroke: #000000; stroke-width: 0.8"/>
      </defs>
      <g>
       <use xlink:href="#m49b71bfc9a" x="59.936019" y="170.44" style="stroke: #000000; stroke-width: 0.8"/>
      </g>
     </g>
     <g id="text_1">
      <!-- 0.2 -->
      <g transform="translate(51.984456 185.038437) scale(0.1 -0.1)">
       <defs>
        <path id="DejaVuSans-30" d="M 2034 4250 
Q 1547 4250 1301 3770 
Q 1056 3291 1056 2328 
Q 1056 1369 1301 889 
Q 1547 409 2034 409 
Q 2525 409 2770 889 
Q 3016 1369 3016 2328 
Q 3016 3291 2770 3770 
Q 2525 4250 2034 4250 
z
M 2034 4750 
Q 2819 4750 3233 4129 
Q 3647 3509 3647 2328 
Q 3647 1150 3233 529 
Q 2819 -91 2034 -91 
Q 1250 -91 836 529 
Q 422 1150 422 2328 
Q 422 3509 836 4129 
Q 1250 4750 2034 4750 
z
" transform="scale(0.015625)"/>
        <path id="DejaVuSans-2e" d="M 684 794 
L 1344 794 
L 1344 0 
L 684 0 
L 684 794 
z
" transform="scale(0.015625)"/>
        <path id="DejaVuSans-32" d="M 1228 531 
L 3431 531 
L 3431 0 
L 469 0 
L 469 531 
Q 828 903 1448 1529 
Q 2069 2156 2228 2338 
Q 2531 2678 2651 2914 
Q 2772 3150 2772 3378 
Q 2772 3750 2511 3984 
Q 2250 4219 1831 4219 
Q 1534 4219 1204 4116 
Q 875 4013 500 3803 
L 500 4441 
Q 881 4594 1212 4672 
Q 1544 4750 1819 4750 
Q 2544 4750 2975 4387 
Q 3406 4025 3406 3419 
Q 3406 3131 3298 2873 
Q 3191 2616 2906 2266 
Q 2828 2175 2409 1742 
Q 1991 1309 1228 531 
z
" transform="scale(0.015625)"/>
       </defs>
       <use xlink:href="#DejaVuSans-30"/>
       <use xlink:href="#DejaVuSans-2e" x="63.623047"/>
       <use xlink:href="#DejaVuSans-32" x="95.410156"/>
      </g>
     </g>
    </g>
    <g id="xtick_2">
     <g id="line2d_3">
      <path d="M 115.829924 170.44 
L 115.829924 7.2 
" clip-path="url(#p4313d94118)" style="fill: none; stroke: #b0b0b0; stroke-opacity: 0.3; stroke-width: 0.8; stroke-linecap: square"/>
     </g>
     <g id="line2d_4">
      <g>
       <use xlink:href="#m49b71bfc9a" x="115.829924" y="170.44" style="stroke: #000000; stroke-width: 0.8"/>
      </g>
     </g>
     <g id="text_2">
      <!-- 0.4 -->
      <g transform="translate(107.878361 185.038437) scale(0.1 -0.1)">
       <defs>
        <path id="DejaVuSans-34" d="M 2419 4116 
L 825 1625 
L 2419 1625 
L 2419 4116 
z
M 2253 4666 
L 3047 4666 
L 3047 1625 
L 3713 1625 
L 3713 1100 
L 3047 1100 
L 3047 0 
L 2419 0 
L 2419 1100 
L 313 1100 
L 313 1709 
L 2253 4666 
z
" transform="scale(0.015625)"/>
       </defs>
       <use xlink:href="#DejaVuSans-30"/>
       <use xlink:href="#DejaVuSans-2e" x="63.623047"/>
       <use xlink:href="#DejaVuSans-34" x="95.410156"/>
      </g>
     </g>
    </g>
    <g id="xtick_3">
     <g id="line2d_5">
      <path d="M 171.723829 170.44 
L 171.723829 7.2 
" clip-path="url(#p4313d94118)" style="fill: none; stroke: #b0b0b0; stroke-opacity: 0.3; stroke-width: 0.8; stroke-linecap: square"/>
     </g>
     <g id="line2d_6">
      <g>
       <use xlink:href="#m49b71bfc9a" x="171.723829" y="170.44" style="stroke: #000000; stroke-width: 0.8"/>
      </g>
     </g>
     <g id="text_3">
      <!-- 0.6 -->
      <g transform="translate(163.772266 185.038437) scale(0.1 -0.1)">
       <defs>
        <path id="DejaVuSans-36" d="M 2113 2584 
Q 1688 2584 1439 2293 
Q 1191 2003 1191 1497 
Q 1191 994 1439 701 
Q 1688 409 2113 409 
Q 2538 409 2786 701 
Q 3034 994 3034 1497 
Q 3034 2003 2786 2293 
Q 2538 2584 2113 2584 
z
M 3366 4563 
L 3366 3988 
Q 3128 4100 2886 4159 
Q 2644 4219 2406 4219 
Q 1781 4219 1451 3797 
Q 1122 3375 1075 2522 
Q 1259 2794 1537 2939 
Q 1816 3084 2150 3084 
Q 2853 3084 3261 2657 
Q 3669 2231 3669 1497 
Q 3669 778 3244 343 
Q 2819 -91 2113 -91 
Q 1303 -91 875 529 
Q 447 1150 447 2328 
Q 447 3434 972 4092 
Q 1497 4750 2381 4750 
Q 2619 4750 2861 4703 
Q 3103 4656 3366 4563 
z
" transform="scale(0.015625)"/>
       </defs>
       <use xlink:href="#DejaVuSans-30"/>
       <use xlink:href="#DejaVuSans-2e" x="63.623047"/>
       <use xlink:href="#DejaVuSans-36" x="95.410156"/>
      </g>
     </g>
    </g>
    <g id="xtick_4">
     <g id="line2d_7">
      <path d="M 227.617734 170.44 
L 227.617734 7.2 
" clip-path="url(#p4313d94118)" style="fill: none; stroke: #b0b0b0; stroke-opacity: 0.3; stroke-width: 0.8; stroke-linecap: square"/>
     </g>
     <g id="line2d_8">
      <g>
       <use xlink:href="#m49b71bfc9a" x="227.617734" y="170.44" style="stroke: #000000; stroke-width: 0.8"/>
      </g>
     </g>
     <g id="text_4">
      <!-- 0.8 -->
      <g transform="translate(219.666171 185.038437) scale(0.1 -0.1)">
       <defs>
        <path id="DejaVuSans-38" d="M 2034 2216 
Q 1584 2216 1326 1975 
Q 1069 1734 1069 1313 
Q 1069 891 1326 650 
Q 1584 409 2034 409 
Q 2484 409 2743 651 
Q 3003 894 3003 1313 
Q 3003 1734 2745 1975 
Q 2488 2216 2034 2216 
z
M 1403 2484 
Q 997 2584 770 2862 
Q 544 3141 544 3541 
Q 544 4100 942 4425 
Q 1341 4750 2034 4750 
Q 2731 4750 3128 4425 
Q 3525 4100 3525 3541 
Q 3525 3141 3298 2862 
Q 3072 2584 2669 2484 
Q 3125 2378 3379 2068 
Q 3634 1759 3634 1313 
Q 3634 634 3220 271 
Q 2806 -91 2034 -91 
Q 1263 -91 848 271 
Q 434 634 434 1313 
Q 434 1759 690 2068 
Q 947 2378 1403 2484 
z
M 1172 3481 
Q 1172 3119 1398 2916 
Q 1625 2713 2034 2713 
Q 2441 2713 2670 2916 
Q 2900 3119 2900 3481 
Q 2900 3844 2670 4047 
Q 2441 4250 2034 4250 
Q 1625 4250 1398 4047 
Q 1172 3844 1172 3481 
z
" transform="scale(0.015625)"/>
       </defs>
       <use xlink:href="#DejaVuSans-30"/>
       <use xlink:href="#DejaVuSans-2e" x="63.623047"/>
       <use xlink:href="#DejaVuSans-38" x="95.410156"/>
      </g>
     </g>
    </g>
    <g id="text_5">
     <!-- q (Trajectory Completeness) -->
     <g transform="translate(83.214219 198.716563) scale(0.1 -0.1)">
      <defs>
       <path id="DejaVuSans-71" d="M 947 1747 
Q 947 1113 1208 752 
Q 1469 391 1925 391 
Q 2381 391 2643 752 
Q 2906 1113 2906 1747 
Q 2906 2381 2643 2742 
Q 2381 3103 1925 3103 
Q 1469 3103 1208 2742 
Q 947 2381 947 1747 
z
M 2906 525 
Q 2725 213 2448 61 
Q 2172 -91 1784 -91 
Q 1150 -91 751 415 
Q 353 922 353 1747 
Q 353 2572 751 3078 
Q 1150 3584 1784 3584 
Q 2172 3584 2448 3432 
Q 2725 3281 2906 2969 
L 2906 3500 
L 3481 3500 
L 3481 -1331 
L 2906 -1331 
L 2906 525 
z
" transform="scale(0.015625)"/>
       <path id="DejaVuSans-20" transform="scale(0.015625)"/>
       <path id="DejaVuSans-28" d="M 1984 4856 
Q 1566 4138 1362 3434 
Q 1159 2731 1159 2009 
Q 1159 1288 1364 580 
Q 1569 -128 1984 -844 
L 1484 -844 
Q 1016 -109 783 600 
Q 550 1309 550 2009 
Q 550 2706 781 3412 
Q 1013 4119 1484 4856 
L 1984 4856 
z
" transform="scale(0.015625)"/>
       <path id="DejaVuSans-54" d="M -19 4666 
L 3928 4666 
L 3928 4134 
L 2272 4134 
L 2272 0 
L 1638 0 
L 1638 4134 
L -19 4134 
L -19 4666 
z
" transform="scale(0.015625)"/>
       <path id="DejaVuSans-72" d="M 2631 2963 
Q 2534 3019 2420 3045 
Q 2306 3072 2169 3072 
Q 1681 3072 1420 2755 
Q 1159 2438 1159 1844 
L 1159 0 
L 581 0 
L 581 3500 
L 1159 3500 
L 1159 2956 
Q 1341 3275 1631 3429 
Q 1922 3584 2338 3584 
Q 2397 3584 2469 3576 
Q 2541 3569 2628 3553 
L 2631 2963 
z
" transform="scale(0.015625)"/>
       <path id="DejaVuSans-61" d="M 2194 1759 
Q 1497 1759 1228 1600 
Q 959 1441 959 1056 
Q 959 750 1161 570 
Q 1363 391 1709 391 
Q 2188 391 2477 730 
Q 2766 1069 2766 1631 
L 2766 1759 
L 2194 1759 
z
M 3341 1997 
L 3341 0 
L 2766 0 
L 2766 531 
Q 2569 213 2275 61 
Q 1981 -91 1556 -91 
Q 1019 -91 701 211 
Q 384 513 384 1019 
Q 384 1609 779 1909 
Q 1175 2209 1959 2209 
L 2766 2209 
L 2766 2266 
Q 2766 2663 2505 2880 
Q 2244 3097 1772 3097 
Q 1472 3097 1187 3025 
Q 903 2953 641 2809 
L 641 3341 
Q 956 3463 1253 3523 
Q 1550 3584 1831 3584 
Q 2591 3584 2966 3190 
Q 3341 2797 3341 1997 
z
" transform="scale(0.015625)"/>
       <path id="DejaVuSans-6a" d="M 603 3500 
L 1178 3500 
L 1178 -63 
Q 1178 -731 923 -1031 
Q 669 -1331 103 -1331 
L -116 -1331 
L -116 -844 
L 38 -844 
Q 366 -844 484 -692 
Q 603 -541 603 -63 
L 603 3500 
z
M 603 4863 
L 1178 4863 
L 1178 4134 
L 603 4134 
L 603 4863 
z
" transform="scale(0.015625)"/>
       <path id="DejaVuSans-65" d="M 3597 1894 
L 3597 1613 
L 953 1613 
Q 991 1019 1311 708 
Q 1631 397 2203 397 
Q 2534 397 2845 478 
Q 3156 559 3463 722 
L 3463 178 
Q 3153 47 2828 -22 
Q 2503 -91 2169 -91 
Q 1331 -91 842 396 
Q 353 884 353 1716 
Q 353 2575 817 3079 
Q 1281 3584 2069 3584 
Q 2775 3584 3186 3129 
Q 3597 2675 3597 1894 
z
M 3022 2063 
Q 3016 2534 2758 2815 
Q 2500 3097 2075 3097 
Q 1594 3097 1305 2825 
Q 1016 2553 972 2059 
L 3022 2063 
z
" transform="scale(0.015625)"/>
       <path id="DejaVuSans-63" d="M 3122 3366 
L 3122 2828 
Q 2878 2963 2633 3030 
Q 2388 3097 2138 3097 
Q 1578 3097 1268 2742 
Q 959 2388 959 1747 
Q 959 1106 1268 751 
Q 1578 397 2138 397 
Q 2388 397 2633 464 
Q 2878 531 3122 666 
L 3122 134 
Q 2881 22 2623 -34 
Q 2366 -91 2075 -91 
Q 1284 -91 818 406 
Q 353 903 353 1747 
Q 353 2603 823 3093 
Q 1294 3584 2113 3584 
Q 2378 3584 2631 3529 
Q 2884 3475 3122 3366 
z
" transform="scale(0.015625)"/>
       <path id="DejaVuSans-74" d="M 1172 4494 
L 1172 3500 
L 2356 3500 
L 2356 3053 
L 1172 3053 
L 1172 1153 
Q 1172 725 1289 603 
Q 1406 481 1766 481 
L 2356 481 
L 2356 0 
L 1766 0 
Q 1100 0 847 248 
Q 594 497 594 1153 
L 594 3053 
L 172 3053 
L 172 3500 
L 594 3500 
L 594 4494 
L 1172 4494 
z
" transform="scale(0.015625)"/>
       <path id="DejaVuSans-6f" d="M 1959 3097 
Q 1497 3097 1228 2736 
Q 959 2375 959 1747 
Q 959 1119 1226 758 
Q 1494 397 1959 397 
Q 2419 397 2687 759 
Q 2956 1122 2956 1747 
Q 2956 2369 2687 2733 
Q 2419 3097 1959 3097 
z
M 1959 3584 
Q 2709 3584 3137 3096 
Q 3566 2609 3566 1747 
Q 3566 888 3137 398 
Q 2709 -91 1959 -91 
Q 1206 -91 779 398 
Q 353 888 353 1747 
Q 353 2609 779 3096 
Q 1206 3584 1959 3584 
z
" transform="scale(0.015625)"/>
       <path id="DejaVuSans-79" d="M 2059 -325 
Q 1816 -950 1584 -1140 
Q 1353 -1331 966 -1331 
L 506 -1331 
L 506 -850 
L 844 -850 
Q 1081 -850 1212 -737 
Q 1344 -625 1503 -206 
L 1606 56 
L 191 3500 
L 800 3500 
L 1894 763 
L 2988 3500 
L 3597 3500 
L 2059 -325 
z
" transform="scale(0.015625)"/>
       <path id="DejaVuSans-43" d="M 4122 4306 
L 4122 3641 
Q 3803 3938 3442 4084 
Q 3081 4231 2675 4231 
Q 1875 4231 1450 3742 
Q 1025 3253 1025 2328 
Q 1025 1406 1450 917 
Q 1875 428 2675 428 
Q 3081 428 3442 575 
Q 3803 722 4122 1019 
L 4122 359 
Q 3791 134 3420 21 
Q 3050 -91 2638 -91 
Q 1578 -91 968 557 
Q 359 1206 359 2328 
Q 359 3453 968 4101 
Q 1578 4750 2638 4750 
Q 3056 4750 3426 4639 
Q 3797 4528 4122 4306 
z
" transform="scale(0.015625)"/>
       <path id="DejaVuSans-6d" d="M 3328 2828 
Q 3544 3216 3844 3400 
Q 4144 3584 4550 3584 
Q 5097 3584 5394 3201 
Q 5691 2819 5691 2113 
L 5691 0 
L 5113 0 
L 5113 2094 
Q 5113 2597 4934 2840 
Q 4756 3084 4391 3084 
Q 3944 3084 3684 2787 
Q 3425 2491 3425 1978 
L 3425 0 
L 2847 0 
L 2847 2094 
Q 2847 2600 2669 2842 
Q 2491 3084 2119 3084 
Q 1678 3084 1418 2786 
Q 1159 2488 1159 1978 
L 1159 0 
L 581 0 
L 581 3500 
L 1159 3500 
L 1159 2956 
Q 1356 3278 1631 3431 
Q 1906 3584 2284 3584 
Q 2666 3584 2933 3390 
Q 3200 3197 3328 2828 
z
" transform="scale(0.015625)"/>
       <path id="DejaVuSans-70" d="M 1159 525 
L 1159 -1331 
L 581 -1331 
L 581 3500 
L 1159 3500 
L 1159 2969 
Q 1341 3281 1617 3432 
Q 1894 3584 2278 3584 
Q 2916 3584 3314 3078 
Q 3713 2572 3713 1747 
Q 3713 922 3314 415 
Q 2916 -91 2278 -91 
Q 1894 -91 1617 61 
Q 1341 213 1159 525 
z
M 3116 1747 
Q 3116 2381 2855 2742 
Q 2594 3103 2138 3103 
Q 1681 3103 1420 2742 
Q 1159 2381 1159 1747 
Q 1159 1113 1420 752 
Q 1681 391 2138 391 
Q 2594 391 2855 752 
Q 3116 1113 3116 1747 
z
" transform="scale(0.015625)"/>
       <path id="DejaVuSans-6c" d="M 603 4863 
L 1178 4863 
L 1178 0 
L 603 0 
L 603 4863 
z
" transform="scale(0.015625)"/>
       <path id="DejaVuSans-6e" d="M 3513 2113 
L 3513 0 
L 2938 0 
L 2938 2094 
Q 2938 2591 2744 2837 
Q 2550 3084 2163 3084 
Q 1697 3084 1428 2787 
Q 1159 2491 1159 1978 
L 1159 0 
L 581 0 
L 581 3500 
L 1159 3500 
L 1159 2956 
Q 1366 3272 1645 3428 
Q 1925 3584 2291 3584 
Q 2894 3584 3203 3211 
Q 3513 2838 3513 2113 
z
" transform="scale(0.015625)"/>
       <path id="DejaVuSans-73" d="M 2834 3397 
L 2834 2853 
Q 2591 2978 2328 3040 
Q 2066 3103 1784 3103 
Q 1356 3103 1142 2972 
Q 928 2841 928 2578 
Q 928 2378 1081 2264 
Q 1234 2150 1697 2047 
L 1894 2003 
Q 2506 1872 2764 1633 
Q 3022 1394 3022 966 
Q 3022 478 2636 193 
Q 2250 -91 1575 -91 
Q 1294 -91 989 -36 
Q 684 19 347 128 
L 347 722 
Q 666 556 975 473 
Q 1284 391 1588 391 
Q 1994 391 2212 530 
Q 2431 669 2431 922 
Q 2431 1156 2273 1281 
Q 2116 1406 1581 1522 
L 1381 1569 
Q 847 1681 609 1914 
Q 372 2147 372 2553 
Q 372 3047 722 3315 
Q 1072 3584 1716 3584 
Q 2034 3584 2315 3537 
Q 2597 3491 2834 3397 
z
" transform="scale(0.015625)"/>
       <path id="DejaVuSans-29" d="M 513 4856 
L 1013 4856 
Q 1481 4119 1714 3412 
Q 1947 2706 1947 2009 
Q 1947 1309 1714 600 
Q 1481 -109 1013 -844 
L 513 -844 
Q 928 -128 1133 580 
Q 1338 1288 1338 2009 
Q 1338 2731 1133 3434 
Q 928 4138 513 4856 
z
" transform="scale(0.015625)"/>
      </defs>
      <use xlink:href="#DejaVuSans-71"/>
      <use xlink:href="#DejaVuSans-20" x="63.476562"/>
      <use xlink:href="#DejaVuSans-28" x="95.263672"/>
      <use xlink:href="#DejaVuSans-54" x="134.277344"/>
      <use xlink:href="#DejaVuSans-72" x="180.611328"/>
      <use xlink:href="#DejaVuSans-61" x="221.724609"/>
      <use xlink:href="#DejaVuSans-6a" x="283.003906"/>
      <use xlink:href="#DejaVuSans-65" x="310.787109"/>
      <use xlink:href="#DejaVuSans-63" x="372.310547"/>
      <use xlink:href="#DejaVuSans-74" x="427.291016"/>
      <use xlink:href="#DejaVuSans-6f" x="466.5"/>
      <use xlink:href="#DejaVuSans-72" x="527.681641"/>
      <use xlink:href="#DejaVuSans-79" x="568.794922"/>
      <use xlink:href="#DejaVuSans-20" x="627.974609"/>
      <use xlink:href="#DejaVuSans-43" x="659.761719"/>
      <use xlink:href="#DejaVuSans-6f" x="729.585938"/>
      <use xlink:href="#DejaVuSans-6d" x="790.767578"/>
      <use xlink:href="#DejaVuSans-70" x="888.179688"/>
      <use xlink:href="#DejaVuSans-6c" x="951.65625"/>
      <use xlink:href="#DejaVuSans-65" x="979.439453"/>
      <use xlink:href="#DejaVuSans-74" x="1040.962891"/>
      <use xlink:href="#DejaVuSans-65" x="1080.171875"/>
      <use xlink:href="#DejaVuSans-6e" x="1141.695312"/>
      <use xlink:href="#DejaVuSans-65" x="1205.074219"/>
      <use xlink:href="#DejaVuSans-73" x="1266.597656"/>
      <use xlink:href="#DejaVuSans-73" x="1318.697266"/>
      <use xlink:href="#DejaVuSans-29" x="1370.796875"/>
     </g>
    </g>
   </g>
   <g id="matplotlib.axis_2">
    <g id="ytick_1">
     <g id="line2d_9">
      <path d="M 34.240625 170.44 
L 273.170625 170.44 
" clip-path="url(#p4313d94118)" style="fill: none; stroke: #b0b0b0; stroke-opacity: 0.3; stroke-width: 0.8; stroke-linecap: square"/>
     </g>
     <g id="line2d_10">
      <defs>
       <path id="m5e4caac34e" d="M 0 0 
L -3.5 0 
" style="stroke: #000000; stroke-width: 0.8"/>
      </defs>
      <g>
       <use xlink:href="#m5e4caac34e" x="34.240625" y="170.44" style="stroke: #000000; stroke-width: 0.8"/>
      </g>
     </g>
     <g id="text_6">
      <!-- 0 -->
      <g transform="translate(20.878125 174.239219) scale(0.1 -0.1)">
       <use xlink:href="#DejaVuSans-30"/>
      </g>
     </g>
    </g>
    <g id="ytick_2">
     <g id="line2d_11">
      <path d="M 34.240625 133.668238 
L 273.170625 133.668238 
" clip-path="url(#p4313d94118)" style="fill: none; stroke: #b0b0b0; stroke-opacity: 0.3; stroke-width: 0.8; stroke-linecap: square"/>
     </g>
     <g id="line2d_12">
      <g>
       <use xlink:href="#m5e4caac34e" x="34.240625" y="133.668238" style="stroke: #000000; stroke-width: 0.8"/>
      </g>
     </g>
     <g id="text_7">
      <!-- 1 -->
      <g transform="translate(20.878125 137.467457) scale(0.1 -0.1)">
       <defs>
        <path id="DejaVuSans-31" d="M 794 531 
L 1825 531 
L 1825 4091 
L 703 3866 
L 703 4441 
L 1819 4666 
L 2450 4666 
L 2450 531 
L 3481 531 
L 3481 0 
L 794 0 
L 794 531 
z
" transform="scale(0.015625)"/>
       </defs>
       <use xlink:href="#DejaVuSans-31"/>
      </g>
     </g>
    </g>
    <g id="ytick_3">
     <g id="line2d_13">
      <path d="M 34.240625 96.896476 
L 273.170625 96.896476 
" clip-path="url(#p4313d94118)" style="fill: none; stroke: #b0b0b0; stroke-opacity: 0.3; stroke-width: 0.8; stroke-linecap: square"/>
     </g>
     <g id="line2d_14">
      <g>
       <use xlink:href="#m5e4caac34e" x="34.240625" y="96.896476" style="stroke: #000000; stroke-width: 0.8"/>
      </g>
     </g>
     <g id="text_8">
      <!-- 2 -->
      <g transform="translate(20.878125 100.695694) scale(0.1 -0.1)">
       <use xlink:href="#DejaVuSans-32"/>
      </g>
     </g>
    </g>
    <g id="ytick_4">
     <g id="line2d_15">
      <path d="M 34.240625 60.124713 
L 273.170625 60.124713 
" clip-path="url(#p4313d94118)" style="fill: none; stroke: #b0b0b0; stroke-opacity: 0.3; stroke-width: 0.8; stroke-linecap: square"/>
     </g>
     <g id="line2d_16">
      <g>
       <use xlink:href="#m5e4caac34e" x="34.240625" y="60.124713" style="stroke: #000000; stroke-width: 0.8"/>
      </g>
     </g>
     <g id="text_9">
      <!-- 3 -->
      <g transform="translate(20.878125 63.923932) scale(0.1 -0.1)">
       <defs>
        <path id="DejaVuSans-33" d="M 2597 2516 
Q 3050 2419 3304 2112 
Q 3559 1806 3559 1356 
Q 3559 666 3084 287 
Q 2609 -91 1734 -91 
Q 1441 -91 1130 -33 
Q 819 25 488 141 
L 488 750 
Q 750 597 1062 519 
Q 1375 441 1716 441 
Q 2309 441 2620 675 
Q 2931 909 2931 1356 
Q 2931 1769 2642 2001 
Q 2353 2234 1838 2234 
L 1294 2234 
L 1294 2753 
L 1863 2753 
Q 2328 2753 2575 2939 
Q 2822 3125 2822 3475 
Q 2822 3834 2567 4026 
Q 2313 4219 1838 4219 
Q 1578 4219 1281 4162 
Q 984 4106 628 3988 
L 628 4550 
Q 988 4650 1302 4700 
Q 1616 4750 1894 4750 
Q 2613 4750 3031 4423 
Q 3450 4097 3450 3541 
Q 3450 3153 3228 2886 
Q 3006 2619 2597 2516 
z
" transform="scale(0.015625)"/>
       </defs>
       <use xlink:href="#DejaVuSans-33"/>
      </g>
     </g>
    </g>
    <g id="ytick_5">
     <g id="line2d_17">
      <path d="M 34.240625 23.352951 
L 273.170625 23.352951 
" clip-path="url(#p4313d94118)" style="fill: none; stroke: #b0b0b0; stroke-opacity: 0.3; stroke-width: 0.8; stroke-linecap: square"/>
     </g>
     <g id="line2d_18">
      <g>
       <use xlink:href="#m5e4caac34e" x="34.240625" y="23.352951" style="stroke: #000000; stroke-width: 0.8"/>
      </g>
     </g>
     <g id="text_10">
      <!-- 4 -->
      <g transform="translate(20.878125 27.15217) scale(0.1 -0.1)">
       <use xlink:href="#DejaVuSans-34"/>
      </g>
     </g>
    </g>
    <g id="text_11">
     <!-- Density -->
     <g transform="translate(14.798438 107.828594) rotate(-90) scale(0.1 -0.1)">
      <defs>
       <path id="DejaVuSans-44" d="M 1259 4147 
L 1259 519 
L 2022 519 
Q 2988 519 3436 956 
Q 3884 1394 3884 2338 
Q 3884 3275 3436 3711 
Q 2988 4147 2022 4147 
L 1259 4147 
z
M 628 4666 
L 1925 4666 
Q 3281 4666 3915 4102 
Q 4550 3538 4550 2338 
Q 4550 1131 3912 565 
Q 3275 0 1925 0 
L 628 0 
L 628 4666 
z
" transform="scale(0.015625)"/>
       <path id="DejaVuSans-69" d="M 603 3500 
L 1178 3500 
L 1178 0 
L 603 0 
L 603 3500 
z
M 603 4863 
L 1178 4863 
L 1178 4134 
L 603 4134 
L 603 4863 
z
" transform="scale(0.015625)"/>
      </defs>
      <use xlink:href="#DejaVuSans-44"/>
      <use xlink:href="#DejaVuSans-65" x="77.001953"/>
      <use xlink:href="#DejaVuSans-6e" x="138.525391"/>
      <use xlink:href="#DejaVuSans-73" x="201.904297"/>
      <use xlink:href="#DejaVuSans-69" x="254.003906"/>
      <use xlink:href="#DejaVuSans-74" x="281.787109"/>
      <use xlink:href="#DejaVuSans-79" x="320.996094"/>
     </g>
    </g>
   </g>
   <g id="patch_3">
    <path d="M 34.240625 170.44 
L 34.240625 7.2 
" style="fill: none; stroke: #000000; stroke-width: 0.8; stroke-linejoin: miter; stroke-linecap: square"/>
   </g>
   <g id="patch_4">
    <path d="M 34.240625 170.44 
L 273.170625 170.44 
" style="fill: none; stroke: #000000; stroke-width: 0.8; stroke-linejoin: miter; stroke-linecap: square"/>
   </g>
   <g id="text_12">
    <!-- N = 200 -->
    <g transform="translate(233.607106 22.200594) scale(0.09 -0.09)">
     <defs>
      <path id="DejaVuSans-4e" d="M 628 4666 
L 1478 4666 
L 3547 763 
L 3547 4666 
L 4159 4666 
L 4159 0 
L 3309 0 
L 1241 3903 
L 1241 0 
L 628 0 
L 628 4666 
z
" transform="scale(0.015625)"/>
      <path id="DejaVuSans-3d" d="M 678 2906 
L 4684 2906 
L 4684 2381 
L 678 2381 
L 678 2906 
z
M 678 1631 
L 4684 1631 
L 4684 1100 
L 678 1100 
L 678 1631 
z
" transform="scale(0.015625)"/>
     </defs>
     <use xlink:href="#DejaVuSans-4e"/>
     <use xlink:href="#DejaVuSans-20" x="74.804688"/>
     <use xlink:href="#DejaVuSans-3d" x="106.591797"/>
     <use xlink:href="#DejaVuSans-20" x="190.380859"/>
     <use xlink:href="#DejaVuSans-32" x="222.167969"/>
     <use xlink:href="#DejaVuSans-30" x="285.791016"/>
     <use xlink:href="#DejaVuSans-30" x="349.414062"/>
    </g>
   </g>
  </g>
 </g>
 <defs>
  <clipPath id="p4313d94118">
   <rect x="34.240625" y="7.2" width="238.93" height="163.24"/>
  </clipPath>
 </defs>
</svg>
