<?xml version="1.0" encoding="utf-8" standalone="no"?>
<!DOCTYPE svg PUBLIC "-//W3C//DTD SVG 1.1//EN"
  "http://www.w3.org/Graphics/SVG/1.1/DTD/svg11.dtd">
<svg xmlns:xlink="http://www.w3.org/1999/xlink" width="504pt" height="432pt" viewBox="0 0 504 432" xmlns="http://www.w3.org/2000/svg" version="1.1">
 <metadata>
  <rdf:RDF xmlns:dc="http://purl.org/dc/elements/1.1/" xmlns:cc="http://creativecommons.org/ns#" xmlns:rdf="http://www.w3.org/1999/02/22-rdf-syntax-ns#">
   <cc:Work>
    <dc:type rdf:resource="http://purl.org/dc/dcmitype/StillImage"/>
    <dc:date>2026-02-11T16:40:27.959543</dc:date>
    <dc:format>image/svg+xml</dc:format>
    <dc:creator>
     <cc:Agent>
      <dc:title>Matplotlib v3.9.2, https://matplotlib.org/</dc:title>
     </cc:Agent>
    </dc:creator>
   </cc:Work>
  </rdf:RDF>
 </metadata>
 <defs>
  <style type="text/css">*{stroke-linejoin: round; stroke-linecap: butt}</style>
 </defs>
 <g id="figure_1">
  <g id="patch_1">
   <path d="M 0 432 
L 504 432 
L 504 0 
L 0 0 
z
" style="fill: #ffffff"/>
  </g>
  <g id="axes_1">
   <g id="patch_2">
    <path d="M 0 347.970106 
L 504 347.970106 
L 504 38.232144 
L 0 38.232144 
z
" style="fill: #d3d3d3"/>
   </g>
   <g id="PatchCollection_1">
    <path d="M -304.062643 434.32074 
L -304.062643 51.263866 
L -687.119517 51.263866 
L -687.119517 434.32074 
L -304.062643 434.32074 
" clip-path="url(#pfd46b40d77)" style="fill: #8c8c8c; stroke: #ffffff"/>
    <path d="M -878.647954 625.849177 
L -782.883735 625.849177 
L -782.883735 434.32074 
L -878.647954 434.32074 
L -878.647954 625.849177 
" clip-path="url(#pfd46b40d77)" style="fill: #8c8c8c; stroke: #ffffff"/>
    <path d="M -782.883735 625.849177 
L -591.355298 625.849177 
L -591.355298 530.084958 
L -782.883735 530.084958 
L -782.883735 625.849177 
" clip-path="url(#pfd46b40d77)" style="fill: #8c8c8c; stroke: #ffffff"/>
    <path d="M -495.59108 625.849177 
L -495.59108 530.084958 
L -591.355298 530.084958 
L -591.355298 625.849177 
L -495.59108 625.849177 
" clip-path="url(#pfd46b40d77)" style="fill: #8c8c8c; stroke: #ffffff"/>
    <path d="M -399.826861 625.849177 
L -399.826861 530.084958 
L -495.59108 530.084958 
L -495.59108 625.849177 
L -399.826861 625.849177 
" clip-path="url(#pfd46b40d77)" style="fill: #8c8c8c; stroke: #ffffff"/>
    <path d="M -208.298424 625.849177 
L -208.298424 530.084958 
L -304.062643 530.084958 
L -304.062643 625.849177 
L -208.298424 625.849177 
" clip-path="url(#pfd46b40d77)" style="fill: #8c8c8c; stroke: #ffffff"/>
    <path d="M -112.534205 625.849177 
L -112.534205 530.084958 
L -208.298424 530.084958 
L -208.298424 625.849177 
L -112.534205 625.849177 
" clip-path="url(#pfd46b40d77)" style="fill: #8c8c8c; stroke: #ffffff"/>
    <path d="M -112.534205 530.084958 
L -112.534205 434.32074 
L -208.298424 434.32074 
L -208.298424 530.084958 
L -112.534205 530.084958 
" clip-path="url(#pfd46b40d77)" style="fill: #8c8c8c; stroke: #ffffff"/>
    <path d="M -112.534205 434.32074 
L -112.534205 338.556521 
L -208.298424 338.556521 
L -208.298424 434.32074 
L -112.534205 434.32074 
" clip-path="url(#pfd46b40d77)" style="fill: #8c8c8c; stroke: #ffffff"/>
    <path d="M -112.534205 242.792303 
L -112.534205 147.028084 
L -208.298424 147.028084 
L -208.298424 242.792303 
L -112.534205 242.792303 
" clip-path="url(#pfd46b40d77)" style="fill: #8c8c8c; stroke: #ffffff"/>
    <path d="M -112.534205 147.028084 
L -112.534205 51.263866 
L -208.298424 51.263866 
L -208.298424 147.028084 
L -112.534205 147.028084 
" clip-path="url(#pfd46b40d77)" style="fill: #8c8c8c; stroke: #ffffff"/>
    <path d="M -112.534205 51.263866 
L -112.534205 -44.500353 
L -208.298424 -44.500353 
L -208.298424 51.263866 
L -112.534205 51.263866 
" clip-path="url(#pfd46b40d77)" style="fill: #8c8c8c; stroke: #ffffff"/>
    <path d="M -304.062643 -44.500353 
L -112.534205 -44.500353 
L -112.534205 -140.264571 
L -304.062643 -140.264571 
L -304.062643 -44.500353 
" clip-path="url(#pfd46b40d77)" style="fill: #8c8c8c; stroke: #ffffff"/>
    <path d="M -304.062643 -44.500353 
L -304.062643 -140.264571 
L -399.826861 -140.264571 
L -399.826861 -44.500353 
L -304.062643 -44.500353 
" clip-path="url(#pfd46b40d77)" style="fill: #8c8c8c; stroke: #ffffff"/>
    <path d="M -399.826861 -44.500353 
L -399.826861 -140.264571 
L -495.59108 -140.264571 
L -495.59108 -44.500353 
L -399.826861 -44.500353 
" clip-path="url(#pfd46b40d77)" style="fill: #8c8c8c; stroke: #ffffff"/>
    <path d="M -591.355298 -44.500353 
L -591.355298 -140.264571 
L -687.119517 -140.264571 
L -687.119517 -44.500353 
L -591.355298 -44.500353 
" clip-path="url(#pfd46b40d77)" style="fill: #8c8c8c; stroke: #ffffff"/>
    <path d="M -687.119517 -44.500353 
L -687.119517 -140.264571 
L -782.883735 -140.264571 
L -782.883735 -44.500353 
L -687.119517 -44.500353 
" clip-path="url(#pfd46b40d77)" style="fill: #8c8c8c; stroke: #ffffff"/>
    <path d="M -782.883735 -44.500353 
L -782.883735 -140.264571 
L -878.647954 -140.264571 
L -878.647954 -44.500353 
L -782.883735 -44.500353 
" clip-path="url(#pfd46b40d77)" style="fill: #8c8c8c; stroke: #ffffff"/>
    <path d="M -782.883735 51.263866 
L -782.883735 -44.500353 
L -878.647954 -44.500353 
L -878.647954 51.263866 
L -782.883735 51.263866 
" clip-path="url(#pfd46b40d77)" style="fill: #8c8c8c; stroke: #ffffff"/>
    <path d="M -782.883735 147.028084 
L -782.883735 51.263866 
L -878.647954 51.263866 
L -878.647954 147.028084 
L -782.883735 147.028084 
" clip-path="url(#pfd46b40d77)" style="fill: #8c8c8c; stroke: #ffffff"/>
    <path d="M -878.647954 434.32074 
L -782.883735 434.32074 
L -782.883735 242.792303 
L -878.647954 242.792303 
L -878.647954 434.32074 
" clip-path="url(#pfd46b40d77)" style="fill: #8c8c8c; stroke: #ffffff"/>
    <path d="M -1165.94061 913.141833 
L -1070.176391 913.141833 
L -1070.176391 721.613396 
L -1165.94061 721.613396 
L -1165.94061 913.141833 
" clip-path="url(#pfd46b40d77)" style="fill: #8c8c8c; stroke: #ffffff"/>
    <path d="M -1070.176391 913.141833 
L -974.412173 913.141833 
L -974.412173 721.613396 
L -1070.176391 721.613396 
L -1070.176391 913.141833 
" clip-path="url(#pfd46b40d77)" style="fill: #8c8c8c; stroke: #ffffff"/>
    <path d="M -782.883735 913.141833 
L -782.883735 721.613396 
L -974.412173 721.613396 
L -974.412173 913.141833 
L -782.883735 913.141833 
" clip-path="url(#pfd46b40d77)" style="fill: #8c8c8c; stroke: #ffffff"/>
    <path d="M -591.355298 913.141833 
L -591.355298 721.613396 
L -782.883735 721.613396 
L -782.883735 913.141833 
L -591.355298 913.141833 
" clip-path="url(#pfd46b40d77)" style="fill: #8c8c8c; stroke: #ffffff"/>
    <path d="M -208.298424 817.377614 
L -208.298424 721.613396 
L -495.59108 721.613396 
L -495.59108 817.377614 
L -208.298424 817.377614 
" clip-path="url(#pfd46b40d77)" style="fill: #8c8c8c; stroke: #ffffff"/>
    <path d="M -208.298424 913.141833 
L -208.298424 817.377614 
L -495.59108 817.377614 
L -495.59108 913.141833 
L -208.298424 913.141833 
" clip-path="url(#pfd46b40d77)" style="fill: #8c8c8c; stroke: #ffffff"/>
    <path d="M 78.994232 913.141833 
L 78.994232 721.613396 
L -208.298424 721.613396 
L -208.298424 913.141833 
L 78.994232 913.141833 
" clip-path="url(#pfd46b40d77)" style="fill: #8c8c8c; stroke: #ffffff"/>
    <path d="M 174.75845 913.141833 
L 174.75845 721.613396 
L 78.994232 721.613396 
L 78.994232 913.141833 
L 174.75845 913.141833 
" clip-path="url(#pfd46b40d77)" style="fill: #8c8c8c; stroke: #ffffff"/>
    <path d="M 174.75845 721.613396 
L 174.75845 530.084958 
L -16.769987 530.084958 
L -16.769987 721.613396 
L 174.75845 721.613396 
" clip-path="url(#pfd46b40d77)" style="fill: #8c8c8c; stroke: #ffffff"/>
    <path d="M 78.994232 530.084958 
L 78.994232 338.556521 
L -16.769987 338.556521 
L -16.769987 530.084958 
L 78.994232 530.084958 
" clip-path="url(#pfd46b40d77)" style="fill: #8c8c8c; stroke: #ffffff"/>
    <path d="M 174.75845 530.084958 
L 174.75845 338.556521 
L 78.994232 338.556521 
L 78.994232 530.084958 
L 174.75845 530.084958 
" clip-path="url(#pfd46b40d77)" style="fill: #8c8c8c; stroke: #ffffff"/>
    <path d="M 174.75845 338.556521 
L 174.75845 147.028084 
L -16.769987 147.028084 
L -16.769987 338.556521 
L 174.75845 338.556521 
" clip-path="url(#pfd46b40d77)" style="fill: #8c8c8c; stroke: #ffffff"/>
    <path d="M 174.75845 51.263866 
L 174.75845 -140.264571 
L -16.769987 -140.264571 
L -16.769987 51.263866 
L 174.75845 51.263866 
" clip-path="url(#pfd46b40d77)" style="fill: #8c8c8c; stroke: #ffffff"/>
    <path d="M 174.75845 -140.264571 
L 174.75845 -236.02879 
L -16.769987 -236.02879 
L -16.769987 -140.264571 
L 174.75845 -140.264571 
" clip-path="url(#pfd46b40d77)" style="fill: #8c8c8c; stroke: #ffffff"/>
    <path d="M 174.75845 -236.02879 
L 174.75845 -331.793009 
L -112.534205 -331.793009 
L -112.534205 -236.02879 
L 174.75845 -236.02879 
" clip-path="url(#pfd46b40d77)" style="fill: #8c8c8c; stroke: #ffffff"/>
    <path d="M -112.534205 -236.02879 
L -112.534205 -331.793009 
L -208.298424 -331.793009 
L -208.298424 -236.02879 
L -112.534205 -236.02879 
" clip-path="url(#pfd46b40d77)" style="fill: #8c8c8c; stroke: #ffffff"/>
    <path d="M 174.75845 -331.793009 
L 174.75845 -427.557227 
L -16.769987 -427.557227 
L -16.769987 -331.793009 
L 174.75845 -331.793009 
" clip-path="url(#pfd46b40d77)" style="fill: #8c8c8c; stroke: #ffffff"/>
    <path d="M -16.769987 -331.793009 
L -16.769987 -427.557227 
L -208.298424 -427.557227 
L -208.298424 -331.793009 
L -16.769987 -331.793009 
" clip-path="url(#pfd46b40d77)" style="fill: #8c8c8c; stroke: #ffffff"/>
    <path d="M -208.298424 -236.02879 
L -208.298424 -427.557227 
L -399.826861 -427.557227 
L -399.826861 -236.02879 
L -208.298424 -236.02879 
" clip-path="url(#pfd46b40d77)" style="fill: #8c8c8c; stroke: #ffffff"/>
    <path d="M -399.826861 -331.793009 
L -399.826861 -427.557227 
L -591.355298 -427.557227 
L -591.355298 -331.793009 
L -399.826861 -331.793009 
" clip-path="url(#pfd46b40d77)" style="fill: #8c8c8c; stroke: #ffffff"/>
    <path d="M -399.826861 -236.02879 
L -399.826861 -331.793009 
L -591.355298 -331.793009 
L -591.355298 -236.02879 
L -399.826861 -236.02879 
" clip-path="url(#pfd46b40d77)" style="fill: #8c8c8c; stroke: #ffffff"/>
    <path d="M -687.119517 -236.02879 
L -687.119517 -427.557227 
L -878.647954 -427.557227 
L -878.647954 -236.02879 
L -687.119517 -236.02879 
" clip-path="url(#pfd46b40d77)" style="fill: #8c8c8c; stroke: #ffffff"/>
    <path d="M -878.647954 -331.793009 
L -878.647954 -427.557227 
L -1070.176391 -427.557227 
L -1070.176391 -331.793009 
L -878.647954 -331.793009 
" clip-path="url(#pfd46b40d77)" style="fill: #8c8c8c; stroke: #ffffff"/>
    <path d="M -878.647954 -236.02879 
L -878.647954 -331.793009 
L -1070.176391 -331.793009 
L -1070.176391 -236.02879 
L -878.647954 -236.02879 
" clip-path="url(#pfd46b40d77)" style="fill: #8c8c8c; stroke: #ffffff"/>
    <path d="M -1165.94061 -236.02879 
L -1070.176391 -236.02879 
L -1070.176391 -427.557227 
L -1165.94061 -427.557227 
L -1165.94061 -236.02879 
" clip-path="url(#pfd46b40d77)" style="fill: #8c8c8c; stroke: #ffffff"/>
    <path d="M -974.412173 51.263866 
L -974.412173 -236.02879 
L -1165.94061 -236.02879 
L -1165.94061 51.263866 
L -974.412173 51.263866 
" clip-path="url(#pfd46b40d77)" style="fill: #8c8c8c; stroke: #ffffff"/>
    <path d="M -974.412173 147.028084 
L -974.412173 51.263866 
L -1165.94061 51.263866 
L -1165.94061 147.028084 
L -974.412173 147.028084 
" clip-path="url(#pfd46b40d77)" style="fill: #8c8c8c; stroke: #ffffff"/>
    <path d="M -1165.94061 434.32074 
L -1070.176391 434.32074 
L -1070.176391 242.792303 
L -1165.94061 242.792303 
L -1165.94061 434.32074 
" clip-path="url(#pfd46b40d77)" style="fill: #8c8c8c; stroke: #ffffff"/>
    <path d="M -1070.176391 434.32074 
L -974.412173 434.32074 
L -974.412173 242.792303 
L -1070.176391 242.792303 
L -1070.176391 434.32074 
" clip-path="url(#pfd46b40d77)" style="fill: #8c8c8c; stroke: #ffffff"/>
    <path d="M -1165.94061 530.084958 
L -974.412173 530.084958 
L -974.412173 434.32074 
L -1165.94061 434.32074 
L -1165.94061 530.084958 
" clip-path="url(#pfd46b40d77)" style="fill: #8c8c8c; stroke: #ffffff"/>
    <path d="M -974.412173 721.613396 
L -974.412173 530.084958 
L -1165.94061 530.084958 
L -1165.94061 721.613396 
L -974.412173 721.613396 
" clip-path="url(#pfd46b40d77)" style="fill: #8c8c8c; stroke: #ffffff"/>
    <path d="M -1261.704828 1200.434488 
L -1261.704828 1008.906051 
L -1453.233265 1008.906051 
L -1453.233265 1200.434488 
L -1261.704828 1200.434488 
" clip-path="url(#pfd46b40d77)" style="fill: #8c8c8c; stroke: #ffffff"/>
    <path d="M -1070.176391 1200.434488 
L -1070.176391 1008.906051 
L -1261.704828 1008.906051 
L -1261.704828 1200.434488 
L -1070.176391 1200.434488 
" clip-path="url(#pfd46b40d77)" style="fill: #8c8c8c; stroke: #ffffff"/>
    <path d="M -974.412173 1200.434488 
L -974.412173 1104.67027 
L -1070.176391 1104.67027 
L -1070.176391 1200.434488 
L -974.412173 1200.434488 
" clip-path="url(#pfd46b40d77)" style="fill: #8c8c8c; stroke: #ffffff"/>
    <path d="M -974.412173 1104.67027 
L -974.412173 1008.906051 
L -1070.176391 1008.906051 
L -1070.176391 1104.67027 
L -974.412173 1104.67027 
" clip-path="url(#pfd46b40d77)" style="fill: #8c8c8c; stroke: #ffffff"/>
    <path d="M -782.883735 1200.434488 
L -782.883735 1104.67027 
L -974.412173 1104.67027 
L -974.412173 1200.434488 
L -782.883735 1200.434488 
" clip-path="url(#pfd46b40d77)" style="fill: #8c8c8c; stroke: #ffffff"/>
    <path d="M -782.883735 1104.67027 
L -782.883735 1008.906051 
L -974.412173 1008.906051 
L -974.412173 1104.67027 
L -782.883735 1104.67027 
" clip-path="url(#pfd46b40d77)" style="fill: #8c8c8c; stroke: #ffffff"/>
    <path d="M -591.355298 1200.434488 
L -591.355298 1008.906051 
L -687.119517 1008.906051 
L -687.119517 1200.434488 
L -591.355298 1200.434488 
" clip-path="url(#pfd46b40d77)" style="fill: #8c8c8c; stroke: #ffffff"/>
    <path d="M -304.062643 1200.434488 
L -304.062643 1008.906051 
L -591.355298 1008.906051 
L -591.355298 1200.434488 
L -304.062643 1200.434488 
" clip-path="url(#pfd46b40d77)" style="fill: #8c8c8c; stroke: #ffffff"/>
    <path d="M -112.534205 1200.434488 
L -112.534205 1008.906051 
L -304.062643 1008.906051 
L -304.062643 1200.434488 
L -112.534205 1200.434488 
" clip-path="url(#pfd46b40d77)" style="fill: #8c8c8c; stroke: #ffffff"/>
    <path d="M -16.769987 1104.67027 
L -16.769987 1008.906051 
L -112.534205 1008.906051 
L -112.534205 1104.67027 
L -16.769987 1104.67027 
" clip-path="url(#pfd46b40d77)" style="fill: #8c8c8c; stroke: #ffffff"/>
    <path d="M 78.994232 1104.67027 
L 78.994232 1008.906051 
L -16.769987 1008.906051 
L -16.769987 1104.67027 
L 78.994232 1104.67027 
" clip-path="url(#pfd46b40d77)" style="fill: #8c8c8c; stroke: #ffffff"/>
    <path d="M -16.769987 1200.434488 
L -16.769987 1104.67027 
L -112.534205 1104.67027 
L -112.534205 1200.434488 
L -16.769987 1200.434488 
" clip-path="url(#pfd46b40d77)" style="fill: #8c8c8c; stroke: #ffffff"/>
    <path d="M 78.994232 1200.434488 
L 78.994232 1104.67027 
L -16.769987 1104.67027 
L -16.769987 1200.434488 
L 78.994232 1200.434488 
" clip-path="url(#pfd46b40d77)" style="fill: #8c8c8c; stroke: #ffffff"/>
    <path d="M 270.522669 1104.67027 
L 270.522669 1008.906051 
L 78.994232 1008.906051 
L 78.994232 1104.67027 
L 270.522669 1104.67027 
" clip-path="url(#pfd46b40d77)" style="fill: #8c8c8c; stroke: #ffffff"/>
    <path d="M 270.522669 1200.434488 
L 270.522669 1104.67027 
L 78.994232 1104.67027 
L 78.994232 1200.434488 
L 270.522669 1200.434488 
" clip-path="url(#pfd46b40d77)" style="fill: #8c8c8c; stroke: #ffffff"/>
    <path d="M 462.051106 1200.434488 
L 462.051106 1104.67027 
L 270.522669 1104.67027 
L 270.522669 1200.434488 
L 462.051106 1200.434488 
" clip-path="url(#pfd46b40d77)" style="fill: #8c8c8c; stroke: #ffffff"/>
    <path d="M 462.051106 1104.67027 
L 462.051106 913.141833 
L 270.522669 913.141833 
L 270.522669 1104.67027 
L 462.051106 1104.67027 
" clip-path="url(#pfd46b40d77)" style="fill: #8c8c8c; stroke: #ffffff"/>
    <path d="M 462.051106 913.141833 
L 462.051106 721.613396 
L 270.522669 721.613396 
L 270.522669 913.141833 
L 462.051106 913.141833 
" clip-path="url(#pfd46b40d77)" style="fill: #8c8c8c; stroke: #ffffff"/>
    <path d="M 366.286887 721.613396 
L 366.286887 530.084958 
L 270.522669 530.084958 
L 270.522669 721.613396 
L 366.286887 721.613396 
" clip-path="url(#pfd46b40d77)" style="fill: #8c8c8c; stroke: #ffffff"/>
    <path d="M 462.051106 721.613396 
L 462.051106 530.084958 
L 366.286887 530.084958 
L 366.286887 721.613396 
L 462.051106 721.613396 
" clip-path="url(#pfd46b40d77)" style="fill: #8c8c8c; stroke: #ffffff"/>
    <path d="M 462.051106 434.32074 
L 462.051106 242.792303 
L 270.522669 242.792303 
L 270.522669 434.32074 
L 462.051106 434.32074 
" clip-path="url(#pfd46b40d77)" style="fill: #8c8c8c; stroke: #ffffff"/>
    <path d="M 462.051106 242.792303 
L 462.051106 51.263866 
L 270.522669 51.263866 
L 270.522669 242.792303 
L 462.051106 242.792303 
" clip-path="url(#pfd46b40d77)" style="fill: #8c8c8c; stroke: #ffffff"/>
    <path d="M 366.286887 51.263866 
L 366.286887 -140.264571 
L 270.522669 -140.264571 
L 270.522669 51.263866 
L 366.286887 51.263866 
" clip-path="url(#pfd46b40d77)" style="fill: #8c8c8c; stroke: #ffffff"/>
    <path d="M 462.051106 51.263866 
L 462.051106 -140.264571 
L 366.286887 -140.264571 
L 366.286887 51.263866 
L 462.051106 51.263866 
" clip-path="url(#pfd46b40d77)" style="fill: #8c8c8c; stroke: #ffffff"/>
    <path d="M 462.051106 -140.264571 
L 462.051106 -331.793009 
L 270.522669 -331.793009 
L 270.522669 -140.264571 
L 462.051106 -140.264571 
" clip-path="url(#pfd46b40d77)" style="fill: #8c8c8c; stroke: #ffffff"/>
    <path d="M 462.051106 -331.793009 
L 462.051106 -523.321446 
L 270.522669 -523.321446 
L 270.522669 -331.793009 
L 462.051106 -331.793009 
" clip-path="url(#pfd46b40d77)" style="fill: #8c8c8c; stroke: #ffffff"/>
    <path d="M 462.051106 -523.321446 
L 462.051106 -619.085664 
L 270.522669 -619.085664 
L 270.522669 -523.321446 
L 462.051106 -523.321446 
" clip-path="url(#pfd46b40d77)" style="fill: #8c8c8c; stroke: #ffffff"/>
    <path d="M 462.051106 -619.085664 
L 462.051106 -714.849883 
L 270.522669 -714.849883 
L 270.522669 -619.085664 
L 462.051106 -619.085664 
" clip-path="url(#pfd46b40d77)" style="fill: #8c8c8c; stroke: #ffffff"/>
    <path d="M 174.75845 -523.321446 
L 174.75845 -714.849883 
L 78.994232 -714.849883 
L 78.994232 -523.321446 
L 174.75845 -523.321446 
" clip-path="url(#pfd46b40d77)" style="fill: #8c8c8c; stroke: #ffffff"/>
    <path d="M 78.994232 -523.321446 
L 78.994232 -714.849883 
L -16.769987 -714.849883 
L -16.769987 -523.321446 
L 78.994232 -523.321446 
" clip-path="url(#pfd46b40d77)" style="fill: #8c8c8c; stroke: #ffffff"/>
    <path d="M -16.769987 -523.321446 
L -16.769987 -619.085664 
L -304.062643 -619.085664 
L -304.062643 -523.321446 
L -16.769987 -523.321446 
" clip-path="url(#pfd46b40d77)" style="fill: #8c8c8c; stroke: #ffffff"/>
    <path d="M -16.769987 -619.085664 
L -16.769987 -714.849883 
L -208.298424 -714.849883 
L -208.298424 -619.085664 
L -16.769987 -619.085664 
" clip-path="url(#pfd46b40d77)" style="fill: #8c8c8c; stroke: #ffffff"/>
    <path d="M -208.298424 -619.085664 
L -208.298424 -714.849883 
L -399.826861 -714.849883 
L -399.826861 -619.085664 
L -208.298424 -619.085664 
" clip-path="url(#pfd46b40d77)" style="fill: #8c8c8c; stroke: #ffffff"/>
    <path d="M -304.062643 -523.321446 
L -304.062643 -619.085664 
L -399.826861 -619.085664 
L -399.826861 -523.321446 
L -304.062643 -523.321446 
" clip-path="url(#pfd46b40d77)" style="fill: #8c8c8c; stroke: #ffffff"/>
    <path d="M -399.826861 -523.321446 
L -399.826861 -714.849883 
L -591.355298 -714.849883 
L -591.355298 -523.321446 
L -399.826861 -523.321446 
" clip-path="url(#pfd46b40d77)" style="fill: #8c8c8c; stroke: #ffffff"/>
    <path d="M -591.355298 -523.321446 
L -591.355298 -619.085664 
L -782.883735 -619.085664 
L -782.883735 -523.321446 
L -591.355298 -523.321446 
" clip-path="url(#pfd46b40d77)" style="fill: #8c8c8c; stroke: #ffffff"/>
    <path d="M -591.355298 -619.085664 
L -591.355298 -714.849883 
L -782.883735 -714.849883 
L -782.883735 -619.085664 
L -591.355298 -619.085664 
" clip-path="url(#pfd46b40d77)" style="fill: #8c8c8c; stroke: #ffffff"/>
    <path d="M -878.647954 -523.321446 
L -878.647954 -714.849883 
L -1070.176391 -714.849883 
L -1070.176391 -523.321446 
L -878.647954 -523.321446 
" clip-path="url(#pfd46b40d77)" style="fill: #8c8c8c; stroke: #ffffff"/>
    <path d="M -1070.176391 -619.085664 
L -1070.176391 -714.849883 
L -1261.704828 -714.849883 
L -1261.704828 -619.085664 
L -1070.176391 -619.085664 
" clip-path="url(#pfd46b40d77)" style="fill: #8c8c8c; stroke: #ffffff"/>
    <path d="M -1070.176391 -523.321446 
L -1070.176391 -619.085664 
L -1261.704828 -619.085664 
L -1261.704828 -523.321446 
L -1070.176391 -523.321446 
" clip-path="url(#pfd46b40d77)" style="fill: #8c8c8c; stroke: #ffffff"/>
    <path d="M -1261.704828 -523.321446 
L -1261.704828 -714.849883 
L -1357.469047 -714.849883 
L -1357.469047 -523.321446 
L -1261.704828 -523.321446 
" clip-path="url(#pfd46b40d77)" style="fill: #8c8c8c; stroke: #ffffff"/>
    <path d="M -1357.469047 -523.321446 
L -1357.469047 -714.849883 
L -1453.233265 -714.849883 
L -1453.233265 -523.321446 
L -1357.469047 -523.321446 
" clip-path="url(#pfd46b40d77)" style="fill: #8c8c8c; stroke: #ffffff"/>
    <path d="M -1261.704828 -236.02879 
L -1261.704828 -427.557227 
L -1453.233265 -427.557227 
L -1453.233265 -236.02879 
L -1261.704828 -236.02879 
" clip-path="url(#pfd46b40d77)" style="fill: #8c8c8c; stroke: #ffffff"/>
    <path d="M -1261.704828 -140.264571 
L -1261.704828 -236.02879 
L -1453.233265 -236.02879 
L -1453.233265 -140.264571 
L -1261.704828 -140.264571 
" clip-path="url(#pfd46b40d77)" style="fill: #8c8c8c; stroke: #ffffff"/>
    <path d="M -1261.704828 -44.500353 
L -1261.704828 -140.264571 
L -1453.233265 -140.264571 
L -1453.233265 -44.500353 
L -1261.704828 -44.500353 
" clip-path="url(#pfd46b40d77)" style="fill: #8c8c8c; stroke: #ffffff"/>
    <path d="M -1261.704828 147.028084 
L -1261.704828 -44.500353 
L -1453.233265 -44.500353 
L -1453.233265 147.028084 
L -1261.704828 147.028084 
" clip-path="url(#pfd46b40d77)" style="fill: #8c8c8c; stroke: #ffffff"/>
    <path d="M -1261.704828 242.792303 
L -1261.704828 147.028084 
L -1453.233265 147.028084 
L -1453.233265 242.792303 
L -1261.704828 242.792303 
" clip-path="url(#pfd46b40d77)" style="fill: #8c8c8c; stroke: #ffffff"/>
    <path d="M -1261.704828 338.556521 
L -1261.704828 242.792303 
L -1453.233265 242.792303 
L -1453.233265 338.556521 
L -1261.704828 338.556521 
" clip-path="url(#pfd46b40d77)" style="fill: #8c8c8c; stroke: #ffffff"/>
    <path d="M -1261.704828 530.084958 
L -1261.704828 338.556521 
L -1453.233265 338.556521 
L -1453.233265 530.084958 
L -1261.704828 530.084958 
" clip-path="url(#pfd46b40d77)" style="fill: #8c8c8c; stroke: #ffffff"/>
    <path d="M -1261.704828 625.849177 
L -1261.704828 530.084958 
L -1453.233265 530.084958 
L -1453.233265 625.849177 
L -1261.704828 625.849177 
" clip-path="url(#pfd46b40d77)" style="fill: #8c8c8c; stroke: #ffffff"/>
    <path d="M -1357.469047 913.141833 
L -1357.469047 625.849177 
L -1453.233265 625.849177 
L -1453.233265 913.141833 
L -1357.469047 913.141833 
" clip-path="url(#pfd46b40d77)" style="fill: #8c8c8c; stroke: #ffffff"/>
    <path d="M -1261.704828 721.613396 
L -1261.704828 625.849177 
L -1357.469047 625.849177 
L -1357.469047 721.613396 
L -1261.704828 721.613396 
" clip-path="url(#pfd46b40d77)" style="fill: #8c8c8c; stroke: #ffffff"/>
    <path d="M -1261.704828 817.377614 
L -1261.704828 721.613396 
L -1357.469047 721.613396 
L -1357.469047 817.377614 
L -1261.704828 817.377614 
" clip-path="url(#pfd46b40d77)" style="fill: #8c8c8c; stroke: #ffffff"/>
    <path d="M -1261.704828 913.141833 
L -1261.704828 817.377614 
L -1357.469047 817.377614 
L -1357.469047 913.141833 
L -1261.704828 913.141833 
" clip-path="url(#pfd46b40d77)" style="fill: #8c8c8c; stroke: #ffffff"/>
   </g>
   <g id="PatchCollection_2">
    <path d="M 73.075721 282.699777 
L 73.029608 283.638431 
L 72.891713 284.568044 
L 72.663364 285.479666 
L 72.346759 286.364515 
L 71.944949 287.214071 
L 71.461803 288.020152 
L 70.901974 288.774995 
L 70.270852 289.47133 
L 69.574517 290.102451 
L 68.819674 290.662281 
L 68.013593 291.145427 
L 67.164037 291.547237 
L 66.279188 291.863842 
L 65.367567 292.092191 
L 64.437953 292.230086 
L 63.499299 292.276199 
L 62.560646 292.230086 
L 61.631032 292.092191 
L 60.719411 291.863842 
L 59.834561 291.547237 
L 58.985005 291.145427 
L 58.178924 290.662281 
L 57.424082 290.102451 
L 56.727746 289.47133 
L 56.096625 288.774995 
L 55.536796 288.020152 
L 55.053649 287.214071 
L 54.651839 286.364515 
L 54.335235 285.479666 
L 54.106886 284.568044 
L 53.968991 283.638431 
L 53.922877 282.699777 
L 53.968991 281.761124 
L 54.106886 280.83151 
L 54.335235 279.919889 
L 54.651839 279.035039 
L 55.053649 278.185483 
L 55.536796 277.379402 
L 56.096625 276.62456 
L 56.727746 275.928224 
L 57.424082 275.297103 
L 58.178924 274.737273 
L 58.985005 274.254127 
L 59.834561 273.852317 
L 60.719411 273.535713 
L 61.631032 273.307364 
L 62.560646 273.169468 
L 63.499299 273.123355 
L 64.437953 273.169468 
L 65.367567 273.307364 
L 66.279188 273.535713 
L 67.164037 273.852317 
L 68.013593 274.254127 
L 68.819674 274.737273 
L 69.574517 275.297103 
L 70.270852 275.928224 
L 70.901974 276.62456 
L 71.461803 277.379402 
L 71.944949 278.185483 
L 72.346759 279.035039 
L 72.663364 279.919889 
L 72.891713 280.83151 
L 73.029608 281.761124 
L 73.075721 282.699777 
" clip-path="url(#pfd46b40d77)" style="fill: #ed6925; fill-opacity: 0.75; stroke: #000000; stroke-opacity: 0.75; stroke-width: 0.5"/>
    <path d="M 90.649659 324.314685 
L 90.603546 325.253339 
L 90.46565 326.182953 
L 90.237301 327.094574 
L 89.920697 327.979423 
L 89.518887 328.828979 
L 89.035741 329.63506 
L 88.475911 330.389903 
L 87.84479 331.086238 
L 87.148455 331.71736 
L 86.393612 332.277189 
L 85.587531 332.760336 
L 84.737975 333.162146 
L 83.853125 333.47875 
L 82.941504 333.707099 
L 82.01189 333.844994 
L 81.073237 333.891107 
L 80.134583 333.844994 
L 79.20497 333.707099 
L 78.293348 333.47875 
L 77.408499 333.162146 
L 76.558943 332.760336 
L 75.752862 332.277189 
L 74.998019 331.71736 
L 74.301684 331.086238 
L 73.670563 330.389903 
L 73.110733 329.63506 
L 72.627587 328.828979 
L 72.225777 327.979423 
L 71.909173 327.094574 
L 71.680823 326.182953 
L 71.542928 325.253339 
L 71.496815 324.314685 
L 71.542928 323.376032 
L 71.680823 322.446418 
L 71.909173 321.534797 
L 72.225777 320.649947 
L 72.627587 319.800391 
L 73.110733 318.994311 
L 73.670563 318.239468 
L 74.301684 317.543133 
L 74.998019 316.912011 
L 75.752862 316.352182 
L 76.558943 315.869035 
L 77.408499 315.467225 
L 78.293348 315.150621 
L 79.20497 314.922272 
L 80.134583 314.784377 
L 81.073237 314.738264 
L 82.01189 314.784377 
L 82.941504 314.922272 
L 83.853125 315.150621 
L 84.737975 315.467225 
L 85.587531 315.869035 
L 86.393612 316.352182 
L 87.148455 316.912011 
L 87.84479 317.543133 
L 88.475911 318.239468 
L 89.035741 318.994311 
L 89.518887 319.800391 
L 89.920697 320.649947 
L 90.237301 321.534797 
L 90.46565 322.446418 
L 90.603546 323.376032 
L 90.649659 324.314685 
" clip-path="url(#pfd46b40d77)" style="fill: #ed6925; fill-opacity: 0.75; stroke: #000000; stroke-opacity: 0.75; stroke-width: 0.5"/>
    <path d="M 99.266136 277.457408 
L 99.220023 278.396061 
L 99.082127 279.325675 
L 98.853778 280.237296 
L 98.537174 281.122146 
L 98.135364 281.971702 
L 97.652218 282.777782 
L 97.092388 283.532625 
L 96.461267 284.22896 
L 95.764932 284.860082 
L 95.010089 285.419911 
L 94.204008 285.903058 
L 93.354452 286.304868 
L 92.469602 286.621472 
L 91.557981 286.849821 
L 90.628367 286.987716 
L 89.689714 287.033829 
L 88.75106 286.987716 
L 87.821447 286.849821 
L 86.909825 286.621472 
L 86.024976 286.304868 
L 85.17542 285.903058 
L 84.369339 285.419911 
L 83.614496 284.860082 
L 82.918161 284.22896 
L 82.28704 283.532625 
L 81.72721 282.777782 
L 81.244064 281.971702 
L 80.842254 281.122146 
L 80.52565 280.237296 
L 80.2973 279.325675 
L 80.159405 278.396061 
L 80.113292 277.457408 
L 80.159405 276.518754 
L 80.2973 275.58914 
L 80.52565 274.677519 
L 80.842254 273.79267 
L 81.244064 272.943114 
L 81.72721 272.137033 
L 82.28704 271.38219 
L 82.918161 270.685855 
L 83.614496 270.054733 
L 84.369339 269.494904 
L 85.17542 269.011757 
L 86.024976 268.609947 
L 86.909825 268.293343 
L 87.821447 268.064994 
L 88.75106 267.927099 
L 89.689714 267.880986 
L 90.628367 267.927099 
L 91.557981 268.064994 
L 92.469602 268.293343 
L 93.354452 268.609947 
L 94.204008 269.011757 
L 95.010089 269.494904 
L 95.764932 270.054733 
L 96.461267 270.685855 
L 97.092388 271.38219 
L 97.652218 272.137033 
L 98.135364 272.943114 
L 98.537174 273.79267 
L 98.853778 274.677519 
L 99.082127 275.58914 
L 99.220023 276.518754 
L 99.266136 277.457408 
" clip-path="url(#pfd46b40d77)" style="fill: #ed6925; fill-opacity: 0.75; stroke: #000000; stroke-opacity: 0.75; stroke-width: 0.5"/>
    <path d="M 42.061935 315.182613 
L 42.015822 316.121266 
L 41.877926 317.05088 
L 41.649577 317.962501 
L 41.332973 318.847351 
L 40.931163 319.696907 
L 40.448017 320.502988 
L 39.888187 321.257831 
L 39.257066 321.954166 
L 38.56073 322.585287 
L 37.805888 323.145117 
L 36.999807 323.628263 
L 36.150251 324.030073 
L 35.265401 324.346677 
L 34.35378 324.575027 
L 33.424166 324.712922 
L 32.485513 324.759035 
L 31.546859 324.712922 
L 30.617246 324.575027 
L 29.705624 324.346677 
L 28.820775 324.030073 
L 27.971219 323.628263 
L 27.165138 323.145117 
L 26.410295 322.585287 
L 25.71396 321.954166 
L 25.082839 321.257831 
L 24.523009 320.502988 
L 24.039863 319.696907 
L 23.638053 318.847351 
L 23.321448 317.962501 
L 23.093099 317.05088 
L 22.955204 316.121266 
L 22.909091 315.182613 
L 22.955204 314.243959 
L 23.093099 313.314346 
L 23.321448 312.402724 
L 23.638053 311.517875 
L 24.039863 310.668319 
L 24.523009 309.862238 
L 25.082839 309.107395 
L 25.71396 308.41106 
L 26.410295 307.779939 
L 27.165138 307.220109 
L 27.971219 306.736963 
L 28.820775 306.335153 
L 29.705624 306.018549 
L 30.617246 305.790199 
L 31.546859 305.652304 
L 32.485513 305.606191 
L 33.424166 305.652304 
L 34.35378 305.790199 
L 35.265401 306.018549 
L 36.150251 306.335153 
L 36.999807 306.736963 
L 37.805888 307.220109 
L 38.56073 307.779939 
L 39.257066 308.41106 
L 39.888187 309.107395 
L 40.448017 309.862238 
L 40.931163 310.668319 
L 41.332973 311.517875 
L 41.649577 312.402724 
L 41.877926 313.314346 
L 42.015822 314.243959 
L 42.061935 315.182613 
" clip-path="url(#pfd46b40d77)" style="fill: #ed6925; fill-opacity: 0.75; stroke: #000000; stroke-opacity: 0.75; stroke-width: 0.5"/>
    <path d="M 77.826468 240.864399 
L 77.780354 241.803053 
L 77.642459 242.732667 
L 77.41411 243.644288 
L 77.097506 244.529137 
L 76.695696 245.378693 
L 76.212549 246.184774 
L 75.65272 246.939617 
L 75.021599 247.635952 
L 74.325263 248.267074 
L 73.570421 248.826903 
L 72.76434 249.310049 
L 71.914784 249.711859 
L 71.029934 250.028464 
L 70.118313 250.256813 
L 69.188699 250.394708 
L 68.250046 250.440821 
L 67.311392 250.394708 
L 66.381778 250.256813 
L 65.470157 250.028464 
L 64.585308 249.711859 
L 63.735752 249.310049 
L 62.929671 248.826903 
L 62.174828 248.267074 
L 61.478493 247.635952 
L 60.847372 246.939617 
L 60.287542 246.184774 
L 59.804396 245.378693 
L 59.402586 244.529137 
L 59.085981 243.644288 
L 58.857632 242.732667 
L 58.719737 241.803053 
L 58.673624 240.864399 
L 58.719737 239.925746 
L 58.857632 238.996132 
L 59.085981 238.084511 
L 59.402586 237.199661 
L 59.804396 236.350105 
L 60.287542 235.544024 
L 60.847372 234.789182 
L 61.478493 234.092846 
L 62.174828 233.461725 
L 62.929671 232.901896 
L 63.735752 232.418749 
L 64.585308 232.016939 
L 65.470157 231.700335 
L 66.381778 231.471986 
L 67.311392 231.334091 
L 68.250046 231.287977 
L 69.188699 231.334091 
L 70.118313 231.471986 
L 71.029934 231.700335 
L 71.914784 232.016939 
L 72.76434 232.418749 
L 73.570421 232.901896 
L 74.325263 233.461725 
L 75.021599 234.092846 
L 75.65272 234.789182 
L 76.212549 235.544024 
L 76.695696 236.350105 
L 77.097506 237.199661 
L 77.41411 238.084511 
L 77.642459 238.996132 
L 77.780354 239.925746 
L 77.826468 240.864399 
" clip-path="url(#pfd46b40d77)" style="fill: #ed6925; fill-opacity: 0.75; stroke: #000000; stroke-opacity: 0.75; stroke-width: 0.5"/>
    <path d="M 326.472525 213.688674 
L 326.426412 214.627327 
L 326.288517 215.556941 
L 326.060168 216.468562 
L 325.743563 217.353412 
L 325.341753 218.202968 
L 324.858607 219.009049 
L 324.298777 219.763891 
L 323.667656 220.460227 
L 322.971321 221.091348 
L 322.216478 221.651177 
L 321.410397 222.134324 
L 320.560841 222.536134 
L 319.675992 222.852738 
L 318.764371 223.081087 
L 317.834757 223.218982 
L 316.896103 223.265096 
L 315.95745 223.218982 
L 315.027836 223.081087 
L 314.116215 222.852738 
L 313.231365 222.536134 
L 312.381809 222.134324 
L 311.575728 221.651177 
L 310.820886 221.091348 
L 310.12455 220.460227 
L 309.493429 219.763891 
L 308.9336 219.009049 
L 308.450453 218.202968 
L 308.048643 217.353412 
L 307.732039 216.468562 
L 307.50369 215.556941 
L 307.365795 214.627327 
L 307.319681 213.688674 
L 307.365795 212.75002 
L 307.50369 211.820406 
L 307.732039 210.908785 
L 308.048643 210.023936 
L 308.450453 209.17438 
L 308.9336 208.368299 
L 309.493429 207.613456 
L 310.12455 206.917121 
L 310.820886 206.285999 
L 311.575728 205.72617 
L 312.381809 205.243024 
L 313.231365 204.841214 
L 314.116215 204.524609 
L 315.027836 204.29626 
L 315.95745 204.158365 
L 316.896103 204.112252 
L 317.834757 204.158365 
L 318.764371 204.29626 
L 319.675992 204.524609 
L 320.560841 204.841214 
L 321.410397 205.243024 
L 322.216478 205.72617 
L 322.971321 206.285999 
L 323.667656 206.917121 
L 324.298777 207.613456 
L 324.858607 208.368299 
L 325.341753 209.17438 
L 325.743563 210.023936 
L 326.060168 210.908785 
L 326.288517 211.820406 
L 326.426412 212.75002 
L 326.472525 213.688674 
" clip-path="url(#pfd46b40d77)" style="fill: #781c6d; fill-opacity: 0.75; stroke: #000000; stroke-opacity: 0.75; stroke-width: 0.5"/>
    <path d="M 274.258846 153.637395 
L 274.212733 154.576048 
L 274.074838 155.505662 
L 273.846489 156.417283 
L 273.529885 157.302133 
L 273.128075 158.151689 
L 272.644928 158.95777 
L 272.085099 159.712612 
L 271.453977 160.408947 
L 270.757642 161.040069 
L 270.0028 161.599898 
L 269.196719 162.083045 
L 268.347163 162.484855 
L 267.462313 162.801459 
L 266.550692 163.029808 
L 265.621078 163.167703 
L 264.682425 163.213817 
L 263.743771 163.167703 
L 262.814157 163.029808 
L 261.902536 162.801459 
L 261.017687 162.484855 
L 260.168131 162.083045 
L 259.36205 161.599898 
L 258.607207 161.040069 
L 257.910872 160.408947 
L 257.27975 159.712612 
L 256.719921 158.95777 
L 256.236775 158.151689 
L 255.834964 157.302133 
L 255.51836 156.417283 
L 255.290011 155.505662 
L 255.152116 154.576048 
L 255.106003 153.637395 
L 255.152116 152.698741 
L 255.290011 151.769127 
L 255.51836 150.857506 
L 255.834964 149.972657 
L 256.236775 149.123101 
L 256.719921 148.31702 
L 257.27975 147.562177 
L 257.910872 146.865842 
L 258.607207 146.23472 
L 259.36205 145.674891 
L 260.168131 145.191745 
L 261.017687 144.789935 
L 261.902536 144.47333 
L 262.814157 144.244981 
L 263.743771 144.107086 
L 264.682425 144.060973 
L 265.621078 144.107086 
L 266.550692 144.244981 
L 267.462313 144.47333 
L 268.347163 144.789935 
L 269.196719 145.191745 
L 270.0028 145.674891 
L 270.757642 146.23472 
L 271.453977 146.865842 
L 272.085099 147.562177 
L 272.644928 148.31702 
L 273.128075 149.123101 
L 273.529885 149.972657 
L 273.846489 150.857506 
L 274.074838 151.769127 
L 274.212733 152.698741 
L 274.258846 153.637395 
" clip-path="url(#pfd46b40d77)" style="fill: #781c6d; fill-opacity: 0.75; stroke: #000000; stroke-opacity: 0.75; stroke-width: 0.5"/>
    <path d="M 335.751089 174.85261 
L 335.704976 175.791264 
L 335.56708 176.720877 
L 335.338731 177.632499 
L 335.022127 178.517348 
L 334.620317 179.366904 
L 334.137171 180.172985 
L 333.577341 180.927828 
L 332.94622 181.624163 
L 332.249885 182.255284 
L 331.495042 182.815114 
L 330.688961 183.29826 
L 329.839405 183.70007 
L 328.954555 184.016675 
L 328.042934 184.245024 
L 327.11332 184.382919 
L 326.174667 184.429032 
L 325.236013 184.382919 
L 324.3064 184.245024 
L 323.394778 184.016675 
L 322.509929 183.70007 
L 321.660373 183.29826 
L 320.854292 182.815114 
L 320.099449 182.255284 
L 319.403114 181.624163 
L 318.771993 180.927828 
L 318.212163 180.172985 
L 317.729017 179.366904 
L 317.327207 178.517348 
L 317.010603 177.632499 
L 316.782253 176.720877 
L 316.644358 175.791264 
L 316.598245 174.85261 
L 316.644358 173.913957 
L 316.782253 172.984343 
L 317.010603 172.072722 
L 317.327207 171.187872 
L 317.729017 170.338316 
L 318.212163 169.532235 
L 318.771993 168.777392 
L 319.403114 168.081057 
L 320.099449 167.449936 
L 320.854292 166.890106 
L 321.660373 166.40696 
L 322.509929 166.00515 
L 323.394778 165.688546 
L 324.3064 165.460197 
L 325.236013 165.322301 
L 326.174667 165.276188 
L 327.11332 165.322301 
L 328.042934 165.460197 
L 328.954555 165.688546 
L 329.839405 166.00515 
L 330.688961 166.40696 
L 331.495042 166.890106 
L 332.249885 167.449936 
L 332.94622 168.081057 
L 333.577341 168.777392 
L 334.137171 169.532235 
L 334.620317 170.338316 
L 335.022127 171.187872 
L 335.338731 172.072722 
L 335.56708 172.984343 
L 335.704976 173.913957 
L 335.751089 174.85261 
" clip-path="url(#pfd46b40d77)" style="fill: #781c6d; fill-opacity: 0.75; stroke: #000000; stroke-opacity: 0.75; stroke-width: 0.5"/>
    <path d="M 305.531033 158.782872 
L 305.48492 159.721525 
L 305.347024 160.651139 
L 305.118675 161.562761 
L 304.802071 162.44761 
L 304.400261 163.297166 
L 303.917115 164.103247 
L 303.357285 164.85809 
L 302.726164 165.554425 
L 302.029829 166.185546 
L 301.274986 166.745376 
L 300.468905 167.228522 
L 299.619349 167.630332 
L 298.734499 167.946936 
L 297.822878 168.175286 
L 296.893264 168.313181 
L 295.954611 168.359294 
L 295.015957 168.313181 
L 294.086344 168.175286 
L 293.174722 167.946936 
L 292.289873 167.630332 
L 291.440317 167.228522 
L 290.634236 166.745376 
L 289.879393 166.185546 
L 289.183058 165.554425 
L 288.551937 164.85809 
L 287.992107 164.103247 
L 287.508961 163.297166 
L 287.107151 162.44761 
L 286.790546 161.562761 
L 286.562197 160.651139 
L 286.424302 159.721525 
L 286.378189 158.782872 
L 286.424302 157.844219 
L 286.562197 156.914605 
L 286.790546 156.002983 
L 287.107151 155.118134 
L 287.508961 154.268578 
L 287.992107 153.462497 
L 288.551937 152.707654 
L 289.183058 152.011319 
L 289.879393 151.380198 
L 290.634236 150.820368 
L 291.440317 150.337222 
L 292.289873 149.935412 
L 293.174722 149.618808 
L 294.086344 149.390458 
L 295.015957 149.252563 
L 295.954611 149.20645 
L 296.893264 149.252563 
L 297.822878 149.390458 
L 298.734499 149.618808 
L 299.619349 149.935412 
L 300.468905 150.337222 
L 301.274986 150.820368 
L 302.029829 151.380198 
L 302.726164 152.011319 
L 303.357285 152.707654 
L 303.917115 153.462497 
L 304.400261 154.268578 
L 304.802071 155.118134 
L 305.118675 156.002983 
L 305.347024 156.914605 
L 305.48492 157.844219 
L 305.531033 158.782872 
" clip-path="url(#pfd46b40d77)" style="fill: #781c6d; fill-opacity: 0.75; stroke: #000000; stroke-opacity: 0.75; stroke-width: 0.5"/>
    <path d="M 179.519863 247.968085 
L 179.47375 248.906739 
L 179.335855 249.836353 
L 179.107506 250.747974 
L 178.790902 251.632823 
L 178.389092 252.48238 
L 177.905945 253.28846 
L 177.346116 254.043303 
L 176.714994 254.739638 
L 176.018659 255.37076 
L 175.263817 255.930589 
L 174.457736 256.413736 
L 173.60818 256.815546 
L 172.72333 257.13215 
L 171.811709 257.360499 
L 170.882095 257.498394 
L 169.943442 257.544507 
L 169.004788 257.498394 
L 168.075174 257.360499 
L 167.163553 257.13215 
L 166.278704 256.815546 
L 165.429148 256.413736 
L 164.623067 255.930589 
L 163.868224 255.37076 
L 163.171889 254.739638 
L 162.540767 254.043303 
L 161.980938 253.28846 
L 161.497792 252.48238 
L 161.095981 251.632823 
L 160.779377 250.747974 
L 160.551028 249.836353 
L 160.413133 248.906739 
L 160.36702 247.968085 
L 160.413133 247.029432 
L 160.551028 246.099818 
L 160.779377 245.188197 
L 161.095981 244.303348 
L 161.497792 243.453791 
L 161.980938 242.647711 
L 162.540767 241.892868 
L 163.171889 241.196533 
L 163.868224 240.565411 
L 164.623067 240.005582 
L 165.429148 239.522435 
L 166.278704 239.120625 
L 167.163553 238.804021 
L 168.075174 238.575672 
L 169.004788 238.437777 
L 169.943442 238.391664 
L 170.882095 238.437777 
L 171.811709 238.575672 
L 172.72333 238.804021 
L 173.60818 239.120625 
L 174.457736 239.522435 
L 175.263817 240.005582 
L 176.018659 240.565411 
L 176.714994 241.196533 
L 177.346116 241.892868 
L 177.905945 242.647711 
L 178.389092 243.453791 
L 178.790902 244.303348 
L 179.107506 245.188197 
L 179.335855 246.099818 
L 179.47375 247.029432 
L 179.519863 247.968085 
" clip-path="url(#pfd46b40d77)" style="fill: #ed6925; fill-opacity: 0.75; stroke: #000000; stroke-opacity: 0.75; stroke-width: 0.5"/>
    <path d="M 177.692818 287.836959 
L 177.646705 288.775613 
L 177.50881 289.705227 
L 177.280461 290.616848 
L 176.963857 291.501697 
L 176.562046 292.351253 
L 176.0789 293.157334 
L 175.519071 293.912177 
L 174.887949 294.608512 
L 174.191614 295.239634 
L 173.436771 295.799463 
L 172.63069 296.282609 
L 171.781134 296.684419 
L 170.896285 297.001024 
L 169.984664 297.229373 
L 169.05505 297.367268 
L 168.116396 297.413381 
L 167.177743 297.367268 
L 166.248129 297.229373 
L 165.336508 297.001024 
L 164.451658 296.684419 
L 163.602102 296.282609 
L 162.796021 295.799463 
L 162.041179 295.239634 
L 161.344844 294.608512 
L 160.713722 293.912177 
L 160.153893 293.157334 
L 159.670746 292.351253 
L 159.268936 291.501697 
L 158.952332 290.616848 
L 158.723983 289.705227 
L 158.586088 288.775613 
L 158.539975 287.836959 
L 158.586088 286.898306 
L 158.723983 285.968692 
L 158.952332 285.057071 
L 159.268936 284.172221 
L 159.670746 283.322665 
L 160.153893 282.516584 
L 160.713722 281.761742 
L 161.344844 281.065407 
L 162.041179 280.434285 
L 162.796021 279.874456 
L 163.602102 279.391309 
L 164.451658 278.989499 
L 165.336508 278.672895 
L 166.248129 278.444546 
L 167.177743 278.306651 
L 168.116396 278.260537 
L 169.05505 278.306651 
L 169.984664 278.444546 
L 170.896285 278.672895 
L 171.781134 278.989499 
L 172.63069 279.391309 
L 173.436771 279.874456 
L 174.191614 280.434285 
L 174.887949 281.065407 
L 175.519071 281.761742 
L 176.0789 282.516584 
L 176.562046 283.322665 
L 176.963857 284.172221 
L 177.280461 285.057071 
L 177.50881 285.968692 
L 177.646705 286.898306 
L 177.692818 287.836959 
" clip-path="url(#pfd46b40d77)" style="fill: #ed6925; fill-opacity: 0.75; stroke: #000000; stroke-opacity: 0.75; stroke-width: 0.5"/>
    <path d="M 213.552659 262.639182 
L 213.506546 263.577835 
L 213.368651 264.507449 
L 213.140302 265.41907 
L 212.823697 266.30392 
L 212.421887 267.153476 
L 211.938741 267.959557 
L 211.378911 268.7144 
L 210.74779 269.410735 
L 210.051455 270.041856 
L 209.296612 270.601686 
L 208.490531 271.084832 
L 207.640975 271.486642 
L 206.756126 271.803246 
L 205.844504 272.031595 
L 204.914891 272.169491 
L 203.976237 272.215604 
L 203.037584 272.169491 
L 202.10797 272.031595 
L 201.196349 271.803246 
L 200.311499 271.486642 
L 199.461943 271.084832 
L 198.655862 270.601686 
L 197.90102 270.041856 
L 197.204684 269.410735 
L 196.573563 268.7144 
L 196.013733 267.959557 
L 195.530587 267.153476 
L 195.128777 266.30392 
L 194.812173 265.41907 
L 194.583824 264.507449 
L 194.445928 263.577835 
L 194.399815 262.639182 
L 194.445928 261.700528 
L 194.583824 260.770915 
L 194.812173 259.859293 
L 195.128777 258.974444 
L 195.530587 258.124888 
L 196.013733 257.318807 
L 196.573563 256.563964 
L 197.204684 255.867629 
L 197.90102 255.236508 
L 198.655862 254.676678 
L 199.461943 254.193532 
L 200.311499 253.791722 
L 201.196349 253.475118 
L 202.10797 253.246768 
L 203.037584 253.108873 
L 203.976237 253.06276 
L 204.914891 253.108873 
L 205.844504 253.246768 
L 206.756126 253.475118 
L 207.640975 253.791722 
L 208.490531 254.193532 
L 209.296612 254.676678 
L 210.051455 255.236508 
L 210.74779 255.867629 
L 211.378911 256.563964 
L 211.938741 257.318807 
L 212.421887 258.124888 
L 212.823697 258.974444 
L 213.140302 259.859293 
L 213.368651 260.770915 
L 213.506546 261.700528 
L 213.552659 262.639182 
" clip-path="url(#pfd46b40d77)" style="fill: #ed6925; fill-opacity: 0.75; stroke: #000000; stroke-opacity: 0.75; stroke-width: 0.5"/>
    <path d="M 176.965186 224.730598 
L 176.919073 225.669251 
L 176.781178 226.598865 
L 176.552829 227.510486 
L 176.236224 228.395336 
L 175.834414 229.244892 
L 175.351268 230.050973 
L 174.791439 230.805815 
L 174.160317 231.502151 
L 173.463982 232.133272 
L 172.709139 232.693102 
L 171.903058 233.176248 
L 171.053502 233.578058 
L 170.168653 233.894662 
L 169.257032 234.123011 
L 168.327418 234.260907 
L 167.388764 234.30702 
L 166.450111 234.260907 
L 165.520497 234.123011 
L 164.608876 233.894662 
L 163.724026 233.578058 
L 162.87447 233.176248 
L 162.068389 232.693102 
L 161.313547 232.133272 
L 160.617212 231.502151 
L 159.98609 230.805815 
L 159.426261 230.050973 
L 158.943114 229.244892 
L 158.541304 228.395336 
L 158.2247 227.510486 
L 157.996351 226.598865 
L 157.858456 225.669251 
L 157.812342 224.730598 
L 157.858456 223.791944 
L 157.996351 222.862331 
L 158.2247 221.950709 
L 158.541304 221.06586 
L 158.943114 220.216304 
L 159.426261 219.410223 
L 159.98609 218.65538 
L 160.617212 217.959045 
L 161.313547 217.327924 
L 162.068389 216.768094 
L 162.87447 216.284948 
L 163.724026 215.883138 
L 164.608876 215.566533 
L 165.520497 215.338184 
L 166.450111 215.200289 
L 167.388764 215.154176 
L 168.327418 215.200289 
L 169.257032 215.338184 
L 170.168653 215.566533 
L 171.053502 215.883138 
L 171.903058 216.284948 
L 172.709139 216.768094 
L 173.463982 217.327924 
L 174.160317 217.959045 
L 174.791439 218.65538 
L 175.351268 219.410223 
L 175.834414 220.216304 
L 176.236224 221.06586 
L 176.552829 221.950709 
L 176.781178 222.862331 
L 176.919073 223.791944 
L 176.965186 224.730598 
" clip-path="url(#pfd46b40d77)" style="fill: #ed6925; fill-opacity: 0.75; stroke: #000000; stroke-opacity: 0.75; stroke-width: 0.5"/>
    <path d="M 135.308249 230.460197 
L 135.262136 231.39885 
L 135.124241 232.328464 
L 134.895892 233.240085 
L 134.579288 234.124935 
L 134.177478 234.974491 
L 133.694331 235.780572 
L 133.134502 236.535414 
L 132.50338 237.23175 
L 131.807045 237.862871 
L 131.052202 238.422701 
L 130.246122 238.905847 
L 129.396566 239.307657 
L 128.511716 239.624261 
L 127.600095 239.85261 
L 126.670481 239.990506 
L 125.731828 240.036619 
L 124.793174 239.990506 
L 123.86356 239.85261 
L 122.951939 239.624261 
L 122.06709 239.307657 
L 121.217534 238.905847 
L 120.411453 238.422701 
L 119.65661 237.862871 
L 118.960275 237.23175 
L 118.329153 236.535414 
L 117.769324 235.780572 
L 117.286177 234.974491 
L 116.884367 234.124935 
L 116.567763 233.240085 
L 116.339414 232.328464 
L 116.201519 231.39885 
L 116.155406 230.460197 
L 116.201519 229.521543 
L 116.339414 228.59193 
L 116.567763 227.680308 
L 116.884367 226.795459 
L 117.286177 225.945903 
L 117.769324 225.139822 
L 118.329153 224.384979 
L 118.960275 223.688644 
L 119.65661 223.057523 
L 120.411453 222.497693 
L 121.217534 222.014547 
L 122.06709 221.612737 
L 122.951939 221.296132 
L 123.86356 221.067783 
L 124.793174 220.929888 
L 125.731828 220.883775 
L 126.670481 220.929888 
L 127.600095 221.067783 
L 128.511716 221.296132 
L 129.396566 221.612737 
L 130.246122 222.014547 
L 131.052202 222.497693 
L 131.807045 223.057523 
L 132.50338 223.688644 
L 133.134502 224.384979 
L 133.694331 225.139822 
L 134.177478 225.945903 
L 134.579288 226.795459 
L 134.895892 227.680308 
L 135.124241 228.59193 
L 135.262136 229.521543 
L 135.308249 230.460197 
" clip-path="url(#pfd46b40d77)" style="fill: #ed6925; fill-opacity: 0.75; stroke: #000000; stroke-opacity: 0.75; stroke-width: 0.5"/>
   </g>
   <g id="matplotlib.axis_1">
    <g id="xtick_1"/>
    <g id="xtick_2"/>
    <g id="xtick_3"/>
    <g id="xtick_4"/>
    <g id="xtick_5"/>
   </g>
   <g id="matplotlib.axis_2">
    <g id="ytick_1"/>
    <g id="ytick_2"/>
    <g id="ytick_3"/>
    <g id="ytick_4"/>
    <g id="ytick_5"/>
    <g id="ytick_6"/>
    <g id="ytick_7"/>
   </g>
   <g id="PathCollection_1">
    <defs>
     <path id="m1e8b5c5c36" d="M 0 1.118034 
C 0.296506 1.118034 0.580908 1.000231 0.790569 0.790569 
C 1.000231 0.580908 1.118034 0.296506 1.118034 0 
C 1.118034 -0.296506 1.000231 -0.580908 0.790569 -0.790569 
C 0.580908 -1.000231 0.296506 -1.118034 0 -1.118034 
C -0.296506 -1.118034 -0.580908 -1.000231 -0.790569 -0.790569 
C -1.000231 -0.580908 -1.118034 -0.296506 -1.118034 0 
C -1.118034 0.296506 -1.000231 0.580908 -0.790569 0.790569 
C -0.580908 1.000231 -0.296506 1.118034 0 1.118034 
z
" style="stroke: #000000"/>
    </defs>
    <g clip-path="url(#pfd46b40d77)">
     <use xlink:href="#m1e8b5c5c36" x="63.499299" y="282.699777" style="stroke: #000000"/>
     <use xlink:href="#m1e8b5c5c36" x="81.073237" y="324.314685" style="stroke: #000000"/>
     <use xlink:href="#m1e8b5c5c36" x="89.689714" y="277.457408" style="stroke: #000000"/>
     <use xlink:href="#m1e8b5c5c36" x="32.485513" y="315.182613" style="stroke: #000000"/>
     <use xlink:href="#m1e8b5c5c36" x="68.250046" y="240.864399" style="stroke: #000000"/>
     <use xlink:href="#m1e8b5c5c36" x="375.777498" y="275.456434" style="stroke: #000000"/>
     <use xlink:href="#m1e8b5c5c36" x="316.896103" y="213.688674" style="stroke: #000000"/>
     <use xlink:href="#m1e8b5c5c36" x="264.682425" y="153.637395" style="stroke: #000000"/>
     <use xlink:href="#m1e8b5c5c36" x="326.174667" y="174.85261" style="stroke: #000000"/>
     <use xlink:href="#m1e8b5c5c36" x="481.090909" y="133.533406" style="stroke: #000000"/>
     <use xlink:href="#m1e8b5c5c36" x="381.020989" y="248.305354" style="stroke: #000000"/>
     <use xlink:href="#m1e8b5c5c36" x="295.954611" y="158.782872" style="stroke: #000000"/>
     <use xlink:href="#m1e8b5c5c36" x="169.943442" y="247.968085" style="stroke: #000000"/>
     <use xlink:href="#m1e8b5c5c36" x="168.116396" y="287.836959" style="stroke: #000000"/>
     <use xlink:href="#m1e8b5c5c36" x="203.976237" y="262.639182" style="stroke: #000000"/>
     <use xlink:href="#m1e8b5c5c36" x="213.762546" y="180.613519" style="stroke: #000000"/>
     <use xlink:href="#m1e8b5c5c36" x="167.388764" y="224.730598" style="stroke: #000000"/>
     <use xlink:href="#m1e8b5c5c36" x="125.731828" y="230.460197" style="stroke: #000000"/>
    </g>
   </g>
   <g id="line2d_1">
    <path d="M 78.994232 242.792303 
L 80.548842 233.549408 
L 80.548842 233.549408 
L 68.869456 255.955571 
L 76.105926 263.453441 
L 76.105926 263.453441 
L 66.268698 279.576948 
L 67.477524 274.267275 
L 67.477524 274.267275 
L 66.210689 264.331323 
L 66.210689 264.331323 
L 71.711402 283.848621 
L 71.711402 283.848621 
L 77.654504 256.985344 
L 77.654504 256.985344 
L 64.260153 254.224977 
L 64.260153 254.224977 
L 69.695778 271.934378 
L 69.695778 271.934378 
L 78.512074 270.312163 
L 78.512074 270.312163 
L 88.137832 286.87116 
L 88.137832 286.87116 
L 88.518238 282.243766 
L 88.518238 282.243766 
L 74.887618 285.183897 
L 77.429901 294.85345 
L 77.429901 294.85345 
L 72.139444 318.001486 
L 72.139444 318.001486 
L 95.224513 304.581468 
L 95.224513 304.581468 
L 91.395385 307.050979 
L 91.395385 307.050979 
L 93.884035 305.013097 
L 101.669853 301.467332 
L 81.007349 310.713362 
L 81.007349 310.713362 
L 79.283952 308.835561 
L 79.283952 308.835561 
L 62.681469 296.255109 
L 62.681469 296.255109 
L 60.794321 299.005888 
L 77.34752 299.036971 
L 77.34752 299.036971 
L 93.302499 297.736402 
L 93.302499 297.736402 
L 83.66297 287.535629 
L 83.66297 287.535629 
L 81.226548 271.946598 
L 81.226548 271.946598 
L 67.385357 256.756889 
L 67.385357 256.756889 
L 77.181077 254.657431 
L 77.181077 254.657431 
L 52.360643 268.708734 
L 53.663234 270.379098 
L 53.663234 270.379098 
L 70.31484 265.440313 
L 70.31484 265.440313 
L 84.756492 256.647293 
L 84.756492 256.647293 
L 96.840168 245.869197 
L 110.955869 249.522291 
L 110.955869 249.522291 
L 113.551192 255.033256 
L 113.551192 255.033256 
L 154.44391 280.549126 
L 196.099303 291.189447 
L 229.65061 270.882992 
L 228.015751 221.73081 
L 244.610169 197.4219 
L 270.522669 194.910194 
L 316.950793 134.719429 
L 324.777177 107.533069 
L 345.479421 55.498343 
L 291.770346 66.044408 
L 295.923195 76.222903 
L 295.923195 76.222903 
L 314.115242 61.730642 
L 314.115242 61.730642 
L 287.441072 76.228839 
L 272.530464 91.381753 
L 302.685803 87.921766 
L 313.653304 106.943766 
L 273.08632 133.253769 
L 273.08632 133.253769 
L 284.381535 99.259124 
L 284.66336 106.061835 
L 314.611852 139.535225 
L 314.611852 139.535225 
L 302.628111 98.795991 
L 286.90127 52.311143 
L 286.90127 52.311143 
L 319.828302 90.371354 
L 319.828302 90.371354 
L 373.069461 88.865834 
L 392.924682 76.86199 
L 412.053302 113.314135 
L 412.053302 113.314135 
L 421.804346 91.545338 
L 444.485706 67.578517 
L 413.357801 66.039193 
L 413.357801 66.039193 
L 453.643549 119.792867 
L 417.277315 156.208402 
L 395.108471 176.268496 
L 377.653993 196.719667 
L 377.653993 196.719667 
L 396.719586 192.972715 
L 398.123657 241.023487 
L 396.416623 233.432718 
L 406.42425 220.316866 
L 380.827461 201.231009 
L 380.827461 201.231009 
L 380.765404 169.705991 
L 380.765404 169.705991 
L 387.265654 112.81738 
L 382.43507 132.40728 
L 407.472431 137.434994 
L 432.213308 178.26511 
L 432.213308 178.26511 
L 456.01031 199.406893 
L 381.261279 156.07112 
L 381.261279 156.07112 
L 374.262952 154.43524 
L 374.262952 154.43524 
L 354.933166 191.842745 
L 337.804725 208.061998 
L 303.367388 158.904022 
L 309.00965 158.126832 
L 309.00965 158.126832 
L 276.817768 151.977832 
L 338.72527 138.715286 
L 306.971124 134.146369 
L 306.971124 134.146369 
L 328.890843 171.901445 
L 297.037169 148.425717 
L 297.037169 148.425717 
L 299.703521 142.685555 
L 342.639639 198.337142 
L 294.598138 222.116177 
L 294.598138 222.116177 
L 314.516638 190.844513 
L 309.533808 215.577607 
L 309.533808 215.577607 
L 316.876745 192.774131 
L 316.876745 192.774131 
L 296.849204 221.874818 
L 296.849204 221.874818 
L 274.389724 201.400777 
L 274.389724 201.400777 
L 285.064776 152.996822 
L 285.064776 152.996822 
L 271.572621 161.373226 
L 271.572621 161.373226 
L 283.567876 152.469162 
L 283.567876 152.469162 
L 320.921061 139.702828 
L 338.36376 115.202029 
L 325.936401 92.40564 
L 324.609077 94.431253 
L 356.797719 98.115098 
L 318.956982 129.094288 
L 348.629335 141.384299 
L 326.258523 156.885064 
L 345.854438 181.148561 
L 345.854438 181.148561 
L 338.510999 232.412725 
L 360.483388 217.836978 
L 360.483388 217.836978 
L 381.306763 168.387216 
L 454.502287 105.736126 
L 454.502287 105.736126 
L 440.227344 96.534463 
L 440.227344 96.534463 
L 424.379715 56.946499 
L 413.575107 69.73652 
L 428.168289 100.052814 
L 428.168289 100.052814 
L 394.937947 58.803498 
L 344.469379 79.238106 
L 336.236391 87.215328 
L 336.236391 87.215328 
L 363.383855 102.841576 
L 391.460019 106.700619 
L 391.460019 106.700619 
L 401.819804 95.410818 
L 392.659678 60.805375 
L 393.783471 86.476305 
L 393.783471 86.476305 
L 369.250294 64.125604 
L 369.250294 64.125604 
L 392.780732 58.350522 
L 405.808004 86.653686 
L 398.65759 121.674381 
L 398.65759 121.674381 
L 310.899179 129.872164 
L 284.00363 156.268784 
L 295.785999 180.896328 
L 348.450392 186.03817 
L 303.534578 205.113406 
L 278.401961 117.29406 
L 299.490182 124.40042 
L 332.76732 133.023673 
L 311.558819 174.30456 
L 340.198662 129.294607 
L 340.198662 129.294607 
L 359.435392 169.110044 
L 391.717953 142.007763 
L 391.717953 142.007763 
L 346.092695 164.40353 
L 302.433482 163.369301 
L 302.433482 163.369301 
L 296.493341 143.705458 
L 280.904407 139.558286 
L 290.262395 189.933218 
L 286.918287 212.962792 
L 286.918287 212.962792 
L 280.215049 242.108493 
L 302.996908 221.15343 
L 302.996908 221.15343 
L 312.906334 232.282269 
L 371.413644 177.859918 
L 363.94186 175.485926 
L 363.94186 175.485926 
L 368.805049 154.888223 
L 366.753275 194.48904 
L 409.35652 173.419971 
L 403.429999 177.112752 
L 403.429999 177.112752 
L 369.759277 134.92243 
L 369.759277 134.92243 
L 446.460715 88.624354 
L 446.460715 88.624354 
L 435.886992 56.764104 
L 435.886992 56.764104 
L 414.482504 88.514684 
L 414.482504 88.514684 
L 448.826374 94.747229 
L 448.826374 94.747229 
L 428.153238 88.821065 
L 394.050189 119.921179 
L 397.529114 117.37314 
L 398.840162 140.676641 
L 401.440114 155.794581 
L 377.311227 158.092828 
L 328.674426 140.191904 
L 284.487045 171.543085 
L 273.615732 135.676993 
L 273.615732 135.676993 
L 274.777179 117.933967 
L 274.777179 117.933967 
L 285.604381 170.194111 
L 285.604381 170.194111 
L 280.712834 135.734108 
L 280.712834 135.734108 
L 274.676879 137.727833 
L 274.676879 137.727833 
L 319.616512 149.098014 
L 319.616512 149.098014 
L 333.932856 139.384752 
L 384.673314 136.205165 
L 384.673314 136.205165 
L 359.853748 142.811744 
L 359.853748 142.811744 
L 361.171041 111.265214 
L 361.171041 111.265214 
L 350.177237 139.539482 
L 350.177237 139.539482 
L 327.834595 107.861898 
L 351.339397 70.875811 
L 413.247553 103.416417 
L 376.521322 78.321777 
L 375.396749 69.98299 
L 375.396749 69.98299 
L 308.72758 82.446743 
L 308.72758 82.446743 
L 369.093425 87.27544 
L 369.093425 87.27544 
L 367.281905 114.570748 
L 367.281905 114.570748 
L 405.312369 123.380442 
L 375.505465 113.49169 
L 375.505465 113.49169 
L 394.107156 120.873647 
L 394.107156 120.873647 
L 408.767869 144.015267 
L 452.234726 199.81913 
L 446.861961 147.77117 
L 398.472141 159.047843 
L 352.110335 169.671191 
L 306.65271 183.788724 
L 259.741929 194.333926 
L 221.959651 206.103422 
L 222.592489 253.866622 
L 210.597189 290.344394 
L 174.75845 290.674412 
L 174.75845 290.674412 
L 174.462066 296.567909 
L 174.462066 296.567909 
L 164.151928 273.406869 
L 164.151928 273.406869 
L 158.211954 273.064973 
L 167.985623 267.437663 
L 167.985623 267.437663 
L 152.986374 275.4679 
L 152.986374 275.4679 
L 173.347538 259.552859 
L 173.347538 259.552859 
L 168.329625 249.101046 
L 168.329625 249.101046 
L 168.117052 275.638653 
L 168.117052 275.638653 
L 152.550485 283.407379 
L 152.550485 283.407379 
L 166.551764 264.965341 
L 166.551764 264.965341 
L 170.573306 265.94238 
L 164.536066 253.062746 
L 158.152186 231.97683 
L 158.152186 231.97683 
L 137.221654 226.177409 
L 137.221654 226.177409 
L 156.491794 229.523496 
L 156.491794 229.523496 
L 149.109651 227.539653 
L 149.109651 227.539653 
L 157.031503 230.794343 
L 157.031503 230.794343 
L 158.805762 241.786371 
L 158.805762 241.786371 
L 171.476626 230.866683 
L 171.476626 230.866683 
L 147.602489 223.010796 
L 147.602489 223.010796 
L 154.771632 222.949312 
L 154.771632 222.949312 
L 169.007005 218.02549 
L 168.917485 213.589212 
L 168.917485 213.589212 
L 172.678685 218.385291 
L 172.678685 218.385291 
L 156.428114 234.358281 
L 156.428114 234.358281 
L 153.606083 251.325592 
L 153.606083 251.325592 
L 156.132838 259.396253 
L 156.132838 259.396253 
L 128.035897 262.897911 
L 128.035897 262.897911 
L 126.014102 237.781983 
L 126.014102 237.781983 
L 120.138558 246.192484 
L 120.138558 246.192484 
" clip-path="url(#pfd46b40d77)" style="fill: none; stroke: #1f77b4; stroke-opacity: 0.01; stroke-width: 1.5; stroke-linecap: square"/>
   </g>
  </g>
  <g id="axes_2">
   <g id="patch_3">
    <path d="M 0 414.92 
L 504 414.92 
L 504 382.736479 
L 0 382.736479 
z
" style="fill: #ffffff"/>
   </g>
   <g id="matplotlib.axis_3">
    <g id="xtick_6">
     <g id="line2d_2">
      <defs>
       <path id="mba923abaf7" d="M 0 0 
L 0 3.5 
" style="stroke: #000000; stroke-width: 0.8"/>
      </defs>
      <g>
       <use xlink:href="#mba923abaf7" x="45.974203" y="414.92" style="stroke: #000000; stroke-width: 0.8"/>
      </g>
     </g>
     <g id="text_1">
      <!-- 08 AM -->
      <g transform="translate(30.288265 429.518437) scale(0.1 -0.1)">
       <defs>
        <path id="DejaVuSans-30" d="M 2034 4250 
Q 1547 4250 1301 3770 
Q 1056 3291 1056 2328 
Q 1056 1369 1301 889 
Q 1547 409 2034 409 
Q 2525 409 2770 889 
Q 3016 1369 3016 2328 
Q 3016 3291 2770 3770 
Q 2525 4250 2034 4250 
z
M 2034 4750 
Q 2819 4750 3233 4129 
Q 3647 3509 3647 2328 
Q 3647 1150 3233 529 
Q 2819 -91 2034 -91 
Q 1250 -91 836 529 
Q 422 1150 422 2328 
Q 422 3509 836 4129 
Q 1250 4750 2034 4750 
z
" transform="scale(0.015625)"/>
        <path id="DejaVuSans-38" d="M 2034 2216 
Q 1584 2216 1326 1975 
Q 1069 1734 1069 1313 
Q 1069 891 1326 650 
Q 1584 409 2034 409 
Q 2484 409 2743 651 
Q 3003 894 3003 1313 
Q 3003 1734 2745 1975 
Q 2488 2216 2034 2216 
z
M 1403 2484 
Q 997 2584 770 2862 
Q 544 3141 544 3541 
Q 544 4100 942 4425 
Q 1341 4750 2034 4750 
Q 2731 4750 3128 4425 
Q 3525 4100 3525 3541 
Q 3525 3141 3298 2862 
Q 3072 2584 2669 2484 
Q 3125 2378 3379 2068 
Q 3634 1759 3634 1313 
Q 3634 634 3220 271 
Q 2806 -91 2034 -91 
Q 1263 -91 848 271 
Q 434 634 434 1313 
Q 434 1759 690 2068 
Q 947 2378 1403 2484 
z
M 1172 3481 
Q 1172 3119 1398 2916 
Q 1625 2713 2034 2713 
Q 2441 2713 2670 2916 
Q 2900 3119 2900 3481 
Q 2900 3844 2670 4047 
Q 2441 4250 2034 4250 
Q 1625 4250 1398 4047 
Q 1172 3844 1172 3481 
z
" transform="scale(0.015625)"/>
        <path id="DejaVuSans-20" transform="scale(0.015625)"/>
        <path id="DejaVuSans-41" d="M 2188 4044 
L 1331 1722 
L 3047 1722 
L 2188 4044 
z
M 1831 4666 
L 2547 4666 
L 4325 0 
L 3669 0 
L 3244 1197 
L 1141 1197 
L 716 0 
L 50 0 
L 1831 4666 
z
" transform="scale(0.015625)"/>
        <path id="DejaVuSans-4d" d="M 628 4666 
L 1569 4666 
L 2759 1491 
L 3956 4666 
L 4897 4666 
L 4897 0 
L 4281 0 
L 4281 4097 
L 3078 897 
L 2444 897 
L 1241 4097 
L 1241 0 
L 628 0 
L 628 4666 
z
" transform="scale(0.015625)"/>
       </defs>
       <use xlink:href="#DejaVuSans-30"/>
       <use xlink:href="#DejaVuSans-38" x="63.623047"/>
       <use xlink:href="#DejaVuSans-20" x="127.246094"/>
       <use xlink:href="#DejaVuSans-41" x="159.033203"/>
       <use xlink:href="#DejaVuSans-4d" x="227.441406"/>
      </g>
     </g>
    </g>
    <g id="xtick_7">
     <g id="line2d_3">
      <g>
       <use xlink:href="#mba923abaf7" x="233.199463" y="414.92" style="stroke: #000000; stroke-width: 0.8"/>
      </g>
     </g>
     <g id="text_2">
      <!-- 09 AM -->
      <g transform="translate(217.513526 429.518437) scale(0.1 -0.1)">
       <defs>
        <path id="DejaVuSans-39" d="M 703 97 
L 703 672 
Q 941 559 1184 500 
Q 1428 441 1663 441 
Q 2288 441 2617 861 
Q 2947 1281 2994 2138 
Q 2813 1869 2534 1725 
Q 2256 1581 1919 1581 
Q 1219 1581 811 2004 
Q 403 2428 403 3163 
Q 403 3881 828 4315 
Q 1253 4750 1959 4750 
Q 2769 4750 3195 4129 
Q 3622 3509 3622 2328 
Q 3622 1225 3098 567 
Q 2575 -91 1691 -91 
Q 1453 -91 1209 -44 
Q 966 3 703 97 
z
M 1959 2075 
Q 2384 2075 2632 2365 
Q 2881 2656 2881 3163 
Q 2881 3666 2632 3958 
Q 2384 4250 1959 4250 
Q 1534 4250 1286 3958 
Q 1038 3666 1038 3163 
Q 1038 2656 1286 2365 
Q 1534 2075 1959 2075 
z
" transform="scale(0.015625)"/>
       </defs>
       <use xlink:href="#DejaVuSans-30"/>
       <use xlink:href="#DejaVuSans-39" x="63.623047"/>
       <use xlink:href="#DejaVuSans-20" x="127.246094"/>
       <use xlink:href="#DejaVuSans-41" x="159.033203"/>
       <use xlink:href="#DejaVuSans-4d" x="227.441406"/>
      </g>
     </g>
    </g>
    <g id="xtick_8">
     <g id="line2d_4">
      <g>
       <use xlink:href="#mba923abaf7" x="420.424724" y="414.92" style="stroke: #000000; stroke-width: 0.8"/>
      </g>
     </g>
     <g id="text_3">
      <!-- 10 AM -->
      <g transform="translate(404.738786 429.518437) scale(0.1 -0.1)">
       <defs>
        <path id="DejaVuSans-31" d="M 794 531 
L 1825 531 
L 1825 4091 
L 703 3866 
L 703 4441 
L 1819 4666 
L 2450 4666 
L 2450 531 
L 3481 531 
L 3481 0 
L 794 0 
L 794 531 
z
" transform="scale(0.015625)"/>
       </defs>
       <use xlink:href="#DejaVuSans-31"/>
       <use xlink:href="#DejaVuSans-30" x="63.623047"/>
       <use xlink:href="#DejaVuSans-20" x="127.246094"/>
       <use xlink:href="#DejaVuSans-41" x="159.033203"/>
       <use xlink:href="#DejaVuSans-4d" x="227.441406"/>
      </g>
     </g>
    </g>
   </g>
   <g id="matplotlib.axis_4"/>
   <g id="LineCollection_1">
    <path d="M 62.40842 408.483296 
L 62.40842 389.173183 
" clip-path="url(#pb429ff21d8)" style="fill: none; stroke: #000000"/>
    <path d="M 66.41296 408.483296 
L 66.41296 389.173183 
" clip-path="url(#pb429ff21d8)" style="fill: none; stroke: #000000"/>
    <path d="M 74.78609 408.483296 
L 74.78609 389.173183 
" clip-path="url(#pb429ff21d8)" style="fill: none; stroke: #000000"/>
    <path d="M 82.483129 408.483296 
L 82.483129 389.173183 
" clip-path="url(#pb429ff21d8)" style="fill: none; stroke: #000000"/>
    <path d="M 150.404293 408.483296 
L 150.404293 389.173183 
" clip-path="url(#pb429ff21d8)" style="fill: none; stroke: #000000"/>
    <path d="M 215.933134 408.483296 
L 215.933134 389.173183 
" clip-path="url(#pb429ff21d8)" style="fill: none; stroke: #000000"/>
    <path d="M 221.445878 408.483296 
L 221.445878 389.173183 
" clip-path="url(#pb429ff21d8)" style="fill: none; stroke: #000000"/>
    <path d="M 225.970488 408.483296 
L 225.970488 389.173183 
" clip-path="url(#pb429ff21d8)" style="fill: none; stroke: #000000"/>
    <path d="M 249.789702 408.483296 
L 249.789702 389.173183 
" clip-path="url(#pb429ff21d8)" style="fill: none; stroke: #000000"/>
    <path d="M 273.556908 408.483296 
L 273.556908 389.173183 
" clip-path="url(#pb429ff21d8)" style="fill: none; stroke: #000000"/>
    <path d="M 282.086059 408.483296 
L 282.086059 389.173183 
" clip-path="url(#pb429ff21d8)" style="fill: none; stroke: #000000"/>
    <path d="M 311.157982 408.483296 
L 311.157982 389.173183 
" clip-path="url(#pb429ff21d8)" style="fill: none; stroke: #000000"/>
    <path d="M 350.995357 408.483296 
L 350.995357 389.173183 
" clip-path="url(#pb429ff21d8)" style="fill: none; stroke: #000000"/>
    <path d="M 359.4725 408.483296 
L 359.4725 389.173183 
" clip-path="url(#pb429ff21d8)" style="fill: none; stroke: #000000"/>
    <path d="M 360.87669 408.483296 
L 360.87669 389.173183 
" clip-path="url(#pb429ff21d8)" style="fill: none; stroke: #000000"/>
    <path d="M 419.436591 408.483296 
L 419.436591 389.173183 
" clip-path="url(#pb429ff21d8)" style="fill: none; stroke: #000000"/>
    <path d="M 433.946548 408.483296 
L 433.946548 389.173183 
" clip-path="url(#pb429ff21d8)" style="fill: none; stroke: #000000"/>
    <path d="M 441.59158 408.483296 
L 441.59158 389.173183 
" clip-path="url(#pb429ff21d8)" style="fill: none; stroke: #000000"/>
   </g>
   <g id="LineCollection_2">
    <path d="M 62.40842 408.483296 
L 62.40842 389.173183 
" clip-path="url(#pb429ff21d8)" style="fill: none; stroke: #ed6925; stroke-width: 1.3"/>
    <path d="M 66.41296 408.483296 
L 66.41296 389.173183 
" clip-path="url(#pb429ff21d8)" style="fill: none; stroke: #ed6925; stroke-width: 1.3"/>
    <path d="M 74.78609 408.483296 
L 74.78609 389.173183 
" clip-path="url(#pb429ff21d8)" style="fill: none; stroke: #ed6925; stroke-width: 1.3"/>
    <path d="M 82.483129 408.483296 
L 82.483129 389.173183 
" clip-path="url(#pb429ff21d8)" style="fill: none; stroke: #ed6925; stroke-width: 1.3"/>
    <path d="M 150.404293 408.483296 
L 150.404293 389.173183 
" clip-path="url(#pb429ff21d8)" style="fill: none; stroke: #ed6925; stroke-width: 1.3"/>
    <path d="M 221.445878 408.483296 
L 221.445878 389.173183 
" clip-path="url(#pb429ff21d8)" style="fill: none; stroke: #781c6d; stroke-width: 1.3"/>
    <path d="M 225.970488 408.483296 
L 225.970488 389.173183 
" clip-path="url(#pb429ff21d8)" style="fill: none; stroke: #781c6d; stroke-width: 1.3"/>
    <path d="M 249.789702 408.483296 
L 249.789702 389.173183 
" clip-path="url(#pb429ff21d8)" style="fill: none; stroke: #781c6d; stroke-width: 1.3"/>
    <path d="M 311.157982 408.483296 
L 311.157982 389.173183 
" clip-path="url(#pb429ff21d8)" style="fill: none; stroke: #781c6d; stroke-width: 1.3"/>
    <path d="M 350.995357 408.483296 
L 350.995357 389.173183 
" clip-path="url(#pb429ff21d8)" style="fill: none; stroke: #ed6925; stroke-width: 1.3"/>
    <path d="M 359.4725 408.483296 
L 359.4725 389.173183 
" clip-path="url(#pb429ff21d8)" style="fill: none; stroke: #ed6925; stroke-width: 1.3"/>
    <path d="M 360.87669 408.483296 
L 360.87669 389.173183 
" clip-path="url(#pb429ff21d8)" style="fill: none; stroke: #ed6925; stroke-width: 1.3"/>
    <path d="M 433.946548 408.483296 
L 433.946548 389.173183 
" clip-path="url(#pb429ff21d8)" style="fill: none; stroke: #ed6925; stroke-width: 1.3"/>
    <path d="M 441.59158 408.483296 
L 441.59158 389.173183 
" clip-path="url(#pb429ff21d8)" style="fill: none; stroke: #ed6925; stroke-width: 1.3"/>
   </g>
   <g id="patch_4">
    <path d="M 0 414.92 
L 0 382.736479 
" style="fill: none; stroke: #000000; stroke-width: 0.8; stroke-linejoin: miter; stroke-linecap: square"/>
   </g>
   <g id="patch_5">
    <path d="M 504 414.92 
L 504 382.736479 
" style="fill: none; stroke: #000000; stroke-width: 0.8; stroke-linejoin: miter; stroke-linecap: square"/>
   </g>
   <g id="patch_6">
    <path d="M 0 414.92 
L 504 414.92 
" style="fill: none; stroke: #000000; stroke-width: 0.8; stroke-linejoin: miter; stroke-linecap: square"/>
   </g>
   <g id="patch_7">
    <path d="M 0 382.736479 
L 504 382.736479 
" style="fill: none; stroke: #000000; stroke-width: 0.8; stroke-linejoin: miter; stroke-linecap: square"/>
   </g>
   <g id="text_4">
    <!-- timestamps -->
    <g transform="translate(216.510938 376.736479) scale(0.12 -0.12)">
     <defs>
      <path id="DejaVuSans-74" d="M 1172 4494 
L 1172 3500 
L 2356 3500 
L 2356 3053 
L 1172 3053 
L 1172 1153 
Q 1172 725 1289 603 
Q 1406 481 1766 481 
L 2356 481 
L 2356 0 
L 1766 0 
Q 1100 0 847 248 
Q 594 497 594 1153 
L 594 3053 
L 172 3053 
L 172 3500 
L 594 3500 
L 594 4494 
L 1172 4494 
z
" transform="scale(0.015625)"/>
      <path id="DejaVuSans-69" d="M 603 3500 
L 1178 3500 
L 1178 0 
L 603 0 
L 603 3500 
z
M 603 4863 
L 1178 4863 
L 1178 4134 
L 603 4134 
L 603 4863 
z
" transform="scale(0.015625)"/>
      <path id="DejaVuSans-6d" d="M 3328 2828 
Q 3544 3216 3844 3400 
Q 4144 3584 4550 3584 
Q 5097 3584 5394 3201 
Q 5691 2819 5691 2113 
L 5691 0 
L 5113 0 
L 5113 2094 
Q 5113 2597 4934 2840 
Q 4756 3084 4391 3084 
Q 3944 3084 3684 2787 
Q 3425 2491 3425 1978 
L 3425 0 
L 2847 0 
L 2847 2094 
Q 2847 2600 2669 2842 
Q 2491 3084 2119 3084 
Q 1678 3084 1418 2786 
Q 1159 2488 1159 1978 
L 1159 0 
L 581 0 
L 581 3500 
L 1159 3500 
L 1159 2956 
Q 1356 3278 1631 3431 
Q 1906 3584 2284 3584 
Q 2666 3584 2933 3390 
Q 3200 3197 3328 2828 
z
" transform="scale(0.015625)"/>
      <path id="DejaVuSans-65" d="M 3597 1894 
L 3597 1613 
L 953 1613 
Q 991 1019 1311 708 
Q 1631 397 2203 397 
Q 2534 397 2845 478 
Q 3156 559 3463 722 
L 3463 178 
Q 3153 47 2828 -22 
Q 2503 -91 2169 -91 
Q 1331 -91 842 396 
Q 353 884 353 1716 
Q 353 2575 817 3079 
Q 1281 3584 2069 3584 
Q 2775 3584 3186 3129 
Q 3597 2675 3597 1894 
z
M 3022 2063 
Q 3016 2534 2758 2815 
Q 2500 3097 2075 3097 
Q 1594 3097 1305 2825 
Q 1016 2553 972 2059 
L 3022 2063 
z
" transform="scale(0.015625)"/>
      <path id="DejaVuSans-73" d="M 2834 3397 
L 2834 2853 
Q 2591 2978 2328 3040 
Q 2066 3103 1784 3103 
Q 1356 3103 1142 2972 
Q 928 2841 928 2578 
Q 928 2378 1081 2264 
Q 1234 2150 1697 2047 
L 1894 2003 
Q 2506 1872 2764 1633 
Q 3022 1394 3022 966 
Q 3022 478 2636 193 
Q 2250 -91 1575 -91 
Q 1294 -91 989 -36 
Q 684 19 347 128 
L 347 722 
Q 666 556 975 473 
Q 1284 391 1588 391 
Q 1994 391 2212 530 
Q 2431 669 2431 922 
Q 2431 1156 2273 1281 
Q 2116 1406 1581 1522 
L 1381 1569 
Q 847 1681 609 1914 
Q 372 2147 372 2553 
Q 372 3047 722 3315 
Q 1072 3584 1716 3584 
Q 2034 3584 2315 3537 
Q 2597 3491 2834 3397 
z
" transform="scale(0.015625)"/>
      <path id="DejaVuSans-61" d="M 2194 1759 
Q 1497 1759 1228 1600 
Q 959 1441 959 1056 
Q 959 750 1161 570 
Q 1363 391 1709 391 
Q 2188 391 2477 730 
Q 2766 1069 2766 1631 
L 2766 1759 
L 2194 1759 
z
M 3341 1997 
L 3341 0 
L 2766 0 
L 2766 531 
Q 2569 213 2275 61 
Q 1981 -91 1556 -91 
Q 1019 -91 701 211 
Q 384 513 384 1019 
Q 384 1609 779 1909 
Q 1175 2209 1959 2209 
L 2766 2209 
L 2766 2266 
Q 2766 2663 2505 2880 
Q 2244 3097 1772 3097 
Q 1472 3097 1187 3025 
Q 903 2953 641 2809 
L 641 3341 
Q 956 3463 1253 3523 
Q 1550 3584 1831 3584 
Q 2591 3584 2966 3190 
Q 3341 2797 3341 1997 
z
" transform="scale(0.015625)"/>
      <path id="DejaVuSans-70" d="M 1159 525 
L 1159 -1331 
L 581 -1331 
L 581 3500 
L 1159 3500 
L 1159 2969 
Q 1341 3281 1617 3432 
Q 1894 3584 2278 3584 
Q 2916 3584 3314 3078 
Q 3713 2572 3713 1747 
Q 3713 922 3314 415 
Q 2916 -91 2278 -91 
Q 1894 -91 1617 61 
Q 1341 213 1159 525 
z
M 3116 1747 
Q 3116 2381 2855 2742 
Q 2594 3103 2138 3103 
Q 1681 3103 1420 2742 
Q 1159 2381 1159 1747 
Q 1159 1113 1420 752 
Q 1681 391 2138 391 
Q 2594 391 2855 752 
Q 3116 1113 3116 1747 
z
" transform="scale(0.015625)"/>
     </defs>
     <use xlink:href="#DejaVuSans-74"/>
     <use xlink:href="#DejaVuSans-69" x="39.208984"/>
     <use xlink:href="#DejaVuSans-6d" x="66.992188"/>
     <use xlink:href="#DejaVuSans-65" x="164.404297"/>
     <use xlink:href="#DejaVuSans-73" x="225.927734"/>
     <use xlink:href="#DejaVuSans-74" x="278.027344"/>
     <use xlink:href="#DejaVuSans-61" x="317.236328"/>
     <use xlink:href="#DejaVuSans-6d" x="378.515625"/>
     <use xlink:href="#DejaVuSans-70" x="475.927734"/>
     <use xlink:href="#DejaVuSans-73" x="539.404297"/>
    </g>
   </g>
  </g>
 </g>
 <defs>
  <clipPath id="pfd46b40d77">
   <rect x="0" y="38.232144" width="504" height="309.737961"/>
  </clipPath>
  <clipPath id="pb429ff21d8">
   <rect x="0" y="382.736479" width="504" height="32.183521"/>
  </clipPath>
 </defs>
</svg>
