<?xml version="1.0" encoding="utf-8" standalone="no"?>
<!DOCTYPE svg PUBLIC "-//W3C//DTD SVG 1.1//EN"
  "http://www.w3.org/Graphics/SVG/1.1/DTD/svg11.dtd">
<svg xmlns:xlink="http://www.w3.org/1999/xlink" width="504pt" height="576pt" viewBox="0 0 504 576" xmlns="http://www.w3.org/2000/svg" version="1.1">
 <metadata>
  <rdf:RDF xmlns:dc="http://purl.org/dc/elements/1.1/" xmlns:cc="http://creativecommons.org/ns#" xmlns:rdf="http://www.w3.org/1999/02/22-rdf-syntax-ns#">
   <cc:Work>
    <dc:type rdf:resource="http://purl.org/dc/dcmitype/StillImage"/>
    <dc:date>2026-02-11T16:09:40.627681</dc:date>
    <dc:format>image/svg+xml</dc:format>
    <dc:creator>
     <cc:Agent>
      <dc:title>Matplotlib v3.10.6, https://matplotlib.org/</dc:title>
     </cc:Agent>
    </dc:creator>
   </cc:Work>
  </rdf:RDF>
 </metadata>
 <defs>
  <style type="text/css">*{stroke-linejoin: round; stroke-linecap: butt}</style>
 </defs>
 <g id="figure_1">
  <g id="patch_1">
   <path d="M 0 576 
L 504 576 
L 504 0 
L 0 0 
z
" style="fill: #ffffff"/>
  </g>
  <g id="axes_1">
   <g id="patch_2">
    <path d="M 0 414.769394 
L 504 414.769394 
L 504 189.491297 
L 0 189.491297 
z
" style="fill: #d3d3d3"/>
   </g>
   <g id="PatchCollection_1">
    <path d="M -530.395074 534.05238 
L -530.395074 208.416303 
L -204.758997 208.416303 
L -204.758997 534.05238 
z
" clip-path="url(#p5135e7fc18)" style="fill: #8c8c8c; stroke: #ffffff"/>
    <path d="M -693.213113 696.870418 
L -693.213113 534.05238 
L -611.804093 534.05238 
L -611.804093 696.870418 
z
" clip-path="url(#p5135e7fc18)" style="fill: #8c8c8c; stroke: #ffffff"/>
    <path d="M -611.804093 696.870418 
L -611.804093 615.461399 
L -448.986055 615.461399 
L -448.986055 696.870418 
z
" clip-path="url(#p5135e7fc18)" style="fill: #8c8c8c; stroke: #ffffff"/>
    <path d="M -448.986055 696.870418 
L -448.986055 615.461399 
L -367.577036 615.461399 
L -367.577036 696.870418 
z
" clip-path="url(#p5135e7fc18)" style="fill: #8c8c8c; stroke: #ffffff"/>
    <path d="M -367.577036 696.870418 
L -367.577036 615.461399 
L -286.168016 615.461399 
L -286.168016 696.870418 
z
" clip-path="url(#p5135e7fc18)" style="fill: #8c8c8c; stroke: #ffffff"/>
    <path d="M -204.758997 696.870418 
L -204.758997 615.461399 
L -123.349978 615.461399 
L -123.349978 696.870418 
z
" clip-path="url(#p5135e7fc18)" style="fill: #8c8c8c; stroke: #ffffff"/>
    <path d="M -123.349978 696.870418 
L -123.349978 615.461399 
L -41.940959 615.461399 
L -41.940959 696.870418 
z
" clip-path="url(#p5135e7fc18)" style="fill: #8c8c8c; stroke: #ffffff"/>
    <path d="M -123.349978 615.461399 
L -123.349978 534.05238 
L -41.940959 534.05238 
L -41.940959 615.461399 
z
" clip-path="url(#p5135e7fc18)" style="fill: #8c8c8c; stroke: #ffffff"/>
    <path d="M -123.349978 534.05238 
L -123.349978 452.643361 
L -41.940959 452.643361 
L -41.940959 534.05238 
z
" clip-path="url(#p5135e7fc18)" style="fill: #8c8c8c; stroke: #ffffff"/>
    <path d="M -123.349978 371.234341 
L -123.349978 289.825322 
L -41.940959 289.825322 
L -41.940959 371.234341 
z
" clip-path="url(#p5135e7fc18)" style="fill: #8c8c8c; stroke: #ffffff"/>
    <path d="M -123.349978 289.825322 
L -123.349978 208.416303 
L -41.940959 208.416303 
L -41.940959 289.825322 
z
" clip-path="url(#p5135e7fc18)" style="fill: #8c8c8c; stroke: #ffffff"/>
    <path d="M -123.349978 208.416303 
L -123.349978 127.007284 
L -41.940959 127.007284 
L -41.940959 208.416303 
z
" clip-path="url(#p5135e7fc18)" style="fill: #8c8c8c; stroke: #ffffff"/>
    <path d="M -204.758997 127.007284 
L -204.758997 45.598264 
L -41.940959 45.598264 
L -41.940959 127.007284 
z
" clip-path="url(#p5135e7fc18)" style="fill: #8c8c8c; stroke: #ffffff"/>
    <path d="M -286.168016 127.007284 
L -286.168016 45.598264 
L -204.758997 45.598264 
L -204.758997 127.007284 
z
" clip-path="url(#p5135e7fc18)" style="fill: #8c8c8c; stroke: #ffffff"/>
    <path d="M -367.577036 127.007284 
L -367.577036 45.598264 
L -286.168016 45.598264 
L -286.168016 127.007284 
z
" clip-path="url(#p5135e7fc18)" style="fill: #8c8c8c; stroke: #ffffff"/>
    <path d="M -530.395074 127.007284 
L -530.395074 45.598264 
L -448.986055 45.598264 
L -448.986055 127.007284 
z
" clip-path="url(#p5135e7fc18)" style="fill: #8c8c8c; stroke: #ffffff"/>
    <path d="M -611.804093 127.007284 
L -611.804093 45.598264 
L -530.395074 45.598264 
L -530.395074 127.007284 
z
" clip-path="url(#p5135e7fc18)" style="fill: #8c8c8c; stroke: #ffffff"/>
    <path d="M -693.213113 127.007284 
L -693.213113 45.598264 
L -611.804093 45.598264 
L -611.804093 127.007284 
z
" clip-path="url(#p5135e7fc18)" style="fill: #8c8c8c; stroke: #ffffff"/>
    <path d="M -693.213113 208.416303 
L -693.213113 127.007284 
L -611.804093 127.007284 
L -611.804093 208.416303 
z
" clip-path="url(#p5135e7fc18)" style="fill: #8c8c8c; stroke: #ffffff"/>
    <path d="M -693.213113 289.825322 
L -693.213113 208.416303 
L -611.804093 208.416303 
L -611.804093 289.825322 
z
" clip-path="url(#p5135e7fc18)" style="fill: #8c8c8c; stroke: #ffffff"/>
    <path d="M -693.213113 534.05238 
L -693.213113 371.234341 
L -611.804093 371.234341 
L -611.804093 534.05238 
z
" clip-path="url(#p5135e7fc18)" style="fill: #8c8c8c; stroke: #ffffff"/>
    <path d="M -937.44017 941.097476 
L -937.44017 778.279437 
L -856.031151 778.279437 
L -856.031151 941.097476 
z
" clip-path="url(#p5135e7fc18)" style="fill: #8c8c8c; stroke: #ffffff"/>
    <path d="M -856.031151 941.097476 
L -856.031151 778.279437 
L -774.622132 778.279437 
L -774.622132 941.097476 
z
" clip-path="url(#p5135e7fc18)" style="fill: #8c8c8c; stroke: #ffffff"/>
    <path d="M -774.622132 941.097476 
L -774.622132 778.279437 
L -611.804093 778.279437 
L -611.804093 941.097476 
z
" clip-path="url(#p5135e7fc18)" style="fill: #8c8c8c; stroke: #ffffff"/>
    <path d="M -611.804093 941.097476 
L -611.804093 778.279437 
L -448.986055 778.279437 
L -448.986055 941.097476 
z
" clip-path="url(#p5135e7fc18)" style="fill: #8c8c8c; stroke: #ffffff"/>
    <path d="M -367.577036 859.688457 
L -367.577036 778.279437 
L -123.349978 778.279437 
L -123.349978 859.688457 
z
" clip-path="url(#p5135e7fc18)" style="fill: #8c8c8c; stroke: #ffffff"/>
    <path d="M -367.577036 941.097476 
L -367.577036 859.688457 
L -123.349978 859.688457 
L -123.349978 941.097476 
z
" clip-path="url(#p5135e7fc18)" style="fill: #8c8c8c; stroke: #ffffff"/>
    <path d="M -123.349978 941.097476 
L -123.349978 778.279437 
L 120.87708 778.279437 
L 120.87708 941.097476 
z
" clip-path="url(#p5135e7fc18)" style="fill: #8c8c8c; stroke: #ffffff"/>
    <path d="M 120.87708 941.097476 
L 120.87708 778.279437 
L 202.286099 778.279437 
L 202.286099 941.097476 
z
" clip-path="url(#p5135e7fc18)" style="fill: #8c8c8c; stroke: #ffffff"/>
    <path d="M 39.46806 778.279437 
L 39.46806 615.461399 
L 202.286099 615.461399 
L 202.286099 778.279437 
z
" clip-path="url(#p5135e7fc18)" style="fill: #8c8c8c; stroke: #ffffff"/>
    <path d="M 39.46806 615.461399 
L 39.46806 452.643361 
L 120.87708 452.643361 
L 120.87708 615.461399 
z
" clip-path="url(#p5135e7fc18)" style="fill: #8c8c8c; stroke: #ffffff"/>
    <path d="M 120.87708 615.461399 
L 120.87708 452.643361 
L 202.286099 452.643361 
L 202.286099 615.461399 
z
" clip-path="url(#p5135e7fc18)" style="fill: #8c8c8c; stroke: #ffffff"/>
    <path d="M 39.46806 452.643361 
L 39.46806 289.825322 
L 202.286099 289.825322 
L 202.286099 452.643361 
z
" clip-path="url(#p5135e7fc18)" style="fill: #8c8c8c; stroke: #ffffff"/>
    <path d="M 39.46806 208.416303 
L 39.46806 45.598264 
L 202.286099 45.598264 
L 202.286099 208.416303 
z
" clip-path="url(#p5135e7fc18)" style="fill: #8c8c8c; stroke: #ffffff"/>
    <path d="M 39.46806 45.598264 
L 39.46806 -35.810755 
L 202.286099 -35.810755 
L 202.286099 45.598264 
z
" clip-path="url(#p5135e7fc18)" style="fill: #8c8c8c; stroke: #ffffff"/>
    <path d="M -41.940959 -35.810755 
L -41.940959 -117.219774 
L 202.286099 -117.219774 
L 202.286099 -35.810755 
z
" clip-path="url(#p5135e7fc18)" style="fill: #8c8c8c; stroke: #ffffff"/>
    <path d="M -123.349978 -35.810755 
L -123.349978 -117.219774 
L -41.940959 -117.219774 
L -41.940959 -35.810755 
z
" clip-path="url(#p5135e7fc18)" style="fill: #8c8c8c; stroke: #ffffff"/>
    <path d="M 39.46806 -117.219774 
L 39.46806 -198.628793 
L 202.286099 -198.628793 
L 202.286099 -117.219774 
z
" clip-path="url(#p5135e7fc18)" style="fill: #8c8c8c; stroke: #ffffff"/>
    <path d="M -123.349978 -117.219774 
L -123.349978 -198.628793 
L 39.46806 -198.628793 
L 39.46806 -117.219774 
z
" clip-path="url(#p5135e7fc18)" style="fill: #8c8c8c; stroke: #ffffff"/>
    <path d="M -286.168016 -35.810755 
L -286.168016 -198.628793 
L -123.349978 -198.628793 
L -123.349978 -35.810755 
z
" clip-path="url(#p5135e7fc18)" style="fill: #8c8c8c; stroke: #ffffff"/>
    <path d="M -448.986055 -117.219774 
L -448.986055 -198.628793 
L -286.168016 -198.628793 
L -286.168016 -117.219774 
z
" clip-path="url(#p5135e7fc18)" style="fill: #8c8c8c; stroke: #ffffff"/>
    <path d="M -448.986055 -35.810755 
L -448.986055 -117.219774 
L -286.168016 -117.219774 
L -286.168016 -35.810755 
z
" clip-path="url(#p5135e7fc18)" style="fill: #8c8c8c; stroke: #ffffff"/>
    <path d="M -693.213113 -35.810755 
L -693.213113 -198.628793 
L -530.395074 -198.628793 
L -530.395074 -35.810755 
z
" clip-path="url(#p5135e7fc18)" style="fill: #8c8c8c; stroke: #ffffff"/>
    <path d="M -856.031151 -117.219774 
L -856.031151 -198.628793 
L -693.213113 -198.628793 
L -693.213113 -117.219774 
z
" clip-path="url(#p5135e7fc18)" style="fill: #8c8c8c; stroke: #ffffff"/>
    <path d="M -856.031151 -35.810755 
L -856.031151 -117.219774 
L -693.213113 -117.219774 
L -693.213113 -35.810755 
z
" clip-path="url(#p5135e7fc18)" style="fill: #8c8c8c; stroke: #ffffff"/>
    <path d="M -937.44017 -35.810755 
L -937.44017 -198.628793 
L -856.031151 -198.628793 
L -856.031151 -35.810755 
z
" clip-path="url(#p5135e7fc18)" style="fill: #8c8c8c; stroke: #ffffff"/>
    <path d="M -937.44017 208.416303 
L -937.44017 -35.810755 
L -774.622132 -35.810755 
L -774.622132 208.416303 
z
" clip-path="url(#p5135e7fc18)" style="fill: #8c8c8c; stroke: #ffffff"/>
    <path d="M -937.44017 289.825322 
L -937.44017 208.416303 
L -774.622132 208.416303 
L -774.622132 289.825322 
z
" clip-path="url(#p5135e7fc18)" style="fill: #8c8c8c; stroke: #ffffff"/>
    <path d="M -937.44017 534.05238 
L -937.44017 371.234341 
L -856.031151 371.234341 
L -856.031151 534.05238 
z
" clip-path="url(#p5135e7fc18)" style="fill: #8c8c8c; stroke: #ffffff"/>
    <path d="M -856.031151 534.05238 
L -856.031151 371.234341 
L -774.622132 371.234341 
L -774.622132 534.05238 
z
" clip-path="url(#p5135e7fc18)" style="fill: #8c8c8c; stroke: #ffffff"/>
    <path d="M -937.44017 615.461399 
L -937.44017 534.05238 
L -774.622132 534.05238 
L -774.622132 615.461399 
z
" clip-path="url(#p5135e7fc18)" style="fill: #8c8c8c; stroke: #ffffff"/>
    <path d="M -937.44017 778.279437 
L -937.44017 615.461399 
L -774.622132 615.461399 
L -774.622132 778.279437 
z
" clip-path="url(#p5135e7fc18)" style="fill: #8c8c8c; stroke: #ffffff"/>
    <path d="M -1181.667228 1185.324533 
L -1181.667228 1022.506495 
L -1018.849189 1022.506495 
L -1018.849189 1185.324533 
z
" clip-path="url(#p5135e7fc18)" style="fill: #8c8c8c; stroke: #ffffff"/>
    <path d="M -1018.849189 1185.324533 
L -1018.849189 1022.506495 
L -856.031151 1022.506495 
L -856.031151 1185.324533 
z
" clip-path="url(#p5135e7fc18)" style="fill: #8c8c8c; stroke: #ffffff"/>
    <path d="M -856.031151 1185.324533 
L -856.031151 1103.915514 
L -774.622132 1103.915514 
L -774.622132 1185.324533 
z
" clip-path="url(#p5135e7fc18)" style="fill: #8c8c8c; stroke: #ffffff"/>
    <path d="M -856.031151 1103.915514 
L -856.031151 1022.506495 
L -774.622132 1022.506495 
L -774.622132 1103.915514 
z
" clip-path="url(#p5135e7fc18)" style="fill: #8c8c8c; stroke: #ffffff"/>
    <path d="M -774.622132 1185.324533 
L -774.622132 1103.915514 
L -611.804093 1103.915514 
L -611.804093 1185.324533 
z
" clip-path="url(#p5135e7fc18)" style="fill: #8c8c8c; stroke: #ffffff"/>
    <path d="M -774.622132 1103.915514 
L -774.622132 1022.506495 
L -611.804093 1022.506495 
L -611.804093 1103.915514 
z
" clip-path="url(#p5135e7fc18)" style="fill: #8c8c8c; stroke: #ffffff"/>
    <path d="M -530.395074 1185.324533 
L -530.395074 1022.506495 
L -448.986055 1022.506495 
L -448.986055 1185.324533 
z
" clip-path="url(#p5135e7fc18)" style="fill: #8c8c8c; stroke: #ffffff"/>
    <path d="M -448.986055 1185.324533 
L -448.986055 1022.506495 
L -204.758997 1022.506495 
L -204.758997 1185.324533 
z
" clip-path="url(#p5135e7fc18)" style="fill: #8c8c8c; stroke: #ffffff"/>
    <path d="M -204.758997 1185.324533 
L -204.758997 1022.506495 
L -41.940959 1022.506495 
L -41.940959 1185.324533 
z
" clip-path="url(#p5135e7fc18)" style="fill: #8c8c8c; stroke: #ffffff"/>
    <path d="M -41.940959 1103.915514 
L -41.940959 1022.506495 
L 39.46806 1022.506495 
L 39.46806 1103.915514 
z
" clip-path="url(#p5135e7fc18)" style="fill: #8c8c8c; stroke: #ffffff"/>
    <path d="M 39.46806 1103.915514 
L 39.46806 1022.506495 
L 120.87708 1022.506495 
L 120.87708 1103.915514 
z
" clip-path="url(#p5135e7fc18)" style="fill: #8c8c8c; stroke: #ffffff"/>
    <path d="M -41.940959 1185.324533 
L -41.940959 1103.915514 
L 39.46806 1103.915514 
L 39.46806 1185.324533 
z
" clip-path="url(#p5135e7fc18)" style="fill: #8c8c8c; stroke: #ffffff"/>
    <path d="M 39.46806 1185.324533 
L 39.46806 1103.915514 
L 120.87708 1103.915514 
L 120.87708 1185.324533 
z
" clip-path="url(#p5135e7fc18)" style="fill: #8c8c8c; stroke: #ffffff"/>
    <path d="M 120.87708 1103.915514 
L 120.87708 1022.506495 
L 283.695118 1022.506495 
L 283.695118 1103.915514 
z
" clip-path="url(#p5135e7fc18)" style="fill: #8c8c8c; stroke: #ffffff"/>
    <path d="M 120.87708 1185.324533 
L 120.87708 1103.915514 
L 283.695118 1103.915514 
L 283.695118 1185.324533 
z
" clip-path="url(#p5135e7fc18)" style="fill: #8c8c8c; stroke: #ffffff"/>
    <path d="M 283.695118 1185.324533 
L 283.695118 1103.915514 
L 446.513156 1103.915514 
L 446.513156 1185.324533 
z
" clip-path="url(#p5135e7fc18)" style="fill: #8c8c8c; stroke: #ffffff"/>
    <path d="M 283.695118 1103.915514 
L 283.695118 941.097476 
L 446.513156 941.097476 
L 446.513156 1103.915514 
z
" clip-path="url(#p5135e7fc18)" style="fill: #8c8c8c; stroke: #ffffff"/>
    <path d="M 283.695118 941.097476 
L 283.695118 778.279437 
L 446.513156 778.279437 
L 446.513156 941.097476 
z
" clip-path="url(#p5135e7fc18)" style="fill: #8c8c8c; stroke: #ffffff"/>
    <path d="M 283.695118 778.279437 
L 283.695118 615.461399 
L 365.104137 615.461399 
L 365.104137 778.279437 
z
" clip-path="url(#p5135e7fc18)" style="fill: #8c8c8c; stroke: #ffffff"/>
    <path d="M 365.104137 778.279437 
L 365.104137 615.461399 
L 446.513156 615.461399 
L 446.513156 778.279437 
z
" clip-path="url(#p5135e7fc18)" style="fill: #8c8c8c; stroke: #ffffff"/>
    <path d="M 283.695118 534.05238 
L 283.695118 371.234341 
L 446.513156 371.234341 
L 446.513156 534.05238 
z
" clip-path="url(#p5135e7fc18)" style="fill: #8c8c8c; stroke: #ffffff"/>
    <path d="M 283.695118 371.234341 
L 283.695118 208.416303 
L 446.513156 208.416303 
L 446.513156 371.234341 
z
" clip-path="url(#p5135e7fc18)" style="fill: #8c8c8c; stroke: #ffffff"/>
    <path d="M 283.695118 208.416303 
L 283.695118 45.598264 
L 365.104137 45.598264 
L 365.104137 208.416303 
z
" clip-path="url(#p5135e7fc18)" style="fill: #8c8c8c; stroke: #ffffff"/>
    <path d="M 365.104137 208.416303 
L 365.104137 45.598264 
L 446.513156 45.598264 
L 446.513156 208.416303 
z
" clip-path="url(#p5135e7fc18)" style="fill: #8c8c8c; stroke: #ffffff"/>
    <path d="M 283.695118 45.598264 
L 283.695118 -117.219774 
L 446.513156 -117.219774 
L 446.513156 45.598264 
z
" clip-path="url(#p5135e7fc18)" style="fill: #8c8c8c; stroke: #ffffff"/>
    <path d="M 283.695118 -117.219774 
L 283.695118 -280.037812 
L 446.513156 -280.037812 
L 446.513156 -117.219774 
z
" clip-path="url(#p5135e7fc18)" style="fill: #8c8c8c; stroke: #ffffff"/>
    <path d="M 283.695118 -280.037812 
L 283.695118 -361.446832 
L 446.513156 -361.446832 
L 446.513156 -280.037812 
z
" clip-path="url(#p5135e7fc18)" style="fill: #8c8c8c; stroke: #ffffff"/>
    <path d="M 283.695118 -361.446832 
L 283.695118 -442.855851 
L 446.513156 -442.855851 
L 446.513156 -361.446832 
z
" clip-path="url(#p5135e7fc18)" style="fill: #8c8c8c; stroke: #ffffff"/>
    <path d="M 120.87708 -280.037812 
L 120.87708 -442.855851 
L 202.286099 -442.855851 
L 202.286099 -280.037812 
z
" clip-path="url(#p5135e7fc18)" style="fill: #8c8c8c; stroke: #ffffff"/>
    <path d="M 39.46806 -280.037812 
L 39.46806 -442.855851 
L 120.87708 -442.855851 
L 120.87708 -280.037812 
z
" clip-path="url(#p5135e7fc18)" style="fill: #8c8c8c; stroke: #ffffff"/>
    <path d="M -204.758997 -280.037812 
L -204.758997 -361.446832 
L 39.46806 -361.446832 
L 39.46806 -280.037812 
z
" clip-path="url(#p5135e7fc18)" style="fill: #8c8c8c; stroke: #ffffff"/>
    <path d="M -123.349978 -361.446832 
L -123.349978 -442.855851 
L 39.46806 -442.855851 
L 39.46806 -361.446832 
z
" clip-path="url(#p5135e7fc18)" style="fill: #8c8c8c; stroke: #ffffff"/>
    <path d="M -286.168016 -361.446832 
L -286.168016 -442.855851 
L -123.349978 -442.855851 
L -123.349978 -361.446832 
z
" clip-path="url(#p5135e7fc18)" style="fill: #8c8c8c; stroke: #ffffff"/>
    <path d="M -286.168016 -280.037812 
L -286.168016 -361.446832 
L -204.758997 -361.446832 
L -204.758997 -280.037812 
z
" clip-path="url(#p5135e7fc18)" style="fill: #8c8c8c; stroke: #ffffff"/>
    <path d="M -448.986055 -280.037812 
L -448.986055 -442.855851 
L -286.168016 -442.855851 
L -286.168016 -280.037812 
z
" clip-path="url(#p5135e7fc18)" style="fill: #8c8c8c; stroke: #ffffff"/>
    <path d="M -611.804093 -280.037812 
L -611.804093 -361.446832 
L -448.986055 -361.446832 
L -448.986055 -280.037812 
z
" clip-path="url(#p5135e7fc18)" style="fill: #8c8c8c; stroke: #ffffff"/>
    <path d="M -611.804093 -361.446832 
L -611.804093 -442.855851 
L -448.986055 -442.855851 
L -448.986055 -361.446832 
z
" clip-path="url(#p5135e7fc18)" style="fill: #8c8c8c; stroke: #ffffff"/>
    <path d="M -856.031151 -280.037812 
L -856.031151 -442.855851 
L -693.213113 -442.855851 
L -693.213113 -280.037812 
z
" clip-path="url(#p5135e7fc18)" style="fill: #8c8c8c; stroke: #ffffff"/>
    <path d="M -1018.849189 -361.446832 
L -1018.849189 -442.855851 
L -856.031151 -442.855851 
L -856.031151 -361.446832 
z
" clip-path="url(#p5135e7fc18)" style="fill: #8c8c8c; stroke: #ffffff"/>
    <path d="M -1018.849189 -280.037812 
L -1018.849189 -361.446832 
L -856.031151 -361.446832 
L -856.031151 -280.037812 
z
" clip-path="url(#p5135e7fc18)" style="fill: #8c8c8c; stroke: #ffffff"/>
    <path d="M -1100.258209 -280.037812 
L -1100.258209 -442.855851 
L -1018.849189 -442.855851 
L -1018.849189 -280.037812 
z
" clip-path="url(#p5135e7fc18)" style="fill: #8c8c8c; stroke: #ffffff"/>
    <path d="M -1181.667228 -280.037812 
L -1181.667228 -442.855851 
L -1100.258209 -442.855851 
L -1100.258209 -280.037812 
z
" clip-path="url(#p5135e7fc18)" style="fill: #8c8c8c; stroke: #ffffff"/>
    <path d="M -1181.667228 -35.810755 
L -1181.667228 -198.628793 
L -1018.849189 -198.628793 
L -1018.849189 -35.810755 
z
" clip-path="url(#p5135e7fc18)" style="fill: #8c8c8c; stroke: #ffffff"/>
    <path d="M -1181.667228 45.598264 
L -1181.667228 -35.810755 
L -1018.849189 -35.810755 
L -1018.849189 45.598264 
z
" clip-path="url(#p5135e7fc18)" style="fill: #8c8c8c; stroke: #ffffff"/>
    <path d="M -1181.667228 127.007284 
L -1181.667228 45.598264 
L -1018.849189 45.598264 
L -1018.849189 127.007284 
z
" clip-path="url(#p5135e7fc18)" style="fill: #8c8c8c; stroke: #ffffff"/>
    <path d="M -1181.667228 289.825322 
L -1181.667228 127.007284 
L -1018.849189 127.007284 
L -1018.849189 289.825322 
z
" clip-path="url(#p5135e7fc18)" style="fill: #8c8c8c; stroke: #ffffff"/>
    <path d="M -1181.667228 371.234341 
L -1181.667228 289.825322 
L -1018.849189 289.825322 
L -1018.849189 371.234341 
z
" clip-path="url(#p5135e7fc18)" style="fill: #8c8c8c; stroke: #ffffff"/>
    <path d="M -1181.667228 452.643361 
L -1181.667228 371.234341 
L -1018.849189 371.234341 
L -1018.849189 452.643361 
z
" clip-path="url(#p5135e7fc18)" style="fill: #8c8c8c; stroke: #ffffff"/>
    <path d="M -1181.667228 615.461399 
L -1181.667228 452.643361 
L -1018.849189 452.643361 
L -1018.849189 615.461399 
z
" clip-path="url(#p5135e7fc18)" style="fill: #8c8c8c; stroke: #ffffff"/>
    <path d="M -1181.667228 696.870418 
L -1181.667228 615.461399 
L -1018.849189 615.461399 
L -1018.849189 696.870418 
z
" clip-path="url(#p5135e7fc18)" style="fill: #8c8c8c; stroke: #ffffff"/>
    <path d="M -1181.667228 941.097476 
L -1181.667228 696.870418 
L -1100.258209 696.870418 
L -1100.258209 941.097476 
z
" clip-path="url(#p5135e7fc18)" style="fill: #8c8c8c; stroke: #ffffff"/>
    <path d="M -1100.258209 778.279437 
L -1100.258209 696.870418 
L -1018.849189 696.870418 
L -1018.849189 778.279437 
z
" clip-path="url(#p5135e7fc18)" style="fill: #8c8c8c; stroke: #ffffff"/>
    <path d="M -1100.258209 859.688457 
L -1100.258209 778.279437 
L -1018.849189 778.279437 
L -1018.849189 859.688457 
z
" clip-path="url(#p5135e7fc18)" style="fill: #8c8c8c; stroke: #ffffff"/>
    <path d="M -1100.258209 941.097476 
L -1100.258209 859.688457 
L -1018.849189 859.688457 
L -1018.849189 941.097476 
z
" clip-path="url(#p5135e7fc18)" style="fill: #8c8c8c; stroke: #ffffff"/>
   </g>
   <g id="PatchCollection_2">
    <path d="M 92.341176 360.660076 
L 92.380377 359.862128 
L 92.497601 359.071864 
L 92.691721 358.296897 
L 92.960866 357.544687 
L 93.302444 356.822481 
L 93.713166 356.137233 
L 94.189076 355.495542 
L 94.725591 354.903589 
L 95.317545 354.367073 
L 95.959235 353.891163 
L 96.644484 353.480441 
L 97.36669 353.138863 
L 98.118899 352.869718 
L 98.893867 352.675599 
L 99.68413 352.558374 
L 100.482078 352.519174 
L 101.280026 352.558374 
L 102.070289 352.675599 
L 102.845257 352.869718 
L 103.597466 353.138863 
L 104.319673 353.480441 
L 105.004921 353.891163 
L 105.646612 354.367073 
L 106.238565 354.903589 
L 106.77508 355.495542 
L 107.250991 356.137233 
L 107.661713 356.822481 
L 108.003291 357.544687 
L 108.272436 358.296897 
L 108.466555 359.071864 
L 108.583779 359.862128 
L 108.62298 360.660076 
L 108.583779 361.458024 
L 108.466555 362.248287 
L 108.272436 363.023255 
L 108.003291 363.775464 
L 107.661713 364.49767 
L 107.250991 365.182918 
L 106.77508 365.824609 
L 106.238565 366.416563 
L 105.646612 366.953078 
L 105.004921 367.428988 
L 104.319673 367.83971 
L 103.597466 368.181288 
L 102.845257 368.450433 
L 102.070289 368.644552 
L 101.280026 368.761777 
L 100.482078 368.800978 
L 99.68413 368.761777 
L 98.893867 368.644552 
L 98.118899 368.450433 
L 97.36669 368.181288 
L 96.644484 367.83971 
L 95.959235 367.428988 
L 95.317545 366.953078 
L 94.725591 366.416563 
L 94.189076 365.824609 
L 93.713166 365.182918 
L 93.302444 364.49767 
L 92.960866 363.775464 
L 92.691721 363.023255 
L 92.497601 362.248287 
L 92.380377 361.458024 
z
" clip-path="url(#p5135e7fc18)" style="fill: #fac228; fill-opacity: 0.75; stroke: #000000; stroke-opacity: 0.75; stroke-width: 0.5"/>
    <path d="M 93.003844 302.707013 
L 93.043044 301.909065 
L 93.160269 301.118802 
L 93.354388 300.343834 
L 93.623533 299.591625 
L 93.965111 298.869418 
L 94.375833 298.18417 
L 94.851743 297.542479 
L 95.388259 296.950526 
L 95.980212 296.414011 
L 96.621903 295.9381 
L 97.307151 295.527378 
L 98.029357 295.1858 
L 98.781566 294.916655 
L 99.556534 294.722536 
L 100.346798 294.605312 
L 101.144746 294.566111 
L 101.942693 294.605312 
L 102.732957 294.722536 
L 103.507925 294.916655 
L 104.260134 295.1858 
L 104.98234 295.527378 
L 105.667588 295.9381 
L 106.309279 296.414011 
L 106.901232 296.950526 
L 107.437748 297.542479 
L 107.913658 298.18417 
L 108.32438 298.869418 
L 108.665958 299.591625 
L 108.935103 300.343834 
L 109.129222 301.118802 
L 109.246447 301.909065 
L 109.285647 302.707013 
L 109.246447 303.504961 
L 109.129222 304.295224 
L 108.935103 305.070192 
L 108.665958 305.822401 
L 108.32438 306.544607 
L 107.913658 307.229856 
L 107.437748 307.871546 
L 106.901232 308.4635 
L 106.309279 309.000015 
L 105.667588 309.475925 
L 104.98234 309.886647 
L 104.260134 310.228226 
L 103.507925 310.49737 
L 102.732957 310.69149 
L 101.942693 310.808714 
L 101.144746 310.847915 
L 100.346798 310.808714 
L 99.556534 310.69149 
L 98.781566 310.49737 
L 98.029357 310.228226 
L 97.307151 309.886647 
L 96.621903 309.475925 
L 95.980212 309.000015 
L 95.388259 308.4635 
L 94.851743 307.871546 
L 94.375833 307.229856 
L 93.965111 306.544607 
L 93.623533 305.822401 
L 93.354388 305.070192 
L 93.160269 304.295224 
L 93.043044 303.504961 
z
" clip-path="url(#p5135e7fc18)" style="fill: #fac228; fill-opacity: 0.75; stroke: #000000; stroke-opacity: 0.75; stroke-width: 0.5"/>
    <path d="M 122.71677 338.912438 
L 122.755971 338.11449 
L 122.873195 337.324226 
L 123.067315 336.549259 
L 123.33646 335.797049 
L 123.678038 335.074843 
L 124.08876 334.389595 
L 124.56467 333.747904 
L 125.101185 333.155951 
L 125.693139 332.619435 
L 126.334829 332.143525 
L 127.020078 331.732803 
L 127.742284 331.391225 
L 128.494493 331.12208 
L 129.269461 330.927961 
L 130.059724 330.810736 
L 130.857672 330.771536 
L 131.65562 330.810736 
L 132.445883 330.927961 
L 133.220851 331.12208 
L 133.97306 331.391225 
L 134.695267 331.732803 
L 135.380515 332.143525 
L 136.022206 332.619435 
L 136.614159 333.155951 
L 137.150674 333.747904 
L 137.626585 334.389595 
L 138.037307 335.074843 
L 138.378885 335.797049 
L 138.64803 336.549259 
L 138.842149 337.324226 
L 138.959373 338.11449 
L 138.998574 338.912438 
L 138.959373 339.710386 
L 138.842149 340.500649 
L 138.64803 341.275617 
L 138.378885 342.027826 
L 138.037307 342.750032 
L 137.626585 343.43528 
L 137.150674 344.076971 
L 136.614159 344.668925 
L 136.022206 345.20544 
L 135.380515 345.68135 
L 134.695267 346.092072 
L 133.97306 346.43365 
L 133.220851 346.702795 
L 132.445883 346.896914 
L 131.65562 347.014139 
L 130.857672 347.05334 
L 130.059724 347.014139 
L 129.269461 346.896914 
L 128.494493 346.702795 
L 127.742284 346.43365 
L 127.020078 346.092072 
L 126.334829 345.68135 
L 125.693139 345.20544 
L 125.101185 344.668925 
L 124.56467 344.076971 
L 124.08876 343.43528 
L 123.678038 342.750032 
L 123.33646 342.027826 
L 123.067315 341.275617 
L 122.873195 340.500649 
L 122.755971 339.710386 
z
" clip-path="url(#p5135e7fc18)" style="fill: #fac228; fill-opacity: 0.75; stroke: #000000; stroke-opacity: 0.75; stroke-width: 0.5"/>
    <path d="M 121.899347 330.728354 
L 121.938548 329.930406 
L 122.055772 329.140143 
L 122.249892 328.365175 
L 122.519036 327.612965 
L 122.860615 326.890759 
L 123.271336 326.205511 
L 123.747247 325.56382 
L 124.283762 324.971867 
L 124.875716 324.435351 
L 125.517406 323.959441 
L 126.202654 323.548719 
L 126.924861 323.207141 
L 127.67707 322.937996 
L 128.452038 322.743877 
L 129.242301 322.626652 
L 130.040249 322.587452 
L 130.838197 322.626652 
L 131.62846 322.743877 
L 132.403428 322.937996 
L 133.155637 323.207141 
L 133.877844 323.548719 
L 134.563092 323.959441 
L 135.204783 324.435351 
L 135.796736 324.971867 
L 136.333251 325.56382 
L 136.809162 326.205511 
L 137.219884 326.890759 
L 137.561462 327.612965 
L 137.830606 328.365175 
L 138.024726 329.140143 
L 138.14195 329.930406 
L 138.181151 330.728354 
L 138.14195 331.526302 
L 138.024726 332.316565 
L 137.830606 333.091533 
L 137.561462 333.843742 
L 137.219884 334.565948 
L 136.809162 335.251197 
L 136.333251 335.892887 
L 135.796736 336.484841 
L 135.204783 337.021356 
L 134.563092 337.497266 
L 133.877844 337.907988 
L 133.155637 338.249566 
L 132.403428 338.518711 
L 131.62846 338.712831 
L 130.838197 338.830055 
L 130.040249 338.869256 
L 129.242301 338.830055 
L 128.452038 338.712831 
L 127.67707 338.518711 
L 126.924861 338.249566 
L 126.202654 337.907988 
L 125.517406 337.497266 
L 124.875716 337.021356 
L 124.283762 336.484841 
L 123.747247 335.892887 
L 123.271336 335.251197 
L 122.860615 334.565948 
L 122.519036 333.843742 
L 122.249892 333.091533 
L 122.055772 332.316565 
L 121.938548 331.526302 
z
" clip-path="url(#p5135e7fc18)" style="fill: #fac228; fill-opacity: 0.75; stroke: #000000; stroke-opacity: 0.75; stroke-width: 0.5"/>
    <path d="M 133.346288 344.626622 
L 133.385489 343.828674 
L 133.502713 343.038411 
L 133.696833 342.263443 
L 133.965977 341.511234 
L 134.307556 340.789027 
L 134.718278 340.103779 
L 135.194188 339.462088 
L 135.730703 338.870135 
L 136.322657 338.33362 
L 136.964347 337.857709 
L 137.649595 337.446987 
L 138.371802 337.105409 
L 139.124011 336.836264 
L 139.898979 336.642145 
L 140.689242 336.524921 
L 141.48719 336.48572 
L 142.285138 336.524921 
L 143.075401 336.642145 
L 143.850369 336.836264 
L 144.602578 337.105409 
L 145.324785 337.446987 
L 146.010033 337.857709 
L 146.651724 338.33362 
L 147.243677 338.870135 
L 147.780192 339.462088 
L 148.256103 340.103779 
L 148.666825 340.789027 
L 149.008403 341.511234 
L 149.277547 342.263443 
L 149.471667 343.038411 
L 149.588891 343.828674 
L 149.628092 344.626622 
L 149.588891 345.42457 
L 149.471667 346.214833 
L 149.277547 346.989801 
L 149.008403 347.74201 
L 148.666825 348.464216 
L 148.256103 349.149465 
L 147.780192 349.791155 
L 147.243677 350.383109 
L 146.651724 350.919624 
L 146.010033 351.395534 
L 145.324785 351.806256 
L 144.602578 352.147835 
L 143.850369 352.416979 
L 143.075401 352.611099 
L 142.285138 352.728323 
L 141.48719 352.767524 
L 140.689242 352.728323 
L 139.898979 352.611099 
L 139.124011 352.416979 
L 138.371802 352.147835 
L 137.649595 351.806256 
L 136.964347 351.395534 
L 136.322657 350.919624 
L 135.730703 350.383109 
L 135.194188 349.791155 
L 134.718278 349.149465 
L 134.307556 348.464216 
L 133.965977 347.74201 
L 133.696833 346.989801 
L 133.502713 346.214833 
L 133.385489 345.42457 
z
" clip-path="url(#p5135e7fc18)" style="fill: #fac228; fill-opacity: 0.75; stroke: #000000; stroke-opacity: 0.75; stroke-width: 0.5"/>
    <path d="M 117.747233 369.052703 
L 117.786433 368.254755 
L 117.903658 367.464492 
L 118.097777 366.689524 
L 118.366922 365.937315 
L 118.7085 365.215109 
L 119.119222 364.529861 
L 119.595132 363.88817 
L 120.131648 363.296216 
L 120.723601 362.759701 
L 121.365292 362.283791 
L 122.05054 361.873069 
L 122.772746 361.531491 
L 123.524955 361.262346 
L 124.299923 361.068227 
L 125.090187 360.951002 
L 125.888134 360.911801 
L 126.686082 360.951002 
L 127.476346 361.068227 
L 128.251314 361.262346 
L 129.003523 361.531491 
L 129.725729 361.873069 
L 130.410977 362.283791 
L 131.052668 362.759701 
L 131.644621 363.296216 
L 132.181137 363.88817 
L 132.657047 364.529861 
L 133.067769 365.215109 
L 133.409347 365.937315 
L 133.678492 366.689524 
L 133.872611 367.464492 
L 133.989836 368.254755 
L 134.029036 369.052703 
L 133.989836 369.850651 
L 133.872611 370.640915 
L 133.678492 371.415882 
L 133.409347 372.168092 
L 133.067769 372.890298 
L 132.657047 373.575546 
L 132.181137 374.217237 
L 131.644621 374.80919 
L 131.052668 375.345706 
L 130.410977 375.821616 
L 129.725729 376.232338 
L 129.003523 376.573916 
L 128.251314 376.843061 
L 127.476346 377.03718 
L 126.686082 377.154405 
L 125.888134 377.193605 
L 125.090187 377.154405 
L 124.299923 377.03718 
L 123.524955 376.843061 
L 122.772746 376.573916 
L 122.05054 376.232338 
L 121.365292 375.821616 
L 120.723601 375.345706 
L 120.131648 374.80919 
L 119.595132 374.217237 
L 119.119222 373.575546 
L 118.7085 372.890298 
L 118.366922 372.168092 
L 118.097777 371.415882 
L 117.903658 370.640915 
L 117.786433 369.850651 
z
" clip-path="url(#p5135e7fc18)" style="fill: #fac228; fill-opacity: 0.75; stroke: #000000; stroke-opacity: 0.75; stroke-width: 0.5"/>
    <path d="M 103.185776 358.324595 
L 103.224977 357.526647 
L 103.342201 356.736384 
L 103.536321 355.961416 
L 103.805465 355.209207 
L 104.147044 354.487 
L 104.557766 353.801752 
L 105.033676 353.160062 
L 105.570191 352.568108 
L 106.162145 352.031593 
L 106.803835 351.555683 
L 107.489084 351.144961 
L 108.21129 350.803382 
L 108.963499 350.534238 
L 109.738467 350.340118 
L 110.52873 350.222894 
L 111.326678 350.183693 
L 112.124626 350.222894 
L 112.914889 350.340118 
L 113.689857 350.534238 
L 114.442066 350.803382 
L 115.164273 351.144961 
L 115.849521 351.555683 
L 116.491212 352.031593 
L 117.083165 352.568108 
L 117.61968 353.160062 
L 118.095591 353.801752 
L 118.506313 354.487 
L 118.847891 355.209207 
L 119.117036 355.961416 
L 119.311155 356.736384 
L 119.428379 357.526647 
L 119.46758 358.324595 
L 119.428379 359.122543 
L 119.311155 359.912806 
L 119.117036 360.687774 
L 118.847891 361.439983 
L 118.506313 362.16219 
L 118.095591 362.847438 
L 117.61968 363.489129 
L 117.083165 364.081082 
L 116.491212 364.617597 
L 115.849521 365.093508 
L 115.164273 365.50423 
L 114.442066 365.845808 
L 113.689857 366.114953 
L 112.914889 366.309072 
L 112.124626 366.426296 
L 111.326678 366.465497 
L 110.52873 366.426296 
L 109.738467 366.309072 
L 108.963499 366.114953 
L 108.21129 365.845808 
L 107.489084 365.50423 
L 106.803835 365.093508 
L 106.162145 364.617597 
L 105.570191 364.081082 
L 105.033676 363.489129 
L 104.557766 362.847438 
L 104.147044 362.16219 
L 103.805465 361.439983 
L 103.536321 360.687774 
L 103.342201 359.912806 
L 103.224977 359.122543 
z
" clip-path="url(#p5135e7fc18)" style="fill: #fac228; fill-opacity: 0.75; stroke: #000000; stroke-opacity: 0.75; stroke-width: 0.5"/>
    <path d="M 50.832447 345.23357 
L 50.871648 344.435622 
L 50.988873 343.645359 
L 51.182992 342.870391 
L 51.452137 342.118182 
L 51.793715 341.395976 
L 52.204437 340.710728 
L 52.680347 340.069037 
L 53.216862 339.477083 
L 53.808816 338.940568 
L 54.450507 338.464658 
L 55.135755 338.053936 
L 55.857961 337.712358 
L 56.61017 337.443213 
L 57.385138 337.249094 
L 58.175401 337.131869 
L 58.973349 337.092668 
L 59.771297 337.131869 
L 60.561561 337.249094 
L 61.336528 337.443213 
L 62.088738 337.712358 
L 62.810944 338.053936 
L 63.496192 338.464658 
L 64.137883 338.940568 
L 64.729836 339.477083 
L 65.266352 340.069037 
L 65.742262 340.710728 
L 66.152984 341.395976 
L 66.494562 342.118182 
L 66.763707 342.870391 
L 66.957826 343.645359 
L 67.075051 344.435622 
L 67.114251 345.23357 
L 67.075051 346.031518 
L 66.957826 346.821781 
L 66.763707 347.596749 
L 66.494562 348.348959 
L 66.152984 349.071165 
L 65.742262 349.756413 
L 65.266352 350.398104 
L 64.729836 350.990057 
L 64.137883 351.526573 
L 63.496192 352.002483 
L 62.810944 352.413205 
L 62.088738 352.754783 
L 61.336528 353.023928 
L 60.561561 353.218047 
L 59.771297 353.335272 
L 58.973349 353.374472 
L 58.175401 353.335272 
L 57.385138 353.218047 
L 56.61017 353.023928 
L 55.857961 352.754783 
L 55.135755 352.413205 
L 54.450507 352.002483 
L 53.808816 351.526573 
L 53.216862 350.990057 
L 52.680347 350.398104 
L 52.204437 349.756413 
L 51.793715 349.071165 
L 51.452137 348.348959 
L 51.182992 347.596749 
L 50.988873 346.821781 
L 50.871648 346.031518 
z
" clip-path="url(#p5135e7fc18)" style="fill: #fac228; fill-opacity: 0.75; stroke: #000000; stroke-opacity: 0.75; stroke-width: 0.5"/>
    <path d="M 71.503668 381.162994 
L 71.542868 380.365046 
L 71.660093 379.574783 
L 71.854212 378.799815 
L 72.123357 378.047606 
L 72.464935 377.3254 
L 72.875657 376.640151 
L 73.351567 375.998461 
L 73.888083 375.406507 
L 74.480036 374.869992 
L 75.121727 374.394082 
L 75.806975 373.98336 
L 76.529181 373.641781 
L 77.28139 373.372637 
L 78.056358 373.178517 
L 78.846622 373.061293 
L 79.64457 373.022092 
L 80.442517 373.061293 
L 81.232781 373.178517 
L 82.007749 373.372637 
L 82.759958 373.641781 
L 83.482164 373.98336 
L 84.167412 374.394082 
L 84.809103 374.869992 
L 85.401056 375.406507 
L 85.937572 375.998461 
L 86.413482 376.640151 
L 86.824204 377.3254 
L 87.165782 378.047606 
L 87.434927 378.799815 
L 87.629046 379.574783 
L 87.746271 380.365046 
L 87.785471 381.162994 
L 87.746271 381.960942 
L 87.629046 382.751205 
L 87.434927 383.526173 
L 87.165782 384.278382 
L 86.824204 385.000589 
L 86.413482 385.685837 
L 85.937572 386.327528 
L 85.401056 386.919481 
L 84.809103 387.455996 
L 84.167412 387.931907 
L 83.482164 388.342629 
L 82.759958 388.684207 
L 82.007749 388.953352 
L 81.232781 389.147471 
L 80.442517 389.264695 
L 79.64457 389.303896 
L 78.846622 389.264695 
L 78.056358 389.147471 
L 77.28139 388.953352 
L 76.529181 388.684207 
L 75.806975 388.342629 
L 75.121727 387.931907 
L 74.480036 387.455996 
L 73.888083 386.919481 
L 73.351567 386.327528 
L 72.875657 385.685837 
L 72.464935 385.000589 
L 72.123357 384.278382 
L 71.854212 383.526173 
L 71.660093 382.751205 
L 71.542868 381.960942 
z
" clip-path="url(#p5135e7fc18)" style="fill: #fac228; fill-opacity: 0.75; stroke: #000000; stroke-opacity: 0.75; stroke-width: 0.5"/>
    <path d="M 59.532502 375.250273 
L 59.571702 374.452325 
L 59.688927 373.662062 
L 59.883046 372.887094 
L 60.152191 372.134885 
L 60.493769 371.412679 
L 60.904491 370.727431 
L 61.380401 370.08574 
L 61.916916 369.493786 
L 62.50887 368.957271 
L 63.150561 368.481361 
L 63.835809 368.070639 
L 64.558015 367.729061 
L 65.310224 367.459916 
L 66.085192 367.265797 
L 66.875456 367.148572 
L 67.673403 367.109371 
L 68.471351 367.148572 
L 69.261615 367.265797 
L 70.036583 367.459916 
L 70.788792 367.729061 
L 71.510998 368.070639 
L 72.196246 368.481361 
L 72.837937 368.957271 
L 73.42989 369.493786 
L 73.966406 370.08574 
L 74.442316 370.727431 
L 74.853038 371.412679 
L 75.194616 372.134885 
L 75.463761 372.887094 
L 75.65788 373.662062 
L 75.775105 374.452325 
L 75.814305 375.250273 
L 75.775105 376.048221 
L 75.65788 376.838484 
L 75.463761 377.613452 
L 75.194616 378.365662 
L 74.853038 379.087868 
L 74.442316 379.773116 
L 73.966406 380.414807 
L 73.42989 381.00676 
L 72.837937 381.543276 
L 72.196246 382.019186 
L 71.510998 382.429908 
L 70.788792 382.771486 
L 70.036583 383.040631 
L 69.261615 383.23475 
L 68.471351 383.351975 
L 67.673403 383.391175 
L 66.875456 383.351975 
L 66.085192 383.23475 
L 65.310224 383.040631 
L 64.558015 382.771486 
L 63.835809 382.429908 
L 63.150561 382.019186 
L 62.50887 381.543276 
L 61.916916 381.00676 
L 61.380401 380.414807 
L 60.904491 379.773116 
L 60.493769 379.087868 
L 60.152191 378.365662 
L 59.883046 377.613452 
L 59.688927 376.838484 
L 59.571702 376.048221 
z
" clip-path="url(#p5135e7fc18)" style="fill: #fac228; fill-opacity: 0.75; stroke: #000000; stroke-opacity: 0.75; stroke-width: 0.5"/>
    <path d="M 125.392946 268.426081 
L 125.432146 267.628133 
L 125.549371 266.83787 
L 125.74349 266.062902 
L 126.012635 265.310693 
L 126.354213 264.588486 
L 126.764935 263.903238 
L 127.240845 263.261547 
L 127.777361 262.669594 
L 128.369314 262.133079 
L 129.011005 261.657168 
L 129.696253 261.246446 
L 130.418459 260.904868 
L 131.170668 260.635723 
L 131.945636 260.441604 
L 132.7359 260.32438 
L 133.533847 260.285179 
L 134.331795 260.32438 
L 135.122059 260.441604 
L 135.897027 260.635723 
L 136.649236 260.904868 
L 137.371442 261.246446 
L 138.05669 261.657168 
L 138.698381 262.133079 
L 139.290334 262.669594 
L 139.82685 263.261547 
L 140.30276 263.903238 
L 140.713482 264.588486 
L 141.05506 265.310693 
L 141.324205 266.062902 
L 141.518324 266.83787 
L 141.635549 267.628133 
L 141.674749 268.426081 
L 141.635549 269.224029 
L 141.518324 270.014292 
L 141.324205 270.78926 
L 141.05506 271.541469 
L 140.713482 272.263675 
L 140.30276 272.948924 
L 139.82685 273.590614 
L 139.290334 274.182568 
L 138.698381 274.719083 
L 138.05669 275.194993 
L 137.371442 275.605715 
L 136.649236 275.947294 
L 135.897027 276.216438 
L 135.122059 276.410558 
L 134.331795 276.527782 
L 133.533847 276.566983 
L 132.7359 276.527782 
L 131.945636 276.410558 
L 131.170668 276.216438 
L 130.418459 275.947294 
L 129.696253 275.605715 
L 129.011005 275.194993 
L 128.369314 274.719083 
L 127.777361 274.182568 
L 127.240845 273.590614 
L 126.764935 272.948924 
L 126.354213 272.263675 
L 126.012635 271.541469 
L 125.74349 270.78926 
L 125.549371 270.014292 
L 125.432146 269.224029 
z
" clip-path="url(#p5135e7fc18)" style="fill: #fac228; fill-opacity: 0.75; stroke: #000000; stroke-opacity: 0.75; stroke-width: 0.5"/>
    <path d="M 300.387216 318.739088 
L 300.426417 317.94114 
L 300.543641 317.150876 
L 300.737761 316.375908 
L 301.006905 315.623699 
L 301.348484 314.901493 
L 301.759206 314.216245 
L 302.235116 313.574554 
L 302.771631 312.982601 
L 303.363585 312.446085 
L 304.005275 311.970175 
L 304.690523 311.559453 
L 305.41273 311.217875 
L 306.164939 310.94873 
L 306.939907 310.754611 
L 307.73017 310.637386 
L 308.528118 310.598186 
L 309.326066 310.637386 
L 310.116329 310.754611 
L 310.891297 310.94873 
L 311.643506 311.217875 
L 312.365713 311.559453 
L 313.050961 311.970175 
L 313.692652 312.446085 
L 314.284605 312.982601 
L 314.82112 313.574554 
L 315.297031 314.216245 
L 315.707753 314.901493 
L 316.049331 315.623699 
L 316.318476 316.375908 
L 316.512595 317.150876 
L 316.629819 317.94114 
L 316.66902 318.739088 
L 316.629819 319.537035 
L 316.512595 320.327299 
L 316.318476 321.102267 
L 316.049331 321.854476 
L 315.707753 322.576682 
L 315.297031 323.26193 
L 314.82112 323.903621 
L 314.284605 324.495574 
L 313.692652 325.03209 
L 313.050961 325.508 
L 312.365713 325.918722 
L 311.643506 326.2603 
L 310.891297 326.529445 
L 310.116329 326.723564 
L 309.326066 326.840789 
L 308.528118 326.879989 
L 307.73017 326.840789 
L 306.939907 326.723564 
L 306.164939 326.529445 
L 305.41273 326.2603 
L 304.690523 325.918722 
L 304.005275 325.508 
L 303.363585 325.03209 
L 302.771631 324.495574 
L 302.235116 323.903621 
L 301.759206 323.26193 
L 301.348484 322.576682 
L 301.006905 321.854476 
L 300.737761 321.102267 
L 300.543641 320.327299 
L 300.426417 319.537035 
z
" clip-path="url(#p5135e7fc18)" style="fill: #f57d15; fill-opacity: 0.75; stroke: #000000; stroke-opacity: 0.75; stroke-width: 0.5"/>
    <path d="M 129.521701 381.370252 
L 129.560901 380.572304 
L 129.678126 379.78204 
L 129.872245 379.007073 
L 130.14139 378.254863 
L 130.482968 377.532657 
L 130.89369 376.847409 
L 131.3696 376.205718 
L 131.906115 375.613765 
L 132.498069 375.077249 
L 133.13976 374.601339 
L 133.825008 374.190617 
L 134.547214 373.849039 
L 135.299423 373.579894 
L 136.074391 373.385775 
L 136.864655 373.26855 
L 137.662602 373.22935 
L 138.46055 373.26855 
L 139.250814 373.385775 
L 140.025782 373.579894 
L 140.777991 373.849039 
L 141.500197 374.190617 
L 142.185445 374.601339 
L 142.827136 375.077249 
L 143.419089 375.613765 
L 143.955605 376.205718 
L 144.431515 376.847409 
L 144.842237 377.532657 
L 145.183815 378.254863 
L 145.45296 379.007073 
L 145.647079 379.78204 
L 145.764304 380.572304 
L 145.803504 381.370252 
L 145.764304 382.1682 
L 145.647079 382.958463 
L 145.45296 383.733431 
L 145.183815 384.48564 
L 144.842237 385.207846 
L 144.431515 385.893094 
L 143.955605 386.534785 
L 143.419089 387.126739 
L 142.827136 387.663254 
L 142.185445 388.139164 
L 141.500197 388.549886 
L 140.777991 388.891464 
L 140.025782 389.160609 
L 139.250814 389.354728 
L 138.46055 389.471953 
L 137.662602 389.511154 
L 136.864655 389.471953 
L 136.074391 389.354728 
L 135.299423 389.160609 
L 134.547214 388.891464 
L 133.825008 388.549886 
L 133.13976 388.139164 
L 132.498069 387.663254 
L 131.906115 387.126739 
L 131.3696 386.534785 
L 130.89369 385.893094 
L 130.482968 385.207846 
L 130.14139 384.48564 
L 129.872245 383.733431 
L 129.678126 382.958463 
L 129.560901 382.1682 
z
" clip-path="url(#p5135e7fc18)" style="fill: #d44842; fill-opacity: 0.75; stroke: #000000; stroke-opacity: 0.75; stroke-width: 0.5"/>
    <path d="M 22.909091 355.801931 
L 22.948292 355.003983 
L 23.065516 354.21372 
L 23.259635 353.438752 
L 23.52878 352.686542 
L 23.870358 351.964336 
L 24.28108 351.279088 
L 24.756991 350.637397 
L 25.293506 350.045444 
L 25.885459 349.508928 
L 26.52715 349.033018 
L 27.212398 348.622296 
L 27.934605 348.280718 
L 28.686814 348.011573 
L 29.461782 347.817454 
L 30.252045 347.700229 
L 31.049993 347.661029 
L 31.847941 347.700229 
L 32.638204 347.817454 
L 33.413172 348.011573 
L 34.165381 348.280718 
L 34.887587 348.622296 
L 35.572836 349.033018 
L 36.214526 349.508928 
L 36.80648 350.045444 
L 37.342995 350.637397 
L 37.818905 351.279088 
L 38.229627 351.964336 
L 38.571205 352.686542 
L 38.84035 353.438752 
L 39.03447 354.21372 
L 39.151694 355.003983 
L 39.190895 355.801931 
L 39.151694 356.599879 
L 39.03447 357.390142 
L 38.84035 358.16511 
L 38.571205 358.917319 
L 38.229627 359.639525 
L 37.818905 360.324773 
L 37.342995 360.966464 
L 36.80648 361.558418 
L 36.214526 362.094933 
L 35.572836 362.570843 
L 34.887587 362.981565 
L 34.165381 363.323143 
L 33.413172 363.592288 
L 32.638204 363.786407 
L 31.847941 363.903632 
L 31.049993 363.942833 
L 30.252045 363.903632 
L 29.461782 363.786407 
L 28.686814 363.592288 
L 27.934605 363.323143 
L 27.212398 362.981565 
L 26.52715 362.570843 
L 25.885459 362.094933 
L 25.293506 361.558418 
L 24.756991 360.966464 
L 24.28108 360.324773 
L 23.870358 359.639525 
L 23.52878 358.917319 
L 23.259635 358.16511 
L 23.065516 357.390142 
L 22.948292 356.599879 
z
" clip-path="url(#p5135e7fc18)" style="fill: #d44842; fill-opacity: 0.75; stroke: #000000; stroke-opacity: 0.75; stroke-width: 0.5"/>
    <path d="M 379.87581 315.236755 
L 379.915011 314.438808 
L 380.032236 313.648544 
L 380.226355 312.873576 
L 380.4955 312.121367 
L 380.837078 311.399161 
L 381.2478 310.713913 
L 381.72371 310.072222 
L 382.260225 309.480268 
L 382.852179 308.943753 
L 383.49387 308.467843 
L 384.179118 308.057121 
L 384.901324 307.715543 
L 385.653533 307.446398 
L 386.428501 307.252279 
L 387.218764 307.135054 
L 388.016712 307.095854 
L 388.81466 307.135054 
L 389.604924 307.252279 
L 390.379891 307.446398 
L 391.132101 307.715543 
L 391.854307 308.057121 
L 392.539555 308.467843 
L 393.181246 308.943753 
L 393.773199 309.480268 
L 394.309715 310.072222 
L 394.785625 310.713913 
L 395.196347 311.399161 
L 395.537925 312.121367 
L 395.80707 312.873576 
L 396.001189 313.648544 
L 396.118414 314.438808 
L 396.157614 315.236755 
L 396.118414 316.034703 
L 396.001189 316.824967 
L 395.80707 317.599935 
L 395.537925 318.352144 
L 395.196347 319.07435 
L 394.785625 319.759598 
L 394.309715 320.401289 
L 393.773199 320.993242 
L 393.181246 321.529758 
L 392.539555 322.005668 
L 391.854307 322.41639 
L 391.132101 322.757968 
L 390.379891 323.027113 
L 389.604924 323.221232 
L 388.81466 323.338457 
L 388.016712 323.377657 
L 387.218764 323.338457 
L 386.428501 323.221232 
L 385.653533 323.027113 
L 384.901324 322.757968 
L 384.179118 322.41639 
L 383.49387 322.005668 
L 382.852179 321.529758 
L 382.260225 320.993242 
L 381.72371 320.401289 
L 381.2478 319.759598 
L 380.837078 319.07435 
L 380.4955 318.352144 
L 380.226355 317.599935 
L 380.032236 316.824967 
L 379.915011 316.034703 
z
" clip-path="url(#p5135e7fc18)" style="fill: #9f2a63; fill-opacity: 0.75; stroke: #000000; stroke-opacity: 0.75; stroke-width: 0.5"/>
    <path d="M 385.747054 262.540291 
L 385.786254 261.742343 
L 385.903479 260.95208 
L 386.097598 260.177112 
L 386.366743 259.424903 
L 386.708321 258.702697 
L 387.119043 258.017448 
L 387.594953 257.375758 
L 388.131468 256.783804 
L 388.723422 256.247289 
L 389.365113 255.771379 
L 390.050361 255.360657 
L 390.772567 255.019078 
L 391.524776 254.749934 
L 392.299744 254.555814 
L 393.090008 254.43859 
L 393.887955 254.399389 
L 394.685903 254.43859 
L 395.476167 254.555814 
L 396.251135 254.749934 
L 397.003344 255.019078 
L 397.72555 255.360657 
L 398.410798 255.771379 
L 399.052489 256.247289 
L 399.644442 256.783804 
L 400.180958 257.375758 
L 400.656868 258.017448 
L 401.06759 258.702697 
L 401.409168 259.424903 
L 401.678313 260.177112 
L 401.872432 260.95208 
L 401.989657 261.742343 
L 402.028857 262.540291 
L 401.989657 263.338239 
L 401.872432 264.128502 
L 401.678313 264.90347 
L 401.409168 265.655679 
L 401.06759 266.377886 
L 400.656868 267.063134 
L 400.180958 267.704825 
L 399.644442 268.296778 
L 399.052489 268.833293 
L 398.410798 269.309204 
L 397.72555 269.719926 
L 397.003344 270.061504 
L 396.251135 270.330649 
L 395.476167 270.524768 
L 394.685903 270.641992 
L 393.887955 270.681193 
L 393.090008 270.641992 
L 392.299744 270.524768 
L 391.524776 270.330649 
L 390.772567 270.061504 
L 390.050361 269.719926 
L 389.365113 269.309204 
L 388.723422 268.833293 
L 388.131468 268.296778 
L 387.594953 267.704825 
L 387.119043 267.063134 
L 386.708321 266.377886 
L 386.366743 265.655679 
L 386.097598 264.90347 
L 385.903479 264.128502 
L 385.786254 263.338239 
z
" clip-path="url(#p5135e7fc18)" style="fill: #9f2a63; fill-opacity: 0.75; stroke: #000000; stroke-opacity: 0.75; stroke-width: 0.5"/>
    <path d="M 36.936848 396.388579 
L 36.976048 395.590631 
L 37.093273 394.800368 
L 37.287392 394.0254 
L 37.556537 393.273191 
L 37.898115 392.550984 
L 38.308837 391.865736 
L 38.784747 391.224045 
L 39.321262 390.632092 
L 39.913216 390.095577 
L 40.554907 389.619666 
L 41.240155 389.208944 
L 41.962361 388.867366 
L 42.71457 388.598221 
L 43.489538 388.404102 
L 44.279802 388.286878 
L 45.077749 388.247677 
L 45.875697 388.286878 
L 46.665961 388.404102 
L 47.440929 388.598221 
L 48.193138 388.867366 
L 48.915344 389.208944 
L 49.600592 389.619666 
L 50.242283 390.095577 
L 50.834236 390.632092 
L 51.370752 391.224045 
L 51.846662 391.865736 
L 52.257384 392.550984 
L 52.598962 393.273191 
L 52.868107 394.0254 
L 53.062226 394.800368 
L 53.179451 395.590631 
L 53.218651 396.388579 
L 53.179451 397.186527 
L 53.062226 397.97679 
L 52.868107 398.751758 
L 52.598962 399.503967 
L 52.257384 400.226173 
L 51.846662 400.911422 
L 51.370752 401.553112 
L 50.834236 402.145066 
L 50.242283 402.681581 
L 49.600592 403.157491 
L 48.915344 403.568213 
L 48.193138 403.909792 
L 47.440929 404.178936 
L 46.665961 404.373056 
L 45.875697 404.49028 
L 45.077749 404.529481 
L 44.279802 404.49028 
L 43.489538 404.373056 
L 42.71457 404.178936 
L 41.962361 403.909792 
L 41.240155 403.568213 
L 40.554907 403.157491 
L 39.913216 402.681581 
L 39.321262 402.145066 
L 38.784747 401.553112 
L 38.308837 400.911422 
L 37.898115 400.226173 
L 37.556537 399.503967 
L 37.287392 398.751758 
L 37.093273 397.97679 
L 36.976048 397.186527 
z
" clip-path="url(#p5135e7fc18)" style="fill: #65156e; fill-opacity: 0.75; stroke: #000000; stroke-opacity: 0.75; stroke-width: 0.5"/>
    <path d="M 335.730529 215.413634 
L 335.76973 214.615687 
L 335.886954 213.825423 
L 336.081074 213.050455 
L 336.350218 212.298246 
L 336.691797 211.57604 
L 337.102518 210.890792 
L 337.578429 210.249101 
L 338.114944 209.657147 
L 338.706898 209.120632 
L 339.348588 208.644722 
L 340.033836 208.234 
L 340.756043 207.892422 
L 341.508252 207.623277 
L 342.28322 207.429158 
L 343.073483 207.311933 
L 343.871431 207.272733 
L 344.669379 207.311933 
L 345.459642 207.429158 
L 346.23461 207.623277 
L 346.986819 207.892422 
L 347.709026 208.234 
L 348.394274 208.644722 
L 349.035965 209.120632 
L 349.627918 209.657147 
L 350.164433 210.249101 
L 350.640344 210.890792 
L 351.051066 211.57604 
L 351.392644 212.298246 
L 351.661788 213.050455 
L 351.855908 213.825423 
L 351.973132 214.615687 
L 352.012333 215.413634 
L 351.973132 216.211582 
L 351.855908 217.001846 
L 351.661788 217.776814 
L 351.392644 218.529023 
L 351.051066 219.251229 
L 350.640344 219.936477 
L 350.164433 220.578168 
L 349.627918 221.170121 
L 349.035965 221.706637 
L 348.394274 222.182547 
L 347.709026 222.593269 
L 346.986819 222.934847 
L 346.23461 223.203992 
L 345.459642 223.398111 
L 344.669379 223.515336 
L 343.871431 223.554536 
L 343.073483 223.515336 
L 342.28322 223.398111 
L 341.508252 223.203992 
L 340.756043 222.934847 
L 340.033836 222.593269 
L 339.348588 222.182547 
L 338.706898 221.706637 
L 338.114944 221.170121 
L 337.578429 220.578168 
L 337.102518 219.936477 
L 336.691797 219.251229 
L 336.350218 218.529023 
L 336.081074 217.776814 
L 335.886954 217.001846 
L 335.76973 216.211582 
z
" clip-path="url(#p5135e7fc18)" style="fill: #280b53; fill-opacity: 0.75; stroke: #000000; stroke-opacity: 0.75; stroke-width: 0.5"/>
    <path d="M 379.766617 354.959251 
L 379.805817 354.161303 
L 379.923042 353.371039 
L 380.117161 352.596071 
L 380.386306 351.843862 
L 380.727884 351.121656 
L 381.138606 350.436408 
L 381.614516 349.794717 
L 382.151032 349.202764 
L 382.742985 348.666248 
L 383.384676 348.190338 
L 384.069924 347.779616 
L 384.79213 347.438038 
L 385.54434 347.168893 
L 386.319307 346.974774 
L 387.109571 346.857549 
L 387.907519 346.818349 
L 388.705467 346.857549 
L 389.49573 346.974774 
L 390.270698 347.168893 
L 391.022907 347.438038 
L 391.745113 347.779616 
L 392.430361 348.190338 
L 393.072052 348.666248 
L 393.664006 349.202764 
L 394.200521 349.794717 
L 394.676431 350.436408 
L 395.087153 351.121656 
L 395.428731 351.843862 
L 395.697876 352.596071 
L 395.891995 353.371039 
L 396.00922 354.161303 
L 396.048421 354.959251 
L 396.00922 355.757198 
L 395.891995 356.547462 
L 395.697876 357.32243 
L 395.428731 358.074639 
L 395.087153 358.796845 
L 394.676431 359.482093 
L 394.200521 360.123784 
L 393.664006 360.715737 
L 393.072052 361.252253 
L 392.430361 361.728163 
L 391.745113 362.138885 
L 391.022907 362.480463 
L 390.270698 362.749608 
L 389.49573 362.943727 
L 388.705467 363.060952 
L 387.907519 363.100152 
L 387.109571 363.060952 
L 386.319307 362.943727 
L 385.54434 362.749608 
L 384.79213 362.480463 
L 384.069924 362.138885 
L 383.384676 361.728163 
L 382.742985 361.252253 
L 382.151032 360.715737 
L 381.614516 360.123784 
L 381.138606 359.482093 
L 380.727884 358.796845 
L 380.386306 358.074639 
L 380.117161 357.32243 
L 379.923042 356.547462 
L 379.805817 355.757198 
z
" clip-path="url(#p5135e7fc18)" style="fill: #280b53; fill-opacity: 0.75; stroke: #000000; stroke-opacity: 0.75; stroke-width: 0.5"/>
    <path d="M 391.610777 312.489115 
L 391.649978 311.691167 
L 391.767202 310.900904 
L 391.961322 310.125936 
L 392.230466 309.373727 
L 392.572045 308.65152 
L 392.982766 307.966272 
L 393.458677 307.324581 
L 393.995192 306.732628 
L 394.587146 306.196113 
L 395.228836 305.720202 
L 395.914084 305.30948 
L 396.636291 304.967902 
L 397.3885 304.698757 
L 398.163468 304.504638 
L 398.953731 304.387414 
L 399.751679 304.348213 
L 400.549627 304.387414 
L 401.33989 304.504638 
L 402.114858 304.698757 
L 402.867067 304.967902 
L 403.589274 305.30948 
L 404.274522 305.720202 
L 404.916213 306.196113 
L 405.508166 306.732628 
L 406.044681 307.324581 
L 406.520592 307.966272 
L 406.931314 308.65152 
L 407.272892 309.373727 
L 407.542036 310.125936 
L 407.736156 310.900904 
L 407.85338 311.691167 
L 407.892581 312.489115 
L 407.85338 313.287063 
L 407.736156 314.077326 
L 407.542036 314.852294 
L 407.272892 315.604503 
L 406.931314 316.326709 
L 406.520592 317.011958 
L 406.044681 317.653648 
L 405.508166 318.245602 
L 404.916213 318.782117 
L 404.274522 319.258027 
L 403.589274 319.668749 
L 402.867067 320.010328 
L 402.114858 320.279472 
L 401.33989 320.473592 
L 400.549627 320.590816 
L 399.751679 320.630017 
L 398.953731 320.590816 
L 398.163468 320.473592 
L 397.3885 320.279472 
L 396.636291 320.010328 
L 395.914084 319.668749 
L 395.228836 319.258027 
L 394.587146 318.782117 
L 393.995192 318.245602 
L 393.458677 317.653648 
L 392.982766 317.011958 
L 392.572045 316.326709 
L 392.230466 315.604503 
L 391.961322 314.852294 
L 391.767202 314.077326 
L 391.649978 313.287063 
z
" clip-path="url(#p5135e7fc18)" style="fill: #280b53; fill-opacity: 0.75; stroke: #000000; stroke-opacity: 0.75; stroke-width: 0.5"/>
    <path d="M 448.60666 363.216142 
L 448.64586 362.418194 
L 448.763085 361.62793 
L 448.957204 360.852963 
L 449.226349 360.100753 
L 449.567927 359.378547 
L 449.978649 358.693299 
L 450.454559 358.051608 
L 450.991075 357.459655 
L 451.583028 356.923139 
L 452.224719 356.447229 
L 452.909967 356.036507 
L 453.632173 355.694929 
L 454.384383 355.425784 
L 455.15935 355.231665 
L 455.949614 355.11444 
L 456.747562 355.07524 
L 457.54551 355.11444 
L 458.335773 355.231665 
L 459.110741 355.425784 
L 459.86295 355.694929 
L 460.585156 356.036507 
L 461.270404 356.447229 
L 461.912095 356.923139 
L 462.504049 357.459655 
L 463.040564 358.051608 
L 463.516474 358.693299 
L 463.927196 359.378547 
L 464.268774 360.100753 
L 464.537919 360.852963 
L 464.732038 361.62793 
L 464.849263 362.418194 
L 464.888464 363.216142 
L 464.849263 364.01409 
L 464.732038 364.804353 
L 464.537919 365.579321 
L 464.268774 366.33153 
L 463.927196 367.053736 
L 463.516474 367.738984 
L 463.040564 368.380675 
L 462.504049 368.972629 
L 461.912095 369.509144 
L 461.270404 369.985054 
L 460.585156 370.395776 
L 459.86295 370.737354 
L 459.110741 371.006499 
L 458.335773 371.200618 
L 457.54551 371.317843 
L 456.747562 371.357044 
L 455.949614 371.317843 
L 455.15935 371.200618 
L 454.384383 371.006499 
L 453.632173 370.737354 
L 452.909967 370.395776 
L 452.224719 369.985054 
L 451.583028 369.509144 
L 450.991075 368.972629 
L 450.454559 368.380675 
L 449.978649 367.738984 
L 449.567927 367.053736 
L 449.226349 366.33153 
L 448.957204 365.579321 
L 448.763085 364.804353 
L 448.64586 364.01409 
z
" clip-path="url(#p5135e7fc18)" style="fill: #280b53; fill-opacity: 0.75; stroke: #000000; stroke-opacity: 0.75; stroke-width: 0.5"/>
    <path d="M 257.266257 216.209551 
L 257.305457 215.411603 
L 257.422682 214.62134 
L 257.616801 213.846372 
L 257.885946 213.094163 
L 258.227524 212.371957 
L 258.638246 211.686708 
L 259.114156 211.045018 
L 259.650671 210.453064 
L 260.242625 209.916549 
L 260.884316 209.440639 
L 261.569564 209.029917 
L 262.29177 208.688339 
L 263.043979 208.419194 
L 263.818947 208.225074 
L 264.609211 208.10785 
L 265.407158 208.068649 
L 266.205106 208.10785 
L 266.99537 208.225074 
L 267.770338 208.419194 
L 268.522547 208.688339 
L 269.244753 209.029917 
L 269.930001 209.440639 
L 270.571692 209.916549 
L 271.163645 210.453064 
L 271.700161 211.045018 
L 272.176071 211.686708 
L 272.586793 212.371957 
L 272.928371 213.094163 
L 273.197516 213.846372 
L 273.391635 214.62134 
L 273.50886 215.411603 
L 273.54806 216.209551 
L 273.50886 217.007499 
L 273.391635 217.797762 
L 273.197516 218.57273 
L 272.928371 219.32494 
L 272.586793 220.047146 
L 272.176071 220.732394 
L 271.700161 221.374085 
L 271.163645 221.966038 
L 270.571692 222.502554 
L 269.930001 222.978464 
L 269.244753 223.389186 
L 268.522547 223.730764 
L 267.770338 223.999909 
L 266.99537 224.194028 
L 266.205106 224.311253 
L 265.407158 224.350453 
L 264.609211 224.311253 
L 263.818947 224.194028 
L 263.043979 223.999909 
L 262.29177 223.730764 
L 261.569564 223.389186 
L 260.884316 222.978464 
L 260.242625 222.502554 
L 259.650671 221.966038 
L 259.114156 221.374085 
L 258.638246 220.732394 
L 258.227524 220.047146 
L 257.885946 219.32494 
L 257.616801 218.57273 
L 257.422682 217.797762 
L 257.305457 217.007499 
z
" clip-path="url(#p5135e7fc18)" style="fill: #280b53; fill-opacity: 0.75; stroke: #000000; stroke-opacity: 0.75; stroke-width: 0.5"/>
    <path d="M 362.945418 247.526617 
L 362.984619 246.728669 
L 363.101843 245.938406 
L 363.295963 245.163438 
L 363.565108 244.411229 
L 363.906686 243.689023 
L 364.317408 243.003775 
L 364.793318 242.362084 
L 365.329833 241.77013 
L 365.921787 241.233615 
L 366.563477 240.757705 
L 367.248726 240.346983 
L 367.970932 240.005405 
L 368.723141 239.73626 
L 369.498109 239.542141 
L 370.288372 239.424916 
L 371.08632 239.385715 
L 371.884268 239.424916 
L 372.674531 239.542141 
L 373.449499 239.73626 
L 374.201709 240.005405 
L 374.923915 240.346983 
L 375.609163 240.757705 
L 376.250854 241.233615 
L 376.842807 241.77013 
L 377.379323 242.362084 
L 377.855233 243.003775 
L 378.265955 243.689023 
L 378.607533 244.411229 
L 378.876678 245.163438 
L 379.070797 245.938406 
L 379.188021 246.728669 
L 379.227222 247.526617 
L 379.188021 248.324565 
L 379.070797 249.114828 
L 378.876678 249.889796 
L 378.607533 250.642006 
L 378.265955 251.364212 
L 377.855233 252.04946 
L 377.379323 252.691151 
L 376.842807 253.283104 
L 376.250854 253.81962 
L 375.609163 254.29553 
L 374.923915 254.706252 
L 374.201709 255.04783 
L 373.449499 255.316975 
L 372.674531 255.511094 
L 371.884268 255.628319 
L 371.08632 255.667519 
L 370.288372 255.628319 
L 369.498109 255.511094 
L 368.723141 255.316975 
L 367.970932 255.04783 
L 367.248726 254.706252 
L 366.563477 254.29553 
L 365.921787 253.81962 
L 365.329833 253.283104 
L 364.793318 252.691151 
L 364.317408 252.04946 
L 363.906686 251.364212 
L 363.565108 250.642006 
L 363.295963 249.889796 
L 363.101843 249.114828 
L 362.984619 248.324565 
z
" clip-path="url(#p5135e7fc18)" style="fill: #280b53; fill-opacity: 0.75; stroke: #000000; stroke-opacity: 0.75; stroke-width: 0.5"/>
    <path d="M 362.187565 337.521727 
L 362.226765 336.723779 
L 362.34399 335.933515 
L 362.538109 335.158547 
L 362.807254 334.406338 
L 363.148832 333.684132 
L 363.559554 332.998884 
L 364.035464 332.357193 
L 364.57198 331.76524 
L 365.163933 331.228724 
L 365.805624 330.752814 
L 366.490872 330.342092 
L 367.213078 330.000514 
L 367.965288 329.731369 
L 368.740256 329.53725 
L 369.530519 329.420025 
L 370.328467 329.380825 
L 371.126415 329.420025 
L 371.916678 329.53725 
L 372.691646 329.731369 
L 373.443855 330.000514 
L 374.166061 330.342092 
L 374.85131 330.752814 
L 375.493 331.228724 
L 376.084954 331.76524 
L 376.621469 332.357193 
L 377.097379 332.998884 
L 377.508101 333.684132 
L 377.849679 334.406338 
L 378.118824 335.158547 
L 378.312944 335.933515 
L 378.430168 336.723779 
L 378.469369 337.521727 
L 378.430168 338.319674 
L 378.312944 339.109938 
L 378.118824 339.884906 
L 377.849679 340.637115 
L 377.508101 341.359321 
L 377.097379 342.044569 
L 376.621469 342.68626 
L 376.084954 343.278214 
L 375.493 343.814729 
L 374.85131 344.290639 
L 374.166061 344.701361 
L 373.443855 345.042939 
L 372.691646 345.312084 
L 371.916678 345.506203 
L 371.126415 345.623428 
L 370.328467 345.662628 
L 369.530519 345.623428 
L 368.740256 345.506203 
L 367.965288 345.312084 
L 367.213078 345.042939 
L 366.490872 344.701361 
L 365.805624 344.290639 
L 365.163933 343.814729 
L 364.57198 343.278214 
L 364.035464 342.68626 
L 363.559554 342.044569 
L 363.148832 341.359321 
L 362.807254 340.637115 
L 362.538109 339.884906 
L 362.34399 339.109938 
L 362.226765 338.319674 
z
" clip-path="url(#p5135e7fc18)" style="fill: #280b53; fill-opacity: 0.75; stroke: #000000; stroke-opacity: 0.75; stroke-width: 0.5"/>
    <path d="M 428.400646 282.435299 
L 428.439847 281.637351 
L 428.557072 280.847088 
L 428.751191 280.07212 
L 429.020336 279.31991 
L 429.361914 278.597704 
L 429.772636 277.912456 
L 430.248546 277.270765 
L 430.785061 276.678812 
L 431.377015 276.142296 
L 432.018706 275.666386 
L 432.703954 275.255664 
L 433.42616 274.914086 
L 434.178369 274.644941 
L 434.953337 274.450822 
L 435.7436 274.333598 
L 436.541548 274.294397 
L 437.339496 274.333598 
L 438.129759 274.450822 
L 438.904727 274.644941 
L 439.656937 274.914086 
L 440.379143 275.255664 
L 441.064391 275.666386 
L 441.706082 276.142296 
L 442.298035 276.678812 
L 442.834551 277.270765 
L 443.310461 277.912456 
L 443.721183 278.597704 
L 444.062761 279.31991 
L 444.331906 280.07212 
L 444.526025 280.847088 
L 444.64325 281.637351 
L 444.68245 282.435299 
L 444.64325 283.233247 
L 444.526025 284.02351 
L 444.331906 284.798478 
L 444.062761 285.550687 
L 443.721183 286.272893 
L 443.310461 286.958142 
L 442.834551 287.599832 
L 442.298035 288.191786 
L 441.706082 288.728301 
L 441.064391 289.204211 
L 440.379143 289.614933 
L 439.656937 289.956511 
L 438.904727 290.225656 
L 438.129759 290.419776 
L 437.339496 290.537 
L 436.541548 290.576201 
L 435.7436 290.537 
L 434.953337 290.419776 
L 434.178369 290.225656 
L 433.42616 289.956511 
L 432.703954 289.614933 
L 432.018706 289.204211 
L 431.377015 288.728301 
L 430.785061 288.191786 
L 430.248546 287.599832 
L 429.772636 286.958142 
L 429.361914 286.272893 
L 429.020336 285.550687 
L 428.751191 284.798478 
L 428.557072 284.02351 
L 428.439847 283.233247 
z
" clip-path="url(#p5135e7fc18)" style="fill: #280b53; fill-opacity: 0.75; stroke: #000000; stroke-opacity: 0.75; stroke-width: 0.5"/>
   </g>
   <g id="matplotlib.axis_1">
    <g id="xtick_1"/>
    <g id="xtick_2"/>
    <g id="xtick_3"/>
    <g id="xtick_4"/>
    <g id="xtick_5"/>
    <g id="xtick_6"/>
   </g>
   <g id="matplotlib.axis_2">
    <g id="ytick_1"/>
    <g id="ytick_2"/>
    <g id="ytick_3"/>
    <g id="ytick_4"/>
    <g id="ytick_5"/>
    <g id="ytick_6"/>
   </g>
   <g id="PathCollection_1">
    <defs>
     <path id="m632dd71f6f" d="M 0 1.118034 
C 0.296506 1.118034 0.580908 1.000231 0.790569 0.790569 
C 1.000231 0.580908 1.118034 0.296506 1.118034 0 
C 1.118034 -0.296506 1.000231 -0.580908 0.790569 -0.790569 
C 0.580908 -1.000231 0.296506 -1.118034 0 -1.118034 
C -0.296506 -1.118034 -0.580908 -1.000231 -0.790569 -0.790569 
C -1.000231 -0.580908 -1.118034 -0.296506 -1.118034 0 
C -1.118034 0.296506 -1.000231 0.580908 -0.790569 0.790569 
C -0.580908 1.000231 -0.296506 1.118034 0 1.118034 
z
" style="stroke: #000000"/>
    </defs>
    <g clip-path="url(#p5135e7fc18)">
     <use xlink:href="#m632dd71f6f" x="100.482078" y="360.660076" style="stroke: #000000"/>
     <use xlink:href="#m632dd71f6f" x="101.144746" y="302.707013" style="stroke: #000000"/>
     <use xlink:href="#m632dd71f6f" x="130.857672" y="338.912438" style="stroke: #000000"/>
     <use xlink:href="#m632dd71f6f" x="130.040249" y="330.728354" style="stroke: #000000"/>
     <use xlink:href="#m632dd71f6f" x="141.48719" y="344.626622" style="stroke: #000000"/>
     <use xlink:href="#m632dd71f6f" x="125.888134" y="369.052703" style="stroke: #000000"/>
     <use xlink:href="#m632dd71f6f" x="111.326678" y="358.324595" style="stroke: #000000"/>
     <use xlink:href="#m632dd71f6f" x="58.973349" y="345.23357" style="stroke: #000000"/>
     <use xlink:href="#m632dd71f6f" x="79.64457" y="381.162994" style="stroke: #000000"/>
     <use xlink:href="#m632dd71f6f" x="67.673403" y="375.250273" style="stroke: #000000"/>
     <use xlink:href="#m632dd71f6f" x="133.533847" y="268.426081" style="stroke: #000000"/>
     <use xlink:href="#m632dd71f6f" x="308.528118" y="318.739088" style="stroke: #000000"/>
     <use xlink:href="#m632dd71f6f" x="137.662602" y="381.370252" style="stroke: #000000"/>
     <use xlink:href="#m632dd71f6f" x="31.049993" y="355.801931" style="stroke: #000000"/>
     <use xlink:href="#m632dd71f6f" x="388.016712" y="315.236755" style="stroke: #000000"/>
     <use xlink:href="#m632dd71f6f" x="481.090909" y="234.221616" style="stroke: #000000"/>
     <use xlink:href="#m632dd71f6f" x="393.887955" y="262.540291" style="stroke: #000000"/>
     <use xlink:href="#m632dd71f6f" x="45.077749" y="396.388579" style="stroke: #000000"/>
     <use xlink:href="#m632dd71f6f" x="343.871431" y="215.413634" style="stroke: #000000"/>
     <use xlink:href="#m632dd71f6f" x="266.420155" y="319.956303" style="stroke: #000000"/>
     <use xlink:href="#m632dd71f6f" x="387.907519" y="354.959251" style="stroke: #000000"/>
     <use xlink:href="#m632dd71f6f" x="399.751679" y="312.489115" style="stroke: #000000"/>
     <use xlink:href="#m632dd71f6f" x="456.747562" y="363.216142" style="stroke: #000000"/>
     <use xlink:href="#m632dd71f6f" x="265.407158" y="216.209551" style="stroke: #000000"/>
     <use xlink:href="#m632dd71f6f" x="371.08632" y="247.526617" style="stroke: #000000"/>
     <use xlink:href="#m632dd71f6f" x="447.499072" y="199.73121" style="stroke: #000000"/>
     <use xlink:href="#m632dd71f6f" x="370.328467" y="337.521727" style="stroke: #000000"/>
     <use xlink:href="#m632dd71f6f" x="436.541548" y="282.435299" style="stroke: #000000"/>
    </g>
   </g>
  </g>
  <g id="axes_2">
   <g id="patch_3">
    <path d="M 0 558.92 
L 504 558.92 
L 504 518.635954 
L 0 518.635954 
z
" style="fill: #ffffff"/>
   </g>
   <g id="matplotlib.axis_3">
    <g id="xtick_7">
     <g id="line2d_1">
      <defs>
       <path id="m2c51488ffa" d="M 0 0 
L 0 3.5 
" style="stroke: #000000; stroke-width: 0.8"/>
      </defs>
      <g>
       <use xlink:href="#m2c51488ffa" x="46.366434" y="558.92" style="stroke: #000000; stroke-width: 0.8"/>
      </g>
     </g>
     <g id="text_1">
      <!-- 08 AM -->
      <g transform="translate(30.680496 573.518438) scale(0.1 -0.1)">
       <defs>
        <path id="DejaVuSans-30" d="M 2034 4250 
Q 1547 4250 1301 3770 
Q 1056 3291 1056 2328 
Q 1056 1369 1301 889 
Q 1547 409 2034 409 
Q 2525 409 2770 889 
Q 3016 1369 3016 2328 
Q 3016 3291 2770 3770 
Q 2525 4250 2034 4250 
z
M 2034 4750 
Q 2819 4750 3233 4129 
Q 3647 3509 3647 2328 
Q 3647 1150 3233 529 
Q 2819 -91 2034 -91 
Q 1250 -91 836 529 
Q 422 1150 422 2328 
Q 422 3509 836 4129 
Q 1250 4750 2034 4750 
z
" transform="scale(0.015625)"/>
        <path id="DejaVuSans-38" d="M 2034 2216 
Q 1584 2216 1326 1975 
Q 1069 1734 1069 1313 
Q 1069 891 1326 650 
Q 1584 409 2034 409 
Q 2484 409 2743 651 
Q 3003 894 3003 1313 
Q 3003 1734 2745 1975 
Q 2488 2216 2034 2216 
z
M 1403 2484 
Q 997 2584 770 2862 
Q 544 3141 544 3541 
Q 544 4100 942 4425 
Q 1341 4750 2034 4750 
Q 2731 4750 3128 4425 
Q 3525 4100 3525 3541 
Q 3525 3141 3298 2862 
Q 3072 2584 2669 2484 
Q 3125 2378 3379 2068 
Q 3634 1759 3634 1313 
Q 3634 634 3220 271 
Q 2806 -91 2034 -91 
Q 1263 -91 848 271 
Q 434 634 434 1313 
Q 434 1759 690 2068 
Q 947 2378 1403 2484 
z
M 1172 3481 
Q 1172 3119 1398 2916 
Q 1625 2713 2034 2713 
Q 2441 2713 2670 2916 
Q 2900 3119 2900 3481 
Q 2900 3844 2670 4047 
Q 2441 4250 2034 4250 
Q 1625 4250 1398 4047 
Q 1172 3844 1172 3481 
z
" transform="scale(0.015625)"/>
        <path id="DejaVuSans-20" transform="scale(0.015625)"/>
        <path id="DejaVuSans-41" d="M 2188 4044 
L 1331 1722 
L 3047 1722 
L 2188 4044 
z
M 1831 4666 
L 2547 4666 
L 4325 0 
L 3669 0 
L 3244 1197 
L 1141 1197 
L 716 0 
L 50 0 
L 1831 4666 
z
" transform="scale(0.015625)"/>
        <path id="DejaVuSans-4d" d="M 628 4666 
L 1569 4666 
L 2759 1491 
L 3956 4666 
L 4897 4666 
L 4897 0 
L 4281 0 
L 4281 4097 
L 3078 897 
L 2444 897 
L 1241 4097 
L 1241 0 
L 628 0 
L 628 4666 
z
" transform="scale(0.015625)"/>
       </defs>
       <use xlink:href="#DejaVuSans-30"/>
       <use xlink:href="#DejaVuSans-38" transform="translate(63.623047 0)"/>
       <use xlink:href="#DejaVuSans-20" transform="translate(127.246094 0)"/>
       <use xlink:href="#DejaVuSans-41" transform="translate(159.033203 0)"/>
       <use xlink:href="#DejaVuSans-4d" transform="translate(227.441406 0)"/>
      </g>
     </g>
    </g>
    <g id="xtick_8">
     <g id="line2d_2">
      <g>
       <use xlink:href="#m2c51488ffa" x="187.345455" y="558.92" style="stroke: #000000; stroke-width: 0.8"/>
      </g>
     </g>
     <g id="text_2">
      <!-- 09 AM -->
      <g transform="translate(171.659517 573.518438) scale(0.1 -0.1)">
       <defs>
        <path id="DejaVuSans-39" d="M 703 97 
L 703 672 
Q 941 559 1184 500 
Q 1428 441 1663 441 
Q 2288 441 2617 861 
Q 2947 1281 2994 2138 
Q 2813 1869 2534 1725 
Q 2256 1581 1919 1581 
Q 1219 1581 811 2004 
Q 403 2428 403 3163 
Q 403 3881 828 4315 
Q 1253 4750 1959 4750 
Q 2769 4750 3195 4129 
Q 3622 3509 3622 2328 
Q 3622 1225 3098 567 
Q 2575 -91 1691 -91 
Q 1453 -91 1209 -44 
Q 966 3 703 97 
z
M 1959 2075 
Q 2384 2075 2632 2365 
Q 2881 2656 2881 3163 
Q 2881 3666 2632 3958 
Q 2384 4250 1959 4250 
Q 1534 4250 1286 3958 
Q 1038 3666 1038 3163 
Q 1038 2656 1286 2365 
Q 1534 2075 1959 2075 
z
" transform="scale(0.015625)"/>
       </defs>
       <use xlink:href="#DejaVuSans-30"/>
       <use xlink:href="#DejaVuSans-39" transform="translate(63.623047 0)"/>
       <use xlink:href="#DejaVuSans-20" transform="translate(127.246094 0)"/>
       <use xlink:href="#DejaVuSans-41" transform="translate(159.033203 0)"/>
       <use xlink:href="#DejaVuSans-4d" transform="translate(227.441406 0)"/>
      </g>
     </g>
    </g>
    <g id="xtick_9">
     <g id="line2d_3">
      <g>
       <use xlink:href="#m2c51488ffa" x="328.324476" y="558.92" style="stroke: #000000; stroke-width: 0.8"/>
      </g>
     </g>
     <g id="text_3">
      <!-- 10 AM -->
      <g transform="translate(312.638538 573.518438) scale(0.1 -0.1)">
       <defs>
        <path id="DejaVuSans-31" d="M 794 531 
L 1825 531 
L 1825 4091 
L 703 3866 
L 703 4441 
L 1819 4666 
L 2450 4666 
L 2450 531 
L 3481 531 
L 3481 0 
L 794 0 
L 794 531 
z
" transform="scale(0.015625)"/>
       </defs>
       <use xlink:href="#DejaVuSans-31"/>
       <use xlink:href="#DejaVuSans-30" transform="translate(63.623047 0)"/>
       <use xlink:href="#DejaVuSans-20" transform="translate(127.246094 0)"/>
       <use xlink:href="#DejaVuSans-41" transform="translate(159.033203 0)"/>
       <use xlink:href="#DejaVuSans-4d" transform="translate(227.441406 0)"/>
      </g>
     </g>
    </g>
    <g id="xtick_10">
     <g id="line2d_4">
      <g>
       <use xlink:href="#m2c51488ffa" x="469.303497" y="558.92" style="stroke: #000000; stroke-width: 0.8"/>
      </g>
     </g>
     <g id="text_4">
      <!-- 11 AM -->
      <g transform="translate(453.617559 573.518438) scale(0.1 -0.1)">
       <use xlink:href="#DejaVuSans-31"/>
       <use xlink:href="#DejaVuSans-31" transform="translate(63.623047 0)"/>
       <use xlink:href="#DejaVuSans-20" transform="translate(127.246094 0)"/>
       <use xlink:href="#DejaVuSans-41" transform="translate(159.033203 0)"/>
       <use xlink:href="#DejaVuSans-4d" transform="translate(227.441406 0)"/>
      </g>
     </g>
    </g>
   </g>
   <g id="matplotlib.axis_4"/>
   <g id="LineCollection_1">
    <path d="M 46.993007 550.863191 
L 46.993007 526.692763 
" clip-path="url(#pbfdade5d7e)" style="fill: none; stroke: #000000"/>
    <path d="M 51.026573 550.863191 
L 51.026573 526.692763 
" clip-path="url(#pbfdade5d7e)" style="fill: none; stroke: #000000"/>
    <path d="M 55.765035 550.863191 
L 55.765035 526.692763 
" clip-path="url(#pbfdade5d7e)" style="fill: none; stroke: #000000"/>
    <path d="M 58.897902 550.863191 
L 58.897902 526.692763 
" clip-path="url(#pbfdade5d7e)" style="fill: none; stroke: #000000"/>
    <path d="M 83.647552 550.863191 
L 83.647552 526.692763 
" clip-path="url(#pbfdade5d7e)" style="fill: none; stroke: #000000"/>
    <path d="M 100.565035 550.863191 
L 100.565035 526.692763 
" clip-path="url(#pbfdade5d7e)" style="fill: none; stroke: #000000"/>
    <path d="M 102.67972 550.863191 
L 102.67972 526.692763 
" clip-path="url(#pbfdade5d7e)" style="fill: none; stroke: #000000"/>
    <path d="M 113.683916 550.863191 
L 113.683916 526.692763 
" clip-path="url(#pbfdade5d7e)" style="fill: none; stroke: #000000"/>
    <path d="M 139.765035 550.863191 
L 139.765035 526.692763 
" clip-path="url(#pbfdade5d7e)" style="fill: none; stroke: #000000"/>
    <path d="M 186.405594 550.863191 
L 186.405594 526.692763 
" clip-path="url(#pbfdade5d7e)" style="fill: none; stroke: #000000"/>
    <path d="M 200.855944 550.863191 
L 200.855944 526.692763 
" clip-path="url(#pbfdade5d7e)" style="fill: none; stroke: #000000"/>
    <path d="M 224.93986 550.863191 
L 224.93986 526.692763 
" clip-path="url(#pbfdade5d7e)" style="fill: none; stroke: #000000"/>
    <path d="M 228.699301 550.863191 
L 228.699301 526.692763 
" clip-path="url(#pbfdade5d7e)" style="fill: none; stroke: #000000"/>
    <path d="M 244.716084 550.863191 
L 244.716084 526.692763 
" clip-path="url(#pbfdade5d7e)" style="fill: none; stroke: #000000"/>
    <path d="M 270.601399 550.863191 
L 270.601399 526.692763 
" clip-path="url(#pbfdade5d7e)" style="fill: none; stroke: #000000"/>
    <path d="M 322.332867 550.863191 
L 322.332867 526.692763 
" clip-path="url(#pbfdade5d7e)" style="fill: none; stroke: #000000"/>
    <path d="M 332.162238 550.863191 
L 332.162238 526.692763 
" clip-path="url(#pbfdade5d7e)" style="fill: none; stroke: #000000"/>
    <path d="M 341.051748 550.863191 
L 341.051748 526.692763 
" clip-path="url(#pbfdade5d7e)" style="fill: none; stroke: #000000"/>
    <path d="M 365.683916 550.863191 
L 365.683916 526.692763 
" clip-path="url(#pbfdade5d7e)" style="fill: none; stroke: #000000"/>
    <path d="M 378.763636 550.863191 
L 378.763636 526.692763 
" clip-path="url(#pbfdade5d7e)" style="fill: none; stroke: #000000"/>
    <path d="M 393.762238 550.863191 
L 393.762238 526.692763 
" clip-path="url(#pbfdade5d7e)" style="fill: none; stroke: #000000"/>
    <path d="M 395.25035 550.863191 
L 395.25035 526.692763 
" clip-path="url(#pbfdade5d7e)" style="fill: none; stroke: #000000"/>
    <path d="M 411.032168 550.863191 
L 411.032168 526.692763 
" clip-path="url(#pbfdade5d7e)" style="fill: none; stroke: #000000"/>
    <path d="M 433.07972 550.863191 
L 433.07972 526.692763 
" clip-path="url(#pbfdade5d7e)" style="fill: none; stroke: #000000"/>
    <path d="M 435.742657 550.863191 
L 435.742657 526.692763 
" clip-path="url(#pbfdade5d7e)" style="fill: none; stroke: #000000"/>
    <path d="M 442.165035 550.863191 
L 442.165035 526.692763 
" clip-path="url(#pbfdade5d7e)" style="fill: none; stroke: #000000"/>
    <path d="M 444.436364 550.863191 
L 444.436364 526.692763 
" clip-path="url(#pbfdade5d7e)" style="fill: none; stroke: #000000"/>
    <path d="M 457.006993 550.863191 
L 457.006993 526.692763 
" clip-path="url(#pbfdade5d7e)" style="fill: none; stroke: #000000"/>
   </g>
   <g id="LineCollection_2">
    <path d="M 46.993007 550.863191 
L 46.993007 526.692763 
" clip-path="url(#pbfdade5d7e)" style="fill: none; stroke: #fac228; stroke-width: 1.3"/>
    <path d="M 51.026573 550.863191 
L 51.026573 526.692763 
" clip-path="url(#pbfdade5d7e)" style="fill: none; stroke: #fac228; stroke-width: 1.3"/>
    <path d="M 55.765035 550.863191 
L 55.765035 526.692763 
" clip-path="url(#pbfdade5d7e)" style="fill: none; stroke: #fac228; stroke-width: 1.3"/>
    <path d="M 58.897902 550.863191 
L 58.897902 526.692763 
" clip-path="url(#pbfdade5d7e)" style="fill: none; stroke: #fac228; stroke-width: 1.3"/>
    <path d="M 83.647552 550.863191 
L 83.647552 526.692763 
" clip-path="url(#pbfdade5d7e)" style="fill: none; stroke: #fac228; stroke-width: 1.3"/>
    <path d="M 100.565035 550.863191 
L 100.565035 526.692763 
" clip-path="url(#pbfdade5d7e)" style="fill: none; stroke: #fac228; stroke-width: 1.3"/>
    <path d="M 102.67972 550.863191 
L 102.67972 526.692763 
" clip-path="url(#pbfdade5d7e)" style="fill: none; stroke: #fac228; stroke-width: 1.3"/>
    <path d="M 113.683916 550.863191 
L 113.683916 526.692763 
" clip-path="url(#pbfdade5d7e)" style="fill: none; stroke: #fac228; stroke-width: 1.3"/>
    <path d="M 139.765035 550.863191 
L 139.765035 526.692763 
" clip-path="url(#pbfdade5d7e)" style="fill: none; stroke: #fac228; stroke-width: 1.3"/>
    <path d="M 186.405594 550.863191 
L 186.405594 526.692763 
" clip-path="url(#pbfdade5d7e)" style="fill: none; stroke: #fac228; stroke-width: 1.3"/>
    <path d="M 200.855944 550.863191 
L 200.855944 526.692763 
" clip-path="url(#pbfdade5d7e)" style="fill: none; stroke: #fac228; stroke-width: 1.3"/>
    <path d="M 224.93986 550.863191 
L 224.93986 526.692763 
" clip-path="url(#pbfdade5d7e)" style="fill: none; stroke: #f57d15; stroke-width: 1.3"/>
    <path d="M 228.699301 550.863191 
L 228.699301 526.692763 
" clip-path="url(#pbfdade5d7e)" style="fill: none; stroke: #d44842; stroke-width: 1.3"/>
    <path d="M 244.716084 550.863191 
L 244.716084 526.692763 
" clip-path="url(#pbfdade5d7e)" style="fill: none; stroke: #d44842; stroke-width: 1.3"/>
    <path d="M 270.601399 550.863191 
L 270.601399 526.692763 
" clip-path="url(#pbfdade5d7e)" style="fill: none; stroke: #9f2a63; stroke-width: 1.3"/>
    <path d="M 332.162238 550.863191 
L 332.162238 526.692763 
" clip-path="url(#pbfdade5d7e)" style="fill: none; stroke: #9f2a63; stroke-width: 1.3"/>
    <path d="M 341.051748 550.863191 
L 341.051748 526.692763 
" clip-path="url(#pbfdade5d7e)" style="fill: none; stroke: #65156e; stroke-width: 1.3"/>
    <path d="M 365.683916 550.863191 
L 365.683916 526.692763 
" clip-path="url(#pbfdade5d7e)" style="fill: none; stroke: #280b53; stroke-width: 1.3"/>
    <path d="M 393.762238 550.863191 
L 393.762238 526.692763 
" clip-path="url(#pbfdade5d7e)" style="fill: none; stroke: #280b53; stroke-width: 1.3"/>
    <path d="M 395.25035 550.863191 
L 395.25035 526.692763 
" clip-path="url(#pbfdade5d7e)" style="fill: none; stroke: #280b53; stroke-width: 1.3"/>
    <path d="M 411.032168 550.863191 
L 411.032168 526.692763 
" clip-path="url(#pbfdade5d7e)" style="fill: none; stroke: #280b53; stroke-width: 1.3"/>
    <path d="M 433.07972 550.863191 
L 433.07972 526.692763 
" clip-path="url(#pbfdade5d7e)" style="fill: none; stroke: #280b53; stroke-width: 1.3"/>
    <path d="M 435.742657 550.863191 
L 435.742657 526.692763 
" clip-path="url(#pbfdade5d7e)" style="fill: none; stroke: #280b53; stroke-width: 1.3"/>
    <path d="M 444.436364 550.863191 
L 444.436364 526.692763 
" clip-path="url(#pbfdade5d7e)" style="fill: none; stroke: #280b53; stroke-width: 1.3"/>
    <path d="M 457.006993 550.863191 
L 457.006993 526.692763 
" clip-path="url(#pbfdade5d7e)" style="fill: none; stroke: #280b53; stroke-width: 1.3"/>
   </g>
   <g id="patch_4">
    <path d="M 0 558.92 
L 0 518.635954 
" style="fill: none; stroke: #000000; stroke-width: 0.8; stroke-linejoin: miter; stroke-linecap: square"/>
   </g>
   <g id="patch_5">
    <path d="M 504 558.92 
L 504 518.635954 
" style="fill: none; stroke: #000000; stroke-width: 0.8; stroke-linejoin: miter; stroke-linecap: square"/>
   </g>
   <g id="patch_6">
    <path d="M 0 558.92 
L 504 558.92 
" style="fill: none; stroke: #000000; stroke-width: 0.8; stroke-linejoin: miter; stroke-linecap: square"/>
   </g>
   <g id="patch_7">
    <path d="M 0 518.635954 
L 504 518.635954 
" style="fill: none; stroke: #000000; stroke-width: 0.8; stroke-linejoin: miter; stroke-linecap: square"/>
   </g>
   <g id="text_5">
    <!-- timestamps -->
    <g transform="translate(216.510938 512.635954) scale(0.12 -0.12)">
     <defs>
      <path id="DejaVuSans-74" d="M 1172 4494 
L 1172 3500 
L 2356 3500 
L 2356 3053 
L 1172 3053 
L 1172 1153 
Q 1172 725 1289 603 
Q 1406 481 1766 481 
L 2356 481 
L 2356 0 
L 1766 0 
Q 1100 0 847 248 
Q 594 497 594 1153 
L 594 3053 
L 172 3053 
L 172 3500 
L 594 3500 
L 594 4494 
L 1172 4494 
z
" transform="scale(0.015625)"/>
      <path id="DejaVuSans-69" d="M 603 3500 
L 1178 3500 
L 1178 0 
L 603 0 
L 603 3500 
z
M 603 4863 
L 1178 4863 
L 1178 4134 
L 603 4134 
L 603 4863 
z
" transform="scale(0.015625)"/>
      <path id="DejaVuSans-6d" d="M 3328 2828 
Q 3544 3216 3844 3400 
Q 4144 3584 4550 3584 
Q 5097 3584 5394 3201 
Q 5691 2819 5691 2113 
L 5691 0 
L 5113 0 
L 5113 2094 
Q 5113 2597 4934 2840 
Q 4756 3084 4391 3084 
Q 3944 3084 3684 2787 
Q 3425 2491 3425 1978 
L 3425 0 
L 2847 0 
L 2847 2094 
Q 2847 2600 2669 2842 
Q 2491 3084 2119 3084 
Q 1678 3084 1418 2786 
Q 1159 2488 1159 1978 
L 1159 0 
L 581 0 
L 581 3500 
L 1159 3500 
L 1159 2956 
Q 1356 3278 1631 3431 
Q 1906 3584 2284 3584 
Q 2666 3584 2933 3390 
Q 3200 3197 3328 2828 
z
" transform="scale(0.015625)"/>
      <path id="DejaVuSans-65" d="M 3597 1894 
L 3597 1613 
L 953 1613 
Q 991 1019 1311 708 
Q 1631 397 2203 397 
Q 2534 397 2845 478 
Q 3156 559 3463 722 
L 3463 178 
Q 3153 47 2828 -22 
Q 2503 -91 2169 -91 
Q 1331 -91 842 396 
Q 353 884 353 1716 
Q 353 2575 817 3079 
Q 1281 3584 2069 3584 
Q 2775 3584 3186 3129 
Q 3597 2675 3597 1894 
z
M 3022 2063 
Q 3016 2534 2758 2815 
Q 2500 3097 2075 3097 
Q 1594 3097 1305 2825 
Q 1016 2553 972 2059 
L 3022 2063 
z
" transform="scale(0.015625)"/>
      <path id="DejaVuSans-73" d="M 2834 3397 
L 2834 2853 
Q 2591 2978 2328 3040 
Q 2066 3103 1784 3103 
Q 1356 3103 1142 2972 
Q 928 2841 928 2578 
Q 928 2378 1081 2264 
Q 1234 2150 1697 2047 
L 1894 2003 
Q 2506 1872 2764 1633 
Q 3022 1394 3022 966 
Q 3022 478 2636 193 
Q 2250 -91 1575 -91 
Q 1294 -91 989 -36 
Q 684 19 347 128 
L 347 722 
Q 666 556 975 473 
Q 1284 391 1588 391 
Q 1994 391 2212 530 
Q 2431 669 2431 922 
Q 2431 1156 2273 1281 
Q 2116 1406 1581 1522 
L 1381 1569 
Q 847 1681 609 1914 
Q 372 2147 372 2553 
Q 372 3047 722 3315 
Q 1072 3584 1716 3584 
Q 2034 3584 2315 3537 
Q 2597 3491 2834 3397 
z
" transform="scale(0.015625)"/>
      <path id="DejaVuSans-61" d="M 2194 1759 
Q 1497 1759 1228 1600 
Q 959 1441 959 1056 
Q 959 750 1161 570 
Q 1363 391 1709 391 
Q 2188 391 2477 730 
Q 2766 1069 2766 1631 
L 2766 1759 
L 2194 1759 
z
M 3341 1997 
L 3341 0 
L 2766 0 
L 2766 531 
Q 2569 213 2275 61 
Q 1981 -91 1556 -91 
Q 1019 -91 701 211 
Q 384 513 384 1019 
Q 384 1609 779 1909 
Q 1175 2209 1959 2209 
L 2766 2209 
L 2766 2266 
Q 2766 2663 2505 2880 
Q 2244 3097 1772 3097 
Q 1472 3097 1187 3025 
Q 903 2953 641 2809 
L 641 3341 
Q 956 3463 1253 3523 
Q 1550 3584 1831 3584 
Q 2591 3584 2966 3190 
Q 3341 2797 3341 1997 
z
" transform="scale(0.015625)"/>
      <path id="DejaVuSans-70" d="M 1159 525 
L 1159 -1331 
L 581 -1331 
L 581 3500 
L 1159 3500 
L 1159 2969 
Q 1341 3281 1617 3432 
Q 1894 3584 2278 3584 
Q 2916 3584 3314 3078 
Q 3713 2572 3713 1747 
Q 3713 922 3314 415 
Q 2916 -91 2278 -91 
Q 1894 -91 1617 61 
Q 1341 213 1159 525 
z
M 3116 1747 
Q 3116 2381 2855 2742 
Q 2594 3103 2138 3103 
Q 1681 3103 1420 2742 
Q 1159 2381 1159 1747 
Q 1159 1113 1420 752 
Q 1681 391 2138 391 
Q 2594 391 2855 752 
Q 3116 1113 3116 1747 
z
" transform="scale(0.015625)"/>
     </defs>
     <use xlink:href="#DejaVuSans-74"/>
     <use xlink:href="#DejaVuSans-69" transform="translate(39.208984 0)"/>
     <use xlink:href="#DejaVuSans-6d" transform="translate(66.992188 0)"/>
     <use xlink:href="#DejaVuSans-65" transform="translate(164.404297 0)"/>
     <use xlink:href="#DejaVuSans-73" transform="translate(225.927734 0)"/>
     <use xlink:href="#DejaVuSans-74" transform="translate(278.027344 0)"/>
     <use xlink:href="#DejaVuSans-61" transform="translate(317.236328 0)"/>
     <use xlink:href="#DejaVuSans-6d" transform="translate(378.515625 0)"/>
     <use xlink:href="#DejaVuSans-70" transform="translate(475.927734 0)"/>
     <use xlink:href="#DejaVuSans-73" transform="translate(539.404297 0)"/>
    </g>
   </g>
  </g>
 </g>
 <defs>
  <clipPath id="p5135e7fc18">
   <rect x="0" y="189.491297" width="504" height="225.278097"/>
  </clipPath>
  <clipPath id="pbfdade5d7e">
   <rect x="0" y="518.635954" width="504" height="40.284046"/>
  </clipPath>
 </defs>
</svg>
