<?xml version="1.0" encoding="utf-8" standalone="no"?>
<!DOCTYPE svg PUBLIC "-//W3C//DTD SVG 1.1//EN"
  "http://www.w3.org/Graphics/SVG/1.1/DTD/svg11.dtd">
<svg xmlns:xlink="http://www.w3.org/1999/xlink" width="504pt" height="324pt" viewBox="0 0 504 324" xmlns="http://www.w3.org/2000/svg" version="1.1">
 <metadata>
  <rdf:RDF xmlns:dc="http://purl.org/dc/elements/1.1/" xmlns:cc="http://creativecommons.org/ns#" xmlns:rdf="http://www.w3.org/1999/02/22-rdf-syntax-ns#">
   <cc:Work>
    <dc:type rdf:resource="http://purl.org/dc/dcmitype/StillImage"/>
    <dc:date>2026-02-25T16:11:48.741170</dc:date>
    <dc:format>image/svg+xml</dc:format>
    <dc:creator>
     <cc:Agent>
      <dc:title>Matplotlib v3.10.5, https://matplotlib.org/</dc:title>
     </cc:Agent>
    </dc:creator>
   </cc:Work>
  </rdf:RDF>
 </metadata>
 <defs>
  <style type="text/css">*{stroke-linejoin: round; stroke-linecap: butt}</style>
 </defs>
 <g id="figure_1">
  <g id="patch_1">
   <path d="M 0 324 
L 504 324 
L 504 0 
L 0 0 
z
" style="fill: #ffffff"/>
  </g>
  <g id="axes_1">
   <g id="patch_2">
    <path d="M 147.733221 231.163636 
L 356.266779 231.163636 
L 356.266779 20 
L 147.733221 20 
z
" style="fill: #d3d3d3"/>
   </g>
   <g id="PatchCollection_1">
    <path d="M -133.517672 229.434421 
L -133.517672 68.537611 
L 27.379138 68.537611 
L 27.379138 229.434421 
z
" clip-path="url(#pb0d9167633)" style="fill: #8c8c8c; stroke: #ffffff"/>
    <path d="M -213.966076 309.882826 
L -213.966076 229.434421 
L -173.741874 229.434421 
L -173.741874 309.882826 
z
" clip-path="url(#pb0d9167633)" style="fill: #8c8c8c; stroke: #ffffff"/>
    <path d="M -173.741874 309.882826 
L -173.741874 269.658624 
L -93.293469 269.658624 
L -93.293469 309.882826 
z
" clip-path="url(#pb0d9167633)" style="fill: #8c8c8c; stroke: #ffffff"/>
    <path d="M -93.293469 309.882826 
L -93.293469 269.658624 
L -53.069267 269.658624 
L -53.069267 309.882826 
z
" clip-path="url(#pb0d9167633)" style="fill: #8c8c8c; stroke: #ffffff"/>
    <path d="M -53.069267 309.882826 
L -53.069267 269.658624 
L -12.845064 269.658624 
L -12.845064 309.882826 
z
" clip-path="url(#pb0d9167633)" style="fill: #8c8c8c; stroke: #ffffff"/>
    <path d="M 27.379138 309.882826 
L 27.379138 269.658624 
L 67.603341 269.658624 
L 67.603341 309.882826 
z
" clip-path="url(#pb0d9167633)" style="fill: #8c8c8c; stroke: #ffffff"/>
    <path d="M 67.603341 309.882826 
L 67.603341 269.658624 
L 107.827543 269.658624 
L 107.827543 309.882826 
z
" clip-path="url(#pb0d9167633)" style="fill: #8c8c8c; stroke: #ffffff"/>
    <path d="M 67.603341 269.658624 
L 67.603341 229.434421 
L 107.827543 229.434421 
L 107.827543 269.658624 
z
" clip-path="url(#pb0d9167633)" style="fill: #8c8c8c; stroke: #ffffff"/>
    <path d="M 67.603341 229.434421 
L 67.603341 189.210219 
L 107.827543 189.210219 
L 107.827543 229.434421 
z
" clip-path="url(#pb0d9167633)" style="fill: #8c8c8c; stroke: #ffffff"/>
    <path d="M 67.603341 148.986016 
L 67.603341 108.761814 
L 107.827543 108.761814 
L 107.827543 148.986016 
z
" clip-path="url(#pb0d9167633)" style="fill: #8c8c8c; stroke: #ffffff"/>
    <path d="M 67.603341 108.761814 
L 67.603341 68.537611 
L 107.827543 68.537611 
L 107.827543 108.761814 
z
" clip-path="url(#pb0d9167633)" style="fill: #8c8c8c; stroke: #ffffff"/>
    <path d="M 67.603341 68.537611 
L 67.603341 28.313409 
L 107.827543 28.313409 
L 107.827543 68.537611 
z
" clip-path="url(#pb0d9167633)" style="fill: #8c8c8c; stroke: #ffffff"/>
    <path d="M 27.379138 28.313409 
L 27.379138 -11.910794 
L 107.827543 -11.910794 
L 107.827543 28.313409 
z
" clip-path="url(#pb0d9167633)" style="fill: #8c8c8c; stroke: #ffffff"/>
    <path d="M -12.845064 28.313409 
L -12.845064 -11.910794 
L 27.379138 -11.910794 
L 27.379138 28.313409 
z
" clip-path="url(#pb0d9167633)" style="fill: #8c8c8c; stroke: #ffffff"/>
    <path d="M -53.069267 28.313409 
L -53.069267 -11.910794 
L -12.845064 -11.910794 
L -12.845064 28.313409 
z
" clip-path="url(#pb0d9167633)" style="fill: #8c8c8c; stroke: #ffffff"/>
    <path d="M -133.517672 28.313409 
L -133.517672 -11.910794 
L -93.293469 -11.910794 
L -93.293469 28.313409 
z
" clip-path="url(#pb0d9167633)" style="fill: #8c8c8c; stroke: #ffffff"/>
    <path d="M -173.741874 28.313409 
L -173.741874 -11.910794 
L -133.517672 -11.910794 
L -133.517672 28.313409 
z
" clip-path="url(#pb0d9167633)" style="fill: #8c8c8c; stroke: #ffffff"/>
    <path d="M -213.966076 28.313409 
L -213.966076 -11.910794 
L -173.741874 -11.910794 
L -173.741874 28.313409 
z
" clip-path="url(#pb0d9167633)" style="fill: #8c8c8c; stroke: #ffffff"/>
    <path d="M -213.966076 68.537611 
L -213.966076 28.313409 
L -173.741874 28.313409 
L -173.741874 68.537611 
z
" clip-path="url(#pb0d9167633)" style="fill: #8c8c8c; stroke: #ffffff"/>
    <path d="M -213.966076 108.761814 
L -213.966076 68.537611 
L -173.741874 68.537611 
L -173.741874 108.761814 
z
" clip-path="url(#pb0d9167633)" style="fill: #8c8c8c; stroke: #ffffff"/>
    <path d="M -213.966076 229.434421 
L -213.966076 148.986016 
L -173.741874 148.986016 
L -173.741874 229.434421 
z
" clip-path="url(#pb0d9167633)" style="fill: #8c8c8c; stroke: #ffffff"/>
    <path d="M -334.638684 430.555433 
L -334.638684 350.107028 
L -294.414481 350.107028 
L -294.414481 430.555433 
z
" clip-path="url(#pb0d9167633)" style="fill: #8c8c8c; stroke: #ffffff"/>
    <path d="M -294.414481 430.555433 
L -294.414481 350.107028 
L -254.190279 350.107028 
L -254.190279 430.555433 
z
" clip-path="url(#pb0d9167633)" style="fill: #8c8c8c; stroke: #ffffff"/>
    <path d="M -254.190279 430.555433 
L -254.190279 350.107028 
L -173.741874 350.107028 
L -173.741874 430.555433 
z
" clip-path="url(#pb0d9167633)" style="fill: #8c8c8c; stroke: #ffffff"/>
    <path d="M -173.741874 430.555433 
L -173.741874 350.107028 
L -93.293469 350.107028 
L -93.293469 430.555433 
z
" clip-path="url(#pb0d9167633)" style="fill: #8c8c8c; stroke: #ffffff"/>
    <path d="M -53.069267 390.331231 
L -53.069267 350.107028 
L 67.603341 350.107028 
L 67.603341 390.331231 
z
" clip-path="url(#pb0d9167633)" style="fill: #8c8c8c; stroke: #ffffff"/>
    <path d="M -53.069267 430.555433 
L -53.069267 390.331231 
L 67.603341 390.331231 
L 67.603341 430.555433 
z
" clip-path="url(#pb0d9167633)" style="fill: #8c8c8c; stroke: #ffffff"/>
    <path d="M 67.603341 430.555433 
L 67.603341 350.107028 
L 188.275948 350.107028 
L 188.275948 430.555433 
z
" clip-path="url(#pb0d9167633)" style="fill: #8c8c8c; stroke: #ffffff"/>
    <path d="M 188.275948 430.555433 
L 188.275948 350.107028 
L 228.500151 350.107028 
L 228.500151 430.555433 
z
" clip-path="url(#pb0d9167633)" style="fill: #8c8c8c; stroke: #ffffff"/>
    <path d="M 148.051746 350.107028 
L 148.051746 269.658624 
L 228.500151 269.658624 
L 228.500151 350.107028 
z
" clip-path="url(#pb0d9167633)" style="fill: #8c8c8c; stroke: #ffffff"/>
    <path d="M 148.051746 269.658624 
L 148.051746 189.210219 
L 188.275948 189.210219 
L 188.275948 269.658624 
z
" clip-path="url(#pb0d9167633)" style="fill: #8c8c8c; stroke: #ffffff"/>
    <path d="M 188.275948 269.658624 
L 188.275948 189.210219 
L 228.500151 189.210219 
L 228.500151 269.658624 
z
" clip-path="url(#pb0d9167633)" style="fill: #8c8c8c; stroke: #ffffff"/>
    <path d="M 148.051746 189.210219 
L 148.051746 108.761814 
L 228.500151 108.761814 
L 228.500151 189.210219 
z
" clip-path="url(#pb0d9167633)" style="fill: #8c8c8c; stroke: #ffffff"/>
    <path d="M 148.051746 68.537611 
L 148.051746 -11.910794 
L 228.500151 -11.910794 
L 228.500151 68.537611 
z
" clip-path="url(#pb0d9167633)" style="fill: #8c8c8c; stroke: #ffffff"/>
    <path d="M 148.051746 -11.910794 
L 148.051746 -52.134996 
L 228.500151 -52.134996 
L 228.500151 -11.910794 
z
" clip-path="url(#pb0d9167633)" style="fill: #8c8c8c; stroke: #ffffff"/>
    <path d="M 107.827543 -52.134996 
L 107.827543 -92.359199 
L 228.500151 -92.359199 
L 228.500151 -52.134996 
z
" clip-path="url(#pb0d9167633)" style="fill: #8c8c8c; stroke: #ffffff"/>
    <path d="M 67.603341 -52.134996 
L 67.603341 -92.359199 
L 107.827543 -92.359199 
L 107.827543 -52.134996 
z
" clip-path="url(#pb0d9167633)" style="fill: #8c8c8c; stroke: #ffffff"/>
    <path d="M 148.051746 -92.359199 
L 148.051746 -132.583401 
L 228.500151 -132.583401 
L 228.500151 -92.359199 
z
" clip-path="url(#pb0d9167633)" style="fill: #8c8c8c; stroke: #ffffff"/>
    <path d="M 67.603341 -92.359199 
L 67.603341 -132.583401 
L 148.051746 -132.583401 
L 148.051746 -92.359199 
z
" clip-path="url(#pb0d9167633)" style="fill: #8c8c8c; stroke: #ffffff"/>
    <path d="M -12.845064 -52.134996 
L -12.845064 -132.583401 
L 67.603341 -132.583401 
L 67.603341 -52.134996 
z
" clip-path="url(#pb0d9167633)" style="fill: #8c8c8c; stroke: #ffffff"/>
    <path d="M -93.293469 -92.359199 
L -93.293469 -132.583401 
L -12.845064 -132.583401 
L -12.845064 -92.359199 
z
" clip-path="url(#pb0d9167633)" style="fill: #8c8c8c; stroke: #ffffff"/>
    <path d="M -93.293469 -52.134996 
L -93.293469 -92.359199 
L -12.845064 -92.359199 
L -12.845064 -52.134996 
z
" clip-path="url(#pb0d9167633)" style="fill: #8c8c8c; stroke: #ffffff"/>
    <path d="M -213.966076 -52.134996 
L -213.966076 -132.583401 
L -133.517672 -132.583401 
L -133.517672 -52.134996 
z
" clip-path="url(#pb0d9167633)" style="fill: #8c8c8c; stroke: #ffffff"/>
    <path d="M -294.414481 -92.359199 
L -294.414481 -132.583401 
L -213.966076 -132.583401 
L -213.966076 -92.359199 
z
" clip-path="url(#pb0d9167633)" style="fill: #8c8c8c; stroke: #ffffff"/>
    <path d="M -294.414481 -52.134996 
L -294.414481 -92.359199 
L -213.966076 -92.359199 
L -213.966076 -52.134996 
z
" clip-path="url(#pb0d9167633)" style="fill: #8c8c8c; stroke: #ffffff"/>
    <path d="M -334.638684 -52.134996 
L -334.638684 -132.583401 
L -294.414481 -132.583401 
L -294.414481 -52.134996 
z
" clip-path="url(#pb0d9167633)" style="fill: #8c8c8c; stroke: #ffffff"/>
    <path d="M -334.638684 68.537611 
L -334.638684 -52.134996 
L -254.190279 -52.134996 
L -254.190279 68.537611 
z
" clip-path="url(#pb0d9167633)" style="fill: #8c8c8c; stroke: #ffffff"/>
    <path d="M -334.638684 108.761814 
L -334.638684 68.537611 
L -254.190279 68.537611 
L -254.190279 108.761814 
z
" clip-path="url(#pb0d9167633)" style="fill: #8c8c8c; stroke: #ffffff"/>
    <path d="M -334.638684 229.434421 
L -334.638684 148.986016 
L -294.414481 148.986016 
L -294.414481 229.434421 
z
" clip-path="url(#pb0d9167633)" style="fill: #8c8c8c; stroke: #ffffff"/>
    <path d="M -294.414481 229.434421 
L -294.414481 148.986016 
L -254.190279 148.986016 
L -254.190279 229.434421 
z
" clip-path="url(#pb0d9167633)" style="fill: #8c8c8c; stroke: #ffffff"/>
    <path d="M -334.638684 269.658624 
L -334.638684 229.434421 
L -254.190279 229.434421 
L -254.190279 269.658624 
z
" clip-path="url(#pb0d9167633)" style="fill: #8c8c8c; stroke: #ffffff"/>
    <path d="M -334.638684 350.107028 
L -334.638684 269.658624 
L -254.190279 269.658624 
L -254.190279 350.107028 
z
" clip-path="url(#pb0d9167633)" style="fill: #8c8c8c; stroke: #ffffff"/>
    <path d="M -455.311291 551.228041 
L -455.311291 470.779636 
L -374.862886 470.779636 
L -374.862886 551.228041 
z
" clip-path="url(#pb0d9167633)" style="fill: #8c8c8c; stroke: #ffffff"/>
    <path d="M -374.862886 551.228041 
L -374.862886 470.779636 
L -294.414481 470.779636 
L -294.414481 551.228041 
z
" clip-path="url(#pb0d9167633)" style="fill: #8c8c8c; stroke: #ffffff"/>
    <path d="M -294.414481 551.228041 
L -294.414481 511.003838 
L -254.190279 511.003838 
L -254.190279 551.228041 
z
" clip-path="url(#pb0d9167633)" style="fill: #8c8c8c; stroke: #ffffff"/>
    <path d="M -294.414481 511.003838 
L -294.414481 470.779636 
L -254.190279 470.779636 
L -254.190279 511.003838 
z
" clip-path="url(#pb0d9167633)" style="fill: #8c8c8c; stroke: #ffffff"/>
    <path d="M -254.190279 551.228041 
L -254.190279 511.003838 
L -173.741874 511.003838 
L -173.741874 551.228041 
z
" clip-path="url(#pb0d9167633)" style="fill: #8c8c8c; stroke: #ffffff"/>
    <path d="M -254.190279 511.003838 
L -254.190279 470.779636 
L -173.741874 470.779636 
L -173.741874 511.003838 
z
" clip-path="url(#pb0d9167633)" style="fill: #8c8c8c; stroke: #ffffff"/>
    <path d="M -133.517672 551.228041 
L -133.517672 470.779636 
L -93.293469 470.779636 
L -93.293469 551.228041 
z
" clip-path="url(#pb0d9167633)" style="fill: #8c8c8c; stroke: #ffffff"/>
    <path d="M -93.293469 551.228041 
L -93.293469 470.779636 
L 27.379138 470.779636 
L 27.379138 551.228041 
z
" clip-path="url(#pb0d9167633)" style="fill: #8c8c8c; stroke: #ffffff"/>
    <path d="M 27.379138 551.228041 
L 27.379138 470.779636 
L 107.827543 470.779636 
L 107.827543 551.228041 
z
" clip-path="url(#pb0d9167633)" style="fill: #8c8c8c; stroke: #ffffff"/>
    <path d="M 107.827543 511.003838 
L 107.827543 470.779636 
L 148.051746 470.779636 
L 148.051746 511.003838 
z
" clip-path="url(#pb0d9167633)" style="fill: #8c8c8c; stroke: #ffffff"/>
    <path d="M 148.051746 511.003838 
L 148.051746 470.779636 
L 188.275948 470.779636 
L 188.275948 511.003838 
z
" clip-path="url(#pb0d9167633)" style="fill: #8c8c8c; stroke: #ffffff"/>
    <path d="M 107.827543 551.228041 
L 107.827543 511.003838 
L 148.051746 511.003838 
L 148.051746 551.228041 
z
" clip-path="url(#pb0d9167633)" style="fill: #8c8c8c; stroke: #ffffff"/>
    <path d="M 148.051746 551.228041 
L 148.051746 511.003838 
L 188.275948 511.003838 
L 188.275948 551.228041 
z
" clip-path="url(#pb0d9167633)" style="fill: #8c8c8c; stroke: #ffffff"/>
    <path d="M 188.275948 511.003838 
L 188.275948 470.779636 
L 268.724353 470.779636 
L 268.724353 511.003838 
z
" clip-path="url(#pb0d9167633)" style="fill: #8c8c8c; stroke: #ffffff"/>
    <path d="M 188.275948 551.228041 
L 188.275948 511.003838 
L 268.724353 511.003838 
L 268.724353 551.228041 
z
" clip-path="url(#pb0d9167633)" style="fill: #8c8c8c; stroke: #ffffff"/>
    <path d="M 268.724353 551.228041 
L 268.724353 511.003838 
L 349.172758 511.003838 
L 349.172758 551.228041 
z
" clip-path="url(#pb0d9167633)" style="fill: #8c8c8c; stroke: #ffffff"/>
    <path d="M 268.724353 511.003838 
L 268.724353 430.555433 
L 349.172758 430.555433 
L 349.172758 511.003838 
z
" clip-path="url(#pb0d9167633)" style="fill: #8c8c8c; stroke: #ffffff"/>
    <path d="M 268.724353 430.555433 
L 268.724353 350.107028 
L 349.172758 350.107028 
L 349.172758 430.555433 
z
" clip-path="url(#pb0d9167633)" style="fill: #8c8c8c; stroke: #ffffff"/>
    <path d="M 268.724353 350.107028 
L 268.724353 269.658624 
L 308.948555 269.658624 
L 308.948555 350.107028 
z
" clip-path="url(#pb0d9167633)" style="fill: #8c8c8c; stroke: #ffffff"/>
    <path d="M 308.948555 350.107028 
L 308.948555 269.658624 
L 349.172758 269.658624 
L 349.172758 350.107028 
z
" clip-path="url(#pb0d9167633)" style="fill: #8c8c8c; stroke: #ffffff"/>
    <path d="M 268.724353 229.434421 
L 268.724353 148.986016 
L 349.172758 148.986016 
L 349.172758 229.434421 
z
" clip-path="url(#pb0d9167633)" style="fill: #8c8c8c; stroke: #ffffff"/>
    <path d="M 268.724353 148.986016 
L 268.724353 68.537611 
L 349.172758 68.537611 
L 349.172758 148.986016 
z
" clip-path="url(#pb0d9167633)" style="fill: #8c8c8c; stroke: #ffffff"/>
    <path d="M 268.724353 68.537611 
L 268.724353 -11.910794 
L 308.948555 -11.910794 
L 308.948555 68.537611 
z
" clip-path="url(#pb0d9167633)" style="fill: #8c8c8c; stroke: #ffffff"/>
    <path d="M 308.948555 68.537611 
L 308.948555 -11.910794 
L 349.172758 -11.910794 
L 349.172758 68.537611 
z
" clip-path="url(#pb0d9167633)" style="fill: #8c8c8c; stroke: #ffffff"/>
    <path d="M 268.724353 -11.910794 
L 268.724353 -92.359199 
L 349.172758 -92.359199 
L 349.172758 -11.910794 
z
" clip-path="url(#pb0d9167633)" style="fill: #8c8c8c; stroke: #ffffff"/>
    <path d="M 268.724353 -92.359199 
L 268.724353 -172.807603 
L 349.172758 -172.807603 
L 349.172758 -92.359199 
z
" clip-path="url(#pb0d9167633)" style="fill: #8c8c8c; stroke: #ffffff"/>
    <path d="M 268.724353 -172.807603 
L 268.724353 -213.031806 
L 349.172758 -213.031806 
L 349.172758 -172.807603 
z
" clip-path="url(#pb0d9167633)" style="fill: #8c8c8c; stroke: #ffffff"/>
    <path d="M 268.724353 -213.031806 
L 268.724353 -253.256008 
L 349.172758 -253.256008 
L 349.172758 -213.031806 
z
" clip-path="url(#pb0d9167633)" style="fill: #8c8c8c; stroke: #ffffff"/>
    <path d="M 188.275948 -172.807603 
L 188.275948 -253.256008 
L 228.500151 -253.256008 
L 228.500151 -172.807603 
z
" clip-path="url(#pb0d9167633)" style="fill: #8c8c8c; stroke: #ffffff"/>
    <path d="M 148.051746 -172.807603 
L 148.051746 -253.256008 
L 188.275948 -253.256008 
L 188.275948 -172.807603 
z
" clip-path="url(#pb0d9167633)" style="fill: #8c8c8c; stroke: #ffffff"/>
    <path d="M 27.379138 -172.807603 
L 27.379138 -213.031806 
L 148.051746 -213.031806 
L 148.051746 -172.807603 
z
" clip-path="url(#pb0d9167633)" style="fill: #8c8c8c; stroke: #ffffff"/>
    <path d="M 67.603341 -213.031806 
L 67.603341 -253.256008 
L 148.051746 -253.256008 
L 148.051746 -213.031806 
z
" clip-path="url(#pb0d9167633)" style="fill: #8c8c8c; stroke: #ffffff"/>
    <path d="M -12.845064 -213.031806 
L -12.845064 -253.256008 
L 67.603341 -253.256008 
L 67.603341 -213.031806 
z
" clip-path="url(#pb0d9167633)" style="fill: #8c8c8c; stroke: #ffffff"/>
    <path d="M -12.845064 -172.807603 
L -12.845064 -213.031806 
L 27.379138 -213.031806 
L 27.379138 -172.807603 
z
" clip-path="url(#pb0d9167633)" style="fill: #8c8c8c; stroke: #ffffff"/>
    <path d="M -93.293469 -172.807603 
L -93.293469 -253.256008 
L -12.845064 -253.256008 
L -12.845064 -172.807603 
z
" clip-path="url(#pb0d9167633)" style="fill: #8c8c8c; stroke: #ffffff"/>
    <path d="M -173.741874 -172.807603 
L -173.741874 -213.031806 
L -93.293469 -213.031806 
L -93.293469 -172.807603 
z
" clip-path="url(#pb0d9167633)" style="fill: #8c8c8c; stroke: #ffffff"/>
    <path d="M -173.741874 -213.031806 
L -173.741874 -253.256008 
L -93.293469 -253.256008 
L -93.293469 -213.031806 
z
" clip-path="url(#pb0d9167633)" style="fill: #8c8c8c; stroke: #ffffff"/>
    <path d="M -294.414481 -172.807603 
L -294.414481 -253.256008 
L -213.966076 -253.256008 
L -213.966076 -172.807603 
z
" clip-path="url(#pb0d9167633)" style="fill: #8c8c8c; stroke: #ffffff"/>
    <path d="M -374.862886 -213.031806 
L -374.862886 -253.256008 
L -294.414481 -253.256008 
L -294.414481 -213.031806 
z
" clip-path="url(#pb0d9167633)" style="fill: #8c8c8c; stroke: #ffffff"/>
    <path d="M -374.862886 -172.807603 
L -374.862886 -213.031806 
L -294.414481 -213.031806 
L -294.414481 -172.807603 
z
" clip-path="url(#pb0d9167633)" style="fill: #8c8c8c; stroke: #ffffff"/>
    <path d="M -415.087089 -172.807603 
L -415.087089 -253.256008 
L -374.862886 -253.256008 
L -374.862886 -172.807603 
z
" clip-path="url(#pb0d9167633)" style="fill: #8c8c8c; stroke: #ffffff"/>
    <path d="M -455.311291 -172.807603 
L -455.311291 -253.256008 
L -415.087089 -253.256008 
L -415.087089 -172.807603 
z
" clip-path="url(#pb0d9167633)" style="fill: #8c8c8c; stroke: #ffffff"/>
    <path d="M -455.311291 -52.134996 
L -455.311291 -132.583401 
L -374.862886 -132.583401 
L -374.862886 -52.134996 
z
" clip-path="url(#pb0d9167633)" style="fill: #8c8c8c; stroke: #ffffff"/>
    <path d="M -455.311291 -11.910794 
L -455.311291 -52.134996 
L -374.862886 -52.134996 
L -374.862886 -11.910794 
z
" clip-path="url(#pb0d9167633)" style="fill: #8c8c8c; stroke: #ffffff"/>
    <path d="M -455.311291 28.313409 
L -455.311291 -11.910794 
L -374.862886 -11.910794 
L -374.862886 28.313409 
z
" clip-path="url(#pb0d9167633)" style="fill: #8c8c8c; stroke: #ffffff"/>
    <path d="M -455.311291 108.761814 
L -455.311291 28.313409 
L -374.862886 28.313409 
L -374.862886 108.761814 
z
" clip-path="url(#pb0d9167633)" style="fill: #8c8c8c; stroke: #ffffff"/>
    <path d="M -455.311291 148.986016 
L -455.311291 108.761814 
L -374.862886 108.761814 
L -374.862886 148.986016 
z
" clip-path="url(#pb0d9167633)" style="fill: #8c8c8c; stroke: #ffffff"/>
    <path d="M -455.311291 189.210219 
L -455.311291 148.986016 
L -374.862886 148.986016 
L -374.862886 189.210219 
z
" clip-path="url(#pb0d9167633)" style="fill: #8c8c8c; stroke: #ffffff"/>
    <path d="M -455.311291 269.658624 
L -455.311291 189.210219 
L -374.862886 189.210219 
L -374.862886 269.658624 
z
" clip-path="url(#pb0d9167633)" style="fill: #8c8c8c; stroke: #ffffff"/>
    <path d="M -455.311291 309.882826 
L -455.311291 269.658624 
L -374.862886 269.658624 
L -374.862886 309.882826 
z
" clip-path="url(#pb0d9167633)" style="fill: #8c8c8c; stroke: #ffffff"/>
    <path d="M -455.311291 430.555433 
L -455.311291 309.882826 
L -415.087089 309.882826 
L -415.087089 430.555433 
z
" clip-path="url(#pb0d9167633)" style="fill: #8c8c8c; stroke: #ffffff"/>
    <path d="M -415.087089 350.107028 
L -415.087089 309.882826 
L -374.862886 309.882826 
L -374.862886 350.107028 
z
" clip-path="url(#pb0d9167633)" style="fill: #8c8c8c; stroke: #ffffff"/>
    <path d="M -415.087089 390.331231 
L -415.087089 350.107028 
L -374.862886 350.107028 
L -374.862886 390.331231 
z
" clip-path="url(#pb0d9167633)" style="fill: #8c8c8c; stroke: #ffffff"/>
    <path d="M -415.087089 430.555433 
L -415.087089 390.331231 
L -374.862886 390.331231 
L -374.862886 430.555433 
z
" clip-path="url(#pb0d9167633)" style="fill: #8c8c8c; stroke: #ffffff"/>
   </g>
   <g id="PatchCollection_2">
    <path d="M 192.853028 167.087232 
L 192.872397 166.692966 
L 192.930318 166.302497 
L 193.026232 165.919585 
L 193.159217 165.547919 
L 193.327991 165.191076 
L 193.530928 164.852495 
L 193.766076 164.535436 
L 194.031168 164.242952 
L 194.323652 163.977859 
L 194.640712 163.742712 
L 194.979293 163.539774 
L 195.336135 163.371 
L 195.707802 163.238016 
L 196.090713 163.142102 
L 196.481182 163.084181 
L 196.875449 163.064812 
L 197.269715 163.084181 
L 197.660184 163.142102 
L 198.043096 163.238016 
L 198.414762 163.371 
L 198.771604 163.539774 
L 199.110185 163.742712 
L 199.427245 163.977859 
L 199.719729 164.242952 
L 199.984821 164.535436 
L 200.219969 164.852495 
L 200.422906 165.191076 
L 200.59168 165.547919 
L 200.724665 165.919585 
L 200.820579 166.302497 
L 200.8785 166.692966 
L 200.897869 167.087232 
L 200.8785 167.481498 
L 200.820579 167.871967 
L 200.724665 168.254879 
L 200.59168 168.626546 
L 200.422906 168.983388 
L 200.219969 169.321969 
L 199.984821 169.639029 
L 199.719729 169.931513 
L 199.427245 170.196605 
L 199.110185 170.431752 
L 198.771604 170.63469 
L 198.414762 170.803464 
L 198.043096 170.936448 
L 197.660184 171.032363 
L 197.269715 171.090283 
L 196.875449 171.109652 
L 196.481182 171.090283 
L 196.090713 171.032363 
L 195.707802 170.936448 
L 195.336135 170.803464 
L 194.979293 170.63469 
L 194.640712 170.431752 
L 194.323652 170.196605 
L 194.031168 169.931513 
L 193.766076 169.639029 
L 193.530928 169.321969 
L 193.327991 168.983388 
L 193.159217 168.626546 
L 193.026232 168.254879 
L 192.930318 167.871967 
L 192.872397 167.481498 
z
" clip-path="url(#pb0d9167633)" style="fill: #f5c4e1; fill-opacity: 0.75; stroke: #000000; stroke-opacity: 0.75; stroke-width: 0.5"/>
    <path d="M 186.050863 144.588049 
L 186.070232 144.193783 
L 186.128152 143.803314 
L 186.224067 143.420402 
L 186.357051 143.048736 
L 186.525825 142.691893 
L 186.728763 142.353312 
L 186.96391 142.036253 
L 187.229002 141.743768 
L 187.521487 141.478676 
L 187.838546 141.243529 
L 188.177127 141.040591 
L 188.533969 140.871817 
L 188.905636 140.738833 
L 189.288548 140.642919 
L 189.679017 140.584998 
L 190.073283 140.565629 
L 190.467549 140.584998 
L 190.858018 140.642919 
L 191.24093 140.738833 
L 191.612597 140.871817 
L 191.969439 141.040591 
L 192.30802 141.243529 
L 192.625079 141.478676 
L 192.917564 141.743768 
L 193.182656 142.036253 
L 193.417803 142.353312 
L 193.620741 142.691893 
L 193.789515 143.048736 
L 193.922499 143.420402 
L 194.018414 143.803314 
L 194.076334 144.193783 
L 194.095703 144.588049 
L 194.076334 144.982315 
L 194.018414 145.372784 
L 193.922499 145.755696 
L 193.789515 146.127363 
L 193.620741 146.484205 
L 193.417803 146.822786 
L 193.182656 147.139846 
L 192.917564 147.43233 
L 192.625079 147.697422 
L 192.30802 147.932569 
L 191.969439 148.135507 
L 191.612597 148.304281 
L 191.24093 148.437265 
L 190.858018 148.53318 
L 190.467549 148.5911 
L 190.073283 148.610469 
L 189.679017 148.5911 
L 189.288548 148.53318 
L 188.905636 148.437265 
L 188.533969 148.304281 
L 188.177127 148.135507 
L 187.838546 147.932569 
L 187.521487 147.697422 
L 187.229002 147.43233 
L 186.96391 147.139846 
L 186.728763 146.822786 
L 186.525825 146.484205 
L 186.357051 146.127363 
L 186.224067 145.755696 
L 186.128152 145.372784 
L 186.070232 144.982315 
z
" clip-path="url(#pb0d9167633)" style="fill: #f5c4e1; fill-opacity: 0.75; stroke: #000000; stroke-opacity: 0.75; stroke-width: 0.5"/>
    <path d="M 174.107609 161.1675 
L 174.126978 160.773234 
L 174.184899 160.382765 
L 174.280813 159.999853 
L 174.413798 159.628187 
L 174.582572 159.271345 
L 174.785509 158.932763 
L 175.020657 158.615704 
L 175.285749 158.32322 
L 175.578233 158.058128 
L 175.895293 157.82298 
L 176.233874 157.620042 
L 176.590716 157.451269 
L 176.962383 157.318284 
L 177.345294 157.22237 
L 177.735763 157.164449 
L 178.130029 157.14508 
L 178.524296 157.164449 
L 178.914765 157.22237 
L 179.297676 157.318284 
L 179.669343 157.451269 
L 180.026185 157.620042 
L 180.364766 157.82298 
L 180.681826 158.058128 
L 180.97431 158.32322 
L 181.239402 158.615704 
L 181.47455 158.932763 
L 181.677487 159.271345 
L 181.846261 159.628187 
L 181.979246 159.999853 
L 182.07516 160.382765 
L 182.133081 160.773234 
L 182.15245 161.1675 
L 182.133081 161.561767 
L 182.07516 161.952236 
L 181.979246 162.335147 
L 181.846261 162.706814 
L 181.677487 163.063656 
L 181.47455 163.402237 
L 181.239402 163.719297 
L 180.97431 164.011781 
L 180.681826 164.276873 
L 180.364766 164.512021 
L 180.026185 164.714958 
L 179.669343 164.883732 
L 179.297676 165.016717 
L 178.914765 165.112631 
L 178.524296 165.170552 
L 178.130029 165.189921 
L 177.735763 165.170552 
L 177.345294 165.112631 
L 176.962383 165.016717 
L 176.590716 164.883732 
L 176.233874 164.714958 
L 175.895293 164.512021 
L 175.578233 164.276873 
L 175.285749 164.011781 
L 175.020657 163.719297 
L 174.785509 163.402237 
L 174.582572 163.063656 
L 174.413798 162.706814 
L 174.280813 162.335147 
L 174.184899 161.952236 
L 174.126978 161.561767 
z
" clip-path="url(#pb0d9167633)" style="fill: #f5c4e1; fill-opacity: 0.75; stroke: #000000; stroke-opacity: 0.75; stroke-width: 0.5"/>
    <path d="M 190.241808 137.39577 
L 190.261177 137.001504 
L 190.319097 136.611035 
L 190.415012 136.228123 
L 190.547996 135.856457 
L 190.71677 135.499614 
L 190.919708 135.161033 
L 191.154855 134.843974 
L 191.419947 134.55149 
L 191.712432 134.286397 
L 192.029491 134.05125 
L 192.368072 133.848312 
L 192.724914 133.679538 
L 193.096581 133.546554 
L 193.479493 133.45064 
L 193.869962 133.392719 
L 194.264228 133.37335 
L 194.658494 133.392719 
L 195.048963 133.45064 
L 195.431875 133.546554 
L 195.803542 133.679538 
L 196.160384 133.848312 
L 196.498965 134.05125 
L 196.816024 134.286397 
L 197.108509 134.55149 
L 197.373601 134.843974 
L 197.608748 135.161033 
L 197.811686 135.499614 
L 197.98046 135.856457 
L 198.113444 136.228123 
L 198.209359 136.611035 
L 198.267279 137.001504 
L 198.286648 137.39577 
L 198.267279 137.790036 
L 198.209359 138.180505 
L 198.113444 138.563417 
L 197.98046 138.935084 
L 197.811686 139.291926 
L 197.608748 139.630507 
L 197.373601 139.947567 
L 197.108509 140.240051 
L 196.816024 140.505143 
L 196.498965 140.74029 
L 196.160384 140.943228 
L 195.803542 141.112002 
L 195.431875 141.244986 
L 195.048963 141.340901 
L 194.658494 141.398821 
L 194.264228 141.41819 
L 193.869962 141.398821 
L 193.479493 141.340901 
L 193.096581 141.244986 
L 192.724914 141.112002 
L 192.368072 140.943228 
L 192.029491 140.74029 
L 191.712432 140.505143 
L 191.419947 140.240051 
L 191.154855 139.947567 
L 190.919708 139.630507 
L 190.71677 139.291926 
L 190.547996 138.935084 
L 190.415012 138.563417 
L 190.319097 138.180505 
L 190.261177 137.790036 
z
" clip-path="url(#pb0d9167633)" style="fill: #f5c4e1; fill-opacity: 0.75; stroke: #000000; stroke-opacity: 0.75; stroke-width: 0.5"/>
    <path d="M 182.887935 136.132457 
L 182.907304 135.738191 
L 182.965225 135.347722 
L 183.061139 134.96481 
L 183.194124 134.593143 
L 183.362898 134.236301 
L 183.565835 133.89772 
L 183.800983 133.580661 
L 184.066075 133.288176 
L 184.358559 133.023084 
L 184.675619 132.787937 
L 185.0142 132.584999 
L 185.371042 132.416225 
L 185.742709 132.283241 
L 186.12562 132.187326 
L 186.516089 132.129406 
L 186.910356 132.110037 
L 187.304622 132.129406 
L 187.695091 132.187326 
L 188.078003 132.283241 
L 188.449669 132.416225 
L 188.806511 132.584999 
L 189.145093 132.787937 
L 189.462152 133.023084 
L 189.754636 133.288176 
L 190.019728 133.580661 
L 190.254876 133.89772 
L 190.457814 134.236301 
L 190.626587 134.593143 
L 190.759572 134.96481 
L 190.855486 135.347722 
L 190.913407 135.738191 
L 190.932776 136.132457 
L 190.913407 136.526723 
L 190.855486 136.917192 
L 190.759572 137.300104 
L 190.626587 137.67177 
L 190.457814 138.028613 
L 190.254876 138.367194 
L 190.019728 138.684253 
L 189.754636 138.976738 
L 189.462152 139.24183 
L 189.145093 139.476977 
L 188.806511 139.679915 
L 188.449669 139.848689 
L 188.078003 139.981673 
L 187.695091 140.077587 
L 187.304622 140.135508 
L 186.910356 140.154877 
L 186.516089 140.135508 
L 186.12562 140.077587 
L 185.742709 139.981673 
L 185.371042 139.848689 
L 185.0142 139.679915 
L 184.675619 139.476977 
L 184.358559 139.24183 
L 184.066075 138.976738 
L 183.800983 138.684253 
L 183.565835 138.367194 
L 183.362898 138.028613 
L 183.194124 137.67177 
L 183.061139 137.300104 
L 182.965225 136.917192 
L 182.907304 136.526723 
z
" clip-path="url(#pb0d9167633)" style="fill: #f5c4e1; fill-opacity: 0.75; stroke: #000000; stroke-opacity: 0.75; stroke-width: 0.5"/>
    <path d="M 157.212019 143.017617 
L 157.231388 142.623351 
L 157.289309 142.232882 
L 157.385223 141.84997 
L 157.518208 141.478304 
L 157.686982 141.121461 
L 157.889919 140.78288 
L 158.125067 140.465821 
L 158.390159 140.173337 
L 158.682643 139.908244 
L 158.999703 139.673097 
L 159.338284 139.470159 
L 159.695126 139.301385 
L 160.066793 139.168401 
L 160.449704 139.072487 
L 160.840173 139.014566 
L 161.234439 138.995197 
L 161.628706 139.014566 
L 162.019175 139.072487 
L 162.402086 139.168401 
L 162.773753 139.301385 
L 163.130595 139.470159 
L 163.469176 139.673097 
L 163.786236 139.908244 
L 164.07872 140.173337 
L 164.343812 140.465821 
L 164.57896 140.78288 
L 164.781897 141.121461 
L 164.950671 141.478304 
L 165.083656 141.84997 
L 165.17957 142.232882 
L 165.237491 142.623351 
L 165.25686 143.017617 
L 165.237491 143.411883 
L 165.17957 143.802352 
L 165.083656 144.185264 
L 164.950671 144.556931 
L 164.781897 144.913773 
L 164.57896 145.252354 
L 164.343812 145.569414 
L 164.07872 145.861898 
L 163.786236 146.12699 
L 163.469176 146.362137 
L 163.130595 146.565075 
L 162.773753 146.733849 
L 162.402086 146.866833 
L 162.019175 146.962748 
L 161.628706 147.020668 
L 161.234439 147.040037 
L 160.840173 147.020668 
L 160.449704 146.962748 
L 160.066793 146.866833 
L 159.695126 146.733849 
L 159.338284 146.565075 
L 158.999703 146.362137 
L 158.682643 146.12699 
L 158.390159 145.861898 
L 158.125067 145.569414 
L 157.889919 145.252354 
L 157.686982 144.913773 
L 157.518208 144.556931 
L 157.385223 144.185264 
L 157.289309 143.802352 
L 157.231388 143.411883 
z
" clip-path="url(#pb0d9167633)" style="fill: #f5c4e1; fill-opacity: 0.75; stroke: #000000; stroke-opacity: 0.75; stroke-width: 0.5"/>
    <path d="M 192.520103 155.087493 
L 192.539472 154.693227 
L 192.597393 154.302758 
L 192.693307 153.919846 
L 192.826292 153.54818 
L 192.995066 153.191338 
L 193.198003 152.852756 
L 193.433151 152.535697 
L 193.698243 152.243213 
L 193.990727 151.97812 
L 194.307787 151.742973 
L 194.646368 151.540035 
L 195.00321 151.371262 
L 195.374877 151.238277 
L 195.757788 151.142363 
L 196.148257 151.084442 
L 196.542524 151.065073 
L 196.93679 151.084442 
L 197.327259 151.142363 
L 197.710171 151.238277 
L 198.081837 151.371262 
L 198.438679 151.540035 
L 198.777261 151.742973 
L 199.09432 151.97812 
L 199.386804 152.243213 
L 199.651897 152.535697 
L 199.887044 152.852756 
L 200.089982 153.191338 
L 200.258755 153.54818 
L 200.39174 153.919846 
L 200.487654 154.302758 
L 200.545575 154.693227 
L 200.564944 155.087493 
L 200.545575 155.481759 
L 200.487654 155.872229 
L 200.39174 156.25514 
L 200.258755 156.626807 
L 200.089982 156.983649 
L 199.887044 157.32223 
L 199.651897 157.63929 
L 199.386804 157.931774 
L 199.09432 158.196866 
L 198.777261 158.432013 
L 198.438679 158.634951 
L 198.081837 158.803725 
L 197.710171 158.936709 
L 197.327259 159.032624 
L 196.93679 159.090544 
L 196.542524 159.109914 
L 196.148257 159.090544 
L 195.757788 159.032624 
L 195.374877 158.936709 
L 195.00321 158.803725 
L 194.646368 158.634951 
L 194.307787 158.432013 
L 193.990727 158.196866 
L 193.698243 157.931774 
L 193.433151 157.63929 
L 193.198003 157.32223 
L 192.995066 156.983649 
L 192.826292 156.626807 
L 192.693307 156.25514 
L 192.597393 155.872229 
L 192.539472 155.481759 
z
" clip-path="url(#pb0d9167633)" style="fill: #f5c4e1; fill-opacity: 0.75; stroke: #000000; stroke-opacity: 0.75; stroke-width: 0.5"/>
    <path d="M 166.115621 138.430626 
L 166.13499 138.036359 
L 166.192911 137.64589 
L 166.288825 137.262979 
L 166.42181 136.891312 
L 166.590583 136.53447 
L 166.793521 136.195889 
L 167.028669 135.878829 
L 167.293761 135.586345 
L 167.586245 135.321253 
L 167.903304 135.086105 
L 168.241886 134.883168 
L 168.598728 134.714394 
L 168.970394 134.581409 
L 169.353306 134.485495 
L 169.743775 134.427574 
L 170.138041 134.408205 
L 170.532308 134.427574 
L 170.922777 134.485495 
L 171.305688 134.581409 
L 171.677355 134.714394 
L 172.034197 134.883168 
L 172.372778 135.086105 
L 172.689838 135.321253 
L 172.982322 135.586345 
L 173.247414 135.878829 
L 173.482562 136.195889 
L 173.685499 136.53447 
L 173.854273 136.891312 
L 173.987258 137.262979 
L 174.083172 137.64589 
L 174.141093 138.036359 
L 174.160462 138.430626 
L 174.141093 138.824892 
L 174.083172 139.215361 
L 173.987258 139.598273 
L 173.854273 139.969939 
L 173.685499 140.326781 
L 173.482562 140.665363 
L 173.247414 140.982422 
L 172.982322 141.274906 
L 172.689838 141.539999 
L 172.372778 141.775146 
L 172.034197 141.978084 
L 171.677355 142.146857 
L 171.305688 142.279842 
L 170.922777 142.375756 
L 170.532308 142.433677 
L 170.138041 142.453046 
L 169.743775 142.433677 
L 169.353306 142.375756 
L 168.970394 142.279842 
L 168.598728 142.146857 
L 168.241886 141.978084 
L 167.903304 141.775146 
L 167.586245 141.539999 
L 167.293761 141.274906 
L 167.028669 140.982422 
L 166.793521 140.665363 
L 166.590583 140.326781 
L 166.42181 139.969939 
L 166.288825 139.598273 
L 166.192911 139.215361 
L 166.13499 138.824892 
z
" clip-path="url(#pb0d9167633)" style="fill: #f5c4e1; fill-opacity: 0.75; stroke: #000000; stroke-opacity: 0.75; stroke-width: 0.5"/>
    <path d="M 184.530217 143.537505 
L 184.549586 143.143239 
L 184.607507 142.75277 
L 184.703421 142.369859 
L 184.836405 141.998192 
L 185.005179 141.64135 
L 185.208117 141.302769 
L 185.443264 140.985709 
L 185.708357 140.693225 
L 186.000841 140.428133 
L 186.3179 140.192985 
L 186.656481 139.990048 
L 187.013324 139.821274 
L 187.38499 139.688289 
L 187.767902 139.592375 
L 188.158371 139.534454 
L 188.552637 139.515085 
L 188.946903 139.534454 
L 189.337372 139.592375 
L 189.720284 139.688289 
L 190.091951 139.821274 
L 190.448793 139.990048 
L 190.787374 140.192985 
L 191.104434 140.428133 
L 191.396918 140.693225 
L 191.66201 140.985709 
L 191.897157 141.302769 
L 192.100095 141.64135 
L 192.268869 141.998192 
L 192.401853 142.369859 
L 192.497768 142.75277 
L 192.555688 143.143239 
L 192.575057 143.537505 
L 192.555688 143.931772 
L 192.497768 144.322241 
L 192.401853 144.705152 
L 192.268869 145.076819 
L 192.100095 145.433661 
L 191.897157 145.772242 
L 191.66201 146.089302 
L 191.396918 146.381786 
L 191.104434 146.646878 
L 190.787374 146.882026 
L 190.448793 147.084963 
L 190.091951 147.253737 
L 189.720284 147.386722 
L 189.337372 147.482636 
L 188.946903 147.540557 
L 188.552637 147.559926 
L 188.158371 147.540557 
L 187.767902 147.482636 
L 187.38499 147.386722 
L 187.013324 147.253737 
L 186.656481 147.084963 
L 186.3179 146.882026 
L 186.000841 146.646878 
L 185.708357 146.381786 
L 185.443264 146.089302 
L 185.208117 145.772242 
L 185.005179 145.433661 
L 184.836405 145.076819 
L 184.703421 144.705152 
L 184.607507 144.322241 
L 184.549586 143.931772 
z
" clip-path="url(#pb0d9167633)" style="fill: #f5c4e1; fill-opacity: 0.75; stroke: #000000; stroke-opacity: 0.75; stroke-width: 0.5"/>
    <path d="M 174.157591 156.826068 
L 174.17696 156.431802 
L 174.234881 156.041332 
L 174.330795 155.658421 
L 174.46378 155.286754 
L 174.632553 154.929912 
L 174.835491 154.591331 
L 175.070638 154.274271 
L 175.335731 153.981787 
L 175.628215 153.716695 
L 175.945274 153.481547 
L 176.283855 153.27861 
L 176.640698 153.109836 
L 177.012364 152.976852 
L 177.395276 152.880937 
L 177.785745 152.823017 
L 178.180011 152.803647 
L 178.574277 152.823017 
L 178.964747 152.880937 
L 179.347658 152.976852 
L 179.719325 153.109836 
L 180.076167 153.27861 
L 180.414748 153.481547 
L 180.731808 153.716695 
L 181.024292 153.981787 
L 181.289384 154.274271 
L 181.524531 154.591331 
L 181.727469 154.929912 
L 181.896243 155.286754 
L 182.029227 155.658421 
L 182.125142 156.041332 
L 182.183062 156.431802 
L 182.202432 156.826068 
L 182.183062 157.220334 
L 182.125142 157.610803 
L 182.029227 157.993715 
L 181.896243 158.365381 
L 181.727469 158.722223 
L 181.524531 159.060805 
L 181.289384 159.377864 
L 181.024292 159.670348 
L 180.731808 159.935441 
L 180.414748 160.170588 
L 180.076167 160.373526 
L 179.719325 160.542299 
L 179.347658 160.675284 
L 178.964747 160.771198 
L 178.574277 160.829119 
L 178.180011 160.848488 
L 177.785745 160.829119 
L 177.395276 160.771198 
L 177.012364 160.675284 
L 176.640698 160.542299 
L 176.283855 160.373526 
L 175.945274 160.170588 
L 175.628215 159.935441 
L 175.335731 159.670348 
L 175.070638 159.377864 
L 174.835491 159.060805 
L 174.632553 158.722223 
L 174.46378 158.365381 
L 174.330795 157.993715 
L 174.234881 157.610803 
L 174.17696 157.220334 
z
" clip-path="url(#pb0d9167633)" style="fill: #f5c4e1; fill-opacity: 0.75; stroke: #000000; stroke-opacity: 0.75; stroke-width: 0.5"/>
    <path d="M 300.922245 99.939958 
L 300.941614 99.545692 
L 300.999535 99.155223 
L 301.095449 98.772311 
L 301.228434 98.400645 
L 301.397208 98.043803 
L 301.600145 97.705222 
L 301.835293 97.388162 
L 302.100385 97.095678 
L 302.392869 96.830586 
L 302.709929 96.595438 
L 303.04851 96.392501 
L 303.405352 96.223727 
L 303.777019 96.090742 
L 304.15993 95.994828 
L 304.5504 95.936907 
L 304.944666 95.917538 
L 305.338932 95.936907 
L 305.729401 95.994828 
L 306.112313 96.090742 
L 306.483979 96.223727 
L 306.840821 96.392501 
L 307.179403 96.595438 
L 307.496462 96.830586 
L 307.788946 97.095678 
L 308.054039 97.388162 
L 308.289186 97.705222 
L 308.492124 98.043803 
L 308.660897 98.400645 
L 308.793882 98.772311 
L 308.889796 99.155223 
L 308.947717 99.545692 
L 308.967086 99.939958 
L 308.947717 100.334225 
L 308.889796 100.724694 
L 308.793882 101.107605 
L 308.660897 101.479272 
L 308.492124 101.836114 
L 308.289186 102.174695 
L 308.054039 102.491755 
L 307.788946 102.784239 
L 307.496462 103.049331 
L 307.179403 103.284479 
L 306.840821 103.487416 
L 306.483979 103.65619 
L 306.112313 103.789175 
L 305.729401 103.885089 
L 305.338932 103.94301 
L 304.944666 103.962379 
L 304.5504 103.94301 
L 304.15993 103.885089 
L 303.777019 103.789175 
L 303.405352 103.65619 
L 303.04851 103.487416 
L 302.709929 103.284479 
L 302.392869 103.049331 
L 302.100385 102.784239 
L 301.835293 102.491755 
L 301.600145 102.174695 
L 301.397208 101.836114 
L 301.228434 101.479272 
L 301.095449 101.107605 
L 300.999535 100.724694 
L 300.941614 100.334225 
z
" clip-path="url(#pb0d9167633)" style="fill: #c7e89f; fill-opacity: 0.75; stroke: #000000; stroke-opacity: 0.75; stroke-width: 0.5"/>
    <path d="M 280.885109 85.365314 
L 280.904478 84.971048 
L 280.962399 84.580579 
L 281.058313 84.197667 
L 281.191298 83.826001 
L 281.360071 83.469158 
L 281.563009 83.130577 
L 281.798156 82.813518 
L 282.063249 82.521033 
L 282.355733 82.255941 
L 282.672792 82.020794 
L 283.011374 81.817856 
L 283.368216 81.649082 
L 283.739882 81.516098 
L 284.122794 81.420184 
L 284.513263 81.362263 
L 284.907529 81.342894 
L 285.301795 81.362263 
L 285.692265 81.420184 
L 286.075176 81.516098 
L 286.446843 81.649082 
L 286.803685 81.817856 
L 287.142266 82.020794 
L 287.459326 82.255941 
L 287.75181 82.521033 
L 288.016902 82.813518 
L 288.25205 83.130577 
L 288.454987 83.469158 
L 288.623761 83.826001 
L 288.756745 84.197667 
L 288.85266 84.580579 
L 288.910581 84.971048 
L 288.92995 85.365314 
L 288.910581 85.75958 
L 288.85266 86.150049 
L 288.756745 86.532961 
L 288.623761 86.904628 
L 288.454987 87.26147 
L 288.25205 87.600051 
L 288.016902 87.91711 
L 287.75181 88.209595 
L 287.459326 88.474687 
L 287.142266 88.709834 
L 286.803685 88.912772 
L 286.446843 89.081546 
L 286.075176 89.21453 
L 285.692265 89.310445 
L 285.301795 89.368365 
L 284.907529 89.387734 
L 284.513263 89.368365 
L 284.122794 89.310445 
L 283.739882 89.21453 
L 283.368216 89.081546 
L 283.011374 88.912772 
L 282.672792 88.709834 
L 282.355733 88.474687 
L 282.063249 88.209595 
L 281.798156 87.91711 
L 281.563009 87.600051 
L 281.360071 87.26147 
L 281.191298 86.904628 
L 281.058313 86.532961 
L 280.962399 86.150049 
L 280.904478 85.75958 
z
" clip-path="url(#pb0d9167633)" style="fill: #c7e89f; fill-opacity: 0.75; stroke: #000000; stroke-opacity: 0.75; stroke-width: 0.5"/>
    <path d="M 293.747714 91.338351 
L 293.767083 90.944084 
L 293.825004 90.553615 
L 293.920918 90.170704 
L 294.053903 89.799037 
L 294.222676 89.442195 
L 294.425614 89.103614 
L 294.660761 88.786554 
L 294.925854 88.49407 
L 295.218338 88.228978 
L 295.535397 87.99383 
L 295.873978 87.790893 
L 296.230821 87.622119 
L 296.602487 87.489134 
L 296.985399 87.39322 
L 297.375868 87.335299 
L 297.770134 87.31593 
L 298.1644 87.335299 
L 298.55487 87.39322 
L 298.937781 87.489134 
L 299.309448 87.622119 
L 299.66629 87.790893 
L 300.004871 87.99383 
L 300.321931 88.228978 
L 300.614415 88.49407 
L 300.879507 88.786554 
L 301.114654 89.103614 
L 301.317592 89.442195 
L 301.486366 89.799037 
L 301.61935 90.170704 
L 301.715265 90.553615 
L 301.773185 90.944084 
L 301.792555 91.338351 
L 301.773185 91.732617 
L 301.715265 92.123086 
L 301.61935 92.505998 
L 301.486366 92.877664 
L 301.317592 93.234506 
L 301.114654 93.573088 
L 300.879507 93.890147 
L 300.614415 94.182631 
L 300.321931 94.447724 
L 300.004871 94.682871 
L 299.66629 94.885809 
L 299.309448 95.054582 
L 298.937781 95.187567 
L 298.55487 95.283481 
L 298.1644 95.341402 
L 297.770134 95.360771 
L 297.375868 95.341402 
L 296.985399 95.283481 
L 296.602487 95.187567 
L 296.230821 95.054582 
L 295.873978 94.885809 
L 295.535397 94.682871 
L 295.218338 94.447724 
L 294.925854 94.182631 
L 294.660761 93.890147 
L 294.425614 93.573088 
L 294.222676 93.234506 
L 294.053903 92.877664 
L 293.920918 92.505998 
L 293.825004 92.123086 
L 293.767083 91.732617 
z
" clip-path="url(#pb0d9167633)" style="fill: #c7e89f; fill-opacity: 0.75; stroke: #000000; stroke-opacity: 0.75; stroke-width: 0.5"/>
    <path d="M 312.773468 120.422402 
L 312.792837 120.028136 
L 312.850757 119.637666 
L 312.946672 119.254755 
L 313.079656 118.883088 
L 313.24843 118.526246 
L 313.451368 118.187665 
L 313.686515 117.870605 
L 313.951607 117.578121 
L 314.244091 117.313029 
L 314.561151 117.077881 
L 314.899732 116.874944 
L 315.256574 116.70617 
L 315.628241 116.573185 
L 316.011153 116.477271 
L 316.401622 116.41935 
L 316.795888 116.399981 
L 317.190154 116.41935 
L 317.580623 116.477271 
L 317.963535 116.573185 
L 318.335201 116.70617 
L 318.692044 116.874944 
L 319.030625 117.077881 
L 319.347684 117.313029 
L 319.640168 117.578121 
L 319.905261 117.870605 
L 320.140408 118.187665 
L 320.343346 118.526246 
L 320.51212 118.883088 
L 320.645104 119.254755 
L 320.741018 119.637666 
L 320.798939 120.028136 
L 320.818308 120.422402 
L 320.798939 120.816668 
L 320.741018 121.207137 
L 320.645104 121.590049 
L 320.51212 121.961715 
L 320.343346 122.318557 
L 320.140408 122.657139 
L 319.905261 122.974198 
L 319.640168 123.266682 
L 319.347684 123.531775 
L 319.030625 123.766922 
L 318.692044 123.96986 
L 318.335201 124.138633 
L 317.963535 124.271618 
L 317.580623 124.367532 
L 317.190154 124.425453 
L 316.795888 124.444822 
L 316.401622 124.425453 
L 316.011153 124.367532 
L 315.628241 124.271618 
L 315.256574 124.138633 
L 314.899732 123.96986 
L 314.561151 123.766922 
L 314.244091 123.531775 
L 313.951607 123.266682 
L 313.686515 122.974198 
L 313.451368 122.657139 
L 313.24843 122.318557 
L 313.079656 121.961715 
L 312.946672 121.590049 
L 312.850757 121.207137 
L 312.792837 120.816668 
z
" clip-path="url(#pb0d9167633)" style="fill: #c7e89f; fill-opacity: 0.75; stroke: #000000; stroke-opacity: 0.75; stroke-width: 0.5"/>
    <path d="M 292.893523 133.459075 
L 292.912892 133.064809 
L 292.970813 132.674339 
L 293.066727 132.291428 
L 293.199712 131.919761 
L 293.368485 131.562919 
L 293.571423 131.224338 
L 293.80657 130.907278 
L 294.071663 130.614794 
L 294.364147 130.349702 
L 294.681206 130.114554 
L 295.019788 129.911617 
L 295.37663 129.742843 
L 295.748296 129.609858 
L 296.131208 129.513944 
L 296.521677 129.456023 
L 296.915943 129.436654 
L 297.310209 129.456023 
L 297.700679 129.513944 
L 298.08359 129.609858 
L 298.455257 129.742843 
L 298.812099 129.911617 
L 299.15068 130.114554 
L 299.46774 130.349702 
L 299.760224 130.614794 
L 300.025316 130.907278 
L 300.260464 131.224338 
L 300.463401 131.562919 
L 300.632175 131.919761 
L 300.76516 132.291428 
L 300.861074 132.674339 
L 300.918995 133.064809 
L 300.938364 133.459075 
L 300.918995 133.853341 
L 300.861074 134.24381 
L 300.76516 134.626722 
L 300.632175 134.998388 
L 300.463401 135.35523 
L 300.260464 135.693812 
L 300.025316 136.010871 
L 299.760224 136.303355 
L 299.46774 136.568448 
L 299.15068 136.803595 
L 298.812099 137.006533 
L 298.455257 137.175306 
L 298.08359 137.308291 
L 297.700679 137.404205 
L 297.310209 137.462126 
L 296.915943 137.481495 
L 296.521677 137.462126 
L 296.131208 137.404205 
L 295.748296 137.308291 
L 295.37663 137.175306 
L 295.019788 137.006533 
L 294.681206 136.803595 
L 294.364147 136.568448 
L 294.071663 136.303355 
L 293.80657 136.010871 
L 293.571423 135.693812 
L 293.368485 135.35523 
L 293.199712 134.998388 
L 293.066727 134.626722 
L 292.970813 134.24381 
L 292.912892 133.853341 
z
" clip-path="url(#pb0d9167633)" style="fill: #c7e89f; fill-opacity: 0.75; stroke: #000000; stroke-opacity: 0.75; stroke-width: 0.5"/>
    <path d="M 261.162282 92.503481 
L 261.181651 92.109215 
L 261.239572 91.718746 
L 261.335486 91.335835 
L 261.46847 90.964168 
L 261.637244 90.607326 
L 261.840182 90.268745 
L 262.075329 89.951685 
L 262.340422 89.659201 
L 262.632906 89.394109 
L 262.949965 89.158961 
L 263.288546 88.956024 
L 263.645389 88.78725 
L 264.017055 88.654265 
L 264.399967 88.558351 
L 264.790436 88.50043 
L 265.184702 88.481061 
L 265.578968 88.50043 
L 265.969437 88.558351 
L 266.352349 88.654265 
L 266.724016 88.78725 
L 267.080858 88.956024 
L 267.419439 89.158961 
L 267.736499 89.394109 
L 268.028983 89.659201 
L 268.294075 89.951685 
L 268.529222 90.268745 
L 268.73216 90.607326 
L 268.900934 90.964168 
L 269.033918 91.335835 
L 269.129833 91.718746 
L 269.187753 92.109215 
L 269.207122 92.503481 
L 269.187753 92.897748 
L 269.129833 93.288217 
L 269.033918 93.671128 
L 268.900934 94.042795 
L 268.73216 94.399637 
L 268.529222 94.738218 
L 268.294075 95.055278 
L 268.028983 95.347762 
L 267.736499 95.612854 
L 267.419439 95.848002 
L 267.080858 96.050939 
L 266.724016 96.219713 
L 266.352349 96.352698 
L 265.969437 96.448612 
L 265.578968 96.506533 
L 265.184702 96.525902 
L 264.790436 96.506533 
L 264.399967 96.448612 
L 264.017055 96.352698 
L 263.645389 96.219713 
L 263.288546 96.050939 
L 262.949965 95.848002 
L 262.632906 95.612854 
L 262.340422 95.347762 
L 262.075329 95.055278 
L 261.840182 94.738218 
L 261.637244 94.399637 
L 261.46847 94.042795 
L 261.335486 93.671128 
L 261.239572 93.288217 
L 261.181651 92.897748 
z
" clip-path="url(#pb0d9167633)" style="fill: #c7e89f; fill-opacity: 0.75; stroke: #000000; stroke-opacity: 0.75; stroke-width: 0.5"/>
    <path d="M 275.432288 106.484184 
L 275.451657 106.089918 
L 275.509577 105.699449 
L 275.605492 105.316537 
L 275.738476 104.94487 
L 275.90725 104.588028 
L 276.110188 104.249447 
L 276.345335 103.932387 
L 276.610427 103.639903 
L 276.902912 103.374811 
L 277.219971 103.139664 
L 277.558552 102.936726 
L 277.915394 102.767952 
L 278.287061 102.634968 
L 278.669973 102.539053 
L 279.060442 102.481133 
L 279.454708 102.461764 
L 279.848974 102.481133 
L 280.239443 102.539053 
L 280.622355 102.634968 
L 280.994021 102.767952 
L 281.350864 102.936726 
L 281.689445 103.139664 
L 282.006504 103.374811 
L 282.298989 103.639903 
L 282.564081 103.932387 
L 282.799228 104.249447 
L 283.002166 104.588028 
L 283.17094 104.94487 
L 283.303924 105.316537 
L 283.399838 105.699449 
L 283.457759 106.089918 
L 283.477128 106.484184 
L 283.457759 106.87845 
L 283.399838 107.268919 
L 283.303924 107.651831 
L 283.17094 108.023497 
L 283.002166 108.38034 
L 282.799228 108.718921 
L 282.564081 109.03598 
L 282.298989 109.328464 
L 282.006504 109.593557 
L 281.689445 109.828704 
L 281.350864 110.031642 
L 280.994021 110.200415 
L 280.622355 110.3334 
L 280.239443 110.429314 
L 279.848974 110.487235 
L 279.454708 110.506604 
L 279.060442 110.487235 
L 278.669973 110.429314 
L 278.287061 110.3334 
L 277.915394 110.200415 
L 277.558552 110.031642 
L 277.219971 109.828704 
L 276.902912 109.593557 
L 276.610427 109.328464 
L 276.345335 109.03598 
L 276.110188 108.718921 
L 275.90725 108.38034 
L 275.738476 108.023497 
L 275.605492 107.651831 
L 275.509577 107.268919 
L 275.451657 106.87845 
z
" clip-path="url(#pb0d9167633)" style="fill: #c7e89f; fill-opacity: 0.75; stroke: #000000; stroke-opacity: 0.75; stroke-width: 0.5"/>
    <path d="M 293.830574 102.799155 
L 293.849943 102.404889 
L 293.907864 102.01442 
L 294.003778 101.631508 
L 294.136762 101.259842 
L 294.305536 100.903 
L 294.508474 100.564418 
L 294.743621 100.247359 
L 295.008714 99.954875 
L 295.301198 99.689782 
L 295.618257 99.454635 
L 295.956838 99.251697 
L 296.313681 99.082924 
L 296.685347 98.949939 
L 297.068259 98.854025 
L 297.458728 98.796104 
L 297.852994 98.776735 
L 298.24726 98.796104 
L 298.637729 98.854025 
L 299.020641 98.949939 
L 299.392308 99.082924 
L 299.74915 99.251697 
L 300.087731 99.454635 
L 300.404791 99.689782 
L 300.697275 99.954875 
L 300.962367 100.247359 
L 301.197514 100.564418 
L 301.400452 100.903 
L 301.569226 101.259842 
L 301.70221 101.631508 
L 301.798125 102.01442 
L 301.856045 102.404889 
L 301.875414 102.799155 
L 301.856045 103.193421 
L 301.798125 103.583891 
L 301.70221 103.966802 
L 301.569226 104.338469 
L 301.400452 104.695311 
L 301.197514 105.033892 
L 300.962367 105.350952 
L 300.697275 105.643436 
L 300.404791 105.908528 
L 300.087731 106.143675 
L 299.74915 106.346613 
L 299.392308 106.515387 
L 299.020641 106.648371 
L 298.637729 106.744286 
L 298.24726 106.802206 
L 297.852994 106.821576 
L 297.458728 106.802206 
L 297.068259 106.744286 
L 296.685347 106.648371 
L 296.313681 106.515387 
L 295.956838 106.346613 
L 295.618257 106.143675 
L 295.301198 105.908528 
L 295.008714 105.643436 
L 294.743621 105.350952 
L 294.508474 105.033892 
L 294.305536 104.695311 
L 294.136762 104.338469 
L 294.003778 103.966802 
L 293.907864 103.583891 
L 293.849943 103.193421 
z
" clip-path="url(#pb0d9167633)" style="fill: #c7e89f; fill-opacity: 0.75; stroke: #000000; stroke-opacity: 0.75; stroke-width: 0.5"/>
    <path d="M 298.308948 104.849599 
L 298.328317 104.455333 
L 298.386238 104.064864 
L 298.482152 103.681952 
L 298.615137 103.310286 
L 298.783911 102.953443 
L 298.986848 102.614862 
L 299.221996 102.297803 
L 299.487088 102.005318 
L 299.779572 101.740226 
L 300.096632 101.505079 
L 300.435213 101.302141 
L 300.792055 101.133367 
L 301.163722 101.000383 
L 301.546633 100.904469 
L 301.937102 100.846548 
L 302.331369 100.827179 
L 302.725635 100.846548 
L 303.116104 100.904469 
L 303.499016 101.000383 
L 303.870682 101.133367 
L 304.227524 101.302141 
L 304.566106 101.505079 
L 304.883165 101.740226 
L 305.175649 102.005318 
L 305.440742 102.297803 
L 305.675889 102.614862 
L 305.878827 102.953443 
L 306.0476 103.310286 
L 306.180585 103.681952 
L 306.276499 104.064864 
L 306.33442 104.455333 
L 306.353789 104.849599 
L 306.33442 105.243865 
L 306.276499 105.634334 
L 306.180585 106.017246 
L 306.0476 106.388913 
L 305.878827 106.745755 
L 305.675889 107.084336 
L 305.440742 107.401395 
L 305.175649 107.69388 
L 304.883165 107.958972 
L 304.566106 108.194119 
L 304.227524 108.397057 
L 303.870682 108.565831 
L 303.499016 108.698815 
L 303.116104 108.79473 
L 302.725635 108.85265 
L 302.331369 108.872019 
L 301.937102 108.85265 
L 301.546633 108.79473 
L 301.163722 108.698815 
L 300.792055 108.565831 
L 300.435213 108.397057 
L 300.096632 108.194119 
L 299.779572 107.958972 
L 299.487088 107.69388 
L 299.221996 107.401395 
L 298.986848 107.084336 
L 298.783911 106.745755 
L 298.615137 106.388913 
L 298.482152 106.017246 
L 298.386238 105.634334 
L 298.328317 105.243865 
z
" clip-path="url(#pb0d9167633)" style="fill: #c7e89f; fill-opacity: 0.75; stroke: #000000; stroke-opacity: 0.75; stroke-width: 0.5"/>
    <path d="M 292.913869 90.936498 
L 292.933238 90.542232 
L 292.991159 90.151763 
L 293.087073 89.768851 
L 293.220057 89.397184 
L 293.388831 89.040342 
L 293.591769 88.701761 
L 293.826916 88.384702 
L 294.092009 88.092217 
L 294.384493 87.827125 
L 294.701552 87.591978 
L 295.040133 87.38904 
L 295.396976 87.220266 
L 295.768642 87.087282 
L 296.151554 86.991367 
L 296.542023 86.933447 
L 296.936289 86.914078 
L 297.330555 86.933447 
L 297.721024 86.991367 
L 298.103936 87.087282 
L 298.475603 87.220266 
L 298.832445 87.38904 
L 299.171026 87.591978 
L 299.488086 87.827125 
L 299.78057 88.092217 
L 300.045662 88.384702 
L 300.280809 88.701761 
L 300.483747 89.040342 
L 300.652521 89.397184 
L 300.785505 89.768851 
L 300.88142 90.151763 
L 300.93934 90.542232 
L 300.958709 90.936498 
L 300.93934 91.330764 
L 300.88142 91.721233 
L 300.785505 92.104145 
L 300.652521 92.475812 
L 300.483747 92.832654 
L 300.280809 93.171235 
L 300.045662 93.488294 
L 299.78057 93.780779 
L 299.488086 94.045871 
L 299.171026 94.281018 
L 298.832445 94.483956 
L 298.475603 94.65273 
L 298.103936 94.785714 
L 297.721024 94.881629 
L 297.330555 94.939549 
L 296.936289 94.958918 
L 296.542023 94.939549 
L 296.151554 94.881629 
L 295.768642 94.785714 
L 295.396976 94.65273 
L 295.040133 94.483956 
L 294.701552 94.281018 
L 294.384493 94.045871 
L 294.092009 93.780779 
L 293.826916 93.488294 
L 293.591769 93.171235 
L 293.388831 92.832654 
L 293.220057 92.475812 
L 293.087073 92.104145 
L 292.991159 91.721233 
L 292.933238 91.330764 
z
" clip-path="url(#pb0d9167633)" style="fill: #c7e89f; fill-opacity: 0.75; stroke: #000000; stroke-opacity: 0.75; stroke-width: 0.5"/>
    <path d="M 305.748004 82.051754 
L 305.767373 81.657488 
L 305.825294 81.267019 
L 305.921208 80.884107 
L 306.054193 80.512441 
L 306.222967 80.155599 
L 306.425904 79.817017 
L 306.661052 79.499958 
L 306.926144 79.207474 
L 307.218628 78.942382 
L 307.535687 78.707234 
L 307.874269 78.504296 
L 308.231111 78.335523 
L 308.602777 78.202538 
L 308.985689 78.106624 
L 309.376158 78.048703 
L 309.770424 78.029334 
L 310.164691 78.048703 
L 310.55516 78.106624 
L 310.938071 78.202538 
L 311.309738 78.335523 
L 311.66658 78.504296 
L 312.005161 78.707234 
L 312.322221 78.942382 
L 312.614705 79.207474 
L 312.879797 79.499958 
L 313.114945 79.817017 
L 313.317882 80.155599 
L 313.486656 80.512441 
L 313.619641 80.884107 
L 313.715555 81.267019 
L 313.773476 81.657488 
L 313.792845 82.051754 
L 313.773476 82.446021 
L 313.715555 82.83649 
L 313.619641 83.219401 
L 313.486656 83.591068 
L 313.317882 83.94791 
L 313.114945 84.286491 
L 312.879797 84.603551 
L 312.614705 84.896035 
L 312.322221 85.161127 
L 312.005161 85.396275 
L 311.66658 85.599212 
L 311.309738 85.767986 
L 310.938071 85.900971 
L 310.55516 85.996885 
L 310.164691 86.054806 
L 309.770424 86.074175 
L 309.376158 86.054806 
L 308.985689 85.996885 
L 308.602777 85.900971 
L 308.231111 85.767986 
L 307.874269 85.599212 
L 307.535687 85.396275 
L 307.218628 85.161127 
L 306.926144 84.896035 
L 306.661052 84.603551 
L 306.425904 84.286491 
L 306.222967 83.94791 
L 306.054193 83.591068 
L 305.921208 83.219401 
L 305.825294 82.83649 
L 305.767373 82.446021 
z
" clip-path="url(#pb0d9167633)" style="fill: #c7e89f; fill-opacity: 0.75; stroke: #000000; stroke-opacity: 0.75; stroke-width: 0.5"/>
    <path d="M 279.885563 111.194386 
L 279.904932 110.80012 
L 279.962853 110.409651 
L 280.058767 110.02674 
L 280.191752 109.655073 
L 280.360526 109.298231 
L 280.563463 108.95965 
L 280.798611 108.64259 
L 281.063703 108.350106 
L 281.356187 108.085014 
L 281.673247 107.849866 
L 282.011828 107.646929 
L 282.36867 107.478155 
L 282.740337 107.34517 
L 283.123248 107.249256 
L 283.513717 107.191335 
L 283.907983 107.171966 
L 284.30225 107.191335 
L 284.692719 107.249256 
L 285.07563 107.34517 
L 285.447297 107.478155 
L 285.804139 107.646929 
L 286.14272 107.849866 
L 286.45978 108.085014 
L 286.752264 108.350106 
L 287.017356 108.64259 
L 287.252504 108.95965 
L 287.455441 109.298231 
L 287.624215 109.655073 
L 287.7572 110.02674 
L 287.853114 110.409651 
L 287.911035 110.80012 
L 287.930404 111.194386 
L 287.911035 111.588653 
L 287.853114 111.979122 
L 287.7572 112.362033 
L 287.624215 112.7337 
L 287.455441 113.090542 
L 287.252504 113.429123 
L 287.017356 113.746183 
L 286.752264 114.038667 
L 286.45978 114.303759 
L 286.14272 114.538907 
L 285.804139 114.741844 
L 285.447297 114.910618 
L 285.07563 115.043603 
L 284.692719 115.139517 
L 284.30225 115.197438 
L 283.907983 115.216807 
L 283.513717 115.197438 
L 283.123248 115.139517 
L 282.740337 115.043603 
L 282.36867 114.910618 
L 282.011828 114.741844 
L 281.673247 114.538907 
L 281.356187 114.303759 
L 281.063703 114.038667 
L 280.798611 113.746183 
L 280.563463 113.429123 
L 280.360526 113.090542 
L 280.191752 112.7337 
L 280.058767 112.362033 
L 279.962853 111.979122 
L 279.904932 111.588653 
z
" clip-path="url(#pb0d9167633)" style="fill: #c7e89f; fill-opacity: 0.75; stroke: #000000; stroke-opacity: 0.75; stroke-width: 0.5"/>
    <path d="M 311.59242 85.370198 
L 311.611789 84.975932 
L 311.66971 84.585463 
L 311.765624 84.202551 
L 311.898609 83.830885 
L 312.067383 83.474042 
L 312.27032 83.135461 
L 312.505468 82.818402 
L 312.77056 82.525918 
L 313.063044 82.260825 
L 313.380104 82.025678 
L 313.718685 81.82274 
L 314.075527 81.653966 
L 314.447194 81.520982 
L 314.830105 81.425068 
L 315.220574 81.367147 
L 315.614841 81.347778 
L 316.009107 81.367147 
L 316.399576 81.425068 
L 316.782488 81.520982 
L 317.154154 81.653966 
L 317.510996 81.82274 
L 317.849578 82.025678 
L 318.166637 82.260825 
L 318.459121 82.525918 
L 318.724214 82.818402 
L 318.959361 83.135461 
L 319.162299 83.474042 
L 319.331072 83.830885 
L 319.464057 84.202551 
L 319.559971 84.585463 
L 319.617892 84.975932 
L 319.637261 85.370198 
L 319.617892 85.764464 
L 319.559971 86.154933 
L 319.464057 86.537845 
L 319.331072 86.909512 
L 319.162299 87.266354 
L 318.959361 87.604935 
L 318.724214 87.921995 
L 318.459121 88.214479 
L 318.166637 88.479571 
L 317.849578 88.714718 
L 317.510996 88.917656 
L 317.154154 89.08643 
L 316.782488 89.219414 
L 316.399576 89.315329 
L 316.009107 89.373249 
L 315.614841 89.392618 
L 315.220574 89.373249 
L 314.830105 89.315329 
L 314.447194 89.219414 
L 314.075527 89.08643 
L 313.718685 88.917656 
L 313.380104 88.714718 
L 313.063044 88.479571 
L 312.77056 88.214479 
L 312.505468 87.921995 
L 312.27032 87.604935 
L 312.067383 87.266354 
L 311.898609 86.909512 
L 311.765624 86.537845 
L 311.66971 86.154933 
L 311.611789 85.764464 
z
" clip-path="url(#pb0d9167633)" style="fill: #c7e89f; fill-opacity: 0.75; stroke: #000000; stroke-opacity: 0.75; stroke-width: 0.5"/>
   </g>
   <g id="matplotlib.axis_1">
    <g id="xtick_1"/>
    <g id="xtick_2"/>
    <g id="xtick_3"/>
    <g id="xtick_4"/>
    <g id="xtick_5"/>
    <g id="xtick_6"/>
   </g>
   <g id="matplotlib.axis_2">
    <g id="ytick_1"/>
    <g id="ytick_2"/>
    <g id="ytick_3"/>
    <g id="ytick_4"/>
    <g id="ytick_5"/>
    <g id="ytick_6"/>
   </g>
   <g id="PathCollection_1">
    <defs>
     <path id="ma4214e824c" d="M 0 1.118034 
C 0.296506 1.118034 0.580908 1.000231 0.790569 0.790569 
C 1.000231 0.580908 1.118034 0.296506 1.118034 0 
C 1.118034 -0.296506 1.000231 -0.580908 0.790569 -0.790569 
C 0.580908 -1.000231 0.296506 -1.118034 0 -1.118034 
C -0.296506 -1.118034 -0.580908 -1.000231 -0.790569 -0.790569 
C -1.000231 -0.580908 -1.118034 -0.296506 -1.118034 0 
C -1.118034 0.296506 -1.000231 0.580908 -0.790569 0.790569 
C -0.580908 1.000231 -0.296506 1.118034 0 1.118034 
z
" style="stroke: #000000"/>
    </defs>
    <g clip-path="url(#pb0d9167633)">
     <use xlink:href="#ma4214e824c" x="189.763709" y="183.572879" style="stroke: #000000"/>
     <use xlink:href="#ma4214e824c" x="219.040005" y="126.471617" style="stroke: #000000"/>
     <use xlink:href="#ma4214e824c" x="213.42735" y="144.721966" style="stroke: #000000"/>
     <use xlink:href="#ma4214e824c" x="196.875449" y="167.087232" style="stroke: #000000"/>
     <use xlink:href="#ma4214e824c" x="191.93407" y="104.700222" style="stroke: #000000"/>
     <use xlink:href="#ma4214e824c" x="160.891754" y="210.659366" style="stroke: #000000"/>
     <use xlink:href="#ma4214e824c" x="190.073283" y="144.588049" style="stroke: #000000"/>
     <use xlink:href="#ma4214e824c" x="178.130029" y="161.1675" style="stroke: #000000"/>
     <use xlink:href="#ma4214e824c" x="194.264228" y="137.39577" style="stroke: #000000"/>
     <use xlink:href="#ma4214e824c" x="186.910356" y="136.132457" style="stroke: #000000"/>
     <use xlink:href="#ma4214e824c" x="237.347584" y="174.345627" style="stroke: #000000"/>
     <use xlink:href="#ma4214e824c" x="161.234439" y="143.017617" style="stroke: #000000"/>
     <use xlink:href="#ma4214e824c" x="196.542524" y="155.087493" style="stroke: #000000"/>
     <use xlink:href="#ma4214e824c" x="170.138041" y="138.430626" style="stroke: #000000"/>
     <use xlink:href="#ma4214e824c" x="188.552637" y="143.537505" style="stroke: #000000"/>
     <use xlink:href="#ma4214e824c" x="209.659356" y="221.565289" style="stroke: #000000"/>
     <use xlink:href="#ma4214e824c" x="178.180011" y="156.826068" style="stroke: #000000"/>
     <use xlink:href="#ma4214e824c" x="304.944666" y="99.939958" style="stroke: #000000"/>
     <use xlink:href="#ma4214e824c" x="335.111482" y="80.422986" style="stroke: #000000"/>
     <use xlink:href="#ma4214e824c" x="278.198173" y="128.651983" style="stroke: #000000"/>
     <use xlink:href="#ma4214e824c" x="305.885011" y="133.443687" style="stroke: #000000"/>
     <use xlink:href="#ma4214e824c" x="284.907529" y="85.365314" style="stroke: #000000"/>
     <use xlink:href="#ma4214e824c" x="308.208609" y="29.598347" style="stroke: #000000"/>
     <use xlink:href="#ma4214e824c" x="297.770134" y="91.338351" style="stroke: #000000"/>
     <use xlink:href="#ma4214e824c" x="240.626981" y="113.450464" style="stroke: #000000"/>
     <use xlink:href="#ma4214e824c" x="316.795888" y="120.422402" style="stroke: #000000"/>
     <use xlink:href="#ma4214e824c" x="346.787981" y="76.39596" style="stroke: #000000"/>
     <use xlink:href="#ma4214e824c" x="296.915943" y="133.459075" style="stroke: #000000"/>
     <use xlink:href="#ma4214e824c" x="265.184702" y="92.503481" style="stroke: #000000"/>
     <use xlink:href="#ma4214e824c" x="279.454708" y="106.484184" style="stroke: #000000"/>
     <use xlink:href="#ma4214e824c" x="297.852994" y="102.799155" style="stroke: #000000"/>
     <use xlink:href="#ma4214e824c" x="302.331369" y="104.849599" style="stroke: #000000"/>
     <use xlink:href="#ma4214e824c" x="296.936289" y="90.936498" style="stroke: #000000"/>
     <use xlink:href="#ma4214e824c" x="309.770424" y="82.051754" style="stroke: #000000"/>
     <use xlink:href="#ma4214e824c" x="283.907983" y="111.194386" style="stroke: #000000"/>
     <use xlink:href="#ma4214e824c" x="315.614841" y="85.370198" style="stroke: #000000"/>
    </g>
   </g>
  </g>
  <g id="axes_2">
   <g id="patch_3">
    <path d="M 20 286.92 
L 484 286.92 
L 484 265.803636 
L 20 265.803636 
z
" style="fill: #ffffff"/>
   </g>
   <g id="matplotlib.axis_3">
    <g id="xtick_7">
     <g id="line2d_1">
      <defs>
       <path id="mb600d8bc4a" d="M 0 0 
L 0 3.5 
" style="stroke: #000000; stroke-width: 0.8"/>
      </defs>
      <g>
       <use xlink:href="#mb600d8bc4a" x="44.689158" y="286.92" style="stroke: #000000; stroke-width: 0.8"/>
      </g>
     </g>
     <g id="text_1">
      <!-- 08 AM -->
      <g transform="translate(29.00322 301.518438) scale(0.1 -0.1)">
       <defs>
        <path id="DejaVuSans-30" d="M 2034 4250 
Q 1547 4250 1301 3770 
Q 1056 3291 1056 2328 
Q 1056 1369 1301 889 
Q 1547 409 2034 409 
Q 2525 409 2770 889 
Q 3016 1369 3016 2328 
Q 3016 3291 2770 3770 
Q 2525 4250 2034 4250 
z
M 2034 4750 
Q 2819 4750 3233 4129 
Q 3647 3509 3647 2328 
Q 3647 1150 3233 529 
Q 2819 -91 2034 -91 
Q 1250 -91 836 529 
Q 422 1150 422 2328 
Q 422 3509 836 4129 
Q 1250 4750 2034 4750 
z
" transform="scale(0.015625)"/>
        <path id="DejaVuSans-38" d="M 2034 2216 
Q 1584 2216 1326 1975 
Q 1069 1734 1069 1313 
Q 1069 891 1326 650 
Q 1584 409 2034 409 
Q 2484 409 2743 651 
Q 3003 894 3003 1313 
Q 3003 1734 2745 1975 
Q 2488 2216 2034 2216 
z
M 1403 2484 
Q 997 2584 770 2862 
Q 544 3141 544 3541 
Q 544 4100 942 4425 
Q 1341 4750 2034 4750 
Q 2731 4750 3128 4425 
Q 3525 4100 3525 3541 
Q 3525 3141 3298 2862 
Q 3072 2584 2669 2484 
Q 3125 2378 3379 2068 
Q 3634 1759 3634 1313 
Q 3634 634 3220 271 
Q 2806 -91 2034 -91 
Q 1263 -91 848 271 
Q 434 634 434 1313 
Q 434 1759 690 2068 
Q 947 2378 1403 2484 
z
M 1172 3481 
Q 1172 3119 1398 2916 
Q 1625 2713 2034 2713 
Q 2441 2713 2670 2916 
Q 2900 3119 2900 3481 
Q 2900 3844 2670 4047 
Q 2441 4250 2034 4250 
Q 1625 4250 1398 4047 
Q 1172 3844 1172 3481 
z
" transform="scale(0.015625)"/>
        <path id="DejaVuSans-20" transform="scale(0.015625)"/>
        <path id="DejaVuSans-41" d="M 2188 4044 
L 1331 1722 
L 3047 1722 
L 2188 4044 
z
M 1831 4666 
L 2547 4666 
L 4325 0 
L 3669 0 
L 3244 1197 
L 1141 1197 
L 716 0 
L 50 0 
L 1831 4666 
z
" transform="scale(0.015625)"/>
        <path id="DejaVuSans-4d" d="M 628 4666 
L 1569 4666 
L 2759 1491 
L 3956 4666 
L 4897 4666 
L 4897 0 
L 4281 0 
L 4281 4097 
L 3078 897 
L 2444 897 
L 1241 4097 
L 1241 0 
L 628 0 
L 628 4666 
z
" transform="scale(0.015625)"/>
       </defs>
       <use xlink:href="#DejaVuSans-30"/>
       <use xlink:href="#DejaVuSans-38" transform="translate(63.623047 0)"/>
       <use xlink:href="#DejaVuSans-20" transform="translate(127.246094 0)"/>
       <use xlink:href="#DejaVuSans-41" transform="translate(159.033203 0)"/>
       <use xlink:href="#DejaVuSans-4d" transform="translate(227.441406 0)"/>
      </g>
     </g>
    </g>
    <g id="xtick_8">
     <g id="line2d_2">
      <g>
       <use xlink:href="#mb600d8bc4a" x="178.546037" y="286.92" style="stroke: #000000; stroke-width: 0.8"/>
      </g>
     </g>
     <g id="text_2">
      <!-- 09 AM -->
      <g transform="translate(162.8601 301.518438) scale(0.1 -0.1)">
       <defs>
        <path id="DejaVuSans-39" d="M 703 97 
L 703 672 
Q 941 559 1184 500 
Q 1428 441 1663 441 
Q 2288 441 2617 861 
Q 2947 1281 2994 2138 
Q 2813 1869 2534 1725 
Q 2256 1581 1919 1581 
Q 1219 1581 811 2004 
Q 403 2428 403 3163 
Q 403 3881 828 4315 
Q 1253 4750 1959 4750 
Q 2769 4750 3195 4129 
Q 3622 3509 3622 2328 
Q 3622 1225 3098 567 
Q 2575 -91 1691 -91 
Q 1453 -91 1209 -44 
Q 966 3 703 97 
z
M 1959 2075 
Q 2384 2075 2632 2365 
Q 2881 2656 2881 3163 
Q 2881 3666 2632 3958 
Q 2384 4250 1959 4250 
Q 1534 4250 1286 3958 
Q 1038 3666 1038 3163 
Q 1038 2656 1286 2365 
Q 1534 2075 1959 2075 
z
" transform="scale(0.015625)"/>
       </defs>
       <use xlink:href="#DejaVuSans-30"/>
       <use xlink:href="#DejaVuSans-39" transform="translate(63.623047 0)"/>
       <use xlink:href="#DejaVuSans-20" transform="translate(127.246094 0)"/>
       <use xlink:href="#DejaVuSans-41" transform="translate(159.033203 0)"/>
       <use xlink:href="#DejaVuSans-4d" transform="translate(227.441406 0)"/>
      </g>
     </g>
    </g>
    <g id="xtick_9">
     <g id="line2d_3">
      <g>
       <use xlink:href="#mb600d8bc4a" x="312.402917" y="286.92" style="stroke: #000000; stroke-width: 0.8"/>
      </g>
     </g>
     <g id="text_3">
      <!-- 10 AM -->
      <g transform="translate(296.716979 301.518438) scale(0.1 -0.1)">
       <defs>
        <path id="DejaVuSans-31" d="M 794 531 
L 1825 531 
L 1825 4091 
L 703 3866 
L 703 4441 
L 1819 4666 
L 2450 4666 
L 2450 531 
L 3481 531 
L 3481 0 
L 794 0 
L 794 531 
z
" transform="scale(0.015625)"/>
       </defs>
       <use xlink:href="#DejaVuSans-31"/>
       <use xlink:href="#DejaVuSans-30" transform="translate(63.623047 0)"/>
       <use xlink:href="#DejaVuSans-20" transform="translate(127.246094 0)"/>
       <use xlink:href="#DejaVuSans-41" transform="translate(159.033203 0)"/>
       <use xlink:href="#DejaVuSans-4d" transform="translate(227.441406 0)"/>
      </g>
     </g>
    </g>
    <g id="xtick_10">
     <g id="line2d_4">
      <g>
       <use xlink:href="#mb600d8bc4a" x="446.259796" y="286.92" style="stroke: #000000; stroke-width: 0.8"/>
      </g>
     </g>
     <g id="text_4">
      <!-- 11 AM -->
      <g transform="translate(430.573859 301.518438) scale(0.1 -0.1)">
       <use xlink:href="#DejaVuSans-31"/>
       <use xlink:href="#DejaVuSans-31" transform="translate(63.623047 0)"/>
       <use xlink:href="#DejaVuSans-20" transform="translate(127.246094 0)"/>
       <use xlink:href="#DejaVuSans-41" transform="translate(159.033203 0)"/>
       <use xlink:href="#DejaVuSans-4d" transform="translate(227.441406 0)"/>
      </g>
     </g>
    </g>
   </g>
   <g id="matplotlib.axis_4"/>
   <g id="LineCollection_1">
    <path d="M 64.61896 282.696727 
L 64.61896 270.026909 
" clip-path="url(#pbd46f88b87)" style="fill: none; stroke: #000000"/>
    <path d="M 71.534899 282.696727 
L 71.534899 270.026909 
" clip-path="url(#pbd46f88b87)" style="fill: none; stroke: #000000"/>
    <path d="M 94.736758 282.696727 
L 94.736758 270.026909 
" clip-path="url(#pbd46f88b87)" style="fill: none; stroke: #000000"/>
    <path d="M 105.445308 282.696727 
L 105.445308 270.026909 
" clip-path="url(#pbd46f88b87)" style="fill: none; stroke: #000000"/>
    <path d="M 109.163555 282.696727 
L 109.163555 270.026909 
" clip-path="url(#pbd46f88b87)" style="fill: none; stroke: #000000"/>
    <path d="M 143.148329 282.696727 
L 143.148329 270.026909 
" clip-path="url(#pbd46f88b87)" style="fill: none; stroke: #000000"/>
    <path d="M 144.003526 282.696727 
L 144.003526 270.026909 
" clip-path="url(#pbd46f88b87)" style="fill: none; stroke: #000000"/>
    <path d="M 147.201218 282.696727 
L 147.201218 270.026909 
" clip-path="url(#pbd46f88b87)" style="fill: none; stroke: #000000"/>
    <path d="M 148.576969 282.696727 
L 148.576969 270.026909 
" clip-path="url(#pbd46f88b87)" style="fill: none; stroke: #000000"/>
    <path d="M 155.121083 282.696727 
L 155.121083 270.026909 
" clip-path="url(#pbd46f88b87)" style="fill: none; stroke: #000000"/>
    <path d="M 174.493148 282.696727 
L 174.493148 270.026909 
" clip-path="url(#pbd46f88b87)" style="fill: none; stroke: #000000"/>
    <path d="M 181.743729 282.696727 
L 181.743729 270.026909 
" clip-path="url(#pbd46f88b87)" style="fill: none; stroke: #000000"/>
    <path d="M 198.32711 282.696727 
L 198.32711 270.026909 
" clip-path="url(#pbd46f88b87)" style="fill: none; stroke: #000000"/>
    <path d="M 203.495472 282.696727 
L 203.495472 270.026909 
" clip-path="url(#pbd46f88b87)" style="fill: none; stroke: #000000"/>
    <path d="M 207.473996 282.696727 
L 207.473996 270.026909 
" clip-path="url(#pbd46f88b87)" style="fill: none; stroke: #000000"/>
    <path d="M 239.748377 282.696727 
L 239.748377 270.026909 
" clip-path="url(#pbd46f88b87)" style="fill: none; stroke: #000000"/>
    <path d="M 244.359003 282.696727 
L 244.359003 270.026909 
" clip-path="url(#pbd46f88b87)" style="fill: none; stroke: #000000"/>
    <path d="M 258.525523 282.696727 
L 258.525523 270.026909 
" clip-path="url(#pbd46f88b87)" style="fill: none; stroke: #000000"/>
    <path d="M 277.339851 282.696727 
L 277.339851 270.026909 
" clip-path="url(#pbd46f88b87)" style="fill: none; stroke: #000000"/>
    <path d="M 290.799904 282.696727 
L 290.799904 270.026909 
" clip-path="url(#pbd46f88b87)" style="fill: none; stroke: #000000"/>
    <path d="M 295.745172 282.696727 
L 295.745172 270.026909 
" clip-path="url(#pbd46f88b87)" style="fill: none; stroke: #000000"/>
    <path d="M 314.447953 282.696727 
L 314.447953 270.026909 
" clip-path="url(#pbd46f88b87)" style="fill: none; stroke: #000000"/>
    <path d="M 315.526244 282.696727 
L 315.526244 270.026909 
" clip-path="url(#pbd46f88b87)" style="fill: none; stroke: #000000"/>
    <path d="M 339.843577 282.696727 
L 339.843577 270.026909 
" clip-path="url(#pbd46f88b87)" style="fill: none; stroke: #000000"/>
    <path d="M 344.193926 282.696727 
L 344.193926 270.026909 
" clip-path="url(#pbd46f88b87)" style="fill: none; stroke: #000000"/>
    <path d="M 357.951438 282.696727 
L 357.951438 270.026909 
" clip-path="url(#pbd46f88b87)" style="fill: none; stroke: #000000"/>
    <path d="M 364.01218 282.696727 
L 364.01218 270.026909 
" clip-path="url(#pbd46f88b87)" style="fill: none; stroke: #000000"/>
    <path d="M 368.734354 282.696727 
L 368.734354 270.026909 
" clip-path="url(#pbd46f88b87)" style="fill: none; stroke: #000000"/>
    <path d="M 396.175014 282.696727 
L 396.175014 270.026909 
" clip-path="url(#pbd46f88b87)" style="fill: none; stroke: #000000"/>
    <path d="M 408.445228 282.696727 
L 408.445228 270.026909 
" clip-path="url(#pbd46f88b87)" style="fill: none; stroke: #000000"/>
    <path d="M 412.758394 282.696727 
L 412.758394 270.026909 
" clip-path="url(#pbd46f88b87)" style="fill: none; stroke: #000000"/>
    <path d="M 423.318215 282.696727 
L 423.318215 270.026909 
" clip-path="url(#pbd46f88b87)" style="fill: none; stroke: #000000"/>
    <path d="M 424.173411 282.696727 
L 424.173411 270.026909 
" clip-path="url(#pbd46f88b87)" style="fill: none; stroke: #000000"/>
    <path d="M 432.427919 282.696727 
L 432.427919 270.026909 
" clip-path="url(#pbd46f88b87)" style="fill: none; stroke: #000000"/>
    <path d="M 436.778267 282.696727 
L 436.778267 270.026909 
" clip-path="url(#pbd46f88b87)" style="fill: none; stroke: #000000"/>
    <path d="M 439.38104 282.696727 
L 439.38104 270.026909 
" clip-path="url(#pbd46f88b87)" style="fill: none; stroke: #000000"/>
   </g>
   <g id="LineCollection_2">
    <path d="M 105.445308 282.696727 
L 105.445308 270.026909 
" clip-path="url(#pbd46f88b87)" style="fill: none; stroke: #f5c4e1; stroke-width: 1.3"/>
    <path d="M 144.003526 282.696727 
L 144.003526 270.026909 
" clip-path="url(#pbd46f88b87)" style="fill: none; stroke: #f5c4e1; stroke-width: 1.3"/>
    <path d="M 147.201218 282.696727 
L 147.201218 270.026909 
" clip-path="url(#pbd46f88b87)" style="fill: none; stroke: #f5c4e1; stroke-width: 1.3"/>
    <path d="M 148.576969 282.696727 
L 148.576969 270.026909 
" clip-path="url(#pbd46f88b87)" style="fill: none; stroke: #f5c4e1; stroke-width: 1.3"/>
    <path d="M 155.121083 282.696727 
L 155.121083 270.026909 
" clip-path="url(#pbd46f88b87)" style="fill: none; stroke: #f5c4e1; stroke-width: 1.3"/>
    <path d="M 181.743729 282.696727 
L 181.743729 270.026909 
" clip-path="url(#pbd46f88b87)" style="fill: none; stroke: #f5c4e1; stroke-width: 1.3"/>
    <path d="M 198.32711 282.696727 
L 198.32711 270.026909 
" clip-path="url(#pbd46f88b87)" style="fill: none; stroke: #f5c4e1; stroke-width: 1.3"/>
    <path d="M 203.495472 282.696727 
L 203.495472 270.026909 
" clip-path="url(#pbd46f88b87)" style="fill: none; stroke: #f5c4e1; stroke-width: 1.3"/>
    <path d="M 207.473996 282.696727 
L 207.473996 270.026909 
" clip-path="url(#pbd46f88b87)" style="fill: none; stroke: #f5c4e1; stroke-width: 1.3"/>
    <path d="M 244.359003 282.696727 
L 244.359003 270.026909 
" clip-path="url(#pbd46f88b87)" style="fill: none; stroke: #f5c4e1; stroke-width: 1.3"/>
    <path d="M 258.525523 282.696727 
L 258.525523 270.026909 
" clip-path="url(#pbd46f88b87)" style="fill: none; stroke: #c7e89f; stroke-width: 1.3"/>
    <path d="M 314.447953 282.696727 
L 314.447953 270.026909 
" clip-path="url(#pbd46f88b87)" style="fill: none; stroke: #c7e89f; stroke-width: 1.3"/>
    <path d="M 339.843577 282.696727 
L 339.843577 270.026909 
" clip-path="url(#pbd46f88b87)" style="fill: none; stroke: #c7e89f; stroke-width: 1.3"/>
    <path d="M 357.951438 282.696727 
L 357.951438 270.026909 
" clip-path="url(#pbd46f88b87)" style="fill: none; stroke: #c7e89f; stroke-width: 1.3"/>
    <path d="M 368.734354 282.696727 
L 368.734354 270.026909 
" clip-path="url(#pbd46f88b87)" style="fill: none; stroke: #c7e89f; stroke-width: 1.3"/>
    <path d="M 396.175014 282.696727 
L 396.175014 270.026909 
" clip-path="url(#pbd46f88b87)" style="fill: none; stroke: #c7e89f; stroke-width: 1.3"/>
    <path d="M 408.445228 282.696727 
L 408.445228 270.026909 
" clip-path="url(#pbd46f88b87)" style="fill: none; stroke: #c7e89f; stroke-width: 1.3"/>
    <path d="M 412.758394 282.696727 
L 412.758394 270.026909 
" clip-path="url(#pbd46f88b87)" style="fill: none; stroke: #c7e89f; stroke-width: 1.3"/>
    <path d="M 423.318215 282.696727 
L 423.318215 270.026909 
" clip-path="url(#pbd46f88b87)" style="fill: none; stroke: #c7e89f; stroke-width: 1.3"/>
    <path d="M 424.173411 282.696727 
L 424.173411 270.026909 
" clip-path="url(#pbd46f88b87)" style="fill: none; stroke: #c7e89f; stroke-width: 1.3"/>
    <path d="M 432.427919 282.696727 
L 432.427919 270.026909 
" clip-path="url(#pbd46f88b87)" style="fill: none; stroke: #c7e89f; stroke-width: 1.3"/>
    <path d="M 436.778267 282.696727 
L 436.778267 270.026909 
" clip-path="url(#pbd46f88b87)" style="fill: none; stroke: #c7e89f; stroke-width: 1.3"/>
    <path d="M 439.38104 282.696727 
L 439.38104 270.026909 
" clip-path="url(#pbd46f88b87)" style="fill: none; stroke: #c7e89f; stroke-width: 1.3"/>
   </g>
   <g id="patch_4">
    <path d="M 20 286.92 
L 20 265.803636 
" style="fill: none; stroke: #000000; stroke-width: 0.8; stroke-linejoin: miter; stroke-linecap: square"/>
   </g>
   <g id="patch_5">
    <path d="M 484 286.92 
L 484 265.803636 
" style="fill: none; stroke: #000000; stroke-width: 0.8; stroke-linejoin: miter; stroke-linecap: square"/>
   </g>
   <g id="patch_6">
    <path d="M 20 286.92 
L 484 286.92 
" style="fill: none; stroke: #000000; stroke-width: 0.8; stroke-linejoin: miter; stroke-linecap: square"/>
   </g>
   <g id="patch_7">
    <path d="M 20 265.803636 
L 484 265.803636 
" style="fill: none; stroke: #000000; stroke-width: 0.8; stroke-linejoin: miter; stroke-linecap: square"/>
   </g>
   <g id="text_5">
    <!-- timestamps -->
    <g transform="translate(216.510938 259.803636) scale(0.12 -0.12)">
     <defs>
      <path id="DejaVuSans-74" d="M 1172 4494 
L 1172 3500 
L 2356 3500 
L 2356 3053 
L 1172 3053 
L 1172 1153 
Q 1172 725 1289 603 
Q 1406 481 1766 481 
L 2356 481 
L 2356 0 
L 1766 0 
Q 1100 0 847 248 
Q 594 497 594 1153 
L 594 3053 
L 172 3053 
L 172 3500 
L 594 3500 
L 594 4494 
L 1172 4494 
z
" transform="scale(0.015625)"/>
      <path id="DejaVuSans-69" d="M 603 3500 
L 1178 3500 
L 1178 0 
L 603 0 
L 603 3500 
z
M 603 4863 
L 1178 4863 
L 1178 4134 
L 603 4134 
L 603 4863 
z
" transform="scale(0.015625)"/>
      <path id="DejaVuSans-6d" d="M 3328 2828 
Q 3544 3216 3844 3400 
Q 4144 3584 4550 3584 
Q 5097 3584 5394 3201 
Q 5691 2819 5691 2113 
L 5691 0 
L 5113 0 
L 5113 2094 
Q 5113 2597 4934 2840 
Q 4756 3084 4391 3084 
Q 3944 3084 3684 2787 
Q 3425 2491 3425 1978 
L 3425 0 
L 2847 0 
L 2847 2094 
Q 2847 2600 2669 2842 
Q 2491 3084 2119 3084 
Q 1678 3084 1418 2786 
Q 1159 2488 1159 1978 
L 1159 0 
L 581 0 
L 581 3500 
L 1159 3500 
L 1159 2956 
Q 1356 3278 1631 3431 
Q 1906 3584 2284 3584 
Q 2666 3584 2933 3390 
Q 3200 3197 3328 2828 
z
" transform="scale(0.015625)"/>
      <path id="DejaVuSans-65" d="M 3597 1894 
L 3597 1613 
L 953 1613 
Q 991 1019 1311 708 
Q 1631 397 2203 397 
Q 2534 397 2845 478 
Q 3156 559 3463 722 
L 3463 178 
Q 3153 47 2828 -22 
Q 2503 -91 2169 -91 
Q 1331 -91 842 396 
Q 353 884 353 1716 
Q 353 2575 817 3079 
Q 1281 3584 2069 3584 
Q 2775 3584 3186 3129 
Q 3597 2675 3597 1894 
z
M 3022 2063 
Q 3016 2534 2758 2815 
Q 2500 3097 2075 3097 
Q 1594 3097 1305 2825 
Q 1016 2553 972 2059 
L 3022 2063 
z
" transform="scale(0.015625)"/>
      <path id="DejaVuSans-73" d="M 2834 3397 
L 2834 2853 
Q 2591 2978 2328 3040 
Q 2066 3103 1784 3103 
Q 1356 3103 1142 2972 
Q 928 2841 928 2578 
Q 928 2378 1081 2264 
Q 1234 2150 1697 2047 
L 1894 2003 
Q 2506 1872 2764 1633 
Q 3022 1394 3022 966 
Q 3022 478 2636 193 
Q 2250 -91 1575 -91 
Q 1294 -91 989 -36 
Q 684 19 347 128 
L 347 722 
Q 666 556 975 473 
Q 1284 391 1588 391 
Q 1994 391 2212 530 
Q 2431 669 2431 922 
Q 2431 1156 2273 1281 
Q 2116 1406 1581 1522 
L 1381 1569 
Q 847 1681 609 1914 
Q 372 2147 372 2553 
Q 372 3047 722 3315 
Q 1072 3584 1716 3584 
Q 2034 3584 2315 3537 
Q 2597 3491 2834 3397 
z
" transform="scale(0.015625)"/>
      <path id="DejaVuSans-61" d="M 2194 1759 
Q 1497 1759 1228 1600 
Q 959 1441 959 1056 
Q 959 750 1161 570 
Q 1363 391 1709 391 
Q 2188 391 2477 730 
Q 2766 1069 2766 1631 
L 2766 1759 
L 2194 1759 
z
M 3341 1997 
L 3341 0 
L 2766 0 
L 2766 531 
Q 2569 213 2275 61 
Q 1981 -91 1556 -91 
Q 1019 -91 701 211 
Q 384 513 384 1019 
Q 384 1609 779 1909 
Q 1175 2209 1959 2209 
L 2766 2209 
L 2766 2266 
Q 2766 2663 2505 2880 
Q 2244 3097 1772 3097 
Q 1472 3097 1187 3025 
Q 903 2953 641 2809 
L 641 3341 
Q 956 3463 1253 3523 
Q 1550 3584 1831 3584 
Q 2591 3584 2966 3190 
Q 3341 2797 3341 1997 
z
" transform="scale(0.015625)"/>
      <path id="DejaVuSans-70" d="M 1159 525 
L 1159 -1331 
L 581 -1331 
L 581 3500 
L 1159 3500 
L 1159 2969 
Q 1341 3281 1617 3432 
Q 1894 3584 2278 3584 
Q 2916 3584 3314 3078 
Q 3713 2572 3713 1747 
Q 3713 922 3314 415 
Q 2916 -91 2278 -91 
Q 1894 -91 1617 61 
Q 1341 213 1159 525 
z
M 3116 1747 
Q 3116 2381 2855 2742 
Q 2594 3103 2138 3103 
Q 1681 3103 1420 2742 
Q 1159 2381 1159 1747 
Q 1159 1113 1420 752 
Q 1681 391 2138 391 
Q 2594 391 2855 752 
Q 3116 1113 3116 1747 
z
" transform="scale(0.015625)"/>
     </defs>
     <use xlink:href="#DejaVuSans-74"/>
     <use xlink:href="#DejaVuSans-69" transform="translate(39.208984 0)"/>
     <use xlink:href="#DejaVuSans-6d" transform="translate(66.992188 0)"/>
     <use xlink:href="#DejaVuSans-65" transform="translate(164.404297 0)"/>
     <use xlink:href="#DejaVuSans-73" transform="translate(225.927734 0)"/>
     <use xlink:href="#DejaVuSans-74" transform="translate(278.027344 0)"/>
     <use xlink:href="#DejaVuSans-61" transform="translate(317.236328 0)"/>
     <use xlink:href="#DejaVuSans-6d" transform="translate(378.515625 0)"/>
     <use xlink:href="#DejaVuSans-70" transform="translate(475.927734 0)"/>
     <use xlink:href="#DejaVuSans-73" transform="translate(539.404297 0)"/>
    </g>
   </g>
  </g>
 </g>
 <defs>
  <clipPath id="pb0d9167633">
   <rect x="147.733221" y="20" width="208.533558" height="211.163636"/>
  </clipPath>
  <clipPath id="pbd46f88b87">
   <rect x="20" y="265.803636" width="464" height="21.116364"/>
  </clipPath>
 </defs>
</svg>
