<?xml version="1.0" encoding="utf-8" standalone="no"?>
<!DOCTYPE svg PUBLIC "-//W3C//DTD SVG 1.1//EN"
  "http://www.w3.org/Graphics/SVG/1.1/DTD/svg11.dtd">
<svg xmlns:xlink="http://www.w3.org/1999/xlink" width="504pt" height="576pt" viewBox="0 0 504 576" xmlns="http://www.w3.org/2000/svg" version="1.1">
 <metadata>
  <rdf:RDF xmlns:dc="http://purl.org/dc/elements/1.1/" xmlns:cc="http://creativecommons.org/ns#" xmlns:rdf="http://www.w3.org/1999/02/22-rdf-syntax-ns#">
   <cc:Work>
    <dc:type rdf:resource="http://purl.org/dc/dcmitype/StillImage"/>
    <dc:date>2026-02-11T16:01:58.499316</dc:date>
    <dc:format>image/svg+xml</dc:format>
    <dc:creator>
     <cc:Agent>
      <dc:title>Matplotlib v3.9.2, https://matplotlib.org/</dc:title>
     </cc:Agent>
    </dc:creator>
   </cc:Work>
  </rdf:RDF>
 </metadata>
 <defs>
  <style type="text/css">*{stroke-linejoin: round; stroke-linecap: butt}</style>
 </defs>
 <g id="figure_1">
  <g id="patch_1">
   <path d="M 0 576 
L 504 576 
L 504 0 
L 0 0 
z
" style="fill: #ffffff"/>
  </g>
  <g id="axes_1">
   <g id="patch_2">
    <path d="M 0 413.214328 
L 504 413.214328 
L 504 192.820856 
L 0 192.820856 
z
" style="fill: #d3d3d3"/>
   </g>
   <g id="PatchCollection_1">
    <path d="M -304.062643 503.626075 
L -304.062643 120.569201 
L -687.119517 120.569201 
L -687.119517 503.626075 
L -304.062643 503.626075 
" clip-path="url(#p6aa885c89b)" style="fill: #8c8c8c; stroke: #ffffff"/>
    <path d="M -878.647954 695.154513 
L -782.883735 695.154513 
L -782.883735 503.626075 
L -878.647954 503.626075 
L -878.647954 695.154513 
" clip-path="url(#p6aa885c89b)" style="fill: #8c8c8c; stroke: #ffffff"/>
    <path d="M -782.883735 695.154513 
L -591.355298 695.154513 
L -591.355298 599.390294 
L -782.883735 599.390294 
L -782.883735 695.154513 
" clip-path="url(#p6aa885c89b)" style="fill: #8c8c8c; stroke: #ffffff"/>
    <path d="M -495.59108 695.154513 
L -495.59108 599.390294 
L -591.355298 599.390294 
L -591.355298 695.154513 
L -495.59108 695.154513 
" clip-path="url(#p6aa885c89b)" style="fill: #8c8c8c; stroke: #ffffff"/>
    <path d="M -399.826861 695.154513 
L -399.826861 599.390294 
L -495.59108 599.390294 
L -495.59108 695.154513 
L -399.826861 695.154513 
" clip-path="url(#p6aa885c89b)" style="fill: #8c8c8c; stroke: #ffffff"/>
    <path d="M -208.298424 695.154513 
L -208.298424 599.390294 
L -304.062643 599.390294 
L -304.062643 695.154513 
L -208.298424 695.154513 
" clip-path="url(#p6aa885c89b)" style="fill: #8c8c8c; stroke: #ffffff"/>
    <path d="M -112.534205 695.154513 
L -112.534205 599.390294 
L -208.298424 599.390294 
L -208.298424 695.154513 
L -112.534205 695.154513 
" clip-path="url(#p6aa885c89b)" style="fill: #8c8c8c; stroke: #ffffff"/>
    <path d="M -112.534205 599.390294 
L -112.534205 503.626075 
L -208.298424 503.626075 
L -208.298424 599.390294 
L -112.534205 599.390294 
" clip-path="url(#p6aa885c89b)" style="fill: #8c8c8c; stroke: #ffffff"/>
    <path d="M -112.534205 503.626075 
L -112.534205 407.861857 
L -208.298424 407.861857 
L -208.298424 503.626075 
L -112.534205 503.626075 
" clip-path="url(#p6aa885c89b)" style="fill: #8c8c8c; stroke: #ffffff"/>
    <path d="M -112.534205 312.097638 
L -112.534205 216.33342 
L -208.298424 216.33342 
L -208.298424 312.097638 
L -112.534205 312.097638 
" clip-path="url(#p6aa885c89b)" style="fill: #8c8c8c; stroke: #ffffff"/>
    <path d="M -112.534205 216.33342 
L -112.534205 120.569201 
L -208.298424 120.569201 
L -208.298424 216.33342 
L -112.534205 216.33342 
" clip-path="url(#p6aa885c89b)" style="fill: #8c8c8c; stroke: #ffffff"/>
    <path d="M -112.534205 120.569201 
L -112.534205 24.804983 
L -208.298424 24.804983 
L -208.298424 120.569201 
L -112.534205 120.569201 
" clip-path="url(#p6aa885c89b)" style="fill: #8c8c8c; stroke: #ffffff"/>
    <path d="M -304.062643 24.804983 
L -112.534205 24.804983 
L -112.534205 -70.959236 
L -304.062643 -70.959236 
L -304.062643 24.804983 
" clip-path="url(#p6aa885c89b)" style="fill: #8c8c8c; stroke: #ffffff"/>
    <path d="M -304.062643 24.804983 
L -304.062643 -70.959236 
L -399.826861 -70.959236 
L -399.826861 24.804983 
L -304.062643 24.804983 
" clip-path="url(#p6aa885c89b)" style="fill: #8c8c8c; stroke: #ffffff"/>
    <path d="M -399.826861 24.804983 
L -399.826861 -70.959236 
L -495.59108 -70.959236 
L -495.59108 24.804983 
L -399.826861 24.804983 
" clip-path="url(#p6aa885c89b)" style="fill: #8c8c8c; stroke: #ffffff"/>
    <path d="M -591.355298 24.804983 
L -591.355298 -70.959236 
L -687.119517 -70.959236 
L -687.119517 24.804983 
L -591.355298 24.804983 
" clip-path="url(#p6aa885c89b)" style="fill: #8c8c8c; stroke: #ffffff"/>
    <path d="M -687.119517 24.804983 
L -687.119517 -70.959236 
L -782.883735 -70.959236 
L -782.883735 24.804983 
L -687.119517 24.804983 
" clip-path="url(#p6aa885c89b)" style="fill: #8c8c8c; stroke: #ffffff"/>
    <path d="M -782.883735 24.804983 
L -782.883735 -70.959236 
L -878.647954 -70.959236 
L -878.647954 24.804983 
L -782.883735 24.804983 
" clip-path="url(#p6aa885c89b)" style="fill: #8c8c8c; stroke: #ffffff"/>
    <path d="M -782.883735 120.569201 
L -782.883735 24.804983 
L -878.647954 24.804983 
L -878.647954 120.569201 
L -782.883735 120.569201 
" clip-path="url(#p6aa885c89b)" style="fill: #8c8c8c; stroke: #ffffff"/>
    <path d="M -782.883735 216.33342 
L -782.883735 120.569201 
L -878.647954 120.569201 
L -878.647954 216.33342 
L -782.883735 216.33342 
" clip-path="url(#p6aa885c89b)" style="fill: #8c8c8c; stroke: #ffffff"/>
    <path d="M -878.647954 503.626075 
L -782.883735 503.626075 
L -782.883735 312.097638 
L -878.647954 312.097638 
L -878.647954 503.626075 
" clip-path="url(#p6aa885c89b)" style="fill: #8c8c8c; stroke: #ffffff"/>
    <path d="M -1165.94061 982.447168 
L -1070.176391 982.447168 
L -1070.176391 790.918731 
L -1165.94061 790.918731 
L -1165.94061 982.447168 
" clip-path="url(#p6aa885c89b)" style="fill: #8c8c8c; stroke: #ffffff"/>
    <path d="M -1070.176391 982.447168 
L -974.412173 982.447168 
L -974.412173 790.918731 
L -1070.176391 790.918731 
L -1070.176391 982.447168 
" clip-path="url(#p6aa885c89b)" style="fill: #8c8c8c; stroke: #ffffff"/>
    <path d="M -782.883735 982.447168 
L -782.883735 790.918731 
L -974.412173 790.918731 
L -974.412173 982.447168 
L -782.883735 982.447168 
" clip-path="url(#p6aa885c89b)" style="fill: #8c8c8c; stroke: #ffffff"/>
    <path d="M -591.355298 982.447168 
L -591.355298 790.918731 
L -782.883735 790.918731 
L -782.883735 982.447168 
L -591.355298 982.447168 
" clip-path="url(#p6aa885c89b)" style="fill: #8c8c8c; stroke: #ffffff"/>
    <path d="M -208.298424 886.68295 
L -208.298424 790.918731 
L -495.59108 790.918731 
L -495.59108 886.68295 
L -208.298424 886.68295 
" clip-path="url(#p6aa885c89b)" style="fill: #8c8c8c; stroke: #ffffff"/>
    <path d="M -208.298424 982.447168 
L -208.298424 886.68295 
L -495.59108 886.68295 
L -495.59108 982.447168 
L -208.298424 982.447168 
" clip-path="url(#p6aa885c89b)" style="fill: #8c8c8c; stroke: #ffffff"/>
    <path d="M 78.994232 982.447168 
L 78.994232 790.918731 
L -208.298424 790.918731 
L -208.298424 982.447168 
L 78.994232 982.447168 
" clip-path="url(#p6aa885c89b)" style="fill: #8c8c8c; stroke: #ffffff"/>
    <path d="M 174.75845 982.447168 
L 174.75845 790.918731 
L 78.994232 790.918731 
L 78.994232 982.447168 
L 174.75845 982.447168 
" clip-path="url(#p6aa885c89b)" style="fill: #8c8c8c; stroke: #ffffff"/>
    <path d="M 174.75845 790.918731 
L 174.75845 599.390294 
L -16.769987 599.390294 
L -16.769987 790.918731 
L 174.75845 790.918731 
" clip-path="url(#p6aa885c89b)" style="fill: #8c8c8c; stroke: #ffffff"/>
    <path d="M 78.994232 599.390294 
L 78.994232 407.861857 
L -16.769987 407.861857 
L -16.769987 599.390294 
L 78.994232 599.390294 
" clip-path="url(#p6aa885c89b)" style="fill: #8c8c8c; stroke: #ffffff"/>
    <path d="M 174.75845 599.390294 
L 174.75845 407.861857 
L 78.994232 407.861857 
L 78.994232 599.390294 
L 174.75845 599.390294 
" clip-path="url(#p6aa885c89b)" style="fill: #8c8c8c; stroke: #ffffff"/>
    <path d="M 174.75845 407.861857 
L 174.75845 216.33342 
L -16.769987 216.33342 
L -16.769987 407.861857 
L 174.75845 407.861857 
" clip-path="url(#p6aa885c89b)" style="fill: #8c8c8c; stroke: #ffffff"/>
    <path d="M 174.75845 120.569201 
L 174.75845 -70.959236 
L -16.769987 -70.959236 
L -16.769987 120.569201 
L 174.75845 120.569201 
" clip-path="url(#p6aa885c89b)" style="fill: #8c8c8c; stroke: #ffffff"/>
    <path d="M 174.75845 -70.959236 
L 174.75845 -166.723455 
L -16.769987 -166.723455 
L -16.769987 -70.959236 
L 174.75845 -70.959236 
" clip-path="url(#p6aa885c89b)" style="fill: #8c8c8c; stroke: #ffffff"/>
    <path d="M 174.75845 -166.723455 
L 174.75845 -262.487673 
L -112.534205 -262.487673 
L -112.534205 -166.723455 
L 174.75845 -166.723455 
" clip-path="url(#p6aa885c89b)" style="fill: #8c8c8c; stroke: #ffffff"/>
    <path d="M -112.534205 -166.723455 
L -112.534205 -262.487673 
L -208.298424 -262.487673 
L -208.298424 -166.723455 
L -112.534205 -166.723455 
" clip-path="url(#p6aa885c89b)" style="fill: #8c8c8c; stroke: #ffffff"/>
    <path d="M 174.75845 -262.487673 
L 174.75845 -358.251892 
L -16.769987 -358.251892 
L -16.769987 -262.487673 
L 174.75845 -262.487673 
" clip-path="url(#p6aa885c89b)" style="fill: #8c8c8c; stroke: #ffffff"/>
    <path d="M -16.769987 -262.487673 
L -16.769987 -358.251892 
L -208.298424 -358.251892 
L -208.298424 -262.487673 
L -16.769987 -262.487673 
" clip-path="url(#p6aa885c89b)" style="fill: #8c8c8c; stroke: #ffffff"/>
    <path d="M -208.298424 -166.723455 
L -208.298424 -358.251892 
L -399.826861 -358.251892 
L -399.826861 -166.723455 
L -208.298424 -166.723455 
" clip-path="url(#p6aa885c89b)" style="fill: #8c8c8c; stroke: #ffffff"/>
    <path d="M -399.826861 -262.487673 
L -399.826861 -358.251892 
L -591.355298 -358.251892 
L -591.355298 -262.487673 
L -399.826861 -262.487673 
" clip-path="url(#p6aa885c89b)" style="fill: #8c8c8c; stroke: #ffffff"/>
    <path d="M -399.826861 -166.723455 
L -399.826861 -262.487673 
L -591.355298 -262.487673 
L -591.355298 -166.723455 
L -399.826861 -166.723455 
" clip-path="url(#p6aa885c89b)" style="fill: #8c8c8c; stroke: #ffffff"/>
    <path d="M -687.119517 -166.723455 
L -687.119517 -358.251892 
L -878.647954 -358.251892 
L -878.647954 -166.723455 
L -687.119517 -166.723455 
" clip-path="url(#p6aa885c89b)" style="fill: #8c8c8c; stroke: #ffffff"/>
    <path d="M -878.647954 -262.487673 
L -878.647954 -358.251892 
L -1070.176391 -358.251892 
L -1070.176391 -262.487673 
L -878.647954 -262.487673 
" clip-path="url(#p6aa885c89b)" style="fill: #8c8c8c; stroke: #ffffff"/>
    <path d="M -878.647954 -166.723455 
L -878.647954 -262.487673 
L -1070.176391 -262.487673 
L -1070.176391 -166.723455 
L -878.647954 -166.723455 
" clip-path="url(#p6aa885c89b)" style="fill: #8c8c8c; stroke: #ffffff"/>
    <path d="M -1165.94061 -166.723455 
L -1070.176391 -166.723455 
L -1070.176391 -358.251892 
L -1165.94061 -358.251892 
L -1165.94061 -166.723455 
" clip-path="url(#p6aa885c89b)" style="fill: #8c8c8c; stroke: #ffffff"/>
    <path d="M -974.412173 120.569201 
L -974.412173 -166.723455 
L -1165.94061 -166.723455 
L -1165.94061 120.569201 
L -974.412173 120.569201 
" clip-path="url(#p6aa885c89b)" style="fill: #8c8c8c; stroke: #ffffff"/>
    <path d="M -974.412173 216.33342 
L -974.412173 120.569201 
L -1165.94061 120.569201 
L -1165.94061 216.33342 
L -974.412173 216.33342 
" clip-path="url(#p6aa885c89b)" style="fill: #8c8c8c; stroke: #ffffff"/>
    <path d="M -1165.94061 503.626075 
L -1070.176391 503.626075 
L -1070.176391 312.097638 
L -1165.94061 312.097638 
L -1165.94061 503.626075 
" clip-path="url(#p6aa885c89b)" style="fill: #8c8c8c; stroke: #ffffff"/>
    <path d="M -1070.176391 503.626075 
L -974.412173 503.626075 
L -974.412173 312.097638 
L -1070.176391 312.097638 
L -1070.176391 503.626075 
" clip-path="url(#p6aa885c89b)" style="fill: #8c8c8c; stroke: #ffffff"/>
    <path d="M -1165.94061 599.390294 
L -974.412173 599.390294 
L -974.412173 503.626075 
L -1165.94061 503.626075 
L -1165.94061 599.390294 
" clip-path="url(#p6aa885c89b)" style="fill: #8c8c8c; stroke: #ffffff"/>
    <path d="M -974.412173 790.918731 
L -974.412173 599.390294 
L -1165.94061 599.390294 
L -1165.94061 790.918731 
L -974.412173 790.918731 
" clip-path="url(#p6aa885c89b)" style="fill: #8c8c8c; stroke: #ffffff"/>
    <path d="M -1261.704828 1269.739824 
L -1261.704828 1078.211387 
L -1453.233265 1078.211387 
L -1453.233265 1269.739824 
L -1261.704828 1269.739824 
" clip-path="url(#p6aa885c89b)" style="fill: #8c8c8c; stroke: #ffffff"/>
    <path d="M -1070.176391 1269.739824 
L -1070.176391 1078.211387 
L -1261.704828 1078.211387 
L -1261.704828 1269.739824 
L -1070.176391 1269.739824 
" clip-path="url(#p6aa885c89b)" style="fill: #8c8c8c; stroke: #ffffff"/>
    <path d="M -974.412173 1269.739824 
L -974.412173 1173.975605 
L -1070.176391 1173.975605 
L -1070.176391 1269.739824 
L -974.412173 1269.739824 
" clip-path="url(#p6aa885c89b)" style="fill: #8c8c8c; stroke: #ffffff"/>
    <path d="M -974.412173 1173.975605 
L -974.412173 1078.211387 
L -1070.176391 1078.211387 
L -1070.176391 1173.975605 
L -974.412173 1173.975605 
" clip-path="url(#p6aa885c89b)" style="fill: #8c8c8c; stroke: #ffffff"/>
    <path d="M -782.883735 1269.739824 
L -782.883735 1173.975605 
L -974.412173 1173.975605 
L -974.412173 1269.739824 
L -782.883735 1269.739824 
" clip-path="url(#p6aa885c89b)" style="fill: #8c8c8c; stroke: #ffffff"/>
    <path d="M -782.883735 1173.975605 
L -782.883735 1078.211387 
L -974.412173 1078.211387 
L -974.412173 1173.975605 
L -782.883735 1173.975605 
" clip-path="url(#p6aa885c89b)" style="fill: #8c8c8c; stroke: #ffffff"/>
    <path d="M -591.355298 1269.739824 
L -591.355298 1078.211387 
L -687.119517 1078.211387 
L -687.119517 1269.739824 
L -591.355298 1269.739824 
" clip-path="url(#p6aa885c89b)" style="fill: #8c8c8c; stroke: #ffffff"/>
    <path d="M -304.062643 1269.739824 
L -304.062643 1078.211387 
L -591.355298 1078.211387 
L -591.355298 1269.739824 
L -304.062643 1269.739824 
" clip-path="url(#p6aa885c89b)" style="fill: #8c8c8c; stroke: #ffffff"/>
    <path d="M -112.534205 1269.739824 
L -112.534205 1078.211387 
L -304.062643 1078.211387 
L -304.062643 1269.739824 
L -112.534205 1269.739824 
" clip-path="url(#p6aa885c89b)" style="fill: #8c8c8c; stroke: #ffffff"/>
    <path d="M -16.769987 1173.975605 
L -16.769987 1078.211387 
L -112.534205 1078.211387 
L -112.534205 1173.975605 
L -16.769987 1173.975605 
" clip-path="url(#p6aa885c89b)" style="fill: #8c8c8c; stroke: #ffffff"/>
    <path d="M 78.994232 1173.975605 
L 78.994232 1078.211387 
L -16.769987 1078.211387 
L -16.769987 1173.975605 
L 78.994232 1173.975605 
" clip-path="url(#p6aa885c89b)" style="fill: #8c8c8c; stroke: #ffffff"/>
    <path d="M -16.769987 1269.739824 
L -16.769987 1173.975605 
L -112.534205 1173.975605 
L -112.534205 1269.739824 
L -16.769987 1269.739824 
" clip-path="url(#p6aa885c89b)" style="fill: #8c8c8c; stroke: #ffffff"/>
    <path d="M 78.994232 1269.739824 
L 78.994232 1173.975605 
L -16.769987 1173.975605 
L -16.769987 1269.739824 
L 78.994232 1269.739824 
" clip-path="url(#p6aa885c89b)" style="fill: #8c8c8c; stroke: #ffffff"/>
    <path d="M 270.522669 1173.975605 
L 270.522669 1078.211387 
L 78.994232 1078.211387 
L 78.994232 1173.975605 
L 270.522669 1173.975605 
" clip-path="url(#p6aa885c89b)" style="fill: #8c8c8c; stroke: #ffffff"/>
    <path d="M 270.522669 1269.739824 
L 270.522669 1173.975605 
L 78.994232 1173.975605 
L 78.994232 1269.739824 
L 270.522669 1269.739824 
" clip-path="url(#p6aa885c89b)" style="fill: #8c8c8c; stroke: #ffffff"/>
    <path d="M 462.051106 1269.739824 
L 462.051106 1173.975605 
L 270.522669 1173.975605 
L 270.522669 1269.739824 
L 462.051106 1269.739824 
" clip-path="url(#p6aa885c89b)" style="fill: #8c8c8c; stroke: #ffffff"/>
    <path d="M 462.051106 1173.975605 
L 462.051106 982.447168 
L 270.522669 982.447168 
L 270.522669 1173.975605 
L 462.051106 1173.975605 
" clip-path="url(#p6aa885c89b)" style="fill: #8c8c8c; stroke: #ffffff"/>
    <path d="M 462.051106 982.447168 
L 462.051106 790.918731 
L 270.522669 790.918731 
L 270.522669 982.447168 
L 462.051106 982.447168 
" clip-path="url(#p6aa885c89b)" style="fill: #8c8c8c; stroke: #ffffff"/>
    <path d="M 366.286887 790.918731 
L 366.286887 599.390294 
L 270.522669 599.390294 
L 270.522669 790.918731 
L 366.286887 790.918731 
" clip-path="url(#p6aa885c89b)" style="fill: #8c8c8c; stroke: #ffffff"/>
    <path d="M 462.051106 790.918731 
L 462.051106 599.390294 
L 366.286887 599.390294 
L 366.286887 790.918731 
L 462.051106 790.918731 
" clip-path="url(#p6aa885c89b)" style="fill: #8c8c8c; stroke: #ffffff"/>
    <path d="M 462.051106 503.626075 
L 462.051106 312.097638 
L 270.522669 312.097638 
L 270.522669 503.626075 
L 462.051106 503.626075 
" clip-path="url(#p6aa885c89b)" style="fill: #8c8c8c; stroke: #ffffff"/>
    <path d="M 462.051106 312.097638 
L 462.051106 120.569201 
L 270.522669 120.569201 
L 270.522669 312.097638 
L 462.051106 312.097638 
" clip-path="url(#p6aa885c89b)" style="fill: #8c8c8c; stroke: #ffffff"/>
    <path d="M 366.286887 120.569201 
L 366.286887 -70.959236 
L 270.522669 -70.959236 
L 270.522669 120.569201 
L 366.286887 120.569201 
" clip-path="url(#p6aa885c89b)" style="fill: #8c8c8c; stroke: #ffffff"/>
    <path d="M 462.051106 120.569201 
L 462.051106 -70.959236 
L 366.286887 -70.959236 
L 366.286887 120.569201 
L 462.051106 120.569201 
" clip-path="url(#p6aa885c89b)" style="fill: #8c8c8c; stroke: #ffffff"/>
    <path d="M 462.051106 -70.959236 
L 462.051106 -262.487673 
L 270.522669 -262.487673 
L 270.522669 -70.959236 
L 462.051106 -70.959236 
" clip-path="url(#p6aa885c89b)" style="fill: #8c8c8c; stroke: #ffffff"/>
    <path d="M 462.051106 -262.487673 
L 462.051106 -454.01611 
L 270.522669 -454.01611 
L 270.522669 -262.487673 
L 462.051106 -262.487673 
" clip-path="url(#p6aa885c89b)" style="fill: #8c8c8c; stroke: #ffffff"/>
    <path d="M 462.051106 -454.01611 
L 462.051106 -549.780329 
L 270.522669 -549.780329 
L 270.522669 -454.01611 
L 462.051106 -454.01611 
" clip-path="url(#p6aa885c89b)" style="fill: #8c8c8c; stroke: #ffffff"/>
    <path d="M 462.051106 -549.780329 
L 462.051106 -645.544547 
L 270.522669 -645.544547 
L 270.522669 -549.780329 
L 462.051106 -549.780329 
" clip-path="url(#p6aa885c89b)" style="fill: #8c8c8c; stroke: #ffffff"/>
    <path d="M 174.75845 -454.01611 
L 174.75845 -645.544547 
L 78.994232 -645.544547 
L 78.994232 -454.01611 
L 174.75845 -454.01611 
" clip-path="url(#p6aa885c89b)" style="fill: #8c8c8c; stroke: #ffffff"/>
    <path d="M 78.994232 -454.01611 
L 78.994232 -645.544547 
L -16.769987 -645.544547 
L -16.769987 -454.01611 
L 78.994232 -454.01611 
" clip-path="url(#p6aa885c89b)" style="fill: #8c8c8c; stroke: #ffffff"/>
    <path d="M -16.769987 -454.01611 
L -16.769987 -549.780329 
L -304.062643 -549.780329 
L -304.062643 -454.01611 
L -16.769987 -454.01611 
" clip-path="url(#p6aa885c89b)" style="fill: #8c8c8c; stroke: #ffffff"/>
    <path d="M -16.769987 -549.780329 
L -16.769987 -645.544547 
L -208.298424 -645.544547 
L -208.298424 -549.780329 
L -16.769987 -549.780329 
" clip-path="url(#p6aa885c89b)" style="fill: #8c8c8c; stroke: #ffffff"/>
    <path d="M -208.298424 -549.780329 
L -208.298424 -645.544547 
L -399.826861 -645.544547 
L -399.826861 -549.780329 
L -208.298424 -549.780329 
" clip-path="url(#p6aa885c89b)" style="fill: #8c8c8c; stroke: #ffffff"/>
    <path d="M -304.062643 -454.01611 
L -304.062643 -549.780329 
L -399.826861 -549.780329 
L -399.826861 -454.01611 
L -304.062643 -454.01611 
" clip-path="url(#p6aa885c89b)" style="fill: #8c8c8c; stroke: #ffffff"/>
    <path d="M -399.826861 -454.01611 
L -399.826861 -645.544547 
L -591.355298 -645.544547 
L -591.355298 -454.01611 
L -399.826861 -454.01611 
" clip-path="url(#p6aa885c89b)" style="fill: #8c8c8c; stroke: #ffffff"/>
    <path d="M -591.355298 -454.01611 
L -591.355298 -549.780329 
L -782.883735 -549.780329 
L -782.883735 -454.01611 
L -591.355298 -454.01611 
" clip-path="url(#p6aa885c89b)" style="fill: #8c8c8c; stroke: #ffffff"/>
    <path d="M -591.355298 -549.780329 
L -591.355298 -645.544547 
L -782.883735 -645.544547 
L -782.883735 -549.780329 
L -591.355298 -549.780329 
" clip-path="url(#p6aa885c89b)" style="fill: #8c8c8c; stroke: #ffffff"/>
    <path d="M -878.647954 -454.01611 
L -878.647954 -645.544547 
L -1070.176391 -645.544547 
L -1070.176391 -454.01611 
L -878.647954 -454.01611 
" clip-path="url(#p6aa885c89b)" style="fill: #8c8c8c; stroke: #ffffff"/>
    <path d="M -1070.176391 -549.780329 
L -1070.176391 -645.544547 
L -1261.704828 -645.544547 
L -1261.704828 -549.780329 
L -1070.176391 -549.780329 
" clip-path="url(#p6aa885c89b)" style="fill: #8c8c8c; stroke: #ffffff"/>
    <path d="M -1070.176391 -454.01611 
L -1070.176391 -549.780329 
L -1261.704828 -549.780329 
L -1261.704828 -454.01611 
L -1070.176391 -454.01611 
" clip-path="url(#p6aa885c89b)" style="fill: #8c8c8c; stroke: #ffffff"/>
    <path d="M -1261.704828 -454.01611 
L -1261.704828 -645.544547 
L -1357.469047 -645.544547 
L -1357.469047 -454.01611 
L -1261.704828 -454.01611 
" clip-path="url(#p6aa885c89b)" style="fill: #8c8c8c; stroke: #ffffff"/>
    <path d="M -1357.469047 -454.01611 
L -1357.469047 -645.544547 
L -1453.233265 -645.544547 
L -1453.233265 -454.01611 
L -1357.469047 -454.01611 
" clip-path="url(#p6aa885c89b)" style="fill: #8c8c8c; stroke: #ffffff"/>
    <path d="M -1261.704828 -166.723455 
L -1261.704828 -358.251892 
L -1453.233265 -358.251892 
L -1453.233265 -166.723455 
L -1261.704828 -166.723455 
" clip-path="url(#p6aa885c89b)" style="fill: #8c8c8c; stroke: #ffffff"/>
    <path d="M -1261.704828 -70.959236 
L -1261.704828 -166.723455 
L -1453.233265 -166.723455 
L -1453.233265 -70.959236 
L -1261.704828 -70.959236 
" clip-path="url(#p6aa885c89b)" style="fill: #8c8c8c; stroke: #ffffff"/>
    <path d="M -1261.704828 24.804983 
L -1261.704828 -70.959236 
L -1453.233265 -70.959236 
L -1453.233265 24.804983 
L -1261.704828 24.804983 
" clip-path="url(#p6aa885c89b)" style="fill: #8c8c8c; stroke: #ffffff"/>
    <path d="M -1261.704828 216.33342 
L -1261.704828 24.804983 
L -1453.233265 24.804983 
L -1453.233265 216.33342 
L -1261.704828 216.33342 
" clip-path="url(#p6aa885c89b)" style="fill: #8c8c8c; stroke: #ffffff"/>
    <path d="M -1261.704828 312.097638 
L -1261.704828 216.33342 
L -1453.233265 216.33342 
L -1453.233265 312.097638 
L -1261.704828 312.097638 
" clip-path="url(#p6aa885c89b)" style="fill: #8c8c8c; stroke: #ffffff"/>
    <path d="M -1261.704828 407.861857 
L -1261.704828 312.097638 
L -1453.233265 312.097638 
L -1453.233265 407.861857 
L -1261.704828 407.861857 
" clip-path="url(#p6aa885c89b)" style="fill: #8c8c8c; stroke: #ffffff"/>
    <path d="M -1261.704828 599.390294 
L -1261.704828 407.861857 
L -1453.233265 407.861857 
L -1453.233265 599.390294 
L -1261.704828 599.390294 
" clip-path="url(#p6aa885c89b)" style="fill: #8c8c8c; stroke: #ffffff"/>
    <path d="M -1261.704828 695.154513 
L -1261.704828 599.390294 
L -1453.233265 599.390294 
L -1453.233265 695.154513 
L -1261.704828 695.154513 
" clip-path="url(#p6aa885c89b)" style="fill: #8c8c8c; stroke: #ffffff"/>
    <path d="M -1357.469047 982.447168 
L -1357.469047 695.154513 
L -1453.233265 695.154513 
L -1453.233265 982.447168 
L -1357.469047 982.447168 
" clip-path="url(#p6aa885c89b)" style="fill: #8c8c8c; stroke: #ffffff"/>
    <path d="M -1261.704828 790.918731 
L -1261.704828 695.154513 
L -1357.469047 695.154513 
L -1357.469047 790.918731 
L -1261.704828 790.918731 
" clip-path="url(#p6aa885c89b)" style="fill: #8c8c8c; stroke: #ffffff"/>
    <path d="M -1261.704828 886.68295 
L -1261.704828 790.918731 
L -1357.469047 790.918731 
L -1357.469047 886.68295 
L -1261.704828 886.68295 
" clip-path="url(#p6aa885c89b)" style="fill: #8c8c8c; stroke: #ffffff"/>
    <path d="M -1261.704828 982.447168 
L -1261.704828 886.68295 
L -1357.469047 886.68295 
L -1357.469047 982.447168 
L -1261.704828 982.447168 
" clip-path="url(#p6aa885c89b)" style="fill: #8c8c8c; stroke: #ffffff"/>
   </g>
   <g id="PatchCollection_2">
    <path d="M 73.075721 352.005113 
L 73.029608 352.943766 
L 72.891713 353.87338 
L 72.663364 354.785001 
L 72.346759 355.669851 
L 71.944949 356.519407 
L 71.461803 357.325488 
L 70.901974 358.08033 
L 70.270852 358.776666 
L 69.574517 359.407787 
L 68.819674 359.967616 
L 68.013593 360.450763 
L 67.164037 360.852573 
L 66.279188 361.169177 
L 65.367567 361.397526 
L 64.437953 361.535421 
L 63.499299 361.581535 
L 62.560646 361.535421 
L 61.631032 361.397526 
L 60.719411 361.169177 
L 59.834561 360.852573 
L 58.985005 360.450763 
L 58.178924 359.967616 
L 57.424082 359.407787 
L 56.727746 358.776666 
L 56.096625 358.08033 
L 55.536796 357.325488 
L 55.053649 356.519407 
L 54.651839 355.669851 
L 54.335235 354.785001 
L 54.106886 353.87338 
L 53.968991 352.943766 
L 53.922877 352.005113 
L 53.968991 351.066459 
L 54.106886 350.136845 
L 54.335235 349.225224 
L 54.651839 348.340375 
L 55.053649 347.490819 
L 55.536796 346.684738 
L 56.096625 345.929895 
L 56.727746 345.23356 
L 57.424082 344.602438 
L 58.178924 344.042609 
L 58.985005 343.559463 
L 59.834561 343.157653 
L 60.719411 342.841048 
L 61.631032 342.612699 
L 62.560646 342.474804 
L 63.499299 342.428691 
L 64.437953 342.474804 
L 65.367567 342.612699 
L 66.279188 342.841048 
L 67.164037 343.157653 
L 68.013593 343.559463 
L 68.819674 344.042609 
L 69.574517 344.602438 
L 70.270852 345.23356 
L 70.901974 345.929895 
L 71.461803 346.684738 
L 71.944949 347.490819 
L 72.346759 348.340375 
L 72.663364 349.225224 
L 72.891713 350.136845 
L 73.029608 351.066459 
L 73.075721 352.005113 
" clip-path="url(#p6aa885c89b)" style="fill: #ed6925; fill-opacity: 0.75; stroke: #000000; stroke-opacity: 0.75; stroke-width: 0.5"/>
    <path d="M 90.649659 393.620021 
L 90.603546 394.558674 
L 90.46565 395.488288 
L 90.237301 396.399909 
L 89.920697 397.284759 
L 89.518887 398.134315 
L 89.035741 398.940396 
L 88.475911 399.695239 
L 87.84479 400.391574 
L 87.148455 401.022695 
L 86.393612 401.582525 
L 85.587531 402.065671 
L 84.737975 402.467481 
L 83.853125 402.784085 
L 82.941504 403.012435 
L 82.01189 403.15033 
L 81.073237 403.196443 
L 80.134583 403.15033 
L 79.20497 403.012435 
L 78.293348 402.784085 
L 77.408499 402.467481 
L 76.558943 402.065671 
L 75.752862 401.582525 
L 74.998019 401.022695 
L 74.301684 400.391574 
L 73.670563 399.695239 
L 73.110733 398.940396 
L 72.627587 398.134315 
L 72.225777 397.284759 
L 71.909173 396.399909 
L 71.680823 395.488288 
L 71.542928 394.558674 
L 71.496815 393.620021 
L 71.542928 392.681367 
L 71.680823 391.751754 
L 71.909173 390.840132 
L 72.225777 389.955283 
L 72.627587 389.105727 
L 73.110733 388.299646 
L 73.670563 387.544803 
L 74.301684 386.848468 
L 74.998019 386.217347 
L 75.752862 385.657517 
L 76.558943 385.174371 
L 77.408499 384.772561 
L 78.293348 384.455957 
L 79.20497 384.227607 
L 80.134583 384.089712 
L 81.073237 384.043599 
L 82.01189 384.089712 
L 82.941504 384.227607 
L 83.853125 384.455957 
L 84.737975 384.772561 
L 85.587531 385.174371 
L 86.393612 385.657517 
L 87.148455 386.217347 
L 87.84479 386.848468 
L 88.475911 387.544803 
L 89.035741 388.299646 
L 89.518887 389.105727 
L 89.920697 389.955283 
L 90.237301 390.840132 
L 90.46565 391.751754 
L 90.603546 392.681367 
L 90.649659 393.620021 
" clip-path="url(#p6aa885c89b)" style="fill: #ed6925; fill-opacity: 0.75; stroke: #000000; stroke-opacity: 0.75; stroke-width: 0.5"/>
    <path d="M 99.266136 346.762743 
L 99.220023 347.701397 
L 99.082127 348.63101 
L 98.853778 349.542632 
L 98.537174 350.427481 
L 98.135364 351.277037 
L 97.652218 352.083118 
L 97.092388 352.837961 
L 96.461267 353.534296 
L 95.764932 354.165417 
L 95.010089 354.725247 
L 94.204008 355.208393 
L 93.354452 355.610203 
L 92.469602 355.926807 
L 91.557981 356.155157 
L 90.628367 356.293052 
L 89.689714 356.339165 
L 88.75106 356.293052 
L 87.821447 356.155157 
L 86.909825 355.926807 
L 86.024976 355.610203 
L 85.17542 355.208393 
L 84.369339 354.725247 
L 83.614496 354.165417 
L 82.918161 353.534296 
L 82.28704 352.837961 
L 81.72721 352.083118 
L 81.244064 351.277037 
L 80.842254 350.427481 
L 80.52565 349.542632 
L 80.2973 348.63101 
L 80.159405 347.701397 
L 80.113292 346.762743 
L 80.159405 345.82409 
L 80.2973 344.894476 
L 80.52565 343.982854 
L 80.842254 343.098005 
L 81.244064 342.248449 
L 81.72721 341.442368 
L 82.28704 340.687525 
L 82.918161 339.99119 
L 83.614496 339.360069 
L 84.369339 338.800239 
L 85.17542 338.317093 
L 86.024976 337.915283 
L 86.909825 337.598679 
L 87.821447 337.370329 
L 88.75106 337.232434 
L 89.689714 337.186321 
L 90.628367 337.232434 
L 91.557981 337.370329 
L 92.469602 337.598679 
L 93.354452 337.915283 
L 94.204008 338.317093 
L 95.010089 338.800239 
L 95.764932 339.360069 
L 96.461267 339.99119 
L 97.092388 340.687525 
L 97.652218 341.442368 
L 98.135364 342.248449 
L 98.537174 343.098005 
L 98.853778 343.982854 
L 99.082127 344.894476 
L 99.220023 345.82409 
L 99.266136 346.762743 
" clip-path="url(#p6aa885c89b)" style="fill: #ed6925; fill-opacity: 0.75; stroke: #000000; stroke-opacity: 0.75; stroke-width: 0.5"/>
    <path d="M 42.061935 384.487948 
L 42.015822 385.426602 
L 41.877926 386.356216 
L 41.649577 387.267837 
L 41.332973 388.152686 
L 40.931163 389.002242 
L 40.448017 389.808323 
L 39.888187 390.563166 
L 39.257066 391.259501 
L 38.56073 391.890623 
L 37.805888 392.450452 
L 36.999807 392.933598 
L 36.150251 393.335409 
L 35.265401 393.652013 
L 34.35378 393.880362 
L 33.424166 394.018257 
L 32.485513 394.06437 
L 31.546859 394.018257 
L 30.617246 393.880362 
L 29.705624 393.652013 
L 28.820775 393.335409 
L 27.971219 392.933598 
L 27.165138 392.450452 
L 26.410295 391.890623 
L 25.71396 391.259501 
L 25.082839 390.563166 
L 24.523009 389.808323 
L 24.039863 389.002242 
L 23.638053 388.152686 
L 23.321448 387.267837 
L 23.093099 386.356216 
L 22.955204 385.426602 
L 22.909091 384.487948 
L 22.955204 383.549295 
L 23.093099 382.619681 
L 23.321448 381.70806 
L 23.638053 380.82321 
L 24.039863 379.973654 
L 24.523009 379.167574 
L 25.082839 378.412731 
L 25.71396 377.716396 
L 26.410295 377.085274 
L 27.165138 376.525445 
L 27.971219 376.042298 
L 28.820775 375.640488 
L 29.705624 375.323884 
L 30.617246 375.095535 
L 31.546859 374.95764 
L 32.485513 374.911527 
L 33.424166 374.95764 
L 34.35378 375.095535 
L 35.265401 375.323884 
L 36.150251 375.640488 
L 36.999807 376.042298 
L 37.805888 376.525445 
L 38.56073 377.085274 
L 39.257066 377.716396 
L 39.888187 378.412731 
L 40.448017 379.167574 
L 40.931163 379.973654 
L 41.332973 380.82321 
L 41.649577 381.70806 
L 41.877926 382.619681 
L 42.015822 383.549295 
L 42.061935 384.487948 
" clip-path="url(#p6aa885c89b)" style="fill: #ed6925; fill-opacity: 0.75; stroke: #000000; stroke-opacity: 0.75; stroke-width: 0.5"/>
    <path d="M 77.826468 310.169735 
L 77.780354 311.108388 
L 77.642459 312.038002 
L 77.41411 312.949623 
L 77.097506 313.834473 
L 76.695696 314.684029 
L 76.212549 315.49011 
L 75.65272 316.244953 
L 75.021599 316.941288 
L 74.325263 317.572409 
L 73.570421 318.132239 
L 72.76434 318.615385 
L 71.914784 319.017195 
L 71.029934 319.333799 
L 70.118313 319.562148 
L 69.188699 319.700044 
L 68.250046 319.746157 
L 67.311392 319.700044 
L 66.381778 319.562148 
L 65.470157 319.333799 
L 64.585308 319.017195 
L 63.735752 318.615385 
L 62.929671 318.132239 
L 62.174828 317.572409 
L 61.478493 316.941288 
L 60.847372 316.244953 
L 60.287542 315.49011 
L 59.804396 314.684029 
L 59.402586 313.834473 
L 59.085981 312.949623 
L 58.857632 312.038002 
L 58.719737 311.108388 
L 58.673624 310.169735 
L 58.719737 309.231081 
L 58.857632 308.301468 
L 59.085981 307.389846 
L 59.402586 306.504997 
L 59.804396 305.655441 
L 60.287542 304.84936 
L 60.847372 304.094517 
L 61.478493 303.398182 
L 62.174828 302.767061 
L 62.929671 302.207231 
L 63.735752 301.724085 
L 64.585308 301.322275 
L 65.470157 301.00567 
L 66.381778 300.777321 
L 67.311392 300.639426 
L 68.250046 300.593313 
L 69.188699 300.639426 
L 70.118313 300.777321 
L 71.029934 301.00567 
L 71.914784 301.322275 
L 72.76434 301.724085 
L 73.570421 302.207231 
L 74.325263 302.767061 
L 75.021599 303.398182 
L 75.65272 304.094517 
L 76.212549 304.84936 
L 76.695696 305.655441 
L 77.097506 306.504997 
L 77.41411 307.389846 
L 77.642459 308.301468 
L 77.780354 309.231081 
L 77.826468 310.169735 
" clip-path="url(#p6aa885c89b)" style="fill: #ed6925; fill-opacity: 0.75; stroke: #000000; stroke-opacity: 0.75; stroke-width: 0.5"/>
    <path d="M 326.472525 282.994009 
L 326.426412 283.932663 
L 326.288517 284.862276 
L 326.060168 285.773898 
L 325.743563 286.658747 
L 325.341753 287.508303 
L 324.858607 288.314384 
L 324.298777 289.069227 
L 323.667656 289.765562 
L 322.971321 290.396683 
L 322.216478 290.956513 
L 321.410397 291.439659 
L 320.560841 291.841469 
L 319.675992 292.158073 
L 318.764371 292.386423 
L 317.834757 292.524318 
L 316.896103 292.570431 
L 315.95745 292.524318 
L 315.027836 292.386423 
L 314.116215 292.158073 
L 313.231365 291.841469 
L 312.381809 291.439659 
L 311.575728 290.956513 
L 310.820886 290.396683 
L 310.12455 289.765562 
L 309.493429 289.069227 
L 308.9336 288.314384 
L 308.450453 287.508303 
L 308.048643 286.658747 
L 307.732039 285.773898 
L 307.50369 284.862276 
L 307.365795 283.932663 
L 307.319681 282.994009 
L 307.365795 282.055356 
L 307.50369 281.125742 
L 307.732039 280.214121 
L 308.048643 279.329271 
L 308.450453 278.479715 
L 308.9336 277.673634 
L 309.493429 276.918791 
L 310.12455 276.222456 
L 310.820886 275.591335 
L 311.575728 275.031505 
L 312.381809 274.548359 
L 313.231365 274.146549 
L 314.116215 273.829945 
L 315.027836 273.601596 
L 315.95745 273.4637 
L 316.896103 273.417587 
L 317.834757 273.4637 
L 318.764371 273.601596 
L 319.675992 273.829945 
L 320.560841 274.146549 
L 321.410397 274.548359 
L 322.216478 275.031505 
L 322.971321 275.591335 
L 323.667656 276.222456 
L 324.298777 276.918791 
L 324.858607 277.673634 
L 325.341753 278.479715 
L 325.743563 279.329271 
L 326.060168 280.214121 
L 326.288517 281.125742 
L 326.426412 282.055356 
L 326.472525 282.994009 
" clip-path="url(#p6aa885c89b)" style="fill: #781c6d; fill-opacity: 0.75; stroke: #000000; stroke-opacity: 0.75; stroke-width: 0.5"/>
    <path d="M 274.258846 222.94273 
L 274.212733 223.881384 
L 274.074838 224.810997 
L 273.846489 225.722619 
L 273.529885 226.607468 
L 273.128075 227.457024 
L 272.644928 228.263105 
L 272.085099 229.017948 
L 271.453977 229.714283 
L 270.757642 230.345404 
L 270.0028 230.905234 
L 269.196719 231.38838 
L 268.347163 231.79019 
L 267.462313 232.106794 
L 266.550692 232.335144 
L 265.621078 232.473039 
L 264.682425 232.519152 
L 263.743771 232.473039 
L 262.814157 232.335144 
L 261.902536 232.106794 
L 261.017687 231.79019 
L 260.168131 231.38838 
L 259.36205 230.905234 
L 258.607207 230.345404 
L 257.910872 229.714283 
L 257.27975 229.017948 
L 256.719921 228.263105 
L 256.236775 227.457024 
L 255.834964 226.607468 
L 255.51836 225.722619 
L 255.290011 224.810997 
L 255.152116 223.881384 
L 255.106003 222.94273 
L 255.152116 222.004077 
L 255.290011 221.074463 
L 255.51836 220.162842 
L 255.834964 219.277992 
L 256.236775 218.428436 
L 256.719921 217.622355 
L 257.27975 216.867512 
L 257.910872 216.171177 
L 258.607207 215.540056 
L 259.36205 214.980226 
L 260.168131 214.49708 
L 261.017687 214.09527 
L 261.902536 213.778666 
L 262.814157 213.550317 
L 263.743771 213.412421 
L 264.682425 213.366308 
L 265.621078 213.412421 
L 266.550692 213.550317 
L 267.462313 213.778666 
L 268.347163 214.09527 
L 269.196719 214.49708 
L 270.0028 214.980226 
L 270.757642 215.540056 
L 271.453977 216.171177 
L 272.085099 216.867512 
L 272.644928 217.622355 
L 273.128075 218.428436 
L 273.529885 219.277992 
L 273.846489 220.162842 
L 274.074838 221.074463 
L 274.212733 222.004077 
L 274.258846 222.94273 
" clip-path="url(#p6aa885c89b)" style="fill: #781c6d; fill-opacity: 0.75; stroke: #000000; stroke-opacity: 0.75; stroke-width: 0.5"/>
    <path d="M 335.751089 244.157946 
L 335.704976 245.096599 
L 335.56708 246.026213 
L 335.338731 246.937834 
L 335.022127 247.822684 
L 334.620317 248.67224 
L 334.137171 249.478321 
L 333.577341 250.233163 
L 332.94622 250.929498 
L 332.249885 251.56062 
L 331.495042 252.120449 
L 330.688961 252.603596 
L 329.839405 253.005406 
L 328.954555 253.32201 
L 328.042934 253.550359 
L 327.11332 253.688254 
L 326.174667 253.734367 
L 325.236013 253.688254 
L 324.3064 253.550359 
L 323.394778 253.32201 
L 322.509929 253.005406 
L 321.660373 252.603596 
L 320.854292 252.120449 
L 320.099449 251.56062 
L 319.403114 250.929498 
L 318.771993 250.233163 
L 318.212163 249.478321 
L 317.729017 248.67224 
L 317.327207 247.822684 
L 317.010603 246.937834 
L 316.782253 246.026213 
L 316.644358 245.096599 
L 316.598245 244.157946 
L 316.644358 243.219292 
L 316.782253 242.289678 
L 317.010603 241.378057 
L 317.327207 240.493208 
L 317.729017 239.643652 
L 318.212163 238.837571 
L 318.771993 238.082728 
L 319.403114 237.386393 
L 320.099449 236.755271 
L 320.854292 236.195442 
L 321.660373 235.712296 
L 322.509929 235.310485 
L 323.394778 234.993881 
L 324.3064 234.765532 
L 325.236013 234.627637 
L 326.174667 234.581524 
L 327.11332 234.627637 
L 328.042934 234.765532 
L 328.954555 234.993881 
L 329.839405 235.310485 
L 330.688961 235.712296 
L 331.495042 236.195442 
L 332.249885 236.755271 
L 332.94622 237.386393 
L 333.577341 238.082728 
L 334.137171 238.837571 
L 334.620317 239.643652 
L 335.022127 240.493208 
L 335.338731 241.378057 
L 335.56708 242.289678 
L 335.704976 243.219292 
L 335.751089 244.157946 
" clip-path="url(#p6aa885c89b)" style="fill: #781c6d; fill-opacity: 0.75; stroke: #000000; stroke-opacity: 0.75; stroke-width: 0.5"/>
    <path d="M 305.531033 228.088207 
L 305.48492 229.026861 
L 305.347024 229.956475 
L 305.118675 230.868096 
L 304.802071 231.752945 
L 304.400261 232.602501 
L 303.917115 233.408582 
L 303.357285 234.163425 
L 302.726164 234.85976 
L 302.029829 235.490882 
L 301.274986 236.050711 
L 300.468905 236.533858 
L 299.619349 236.935668 
L 298.734499 237.252272 
L 297.822878 237.480621 
L 296.893264 237.618516 
L 295.954611 237.664629 
L 295.015957 237.618516 
L 294.086344 237.480621 
L 293.174722 237.252272 
L 292.289873 236.935668 
L 291.440317 236.533858 
L 290.634236 236.050711 
L 289.879393 235.490882 
L 289.183058 234.85976 
L 288.551937 234.163425 
L 287.992107 233.408582 
L 287.508961 232.602501 
L 287.107151 231.752945 
L 286.790546 230.868096 
L 286.562197 229.956475 
L 286.424302 229.026861 
L 286.378189 228.088207 
L 286.424302 227.149554 
L 286.562197 226.21994 
L 286.790546 225.308319 
L 287.107151 224.423469 
L 287.508961 223.573913 
L 287.992107 222.767833 
L 288.551937 222.01299 
L 289.183058 221.316655 
L 289.879393 220.685533 
L 290.634236 220.125704 
L 291.440317 219.642557 
L 292.289873 219.240747 
L 293.174722 218.924143 
L 294.086344 218.695794 
L 295.015957 218.557899 
L 295.954611 218.511786 
L 296.893264 218.557899 
L 297.822878 218.695794 
L 298.734499 218.924143 
L 299.619349 219.240747 
L 300.468905 219.642557 
L 301.274986 220.125704 
L 302.029829 220.685533 
L 302.726164 221.316655 
L 303.357285 222.01299 
L 303.917115 222.767833 
L 304.400261 223.573913 
L 304.802071 224.423469 
L 305.118675 225.308319 
L 305.347024 226.21994 
L 305.48492 227.149554 
L 305.531033 228.088207 
" clip-path="url(#p6aa885c89b)" style="fill: #781c6d; fill-opacity: 0.75; stroke: #000000; stroke-opacity: 0.75; stroke-width: 0.5"/>
    <path d="M 179.519863 317.273421 
L 179.47375 318.212074 
L 179.335855 319.141688 
L 179.107506 320.053309 
L 178.790902 320.938159 
L 178.389092 321.787715 
L 177.905945 322.593796 
L 177.346116 323.348639 
L 176.714994 324.044974 
L 176.018659 324.676095 
L 175.263817 325.235925 
L 174.457736 325.719071 
L 173.60818 326.120881 
L 172.72333 326.437485 
L 171.811709 326.665835 
L 170.882095 326.80373 
L 169.943442 326.849843 
L 169.004788 326.80373 
L 168.075174 326.665835 
L 167.163553 326.437485 
L 166.278704 326.120881 
L 165.429148 325.719071 
L 164.623067 325.235925 
L 163.868224 324.676095 
L 163.171889 324.044974 
L 162.540767 323.348639 
L 161.980938 322.593796 
L 161.497792 321.787715 
L 161.095981 320.938159 
L 160.779377 320.053309 
L 160.551028 319.141688 
L 160.413133 318.212074 
L 160.36702 317.273421 
L 160.413133 316.334767 
L 160.551028 315.405154 
L 160.779377 314.493532 
L 161.095981 313.608683 
L 161.497792 312.759127 
L 161.980938 311.953046 
L 162.540767 311.198203 
L 163.171889 310.501868 
L 163.868224 309.870747 
L 164.623067 309.310917 
L 165.429148 308.827771 
L 166.278704 308.425961 
L 167.163553 308.109357 
L 168.075174 307.881007 
L 169.004788 307.743112 
L 169.943442 307.696999 
L 170.882095 307.743112 
L 171.811709 307.881007 
L 172.72333 308.109357 
L 173.60818 308.425961 
L 174.457736 308.827771 
L 175.263817 309.310917 
L 176.018659 309.870747 
L 176.714994 310.501868 
L 177.346116 311.198203 
L 177.905945 311.953046 
L 178.389092 312.759127 
L 178.790902 313.608683 
L 179.107506 314.493532 
L 179.335855 315.405154 
L 179.47375 316.334767 
L 179.519863 317.273421 
" clip-path="url(#p6aa885c89b)" style="fill: #ed6925; fill-opacity: 0.75; stroke: #000000; stroke-opacity: 0.75; stroke-width: 0.5"/>
    <path d="M 177.692818 357.142295 
L 177.646705 358.080948 
L 177.50881 359.010562 
L 177.280461 359.922183 
L 176.963857 360.807033 
L 176.562046 361.656589 
L 176.0789 362.46267 
L 175.519071 363.217513 
L 174.887949 363.913848 
L 174.191614 364.544969 
L 173.436771 365.104799 
L 172.63069 365.587945 
L 171.781134 365.989755 
L 170.896285 366.306359 
L 169.984664 366.534708 
L 169.05505 366.672604 
L 168.116396 366.718717 
L 167.177743 366.672604 
L 166.248129 366.534708 
L 165.336508 366.306359 
L 164.451658 365.989755 
L 163.602102 365.587945 
L 162.796021 365.104799 
L 162.041179 364.544969 
L 161.344844 363.913848 
L 160.713722 363.217513 
L 160.153893 362.46267 
L 159.670746 361.656589 
L 159.268936 360.807033 
L 158.952332 359.922183 
L 158.723983 359.010562 
L 158.586088 358.080948 
L 158.539975 357.142295 
L 158.586088 356.203641 
L 158.723983 355.274028 
L 158.952332 354.362406 
L 159.268936 353.477557 
L 159.670746 352.628001 
L 160.153893 351.82192 
L 160.713722 351.067077 
L 161.344844 350.370742 
L 162.041179 349.739621 
L 162.796021 349.179791 
L 163.602102 348.696645 
L 164.451658 348.294835 
L 165.336508 347.97823 
L 166.248129 347.749881 
L 167.177743 347.611986 
L 168.116396 347.565873 
L 169.05505 347.611986 
L 169.984664 347.749881 
L 170.896285 347.97823 
L 171.781134 348.294835 
L 172.63069 348.696645 
L 173.436771 349.179791 
L 174.191614 349.739621 
L 174.887949 350.370742 
L 175.519071 351.067077 
L 176.0789 351.82192 
L 176.562046 352.628001 
L 176.963857 353.477557 
L 177.280461 354.362406 
L 177.50881 355.274028 
L 177.646705 356.203641 
L 177.692818 357.142295 
" clip-path="url(#p6aa885c89b)" style="fill: #ed6925; fill-opacity: 0.75; stroke: #000000; stroke-opacity: 0.75; stroke-width: 0.5"/>
    <path d="M 213.552659 331.944517 
L 213.506546 332.883171 
L 213.368651 333.812785 
L 213.140302 334.724406 
L 212.823697 335.609255 
L 212.421887 336.458811 
L 211.938741 337.264892 
L 211.378911 338.019735 
L 210.74779 338.71607 
L 210.051455 339.347192 
L 209.296612 339.907021 
L 208.490531 340.390167 
L 207.640975 340.791977 
L 206.756126 341.108582 
L 205.844504 341.336931 
L 204.914891 341.474826 
L 203.976237 341.520939 
L 203.037584 341.474826 
L 202.10797 341.336931 
L 201.196349 341.108582 
L 200.311499 340.791977 
L 199.461943 340.390167 
L 198.655862 339.907021 
L 197.90102 339.347192 
L 197.204684 338.71607 
L 196.573563 338.019735 
L 196.013733 337.264892 
L 195.530587 336.458811 
L 195.128777 335.609255 
L 194.812173 334.724406 
L 194.583824 333.812785 
L 194.445928 332.883171 
L 194.399815 331.944517 
L 194.445928 331.005864 
L 194.583824 330.07625 
L 194.812173 329.164629 
L 195.128777 328.279779 
L 195.530587 327.430223 
L 196.013733 326.624142 
L 196.573563 325.8693 
L 197.204684 325.172965 
L 197.90102 324.541843 
L 198.655862 323.982014 
L 199.461943 323.498867 
L 200.311499 323.097057 
L 201.196349 322.780453 
L 202.10797 322.552104 
L 203.037584 322.414209 
L 203.976237 322.368095 
L 204.914891 322.414209 
L 205.844504 322.552104 
L 206.756126 322.780453 
L 207.640975 323.097057 
L 208.490531 323.498867 
L 209.296612 323.982014 
L 210.051455 324.541843 
L 210.74779 325.172965 
L 211.378911 325.8693 
L 211.938741 326.624142 
L 212.421887 327.430223 
L 212.823697 328.279779 
L 213.140302 329.164629 
L 213.368651 330.07625 
L 213.506546 331.005864 
L 213.552659 331.944517 
" clip-path="url(#p6aa885c89b)" style="fill: #ed6925; fill-opacity: 0.75; stroke: #000000; stroke-opacity: 0.75; stroke-width: 0.5"/>
    <path d="M 176.965186 294.035933 
L 176.919073 294.974587 
L 176.781178 295.9042 
L 176.552829 296.815822 
L 176.236224 297.700671 
L 175.834414 298.550227 
L 175.351268 299.356308 
L 174.791439 300.111151 
L 174.160317 300.807486 
L 173.463982 301.438607 
L 172.709139 301.998437 
L 171.903058 302.481583 
L 171.053502 302.883393 
L 170.168653 303.199998 
L 169.257032 303.428347 
L 168.327418 303.566242 
L 167.388764 303.612355 
L 166.450111 303.566242 
L 165.520497 303.428347 
L 164.608876 303.199998 
L 163.724026 302.883393 
L 162.87447 302.481583 
L 162.068389 301.998437 
L 161.313547 301.438607 
L 160.617212 300.807486 
L 159.98609 300.111151 
L 159.426261 299.356308 
L 158.943114 298.550227 
L 158.541304 297.700671 
L 158.2247 296.815822 
L 157.996351 295.9042 
L 157.858456 294.974587 
L 157.812342 294.035933 
L 157.858456 293.09728 
L 157.996351 292.167666 
L 158.2247 291.256045 
L 158.541304 290.371195 
L 158.943114 289.521639 
L 159.426261 288.715558 
L 159.98609 287.960716 
L 160.617212 287.26438 
L 161.313547 286.633259 
L 162.068389 286.073429 
L 162.87447 285.590283 
L 163.724026 285.188473 
L 164.608876 284.871869 
L 165.520497 284.64352 
L 166.450111 284.505624 
L 167.388764 284.459511 
L 168.327418 284.505624 
L 169.257032 284.64352 
L 170.168653 284.871869 
L 171.053502 285.188473 
L 171.903058 285.590283 
L 172.709139 286.073429 
L 173.463982 286.633259 
L 174.160317 287.26438 
L 174.791439 287.960716 
L 175.351268 288.715558 
L 175.834414 289.521639 
L 176.236224 290.371195 
L 176.552829 291.256045 
L 176.781178 292.167666 
L 176.919073 293.09728 
L 176.965186 294.035933 
" clip-path="url(#p6aa885c89b)" style="fill: #ed6925; fill-opacity: 0.75; stroke: #000000; stroke-opacity: 0.75; stroke-width: 0.5"/>
    <path d="M 135.308249 299.765532 
L 135.262136 300.704186 
L 135.124241 301.633799 
L 134.895892 302.545421 
L 134.579288 303.43027 
L 134.177478 304.279826 
L 133.694331 305.085907 
L 133.134502 305.84075 
L 132.50338 306.537085 
L 131.807045 307.168206 
L 131.052202 307.728036 
L 130.246122 308.211182 
L 129.396566 308.612992 
L 128.511716 308.929597 
L 127.600095 309.157946 
L 126.670481 309.295841 
L 125.731828 309.341954 
L 124.793174 309.295841 
L 123.86356 309.157946 
L 122.951939 308.929597 
L 122.06709 308.612992 
L 121.217534 308.211182 
L 120.411453 307.728036 
L 119.65661 307.168206 
L 118.960275 306.537085 
L 118.329153 305.84075 
L 117.769324 305.085907 
L 117.286177 304.279826 
L 116.884367 303.43027 
L 116.567763 302.545421 
L 116.339414 301.633799 
L 116.201519 300.704186 
L 116.155406 299.765532 
L 116.201519 298.826879 
L 116.339414 297.897265 
L 116.567763 296.985644 
L 116.884367 296.100794 
L 117.286177 295.251238 
L 117.769324 294.445157 
L 118.329153 293.690315 
L 118.960275 292.993979 
L 119.65661 292.362858 
L 120.411453 291.803028 
L 121.217534 291.319882 
L 122.06709 290.918072 
L 122.951939 290.601468 
L 123.86356 290.373119 
L 124.793174 290.235223 
L 125.731828 290.18911 
L 126.670481 290.235223 
L 127.600095 290.373119 
L 128.511716 290.601468 
L 129.396566 290.918072 
L 130.246122 291.319882 
L 131.052202 291.803028 
L 131.807045 292.362858 
L 132.50338 292.993979 
L 133.134502 293.690315 
L 133.694331 294.445157 
L 134.177478 295.251238 
L 134.579288 296.100794 
L 134.895892 296.985644 
L 135.124241 297.897265 
L 135.262136 298.826879 
L 135.308249 299.765532 
" clip-path="url(#p6aa885c89b)" style="fill: #ed6925; fill-opacity: 0.75; stroke: #000000; stroke-opacity: 0.75; stroke-width: 0.5"/>
   </g>
   <g id="matplotlib.axis_1">
    <g id="xtick_1"/>
    <g id="xtick_2"/>
    <g id="xtick_3"/>
    <g id="xtick_4"/>
    <g id="xtick_5"/>
   </g>
   <g id="matplotlib.axis_2">
    <g id="ytick_1"/>
    <g id="ytick_2"/>
    <g id="ytick_3"/>
    <g id="ytick_4"/>
    <g id="ytick_5"/>
   </g>
   <g id="PathCollection_1">
    <defs>
     <path id="mef5618542a" d="M 0 1.118034 
C 0.296506 1.118034 0.580908 1.000231 0.790569 0.790569 
C 1.000231 0.580908 1.118034 0.296506 1.118034 0 
C 1.118034 -0.296506 1.000231 -0.580908 0.790569 -0.790569 
C 0.580908 -1.000231 0.296506 -1.118034 0 -1.118034 
C -0.296506 -1.118034 -0.580908 -1.000231 -0.790569 -0.790569 
C -1.000231 -0.580908 -1.118034 -0.296506 -1.118034 0 
C -1.118034 0.296506 -1.000231 0.580908 -0.790569 0.790569 
C -0.580908 1.000231 -0.296506 1.118034 0 1.118034 
z
" style="stroke: #000000"/>
    </defs>
    <g clip-path="url(#p6aa885c89b)">
     <use xlink:href="#mef5618542a" x="63.499299" y="352.005113" style="stroke: #000000"/>
     <use xlink:href="#mef5618542a" x="81.073237" y="393.620021" style="stroke: #000000"/>
     <use xlink:href="#mef5618542a" x="89.689714" y="346.762743" style="stroke: #000000"/>
     <use xlink:href="#mef5618542a" x="32.485513" y="384.487948" style="stroke: #000000"/>
     <use xlink:href="#mef5618542a" x="68.250046" y="310.169735" style="stroke: #000000"/>
     <use xlink:href="#mef5618542a" x="375.777498" y="344.761769" style="stroke: #000000"/>
     <use xlink:href="#mef5618542a" x="316.896103" y="282.994009" style="stroke: #000000"/>
     <use xlink:href="#mef5618542a" x="264.682425" y="222.94273" style="stroke: #000000"/>
     <use xlink:href="#mef5618542a" x="326.174667" y="244.157946" style="stroke: #000000"/>
     <use xlink:href="#mef5618542a" x="481.090909" y="202.838741" style="stroke: #000000"/>
     <use xlink:href="#mef5618542a" x="381.020989" y="317.61069" style="stroke: #000000"/>
     <use xlink:href="#mef5618542a" x="295.954611" y="228.088207" style="stroke: #000000"/>
     <use xlink:href="#mef5618542a" x="169.943442" y="317.273421" style="stroke: #000000"/>
     <use xlink:href="#mef5618542a" x="168.116396" y="357.142295" style="stroke: #000000"/>
     <use xlink:href="#mef5618542a" x="203.976237" y="331.944517" style="stroke: #000000"/>
     <use xlink:href="#mef5618542a" x="213.762546" y="249.918854" style="stroke: #000000"/>
     <use xlink:href="#mef5618542a" x="167.388764" y="294.035933" style="stroke: #000000"/>
     <use xlink:href="#mef5618542a" x="125.731828" y="299.765532" style="stroke: #000000"/>
    </g>
   </g>
  </g>
  <g id="axes_2">
   <g id="patch_3">
    <path d="M 0 558.92 
L 504 558.92 
L 504 518.517654 
L 0 518.517654 
z
" style="fill: #ffffff"/>
   </g>
   <g id="matplotlib.axis_3">
    <g id="xtick_6">
     <g id="line2d_1">
      <defs>
       <path id="m75e5d9b2a3" d="M 0 0 
L 0 3.5 
" style="stroke: #000000; stroke-width: 0.8"/>
      </defs>
      <g>
       <use xlink:href="#m75e5d9b2a3" x="45.974203" y="558.92" style="stroke: #000000; stroke-width: 0.8"/>
      </g>
     </g>
     <g id="text_1">
      <!-- 08 AM -->
      <g transform="translate(30.288265 573.518438) scale(0.1 -0.1)">
       <defs>
        <path id="DejaVuSans-30" d="M 2034 4250 
Q 1547 4250 1301 3770 
Q 1056 3291 1056 2328 
Q 1056 1369 1301 889 
Q 1547 409 2034 409 
Q 2525 409 2770 889 
Q 3016 1369 3016 2328 
Q 3016 3291 2770 3770 
Q 2525 4250 2034 4250 
z
M 2034 4750 
Q 2819 4750 3233 4129 
Q 3647 3509 3647 2328 
Q 3647 1150 3233 529 
Q 2819 -91 2034 -91 
Q 1250 -91 836 529 
Q 422 1150 422 2328 
Q 422 3509 836 4129 
Q 1250 4750 2034 4750 
z
" transform="scale(0.015625)"/>
        <path id="DejaVuSans-38" d="M 2034 2216 
Q 1584 2216 1326 1975 
Q 1069 1734 1069 1313 
Q 1069 891 1326 650 
Q 1584 409 2034 409 
Q 2484 409 2743 651 
Q 3003 894 3003 1313 
Q 3003 1734 2745 1975 
Q 2488 2216 2034 2216 
z
M 1403 2484 
Q 997 2584 770 2862 
Q 544 3141 544 3541 
Q 544 4100 942 4425 
Q 1341 4750 2034 4750 
Q 2731 4750 3128 4425 
Q 3525 4100 3525 3541 
Q 3525 3141 3298 2862 
Q 3072 2584 2669 2484 
Q 3125 2378 3379 2068 
Q 3634 1759 3634 1313 
Q 3634 634 3220 271 
Q 2806 -91 2034 -91 
Q 1263 -91 848 271 
Q 434 634 434 1313 
Q 434 1759 690 2068 
Q 947 2378 1403 2484 
z
M 1172 3481 
Q 1172 3119 1398 2916 
Q 1625 2713 2034 2713 
Q 2441 2713 2670 2916 
Q 2900 3119 2900 3481 
Q 2900 3844 2670 4047 
Q 2441 4250 2034 4250 
Q 1625 4250 1398 4047 
Q 1172 3844 1172 3481 
z
" transform="scale(0.015625)"/>
        <path id="DejaVuSans-20" transform="scale(0.015625)"/>
        <path id="DejaVuSans-41" d="M 2188 4044 
L 1331 1722 
L 3047 1722 
L 2188 4044 
z
M 1831 4666 
L 2547 4666 
L 4325 0 
L 3669 0 
L 3244 1197 
L 1141 1197 
L 716 0 
L 50 0 
L 1831 4666 
z
" transform="scale(0.015625)"/>
        <path id="DejaVuSans-4d" d="M 628 4666 
L 1569 4666 
L 2759 1491 
L 3956 4666 
L 4897 4666 
L 4897 0 
L 4281 0 
L 4281 4097 
L 3078 897 
L 2444 897 
L 1241 4097 
L 1241 0 
L 628 0 
L 628 4666 
z
" transform="scale(0.015625)"/>
       </defs>
       <use xlink:href="#DejaVuSans-30"/>
       <use xlink:href="#DejaVuSans-38" x="63.623047"/>
       <use xlink:href="#DejaVuSans-20" x="127.246094"/>
       <use xlink:href="#DejaVuSans-41" x="159.033203"/>
       <use xlink:href="#DejaVuSans-4d" x="227.441406"/>
      </g>
     </g>
    </g>
    <g id="xtick_7">
     <g id="line2d_2">
      <g>
       <use xlink:href="#m75e5d9b2a3" x="233.199463" y="558.92" style="stroke: #000000; stroke-width: 0.8"/>
      </g>
     </g>
     <g id="text_2">
      <!-- 09 AM -->
      <g transform="translate(217.513526 573.518438) scale(0.1 -0.1)">
       <defs>
        <path id="DejaVuSans-39" d="M 703 97 
L 703 672 
Q 941 559 1184 500 
Q 1428 441 1663 441 
Q 2288 441 2617 861 
Q 2947 1281 2994 2138 
Q 2813 1869 2534 1725 
Q 2256 1581 1919 1581 
Q 1219 1581 811 2004 
Q 403 2428 403 3163 
Q 403 3881 828 4315 
Q 1253 4750 1959 4750 
Q 2769 4750 3195 4129 
Q 3622 3509 3622 2328 
Q 3622 1225 3098 567 
Q 2575 -91 1691 -91 
Q 1453 -91 1209 -44 
Q 966 3 703 97 
z
M 1959 2075 
Q 2384 2075 2632 2365 
Q 2881 2656 2881 3163 
Q 2881 3666 2632 3958 
Q 2384 4250 1959 4250 
Q 1534 4250 1286 3958 
Q 1038 3666 1038 3163 
Q 1038 2656 1286 2365 
Q 1534 2075 1959 2075 
z
" transform="scale(0.015625)"/>
       </defs>
       <use xlink:href="#DejaVuSans-30"/>
       <use xlink:href="#DejaVuSans-39" x="63.623047"/>
       <use xlink:href="#DejaVuSans-20" x="127.246094"/>
       <use xlink:href="#DejaVuSans-41" x="159.033203"/>
       <use xlink:href="#DejaVuSans-4d" x="227.441406"/>
      </g>
     </g>
    </g>
    <g id="xtick_8">
     <g id="line2d_3">
      <g>
       <use xlink:href="#m75e5d9b2a3" x="420.424724" y="558.92" style="stroke: #000000; stroke-width: 0.8"/>
      </g>
     </g>
     <g id="text_3">
      <!-- 10 AM -->
      <g transform="translate(404.738786 573.518438) scale(0.1 -0.1)">
       <defs>
        <path id="DejaVuSans-31" d="M 794 531 
L 1825 531 
L 1825 4091 
L 703 3866 
L 703 4441 
L 1819 4666 
L 2450 4666 
L 2450 531 
L 3481 531 
L 3481 0 
L 794 0 
L 794 531 
z
" transform="scale(0.015625)"/>
       </defs>
       <use xlink:href="#DejaVuSans-31"/>
       <use xlink:href="#DejaVuSans-30" x="63.623047"/>
       <use xlink:href="#DejaVuSans-20" x="127.246094"/>
       <use xlink:href="#DejaVuSans-41" x="159.033203"/>
       <use xlink:href="#DejaVuSans-4d" x="227.441406"/>
      </g>
     </g>
    </g>
   </g>
   <g id="matplotlib.axis_4"/>
   <g id="LineCollection_1">
    <path d="M 62.40842 550.839531 
L 62.40842 526.598124 
" clip-path="url(#p3785e70af4)" style="fill: none; stroke: #000000"/>
    <path d="M 66.41296 550.839531 
L 66.41296 526.598124 
" clip-path="url(#p3785e70af4)" style="fill: none; stroke: #000000"/>
    <path d="M 74.78609 550.839531 
L 74.78609 526.598124 
" clip-path="url(#p3785e70af4)" style="fill: none; stroke: #000000"/>
    <path d="M 82.483129 550.839531 
L 82.483129 526.598124 
" clip-path="url(#p3785e70af4)" style="fill: none; stroke: #000000"/>
    <path d="M 150.404293 550.839531 
L 150.404293 526.598124 
" clip-path="url(#p3785e70af4)" style="fill: none; stroke: #000000"/>
    <path d="M 215.933134 550.839531 
L 215.933134 526.598124 
" clip-path="url(#p3785e70af4)" style="fill: none; stroke: #000000"/>
    <path d="M 221.445878 550.839531 
L 221.445878 526.598124 
" clip-path="url(#p3785e70af4)" style="fill: none; stroke: #000000"/>
    <path d="M 225.970488 550.839531 
L 225.970488 526.598124 
" clip-path="url(#p3785e70af4)" style="fill: none; stroke: #000000"/>
    <path d="M 249.789702 550.839531 
L 249.789702 526.598124 
" clip-path="url(#p3785e70af4)" style="fill: none; stroke: #000000"/>
    <path d="M 273.556908 550.839531 
L 273.556908 526.598124 
" clip-path="url(#p3785e70af4)" style="fill: none; stroke: #000000"/>
    <path d="M 282.086059 550.839531 
L 282.086059 526.598124 
" clip-path="url(#p3785e70af4)" style="fill: none; stroke: #000000"/>
    <path d="M 311.157982 550.839531 
L 311.157982 526.598124 
" clip-path="url(#p3785e70af4)" style="fill: none; stroke: #000000"/>
    <path d="M 350.995357 550.839531 
L 350.995357 526.598124 
" clip-path="url(#p3785e70af4)" style="fill: none; stroke: #000000"/>
    <path d="M 359.4725 550.839531 
L 359.4725 526.598124 
" clip-path="url(#p3785e70af4)" style="fill: none; stroke: #000000"/>
    <path d="M 360.87669 550.839531 
L 360.87669 526.598124 
" clip-path="url(#p3785e70af4)" style="fill: none; stroke: #000000"/>
    <path d="M 419.436591 550.839531 
L 419.436591 526.598124 
" clip-path="url(#p3785e70af4)" style="fill: none; stroke: #000000"/>
    <path d="M 433.946548 550.839531 
L 433.946548 526.598124 
" clip-path="url(#p3785e70af4)" style="fill: none; stroke: #000000"/>
    <path d="M 441.59158 550.839531 
L 441.59158 526.598124 
" clip-path="url(#p3785e70af4)" style="fill: none; stroke: #000000"/>
   </g>
   <g id="LineCollection_2">
    <path d="M 62.40842 550.839531 
L 62.40842 526.598124 
" clip-path="url(#p3785e70af4)" style="fill: none; stroke: #ed6925; stroke-width: 1.3"/>
    <path d="M 66.41296 550.839531 
L 66.41296 526.598124 
" clip-path="url(#p3785e70af4)" style="fill: none; stroke: #ed6925; stroke-width: 1.3"/>
    <path d="M 74.78609 550.839531 
L 74.78609 526.598124 
" clip-path="url(#p3785e70af4)" style="fill: none; stroke: #ed6925; stroke-width: 1.3"/>
    <path d="M 82.483129 550.839531 
L 82.483129 526.598124 
" clip-path="url(#p3785e70af4)" style="fill: none; stroke: #ed6925; stroke-width: 1.3"/>
    <path d="M 150.404293 550.839531 
L 150.404293 526.598124 
" clip-path="url(#p3785e70af4)" style="fill: none; stroke: #ed6925; stroke-width: 1.3"/>
    <path d="M 221.445878 550.839531 
L 221.445878 526.598124 
" clip-path="url(#p3785e70af4)" style="fill: none; stroke: #781c6d; stroke-width: 1.3"/>
    <path d="M 225.970488 550.839531 
L 225.970488 526.598124 
" clip-path="url(#p3785e70af4)" style="fill: none; stroke: #781c6d; stroke-width: 1.3"/>
    <path d="M 249.789702 550.839531 
L 249.789702 526.598124 
" clip-path="url(#p3785e70af4)" style="fill: none; stroke: #781c6d; stroke-width: 1.3"/>
    <path d="M 311.157982 550.839531 
L 311.157982 526.598124 
" clip-path="url(#p3785e70af4)" style="fill: none; stroke: #781c6d; stroke-width: 1.3"/>
    <path d="M 350.995357 550.839531 
L 350.995357 526.598124 
" clip-path="url(#p3785e70af4)" style="fill: none; stroke: #ed6925; stroke-width: 1.3"/>
    <path d="M 359.4725 550.839531 
L 359.4725 526.598124 
" clip-path="url(#p3785e70af4)" style="fill: none; stroke: #ed6925; stroke-width: 1.3"/>
    <path d="M 360.87669 550.839531 
L 360.87669 526.598124 
" clip-path="url(#p3785e70af4)" style="fill: none; stroke: #ed6925; stroke-width: 1.3"/>
    <path d="M 433.946548 550.839531 
L 433.946548 526.598124 
" clip-path="url(#p3785e70af4)" style="fill: none; stroke: #ed6925; stroke-width: 1.3"/>
    <path d="M 441.59158 550.839531 
L 441.59158 526.598124 
" clip-path="url(#p3785e70af4)" style="fill: none; stroke: #ed6925; stroke-width: 1.3"/>
   </g>
   <g id="patch_4">
    <path d="M 0 558.92 
L 0 518.517654 
" style="fill: none; stroke: #000000; stroke-width: 0.8; stroke-linejoin: miter; stroke-linecap: square"/>
   </g>
   <g id="patch_5">
    <path d="M 504 558.92 
L 504 518.517654 
" style="fill: none; stroke: #000000; stroke-width: 0.8; stroke-linejoin: miter; stroke-linecap: square"/>
   </g>
   <g id="patch_6">
    <path d="M 0 558.92 
L 504 558.92 
" style="fill: none; stroke: #000000; stroke-width: 0.8; stroke-linejoin: miter; stroke-linecap: square"/>
   </g>
   <g id="patch_7">
    <path d="M 0 518.517654 
L 504 518.517654 
" style="fill: none; stroke: #000000; stroke-width: 0.8; stroke-linejoin: miter; stroke-linecap: square"/>
   </g>
   <g id="text_4">
    <!-- timestamps -->
    <g transform="translate(216.510938 512.517654) scale(0.12 -0.12)">
     <defs>
      <path id="DejaVuSans-74" d="M 1172 4494 
L 1172 3500 
L 2356 3500 
L 2356 3053 
L 1172 3053 
L 1172 1153 
Q 1172 725 1289 603 
Q 1406 481 1766 481 
L 2356 481 
L 2356 0 
L 1766 0 
Q 1100 0 847 248 
Q 594 497 594 1153 
L 594 3053 
L 172 3053 
L 172 3500 
L 594 3500 
L 594 4494 
L 1172 4494 
z
" transform="scale(0.015625)"/>
      <path id="DejaVuSans-69" d="M 603 3500 
L 1178 3500 
L 1178 0 
L 603 0 
L 603 3500 
z
M 603 4863 
L 1178 4863 
L 1178 4134 
L 603 4134 
L 603 4863 
z
" transform="scale(0.015625)"/>
      <path id="DejaVuSans-6d" d="M 3328 2828 
Q 3544 3216 3844 3400 
Q 4144 3584 4550 3584 
Q 5097 3584 5394 3201 
Q 5691 2819 5691 2113 
L 5691 0 
L 5113 0 
L 5113 2094 
Q 5113 2597 4934 2840 
Q 4756 3084 4391 3084 
Q 3944 3084 3684 2787 
Q 3425 2491 3425 1978 
L 3425 0 
L 2847 0 
L 2847 2094 
Q 2847 2600 2669 2842 
Q 2491 3084 2119 3084 
Q 1678 3084 1418 2786 
Q 1159 2488 1159 1978 
L 1159 0 
L 581 0 
L 581 3500 
L 1159 3500 
L 1159 2956 
Q 1356 3278 1631 3431 
Q 1906 3584 2284 3584 
Q 2666 3584 2933 3390 
Q 3200 3197 3328 2828 
z
" transform="scale(0.015625)"/>
      <path id="DejaVuSans-65" d="M 3597 1894 
L 3597 1613 
L 953 1613 
Q 991 1019 1311 708 
Q 1631 397 2203 397 
Q 2534 397 2845 478 
Q 3156 559 3463 722 
L 3463 178 
Q 3153 47 2828 -22 
Q 2503 -91 2169 -91 
Q 1331 -91 842 396 
Q 353 884 353 1716 
Q 353 2575 817 3079 
Q 1281 3584 2069 3584 
Q 2775 3584 3186 3129 
Q 3597 2675 3597 1894 
z
M 3022 2063 
Q 3016 2534 2758 2815 
Q 2500 3097 2075 3097 
Q 1594 3097 1305 2825 
Q 1016 2553 972 2059 
L 3022 2063 
z
" transform="scale(0.015625)"/>
      <path id="DejaVuSans-73" d="M 2834 3397 
L 2834 2853 
Q 2591 2978 2328 3040 
Q 2066 3103 1784 3103 
Q 1356 3103 1142 2972 
Q 928 2841 928 2578 
Q 928 2378 1081 2264 
Q 1234 2150 1697 2047 
L 1894 2003 
Q 2506 1872 2764 1633 
Q 3022 1394 3022 966 
Q 3022 478 2636 193 
Q 2250 -91 1575 -91 
Q 1294 -91 989 -36 
Q 684 19 347 128 
L 347 722 
Q 666 556 975 473 
Q 1284 391 1588 391 
Q 1994 391 2212 530 
Q 2431 669 2431 922 
Q 2431 1156 2273 1281 
Q 2116 1406 1581 1522 
L 1381 1569 
Q 847 1681 609 1914 
Q 372 2147 372 2553 
Q 372 3047 722 3315 
Q 1072 3584 1716 3584 
Q 2034 3584 2315 3537 
Q 2597 3491 2834 3397 
z
" transform="scale(0.015625)"/>
      <path id="DejaVuSans-61" d="M 2194 1759 
Q 1497 1759 1228 1600 
Q 959 1441 959 1056 
Q 959 750 1161 570 
Q 1363 391 1709 391 
Q 2188 391 2477 730 
Q 2766 1069 2766 1631 
L 2766 1759 
L 2194 1759 
z
M 3341 1997 
L 3341 0 
L 2766 0 
L 2766 531 
Q 2569 213 2275 61 
Q 1981 -91 1556 -91 
Q 1019 -91 701 211 
Q 384 513 384 1019 
Q 384 1609 779 1909 
Q 1175 2209 1959 2209 
L 2766 2209 
L 2766 2266 
Q 2766 2663 2505 2880 
Q 2244 3097 1772 3097 
Q 1472 3097 1187 3025 
Q 903 2953 641 2809 
L 641 3341 
Q 956 3463 1253 3523 
Q 1550 3584 1831 3584 
Q 2591 3584 2966 3190 
Q 3341 2797 3341 1997 
z
" transform="scale(0.015625)"/>
      <path id="DejaVuSans-70" d="M 1159 525 
L 1159 -1331 
L 581 -1331 
L 581 3500 
L 1159 3500 
L 1159 2969 
Q 1341 3281 1617 3432 
Q 1894 3584 2278 3584 
Q 2916 3584 3314 3078 
Q 3713 2572 3713 1747 
Q 3713 922 3314 415 
Q 2916 -91 2278 -91 
Q 1894 -91 1617 61 
Q 1341 213 1159 525 
z
M 3116 1747 
Q 3116 2381 2855 2742 
Q 2594 3103 2138 3103 
Q 1681 3103 1420 2742 
Q 1159 2381 1159 1747 
Q 1159 1113 1420 752 
Q 1681 391 2138 391 
Q 2594 391 2855 752 
Q 3116 1113 3116 1747 
z
" transform="scale(0.015625)"/>
     </defs>
     <use xlink:href="#DejaVuSans-74"/>
     <use xlink:href="#DejaVuSans-69" x="39.208984"/>
     <use xlink:href="#DejaVuSans-6d" x="66.992188"/>
     <use xlink:href="#DejaVuSans-65" x="164.404297"/>
     <use xlink:href="#DejaVuSans-73" x="225.927734"/>
     <use xlink:href="#DejaVuSans-74" x="278.027344"/>
     <use xlink:href="#DejaVuSans-61" x="317.236328"/>
     <use xlink:href="#DejaVuSans-6d" x="378.515625"/>
     <use xlink:href="#DejaVuSans-70" x="475.927734"/>
     <use xlink:href="#DejaVuSans-73" x="539.404297"/>
    </g>
   </g>
  </g>
 </g>
 <defs>
  <clipPath id="p6aa885c89b">
   <rect x="0" y="192.820856" width="504" height="220.393471"/>
  </clipPath>
  <clipPath id="p3785e70af4">
   <rect x="0" y="518.517654" width="504" height="40.402346"/>
  </clipPath>
 </defs>
</svg>
