<?xml version="1.0" encoding="utf-8" standalone="no"?>
<!DOCTYPE svg PUBLIC "-//W3C//DTD SVG 1.1//EN"
  "http://www.w3.org/Graphics/SVG/1.1/DTD/svg11.dtd">
<svg xmlns:xlink="http://www.w3.org/1999/xlink" width="504pt" height="432pt" viewBox="0 0 504 432" xmlns="http://www.w3.org/2000/svg" version="1.1">
 <metadata>
  <rdf:RDF xmlns:dc="http://purl.org/dc/elements/1.1/" xmlns:cc="http://creativecommons.org/ns#" xmlns:rdf="http://www.w3.org/1999/02/22-rdf-syntax-ns#">
   <cc:Work>
    <dc:type rdf:resource="http://purl.org/dc/dcmitype/StillImage"/>
    <dc:date>2026-02-11T16:40:28.492216</dc:date>
    <dc:format>image/svg+xml</dc:format>
    <dc:creator>
     <cc:Agent>
      <dc:title>Matplotlib v3.9.2, https://matplotlib.org/</dc:title>
     </cc:Agent>
    </dc:creator>
   </cc:Work>
  </rdf:RDF>
 </metadata>
 <defs>
  <style type="text/css">*{stroke-linejoin: round; stroke-linecap: butt}</style>
 </defs>
 <g id="figure_1">
  <g id="patch_1">
   <path d="M 0 432 
L 504 432 
L 504 0 
L 0 0 
z
" style="fill: #ffffff"/>
  </g>
  <g id="axes_1">
   <g id="patch_2">
    <path d="M 20 326.201723 
L 484 326.201723 
L 484 46.884135 
L 20 46.884135 
z
" style="fill: #d3d3d3"/>
   </g>
   <g id="PatchCollection_1">
    <path d="M -253.767867 404.071581 
L -253.767867 58.635968 
L -599.20348 58.635968 
L -599.20348 404.071581 
L -253.767867 404.071581 
" clip-path="url(#pa20ac0bb25)" style="fill: #8c8c8c; stroke: #ffffff"/>
    <path d="M -771.921286 576.789387 
L -685.562383 576.789387 
L -685.562383 404.071581 
L -771.921286 404.071581 
L -771.921286 576.789387 
" clip-path="url(#pa20ac0bb25)" style="fill: #8c8c8c; stroke: #ffffff"/>
    <path d="M -685.562383 576.789387 
L -512.844576 576.789387 
L -512.844576 490.430484 
L -685.562383 490.430484 
L -685.562383 576.789387 
" clip-path="url(#pa20ac0bb25)" style="fill: #8c8c8c; stroke: #ffffff"/>
    <path d="M -426.485673 576.789387 
L -426.485673 490.430484 
L -512.844576 490.430484 
L -512.844576 576.789387 
L -426.485673 576.789387 
" clip-path="url(#pa20ac0bb25)" style="fill: #8c8c8c; stroke: #ffffff"/>
    <path d="M -340.12677 576.789387 
L -340.12677 490.430484 
L -426.485673 490.430484 
L -426.485673 576.789387 
L -340.12677 576.789387 
" clip-path="url(#pa20ac0bb25)" style="fill: #8c8c8c; stroke: #ffffff"/>
    <path d="M -167.408964 576.789387 
L -167.408964 490.430484 
L -253.767867 490.430484 
L -253.767867 576.789387 
L -167.408964 576.789387 
" clip-path="url(#pa20ac0bb25)" style="fill: #8c8c8c; stroke: #ffffff"/>
    <path d="M -81.050061 576.789387 
L -81.050061 490.430484 
L -167.408964 490.430484 
L -167.408964 576.789387 
L -81.050061 576.789387 
" clip-path="url(#pa20ac0bb25)" style="fill: #8c8c8c; stroke: #ffffff"/>
    <path d="M -81.050061 490.430484 
L -81.050061 404.071581 
L -167.408964 404.071581 
L -167.408964 490.430484 
L -81.050061 490.430484 
" clip-path="url(#pa20ac0bb25)" style="fill: #8c8c8c; stroke: #ffffff"/>
    <path d="M -81.050061 404.071581 
L -81.050061 317.712678 
L -167.408964 317.712678 
L -167.408964 404.071581 
L -81.050061 404.071581 
" clip-path="url(#pa20ac0bb25)" style="fill: #8c8c8c; stroke: #ffffff"/>
    <path d="M -81.050061 231.353775 
L -81.050061 144.994872 
L -167.408964 144.994872 
L -167.408964 231.353775 
L -81.050061 231.353775 
" clip-path="url(#pa20ac0bb25)" style="fill: #8c8c8c; stroke: #ffffff"/>
    <path d="M -81.050061 144.994872 
L -81.050061 58.635968 
L -167.408964 58.635968 
L -167.408964 144.994872 
L -81.050061 144.994872 
" clip-path="url(#pa20ac0bb25)" style="fill: #8c8c8c; stroke: #ffffff"/>
    <path d="M -81.050061 58.635968 
L -81.050061 -27.722935 
L -167.408964 -27.722935 
L -167.408964 58.635968 
L -81.050061 58.635968 
" clip-path="url(#pa20ac0bb25)" style="fill: #8c8c8c; stroke: #ffffff"/>
    <path d="M -253.767867 -27.722935 
L -81.050061 -27.722935 
L -81.050061 -114.081838 
L -253.767867 -114.081838 
L -253.767867 -27.722935 
" clip-path="url(#pa20ac0bb25)" style="fill: #8c8c8c; stroke: #ffffff"/>
    <path d="M -253.767867 -27.722935 
L -253.767867 -114.081838 
L -340.12677 -114.081838 
L -340.12677 -27.722935 
L -253.767867 -27.722935 
" clip-path="url(#pa20ac0bb25)" style="fill: #8c8c8c; stroke: #ffffff"/>
    <path d="M -340.12677 -27.722935 
L -340.12677 -114.081838 
L -426.485673 -114.081838 
L -426.485673 -27.722935 
L -340.12677 -27.722935 
" clip-path="url(#pa20ac0bb25)" style="fill: #8c8c8c; stroke: #ffffff"/>
    <path d="M -512.844576 -27.722935 
L -512.844576 -114.081838 
L -599.20348 -114.081838 
L -599.20348 -27.722935 
L -512.844576 -27.722935 
" clip-path="url(#pa20ac0bb25)" style="fill: #8c8c8c; stroke: #ffffff"/>
    <path d="M -599.20348 -27.722935 
L -599.20348 -114.081838 
L -685.562383 -114.081838 
L -685.562383 -27.722935 
L -599.20348 -27.722935 
" clip-path="url(#pa20ac0bb25)" style="fill: #8c8c8c; stroke: #ffffff"/>
    <path d="M -685.562383 -27.722935 
L -685.562383 -114.081838 
L -771.921286 -114.081838 
L -771.921286 -27.722935 
L -685.562383 -27.722935 
" clip-path="url(#pa20ac0bb25)" style="fill: #8c8c8c; stroke: #ffffff"/>
    <path d="M -685.562383 58.635968 
L -685.562383 -27.722935 
L -771.921286 -27.722935 
L -771.921286 58.635968 
L -685.562383 58.635968 
" clip-path="url(#pa20ac0bb25)" style="fill: #8c8c8c; stroke: #ffffff"/>
    <path d="M -685.562383 144.994872 
L -685.562383 58.635968 
L -771.921286 58.635968 
L -771.921286 144.994872 
L -685.562383 144.994872 
" clip-path="url(#pa20ac0bb25)" style="fill: #8c8c8c; stroke: #ffffff"/>
    <path d="M -771.921286 404.071581 
L -685.562383 404.071581 
L -685.562383 231.353775 
L -771.921286 231.353775 
L -771.921286 404.071581 
" clip-path="url(#pa20ac0bb25)" style="fill: #8c8c8c; stroke: #ffffff"/>
    <path d="M -1030.997995 835.866097 
L -944.639092 835.866097 
L -944.639092 663.148291 
L -1030.997995 663.148291 
L -1030.997995 835.866097 
" clip-path="url(#pa20ac0bb25)" style="fill: #8c8c8c; stroke: #ffffff"/>
    <path d="M -944.639092 835.866097 
L -858.280189 835.866097 
L -858.280189 663.148291 
L -944.639092 663.148291 
L -944.639092 835.866097 
" clip-path="url(#pa20ac0bb25)" style="fill: #8c8c8c; stroke: #ffffff"/>
    <path d="M -685.562383 835.866097 
L -685.562383 663.148291 
L -858.280189 663.148291 
L -858.280189 835.866097 
L -685.562383 835.866097 
" clip-path="url(#pa20ac0bb25)" style="fill: #8c8c8c; stroke: #ffffff"/>
    <path d="M -512.844576 835.866097 
L -512.844576 663.148291 
L -685.562383 663.148291 
L -685.562383 835.866097 
L -512.844576 835.866097 
" clip-path="url(#pa20ac0bb25)" style="fill: #8c8c8c; stroke: #ffffff"/>
    <path d="M -167.408964 749.507194 
L -167.408964 663.148291 
L -426.485673 663.148291 
L -426.485673 749.507194 
L -167.408964 749.507194 
" clip-path="url(#pa20ac0bb25)" style="fill: #8c8c8c; stroke: #ffffff"/>
    <path d="M -167.408964 835.866097 
L -167.408964 749.507194 
L -426.485673 749.507194 
L -426.485673 835.866097 
L -167.408964 835.866097 
" clip-path="url(#pa20ac0bb25)" style="fill: #8c8c8c; stroke: #ffffff"/>
    <path d="M 91.667746 835.866097 
L 91.667746 663.148291 
L -167.408964 663.148291 
L -167.408964 835.866097 
L 91.667746 835.866097 
" clip-path="url(#pa20ac0bb25)" style="fill: #8c8c8c; stroke: #ffffff"/>
    <path d="M 178.026649 835.866097 
L 178.026649 663.148291 
L 91.667746 663.148291 
L 91.667746 835.866097 
L 178.026649 835.866097 
" clip-path="url(#pa20ac0bb25)" style="fill: #8c8c8c; stroke: #ffffff"/>
    <path d="M 178.026649 663.148291 
L 178.026649 490.430484 
L 5.308843 490.430484 
L 5.308843 663.148291 
L 178.026649 663.148291 
" clip-path="url(#pa20ac0bb25)" style="fill: #8c8c8c; stroke: #ffffff"/>
    <path d="M 91.667746 490.430484 
L 91.667746 317.712678 
L 5.308843 317.712678 
L 5.308843 490.430484 
L 91.667746 490.430484 
" clip-path="url(#pa20ac0bb25)" style="fill: #8c8c8c; stroke: #ffffff"/>
    <path d="M 178.026649 490.430484 
L 178.026649 317.712678 
L 91.667746 317.712678 
L 91.667746 490.430484 
L 178.026649 490.430484 
" clip-path="url(#pa20ac0bb25)" style="fill: #8c8c8c; stroke: #ffffff"/>
    <path d="M 178.026649 317.712678 
L 178.026649 144.994872 
L 5.308843 144.994872 
L 5.308843 317.712678 
L 178.026649 317.712678 
" clip-path="url(#pa20ac0bb25)" style="fill: #8c8c8c; stroke: #ffffff"/>
    <path d="M 178.026649 58.635968 
L 178.026649 -114.081838 
L 5.308843 -114.081838 
L 5.308843 58.635968 
L 178.026649 58.635968 
" clip-path="url(#pa20ac0bb25)" style="fill: #8c8c8c; stroke: #ffffff"/>
    <path d="M 178.026649 -114.081838 
L 178.026649 -200.440741 
L 5.308843 -200.440741 
L 5.308843 -114.081838 
L 178.026649 -114.081838 
" clip-path="url(#pa20ac0bb25)" style="fill: #8c8c8c; stroke: #ffffff"/>
    <path d="M 178.026649 -200.440741 
L 178.026649 -286.799644 
L -81.050061 -286.799644 
L -81.050061 -200.440741 
L 178.026649 -200.440741 
" clip-path="url(#pa20ac0bb25)" style="fill: #8c8c8c; stroke: #ffffff"/>
    <path d="M -81.050061 -200.440741 
L -81.050061 -286.799644 
L -167.408964 -286.799644 
L -167.408964 -200.440741 
L -81.050061 -200.440741 
" clip-path="url(#pa20ac0bb25)" style="fill: #8c8c8c; stroke: #ffffff"/>
    <path d="M 178.026649 -286.799644 
L 178.026649 -373.158548 
L 5.308843 -373.158548 
L 5.308843 -286.799644 
L 178.026649 -286.799644 
" clip-path="url(#pa20ac0bb25)" style="fill: #8c8c8c; stroke: #ffffff"/>
    <path d="M 5.308843 -286.799644 
L 5.308843 -373.158548 
L -167.408964 -373.158548 
L -167.408964 -286.799644 
L 5.308843 -286.799644 
" clip-path="url(#pa20ac0bb25)" style="fill: #8c8c8c; stroke: #ffffff"/>
    <path d="M -167.408964 -200.440741 
L -167.408964 -373.158548 
L -340.12677 -373.158548 
L -340.12677 -200.440741 
L -167.408964 -200.440741 
" clip-path="url(#pa20ac0bb25)" style="fill: #8c8c8c; stroke: #ffffff"/>
    <path d="M -340.12677 -286.799644 
L -340.12677 -373.158548 
L -512.844576 -373.158548 
L -512.844576 -286.799644 
L -340.12677 -286.799644 
" clip-path="url(#pa20ac0bb25)" style="fill: #8c8c8c; stroke: #ffffff"/>
    <path d="M -340.12677 -200.440741 
L -340.12677 -286.799644 
L -512.844576 -286.799644 
L -512.844576 -200.440741 
L -340.12677 -200.440741 
" clip-path="url(#pa20ac0bb25)" style="fill: #8c8c8c; stroke: #ffffff"/>
    <path d="M -599.20348 -200.440741 
L -599.20348 -373.158548 
L -771.921286 -373.158548 
L -771.921286 -200.440741 
L -599.20348 -200.440741 
" clip-path="url(#pa20ac0bb25)" style="fill: #8c8c8c; stroke: #ffffff"/>
    <path d="M -771.921286 -286.799644 
L -771.921286 -373.158548 
L -944.639092 -373.158548 
L -944.639092 -286.799644 
L -771.921286 -286.799644 
" clip-path="url(#pa20ac0bb25)" style="fill: #8c8c8c; stroke: #ffffff"/>
    <path d="M -771.921286 -200.440741 
L -771.921286 -286.799644 
L -944.639092 -286.799644 
L -944.639092 -200.440741 
L -771.921286 -200.440741 
" clip-path="url(#pa20ac0bb25)" style="fill: #8c8c8c; stroke: #ffffff"/>
    <path d="M -1030.997995 -200.440741 
L -944.639092 -200.440741 
L -944.639092 -373.158548 
L -1030.997995 -373.158548 
L -1030.997995 -200.440741 
" clip-path="url(#pa20ac0bb25)" style="fill: #8c8c8c; stroke: #ffffff"/>
    <path d="M -858.280189 58.635968 
L -858.280189 -200.440741 
L -1030.997995 -200.440741 
L -1030.997995 58.635968 
L -858.280189 58.635968 
" clip-path="url(#pa20ac0bb25)" style="fill: #8c8c8c; stroke: #ffffff"/>
    <path d="M -858.280189 144.994872 
L -858.280189 58.635968 
L -1030.997995 58.635968 
L -1030.997995 144.994872 
L -858.280189 144.994872 
" clip-path="url(#pa20ac0bb25)" style="fill: #8c8c8c; stroke: #ffffff"/>
    <path d="M -1030.997995 404.071581 
L -944.639092 404.071581 
L -944.639092 231.353775 
L -1030.997995 231.353775 
L -1030.997995 404.071581 
" clip-path="url(#pa20ac0bb25)" style="fill: #8c8c8c; stroke: #ffffff"/>
    <path d="M -944.639092 404.071581 
L -858.280189 404.071581 
L -858.280189 231.353775 
L -944.639092 231.353775 
L -944.639092 404.071581 
" clip-path="url(#pa20ac0bb25)" style="fill: #8c8c8c; stroke: #ffffff"/>
    <path d="M -1030.997995 490.430484 
L -858.280189 490.430484 
L -858.280189 404.071581 
L -1030.997995 404.071581 
L -1030.997995 490.430484 
" clip-path="url(#pa20ac0bb25)" style="fill: #8c8c8c; stroke: #ffffff"/>
    <path d="M -858.280189 663.148291 
L -858.280189 490.430484 
L -1030.997995 490.430484 
L -1030.997995 663.148291 
L -858.280189 663.148291 
" clip-path="url(#pa20ac0bb25)" style="fill: #8c8c8c; stroke: #ffffff"/>
    <path d="M -1117.356899 1094.942806 
L -1117.356899 922.225 
L -1290.074705 922.225 
L -1290.074705 1094.942806 
L -1117.356899 1094.942806 
" clip-path="url(#pa20ac0bb25)" style="fill: #8c8c8c; stroke: #ffffff"/>
    <path d="M -944.639092 1094.942806 
L -944.639092 922.225 
L -1117.356899 922.225 
L -1117.356899 1094.942806 
L -944.639092 1094.942806 
" clip-path="url(#pa20ac0bb25)" style="fill: #8c8c8c; stroke: #ffffff"/>
    <path d="M -858.280189 1094.942806 
L -858.280189 1008.583903 
L -944.639092 1008.583903 
L -944.639092 1094.942806 
L -858.280189 1094.942806 
" clip-path="url(#pa20ac0bb25)" style="fill: #8c8c8c; stroke: #ffffff"/>
    <path d="M -858.280189 1008.583903 
L -858.280189 922.225 
L -944.639092 922.225 
L -944.639092 1008.583903 
L -858.280189 1008.583903 
" clip-path="url(#pa20ac0bb25)" style="fill: #8c8c8c; stroke: #ffffff"/>
    <path d="M -685.562383 1094.942806 
L -685.562383 1008.583903 
L -858.280189 1008.583903 
L -858.280189 1094.942806 
L -685.562383 1094.942806 
" clip-path="url(#pa20ac0bb25)" style="fill: #8c8c8c; stroke: #ffffff"/>
    <path d="M -685.562383 1008.583903 
L -685.562383 922.225 
L -858.280189 922.225 
L -858.280189 1008.583903 
L -685.562383 1008.583903 
" clip-path="url(#pa20ac0bb25)" style="fill: #8c8c8c; stroke: #ffffff"/>
    <path d="M -512.844576 1094.942806 
L -512.844576 922.225 
L -599.20348 922.225 
L -599.20348 1094.942806 
L -512.844576 1094.942806 
" clip-path="url(#pa20ac0bb25)" style="fill: #8c8c8c; stroke: #ffffff"/>
    <path d="M -253.767867 1094.942806 
L -253.767867 922.225 
L -512.844576 922.225 
L -512.844576 1094.942806 
L -253.767867 1094.942806 
" clip-path="url(#pa20ac0bb25)" style="fill: #8c8c8c; stroke: #ffffff"/>
    <path d="M -81.050061 1094.942806 
L -81.050061 922.225 
L -253.767867 922.225 
L -253.767867 1094.942806 
L -81.050061 1094.942806 
" clip-path="url(#pa20ac0bb25)" style="fill: #8c8c8c; stroke: #ffffff"/>
    <path d="M 5.308843 1008.583903 
L 5.308843 922.225 
L -81.050061 922.225 
L -81.050061 1008.583903 
L 5.308843 1008.583903 
" clip-path="url(#pa20ac0bb25)" style="fill: #8c8c8c; stroke: #ffffff"/>
    <path d="M 91.667746 1008.583903 
L 91.667746 922.225 
L 5.308843 922.225 
L 5.308843 1008.583903 
L 91.667746 1008.583903 
" clip-path="url(#pa20ac0bb25)" style="fill: #8c8c8c; stroke: #ffffff"/>
    <path d="M 5.308843 1094.942806 
L 5.308843 1008.583903 
L -81.050061 1008.583903 
L -81.050061 1094.942806 
L 5.308843 1094.942806 
" clip-path="url(#pa20ac0bb25)" style="fill: #8c8c8c; stroke: #ffffff"/>
    <path d="M 91.667746 1094.942806 
L 91.667746 1008.583903 
L 5.308843 1008.583903 
L 5.308843 1094.942806 
L 91.667746 1094.942806 
" clip-path="url(#pa20ac0bb25)" style="fill: #8c8c8c; stroke: #ffffff"/>
    <path d="M 264.385552 1008.583903 
L 264.385552 922.225 
L 91.667746 922.225 
L 91.667746 1008.583903 
L 264.385552 1008.583903 
" clip-path="url(#pa20ac0bb25)" style="fill: #8c8c8c; stroke: #ffffff"/>
    <path d="M 264.385552 1094.942806 
L 264.385552 1008.583903 
L 91.667746 1008.583903 
L 91.667746 1094.942806 
L 264.385552 1094.942806 
" clip-path="url(#pa20ac0bb25)" style="fill: #8c8c8c; stroke: #ffffff"/>
    <path d="M 437.103358 1094.942806 
L 437.103358 1008.583903 
L 264.385552 1008.583903 
L 264.385552 1094.942806 
L 437.103358 1094.942806 
" clip-path="url(#pa20ac0bb25)" style="fill: #8c8c8c; stroke: #ffffff"/>
    <path d="M 437.103358 1008.583903 
L 437.103358 835.866097 
L 264.385552 835.866097 
L 264.385552 1008.583903 
L 437.103358 1008.583903 
" clip-path="url(#pa20ac0bb25)" style="fill: #8c8c8c; stroke: #ffffff"/>
    <path d="M 437.103358 835.866097 
L 437.103358 663.148291 
L 264.385552 663.148291 
L 264.385552 835.866097 
L 437.103358 835.866097 
" clip-path="url(#pa20ac0bb25)" style="fill: #8c8c8c; stroke: #ffffff"/>
    <path d="M 350.744455 663.148291 
L 350.744455 490.430484 
L 264.385552 490.430484 
L 264.385552 663.148291 
L 350.744455 663.148291 
" clip-path="url(#pa20ac0bb25)" style="fill: #8c8c8c; stroke: #ffffff"/>
    <path d="M 437.103358 663.148291 
L 437.103358 490.430484 
L 350.744455 490.430484 
L 350.744455 663.148291 
L 437.103358 663.148291 
" clip-path="url(#pa20ac0bb25)" style="fill: #8c8c8c; stroke: #ffffff"/>
    <path d="M 437.103358 404.071581 
L 437.103358 231.353775 
L 264.385552 231.353775 
L 264.385552 404.071581 
L 437.103358 404.071581 
" clip-path="url(#pa20ac0bb25)" style="fill: #8c8c8c; stroke: #ffffff"/>
    <path d="M 437.103358 231.353775 
L 437.103358 58.635968 
L 264.385552 58.635968 
L 264.385552 231.353775 
L 437.103358 231.353775 
" clip-path="url(#pa20ac0bb25)" style="fill: #8c8c8c; stroke: #ffffff"/>
    <path d="M 350.744455 58.635968 
L 350.744455 -114.081838 
L 264.385552 -114.081838 
L 264.385552 58.635968 
L 350.744455 58.635968 
" clip-path="url(#pa20ac0bb25)" style="fill: #8c8c8c; stroke: #ffffff"/>
    <path d="M 437.103358 58.635968 
L 437.103358 -114.081838 
L 350.744455 -114.081838 
L 350.744455 58.635968 
L 437.103358 58.635968 
" clip-path="url(#pa20ac0bb25)" style="fill: #8c8c8c; stroke: #ffffff"/>
    <path d="M 437.103358 -114.081838 
L 437.103358 -286.799644 
L 264.385552 -286.799644 
L 264.385552 -114.081838 
L 437.103358 -114.081838 
" clip-path="url(#pa20ac0bb25)" style="fill: #8c8c8c; stroke: #ffffff"/>
    <path d="M 437.103358 -286.799644 
L 437.103358 -459.517451 
L 264.385552 -459.517451 
L 264.385552 -286.799644 
L 437.103358 -286.799644 
" clip-path="url(#pa20ac0bb25)" style="fill: #8c8c8c; stroke: #ffffff"/>
    <path d="M 437.103358 -459.517451 
L 437.103358 -545.876354 
L 264.385552 -545.876354 
L 264.385552 -459.517451 
L 437.103358 -459.517451 
" clip-path="url(#pa20ac0bb25)" style="fill: #8c8c8c; stroke: #ffffff"/>
    <path d="M 437.103358 -545.876354 
L 437.103358 -632.235257 
L 264.385552 -632.235257 
L 264.385552 -545.876354 
L 437.103358 -545.876354 
" clip-path="url(#pa20ac0bb25)" style="fill: #8c8c8c; stroke: #ffffff"/>
    <path d="M 178.026649 -459.517451 
L 178.026649 -632.235257 
L 91.667746 -632.235257 
L 91.667746 -459.517451 
L 178.026649 -459.517451 
" clip-path="url(#pa20ac0bb25)" style="fill: #8c8c8c; stroke: #ffffff"/>
    <path d="M 91.667746 -459.517451 
L 91.667746 -632.235257 
L 5.308843 -632.235257 
L 5.308843 -459.517451 
L 91.667746 -459.517451 
" clip-path="url(#pa20ac0bb25)" style="fill: #8c8c8c; stroke: #ffffff"/>
    <path d="M 5.308843 -459.517451 
L 5.308843 -545.876354 
L -253.767867 -545.876354 
L -253.767867 -459.517451 
L 5.308843 -459.517451 
" clip-path="url(#pa20ac0bb25)" style="fill: #8c8c8c; stroke: #ffffff"/>
    <path d="M 5.308843 -545.876354 
L 5.308843 -632.235257 
L -167.408964 -632.235257 
L -167.408964 -545.876354 
L 5.308843 -545.876354 
" clip-path="url(#pa20ac0bb25)" style="fill: #8c8c8c; stroke: #ffffff"/>
    <path d="M -167.408964 -545.876354 
L -167.408964 -632.235257 
L -340.12677 -632.235257 
L -340.12677 -545.876354 
L -167.408964 -545.876354 
" clip-path="url(#pa20ac0bb25)" style="fill: #8c8c8c; stroke: #ffffff"/>
    <path d="M -253.767867 -459.517451 
L -253.767867 -545.876354 
L -340.12677 -545.876354 
L -340.12677 -459.517451 
L -253.767867 -459.517451 
" clip-path="url(#pa20ac0bb25)" style="fill: #8c8c8c; stroke: #ffffff"/>
    <path d="M -340.12677 -459.517451 
L -340.12677 -632.235257 
L -512.844576 -632.235257 
L -512.844576 -459.517451 
L -340.12677 -459.517451 
" clip-path="url(#pa20ac0bb25)" style="fill: #8c8c8c; stroke: #ffffff"/>
    <path d="M -512.844576 -459.517451 
L -512.844576 -545.876354 
L -685.562383 -545.876354 
L -685.562383 -459.517451 
L -512.844576 -459.517451 
" clip-path="url(#pa20ac0bb25)" style="fill: #8c8c8c; stroke: #ffffff"/>
    <path d="M -512.844576 -545.876354 
L -512.844576 -632.235257 
L -685.562383 -632.235257 
L -685.562383 -545.876354 
L -512.844576 -545.876354 
" clip-path="url(#pa20ac0bb25)" style="fill: #8c8c8c; stroke: #ffffff"/>
    <path d="M -771.921286 -459.517451 
L -771.921286 -632.235257 
L -944.639092 -632.235257 
L -944.639092 -459.517451 
L -771.921286 -459.517451 
" clip-path="url(#pa20ac0bb25)" style="fill: #8c8c8c; stroke: #ffffff"/>
    <path d="M -944.639092 -545.876354 
L -944.639092 -632.235257 
L -1117.356899 -632.235257 
L -1117.356899 -545.876354 
L -944.639092 -545.876354 
" clip-path="url(#pa20ac0bb25)" style="fill: #8c8c8c; stroke: #ffffff"/>
    <path d="M -944.639092 -459.517451 
L -944.639092 -545.876354 
L -1117.356899 -545.876354 
L -1117.356899 -459.517451 
L -944.639092 -459.517451 
" clip-path="url(#pa20ac0bb25)" style="fill: #8c8c8c; stroke: #ffffff"/>
    <path d="M -1117.356899 -459.517451 
L -1117.356899 -632.235257 
L -1203.715802 -632.235257 
L -1203.715802 -459.517451 
L -1117.356899 -459.517451 
" clip-path="url(#pa20ac0bb25)" style="fill: #8c8c8c; stroke: #ffffff"/>
    <path d="M -1203.715802 -459.517451 
L -1203.715802 -632.235257 
L -1290.074705 -632.235257 
L -1290.074705 -459.517451 
L -1203.715802 -459.517451 
" clip-path="url(#pa20ac0bb25)" style="fill: #8c8c8c; stroke: #ffffff"/>
    <path d="M -1117.356899 -200.440741 
L -1117.356899 -373.158548 
L -1290.074705 -373.158548 
L -1290.074705 -200.440741 
L -1117.356899 -200.440741 
" clip-path="url(#pa20ac0bb25)" style="fill: #8c8c8c; stroke: #ffffff"/>
    <path d="M -1117.356899 -114.081838 
L -1117.356899 -200.440741 
L -1290.074705 -200.440741 
L -1290.074705 -114.081838 
L -1117.356899 -114.081838 
" clip-path="url(#pa20ac0bb25)" style="fill: #8c8c8c; stroke: #ffffff"/>
    <path d="M -1117.356899 -27.722935 
L -1117.356899 -114.081838 
L -1290.074705 -114.081838 
L -1290.074705 -27.722935 
L -1117.356899 -27.722935 
" clip-path="url(#pa20ac0bb25)" style="fill: #8c8c8c; stroke: #ffffff"/>
    <path d="M -1117.356899 144.994872 
L -1117.356899 -27.722935 
L -1290.074705 -27.722935 
L -1290.074705 144.994872 
L -1117.356899 144.994872 
" clip-path="url(#pa20ac0bb25)" style="fill: #8c8c8c; stroke: #ffffff"/>
    <path d="M -1117.356899 231.353775 
L -1117.356899 144.994872 
L -1290.074705 144.994872 
L -1290.074705 231.353775 
L -1117.356899 231.353775 
" clip-path="url(#pa20ac0bb25)" style="fill: #8c8c8c; stroke: #ffffff"/>
    <path d="M -1117.356899 317.712678 
L -1117.356899 231.353775 
L -1290.074705 231.353775 
L -1290.074705 317.712678 
L -1117.356899 317.712678 
" clip-path="url(#pa20ac0bb25)" style="fill: #8c8c8c; stroke: #ffffff"/>
    <path d="M -1117.356899 490.430484 
L -1117.356899 317.712678 
L -1290.074705 317.712678 
L -1290.074705 490.430484 
L -1117.356899 490.430484 
" clip-path="url(#pa20ac0bb25)" style="fill: #8c8c8c; stroke: #ffffff"/>
    <path d="M -1117.356899 576.789387 
L -1117.356899 490.430484 
L -1290.074705 490.430484 
L -1290.074705 576.789387 
L -1117.356899 576.789387 
" clip-path="url(#pa20ac0bb25)" style="fill: #8c8c8c; stroke: #ffffff"/>
    <path d="M -1203.715802 835.866097 
L -1203.715802 576.789387 
L -1290.074705 576.789387 
L -1290.074705 835.866097 
L -1203.715802 835.866097 
" clip-path="url(#pa20ac0bb25)" style="fill: #8c8c8c; stroke: #ffffff"/>
    <path d="M -1117.356899 663.148291 
L -1117.356899 576.789387 
L -1203.715802 576.789387 
L -1203.715802 663.148291 
L -1117.356899 663.148291 
" clip-path="url(#pa20ac0bb25)" style="fill: #8c8c8c; stroke: #ffffff"/>
    <path d="M -1117.356899 749.507194 
L -1117.356899 663.148291 
L -1203.715802 663.148291 
L -1203.715802 749.507194 
L -1117.356899 749.507194 
" clip-path="url(#pa20ac0bb25)" style="fill: #8c8c8c; stroke: #ffffff"/>
    <path d="M -1117.356899 835.866097 
L -1117.356899 749.507194 
L -1203.715802 749.507194 
L -1203.715802 835.866097 
L -1117.356899 835.866097 
" clip-path="url(#pa20ac0bb25)" style="fill: #8c8c8c; stroke: #ffffff"/>
   </g>
   <g id="PatchCollection_2">
    <path d="M 86.330511 267.341806 
L 86.288927 268.188272 
L 86.164575 269.026585 
L 85.958653 269.848673 
L 85.673143 270.646618 
L 85.310796 271.412737 
L 84.875101 272.13965 
L 84.370255 272.820357 
L 83.801118 273.448303 
L 83.173172 274.01744 
L 82.492465 274.522287 
L 81.765552 274.957982 
L 80.999433 275.320329 
L 80.201488 275.605838 
L 79.3794 275.81176 
L 78.541086 275.936112 
L 77.694621 275.977697 
L 76.848156 275.936112 
L 76.009842 275.81176 
L 75.187754 275.605838 
L 74.389809 275.320329 
L 73.623691 274.957982 
L 72.896778 274.522287 
L 72.21607 274.01744 
L 71.588125 273.448303 
L 71.018988 272.820357 
L 70.514141 272.13965 
L 70.078446 271.412737 
L 69.716099 270.646618 
L 69.430589 269.848673 
L 69.224667 269.026585 
L 69.100315 268.188272 
L 69.058731 267.341806 
L 69.100315 266.495341 
L 69.224667 265.657028 
L 69.430589 264.83494 
L 69.716099 264.036994 
L 70.078446 263.270876 
L 70.514141 262.543963 
L 71.018988 261.863255 
L 71.588125 261.23531 
L 72.21607 260.666173 
L 72.896778 260.161326 
L 73.623691 259.725631 
L 74.389809 259.363284 
L 75.187754 259.077774 
L 76.009842 258.871852 
L 76.848156 258.7475 
L 77.694621 258.705916 
L 78.541086 258.7475 
L 79.3794 258.871852 
L 80.201488 259.077774 
L 80.999433 259.363284 
L 81.765552 259.725631 
L 82.492465 260.161326 
L 83.173172 260.666173 
L 83.801118 261.23531 
L 84.370255 261.863255 
L 84.875101 262.543963 
L 85.310796 263.270876 
L 85.673143 264.036994 
L 85.958653 264.83494 
L 86.164575 265.657028 
L 86.288927 266.495341 
L 86.330511 267.341806 
" clip-path="url(#pa20ac0bb25)" style="fill: none; stroke: #808080; stroke-opacity: 0.01; stroke-width: 2"/>
    <path d="M 102.178455 304.869579 
L 102.136871 305.716044 
L 102.012519 306.554358 
L 101.806597 307.376446 
L 101.521087 308.174391 
L 101.15874 308.940509 
L 100.723045 309.667423 
L 100.218199 310.34813 
L 99.649062 310.976076 
L 99.021116 311.545212 
L 98.340409 312.050059 
L 97.613496 312.485754 
L 96.847377 312.848101 
L 96.049432 313.133611 
L 95.227344 313.339533 
L 94.38903 313.463885 
L 93.542565 313.505469 
L 92.6961 313.463885 
L 91.857786 313.339533 
L 91.035698 313.133611 
L 90.237753 312.848101 
L 89.471635 312.485754 
L 88.744722 312.050059 
L 88.064014 311.545212 
L 87.436069 310.976076 
L 86.866932 310.34813 
L 86.362085 309.667423 
L 85.92639 308.940509 
L 85.564043 308.174391 
L 85.278533 307.376446 
L 85.072611 306.554358 
L 84.948259 305.716044 
L 84.906675 304.869579 
L 84.948259 304.023114 
L 85.072611 303.1848 
L 85.278533 302.362712 
L 85.564043 301.564767 
L 85.92639 300.798648 
L 86.362085 300.071735 
L 86.866932 299.391028 
L 87.436069 298.763082 
L 88.064014 298.193945 
L 88.744722 297.689099 
L 89.471635 297.253404 
L 90.237753 296.891057 
L 91.035698 296.605547 
L 91.857786 296.399625 
L 92.6961 296.275273 
L 93.542565 296.233689 
L 94.38903 296.275273 
L 95.227344 296.399625 
L 96.049432 296.605547 
L 96.847377 296.891057 
L 97.613496 297.253404 
L 98.340409 297.689099 
L 99.021116 298.193945 
L 99.649062 298.763082 
L 100.218199 299.391028 
L 100.723045 300.071735 
L 101.15874 300.798648 
L 101.521087 301.564767 
L 101.806597 302.362712 
L 102.012519 303.1848 
L 102.136871 304.023114 
L 102.178455 304.869579 
" clip-path="url(#pa20ac0bb25)" style="fill: none; stroke: #808080; stroke-opacity: 0.01; stroke-width: 2"/>
    <path d="M 109.94868 262.614307 
L 109.907096 263.460772 
L 109.782744 264.299085 
L 109.576822 265.121173 
L 109.291312 265.919119 
L 108.928965 266.685237 
L 108.49327 267.41215 
L 107.988423 268.092858 
L 107.419286 268.720803 
L 106.791341 269.28994 
L 106.110633 269.794787 
L 105.38372 270.230482 
L 104.617602 270.592829 
L 103.819657 270.878339 
L 102.997569 271.084261 
L 102.159255 271.208613 
L 101.31279 271.250197 
L 100.466325 271.208613 
L 99.628011 271.084261 
L 98.805923 270.878339 
L 98.007978 270.592829 
L 97.241859 270.230482 
L 96.514946 269.794787 
L 95.834239 269.28994 
L 95.206293 268.720803 
L 94.637156 268.092858 
L 94.13231 267.41215 
L 93.696615 266.685237 
L 93.334268 265.919119 
L 93.048758 265.121173 
L 92.842836 264.299085 
L 92.718484 263.460772 
L 92.6769 262.614307 
L 92.718484 261.767841 
L 92.842836 260.929528 
L 93.048758 260.10744 
L 93.334268 259.309495 
L 93.696615 258.543376 
L 94.13231 257.816463 
L 94.637156 257.135756 
L 95.206293 256.50781 
L 95.834239 255.938673 
L 96.514946 255.433826 
L 97.241859 254.998131 
L 98.007978 254.635784 
L 98.805923 254.350275 
L 99.628011 254.144353 
L 100.466325 254.020001 
L 101.31279 253.978416 
L 102.159255 254.020001 
L 102.997569 254.144353 
L 103.819657 254.350275 
L 104.617602 254.635784 
L 105.38372 254.998131 
L 106.110633 255.433826 
L 106.791341 255.938673 
L 107.419286 256.50781 
L 107.988423 257.135756 
L 108.49327 257.816463 
L 108.928965 258.543376 
L 109.291312 259.309495 
L 109.576822 260.10744 
L 109.782744 260.929528 
L 109.907096 261.767841 
L 109.94868 262.614307 
" clip-path="url(#pa20ac0bb25)" style="fill: none; stroke: #808080; stroke-opacity: 0.01; stroke-width: 2"/>
    <path d="M 58.36269 296.634397 
L 58.321106 297.480862 
L 58.196754 298.319176 
L 57.990831 299.141264 
L 57.705322 299.939209 
L 57.342975 300.705328 
L 56.90728 301.432241 
L 56.402433 302.112948 
L 55.833296 302.740894 
L 55.20535 303.310031 
L 54.524643 303.814877 
L 53.79773 304.250572 
L 53.031612 304.612919 
L 52.233666 304.898429 
L 51.411578 305.104351 
L 50.573265 305.228703 
L 49.726799 305.270287 
L 48.880334 305.228703 
L 48.042021 305.104351 
L 47.219933 304.898429 
L 46.421987 304.612919 
L 45.655869 304.250572 
L 44.928956 303.814877 
L 44.248249 303.310031 
L 43.620303 302.740894 
L 43.051166 302.112948 
L 42.546319 301.432241 
L 42.110624 300.705328 
L 41.748277 299.939209 
L 41.462768 299.141264 
L 41.256845 298.319176 
L 41.132493 297.480862 
L 41.090909 296.634397 
L 41.132493 295.787932 
L 41.256845 294.949618 
L 41.462768 294.12753 
L 41.748277 293.329585 
L 42.110624 292.563467 
L 42.546319 291.836553 
L 43.051166 291.155846 
L 43.620303 290.5279 
L 44.248249 289.958764 
L 44.928956 289.453917 
L 45.655869 289.018222 
L 46.421987 288.655875 
L 47.219933 288.370365 
L 48.042021 288.164443 
L 48.880334 288.040091 
L 49.726799 287.998507 
L 50.573265 288.040091 
L 51.411578 288.164443 
L 52.233666 288.370365 
L 53.031612 288.655875 
L 53.79773 289.018222 
L 54.524643 289.453917 
L 55.20535 289.958764 
L 55.833296 290.5279 
L 56.402433 291.155846 
L 56.90728 291.836553 
L 57.342975 292.563467 
L 57.705322 293.329585 
L 57.990831 294.12753 
L 58.196754 294.949618 
L 58.321106 295.787932 
L 58.36269 296.634397 
" clip-path="url(#pa20ac0bb25)" style="fill: none; stroke: #808080; stroke-opacity: 0.01; stroke-width: 2"/>
    <path d="M 90.614672 229.615217 
L 90.573087 230.461682 
L 90.448735 231.299996 
L 90.242813 232.122084 
L 89.957304 232.920029 
L 89.594957 233.686147 
L 89.159262 234.41306 
L 88.654415 235.093768 
L 88.085278 235.721713 
L 87.457332 236.29085 
L 86.776625 236.795697 
L 86.049712 237.231392 
L 85.283593 237.593739 
L 84.485648 237.879249 
L 83.66356 238.085171 
L 82.825247 238.209523 
L 81.978781 238.251107 
L 81.132316 238.209523 
L 80.294003 238.085171 
L 79.471915 237.879249 
L 78.673969 237.593739 
L 77.907851 237.231392 
L 77.180938 236.795697 
L 76.50023 236.29085 
L 75.872285 235.721713 
L 75.303148 235.093768 
L 74.798301 234.41306 
L 74.362606 233.686147 
L 74.000259 232.920029 
L 73.714749 232.122084 
L 73.508827 231.299996 
L 73.384475 230.461682 
L 73.342891 229.615217 
L 73.384475 228.768752 
L 73.508827 227.930438 
L 73.714749 227.10835 
L 74.000259 226.310405 
L 74.362606 225.544286 
L 74.798301 224.817373 
L 75.303148 224.136666 
L 75.872285 223.50872 
L 76.50023 222.939583 
L 77.180938 222.434737 
L 77.907851 221.999042 
L 78.673969 221.636695 
L 79.471915 221.351185 
L 80.294003 221.145263 
L 81.132316 221.020911 
L 81.978781 220.979327 
L 82.825247 221.020911 
L 83.66356 221.145263 
L 84.485648 221.351185 
L 85.283593 221.636695 
L 86.049712 221.999042 
L 86.776625 222.434737 
L 87.457332 222.939583 
L 88.085278 223.50872 
L 88.654415 224.136666 
L 89.159262 224.817373 
L 89.594957 225.544286 
L 89.957304 226.310405 
L 90.242813 227.10835 
L 90.448735 227.930438 
L 90.573087 228.768752 
L 90.614672 229.615217 
" clip-path="url(#pa20ac0bb25)" style="fill: none; stroke: #808080; stroke-opacity: 0.01; stroke-width: 2"/>
    <path d="M 367.938852 260.809855 
L 367.897268 261.65632 
L 367.772916 262.494634 
L 367.566994 263.316722 
L 367.281484 264.114667 
L 366.919137 264.880786 
L 366.483442 265.607699 
L 365.978596 266.288406 
L 365.409459 266.916352 
L 364.781513 267.485489 
L 364.100806 267.990336 
L 363.373893 268.42603 
L 362.607774 268.788377 
L 361.809829 269.073887 
L 360.987741 269.279809 
L 360.149427 269.404161 
L 359.302962 269.445745 
L 358.456497 269.404161 
L 357.618184 269.279809 
L 356.796095 269.073887 
L 355.99815 268.788377 
L 355.232032 268.42603 
L 354.505119 267.990336 
L 353.824411 267.485489 
L 353.196466 266.916352 
L 352.627329 266.288406 
L 352.122482 265.607699 
L 351.686787 264.880786 
L 351.32444 264.114667 
L 351.03893 263.316722 
L 350.833008 262.494634 
L 350.708656 261.65632 
L 350.667072 260.809855 
L 350.708656 259.96339 
L 350.833008 259.125077 
L 351.03893 258.302989 
L 351.32444 257.505043 
L 351.686787 256.738925 
L 352.122482 256.012012 
L 352.627329 255.331304 
L 353.196466 254.703359 
L 353.824411 254.134222 
L 354.505119 253.629375 
L 355.232032 253.19368 
L 355.99815 252.831333 
L 356.796095 252.545823 
L 357.618184 252.339901 
L 358.456497 252.215549 
L 359.302962 252.173965 
L 360.149427 252.215549 
L 360.987741 252.339901 
L 361.809829 252.545823 
L 362.607774 252.831333 
L 363.373893 253.19368 
L 364.100806 253.629375 
L 364.781513 254.134222 
L 365.409459 254.703359 
L 365.978596 255.331304 
L 366.483442 256.012012 
L 366.919137 256.738925 
L 367.281484 257.505043 
L 367.566994 258.302989 
L 367.772916 259.125077 
L 367.897268 259.96339 
L 367.938852 260.809855 
" clip-path="url(#pa20ac0bb25)" style="fill: none; stroke: #808080; stroke-opacity: 0.01; stroke-width: 2"/>
    <path d="M 314.840391 205.108508 
L 314.798807 205.954973 
L 314.674455 206.793286 
L 314.468533 207.615374 
L 314.183023 208.41332 
L 313.820676 209.179438 
L 313.384981 209.906351 
L 312.880134 210.587058 
L 312.310997 211.215004 
L 311.683052 211.784141 
L 311.002344 212.288988 
L 310.275431 212.724683 
L 309.509313 213.08703 
L 308.711367 213.372539 
L 307.889279 213.578462 
L 307.050966 213.702814 
L 306.204501 213.744398 
L 305.358035 213.702814 
L 304.519722 213.578462 
L 303.697634 213.372539 
L 302.899689 213.08703 
L 302.13357 212.724683 
L 301.406657 212.288988 
L 300.72595 211.784141 
L 300.098004 211.215004 
L 299.528867 210.587058 
L 299.02402 209.906351 
L 298.588325 209.179438 
L 298.225978 208.41332 
L 297.940469 207.615374 
L 297.734547 206.793286 
L 297.610195 205.954973 
L 297.56861 205.108508 
L 297.610195 204.262042 
L 297.734547 203.423729 
L 297.940469 202.601641 
L 298.225978 201.803696 
L 298.588325 201.037577 
L 299.02402 200.310664 
L 299.528867 199.629957 
L 300.098004 199.002011 
L 300.72595 198.432874 
L 301.406657 197.928027 
L 302.13357 197.492332 
L 302.899689 197.129985 
L 303.697634 196.844476 
L 304.519722 196.638554 
L 305.358035 196.514202 
L 306.204501 196.472617 
L 307.050966 196.514202 
L 307.889279 196.638554 
L 308.711367 196.844476 
L 309.509313 197.129985 
L 310.275431 197.492332 
L 311.002344 197.928027 
L 311.683052 198.432874 
L 312.310997 199.002011 
L 312.880134 199.629957 
L 313.384981 200.310664 
L 313.820676 201.037577 
L 314.183023 201.803696 
L 314.468533 202.601641 
L 314.674455 203.423729 
L 314.798807 204.262042 
L 314.840391 205.108508 
" clip-path="url(#pa20ac0bb25)" style="fill: none; stroke: #808080; stroke-opacity: 0.01; stroke-width: 2"/>
    <path d="M 267.754788 150.95506 
L 267.713203 151.801525 
L 267.588851 152.639839 
L 267.382929 153.461927 
L 267.09742 154.259872 
L 266.735073 155.025991 
L 266.299378 155.752904 
L 265.794531 156.433611 
L 265.225394 157.061557 
L 264.597448 157.630694 
L 263.916741 158.13554 
L 263.189828 158.571235 
L 262.423709 158.933582 
L 261.625764 159.219092 
L 260.803676 159.425014 
L 259.965363 159.549366 
L 259.118897 159.59095 
L 258.272432 159.549366 
L 257.434119 159.425014 
L 256.612031 159.219092 
L 255.814085 158.933582 
L 255.047967 158.571235 
L 254.321054 158.13554 
L 253.640346 157.630694 
L 253.012401 157.061557 
L 252.443264 156.433611 
L 251.938417 155.752904 
L 251.502722 155.025991 
L 251.140375 154.259872 
L 250.854865 153.461927 
L 250.648943 152.639839 
L 250.524591 151.801525 
L 250.483007 150.95506 
L 250.524591 150.108595 
L 250.648943 149.270281 
L 250.854865 148.448193 
L 251.140375 147.650248 
L 251.502722 146.88413 
L 251.938417 146.157216 
L 252.443264 145.476509 
L 253.012401 144.848563 
L 253.640346 144.279427 
L 254.321054 143.77458 
L 255.047967 143.338885 
L 255.814085 142.976538 
L 256.612031 142.691028 
L 257.434119 142.485106 
L 258.272432 142.360754 
L 259.118897 142.31917 
L 259.965363 142.360754 
L 260.803676 142.485106 
L 261.625764 142.691028 
L 262.423709 142.976538 
L 263.189828 143.338885 
L 263.916741 143.77458 
L 264.597448 144.279427 
L 265.225394 144.848563 
L 265.794531 145.476509 
L 266.299378 146.157216 
L 266.735073 146.88413 
L 267.09742 147.650248 
L 267.382929 148.448193 
L 267.588851 149.270281 
L 267.713203 150.108595 
L 267.754788 150.95506 
" clip-path="url(#pa20ac0bb25)" style="fill: none; stroke: #808080; stroke-opacity: 0.01; stroke-width: 2"/>
    <path d="M 323.207677 170.08666 
L 323.166093 170.933126 
L 323.041741 171.771439 
L 322.835818 172.593527 
L 322.550309 173.391472 
L 322.187962 174.157591 
L 321.752267 174.884504 
L 321.24742 175.565211 
L 320.678283 176.193157 
L 320.050337 176.762294 
L 319.36963 177.267141 
L 318.642717 177.702836 
L 317.876599 178.065183 
L 317.078653 178.350692 
L 316.256565 178.556614 
L 315.418252 178.680966 
L 314.571786 178.722551 
L 313.725321 178.680966 
L 312.887008 178.556614 
L 312.06492 178.350692 
L 311.266974 178.065183 
L 310.500856 177.702836 
L 309.773943 177.267141 
L 309.093236 176.762294 
L 308.46529 176.193157 
L 307.896153 175.565211 
L 307.391306 174.884504 
L 306.955611 174.157591 
L 306.593264 173.391472 
L 306.307755 172.593527 
L 306.101832 171.771439 
L 305.97748 170.933126 
L 305.935896 170.08666 
L 305.97748 169.240195 
L 306.101832 168.401882 
L 306.307755 167.579794 
L 306.593264 166.781848 
L 306.955611 166.01573 
L 307.391306 165.288817 
L 307.896153 164.608109 
L 308.46529 163.980164 
L 309.093236 163.411027 
L 309.773943 162.90618 
L 310.500856 162.470485 
L 311.266974 162.108138 
L 312.06492 161.822628 
L 312.887008 161.616706 
L 313.725321 161.492354 
L 314.571786 161.45077 
L 315.418252 161.492354 
L 316.256565 161.616706 
L 317.078653 161.822628 
L 317.876599 162.108138 
L 318.642717 162.470485 
L 319.36963 162.90618 
L 320.050337 163.411027 
L 320.678283 163.980164 
L 321.24742 164.608109 
L 321.752267 165.288817 
L 322.187962 166.01573 
L 322.550309 166.781848 
L 322.835818 167.579794 
L 323.041741 168.401882 
L 323.166093 169.240195 
L 323.207677 170.08666 
" clip-path="url(#pa20ac0bb25)" style="fill: none; stroke: #808080; stroke-opacity: 0.01; stroke-width: 2"/>
    <path d="M 462.909091 132.825549 
L 462.867507 133.672015 
L 462.743155 134.510328 
L 462.537232 135.332416 
L 462.251723 136.130362 
L 461.889376 136.89648 
L 461.453681 137.623393 
L 460.948834 138.3041 
L 460.379697 138.932046 
L 459.751751 139.501183 
L 459.071044 140.00603 
L 458.344131 140.441725 
L 457.578013 140.804072 
L 456.780067 141.089581 
L 455.957979 141.295504 
L 455.119666 141.419856 
L 454.273201 141.46144 
L 453.426735 141.419856 
L 452.588422 141.295504 
L 451.766334 141.089581 
L 450.968388 140.804072 
L 450.20227 140.441725 
L 449.475357 140.00603 
L 448.79465 139.501183 
L 448.166704 138.932046 
L 447.597567 138.3041 
L 447.09272 137.623393 
L 446.657025 136.89648 
L 446.294678 136.130362 
L 446.009169 135.332416 
L 445.803246 134.510328 
L 445.678894 133.672015 
L 445.63731 132.825549 
L 445.678894 131.979084 
L 445.803246 131.140771 
L 446.009169 130.318683 
L 446.294678 129.520737 
L 446.657025 128.754619 
L 447.09272 128.027706 
L 447.597567 127.346999 
L 448.166704 126.719053 
L 448.79465 126.149916 
L 449.475357 125.645069 
L 450.20227 125.209374 
L 450.968388 124.847027 
L 451.766334 124.561518 
L 452.588422 124.355595 
L 453.426735 124.231243 
L 454.273201 124.189659 
L 455.119666 124.231243 
L 455.957979 124.355595 
L 456.780067 124.561518 
L 457.578013 124.847027 
L 458.344131 125.209374 
L 459.071044 125.645069 
L 459.751751 126.149916 
L 460.379697 126.719053 
L 460.948834 127.346999 
L 461.453681 128.027706 
L 461.889376 128.754619 
L 462.251723 129.520737 
L 462.537232 130.318683 
L 462.743155 131.140771 
L 462.867507 131.979084 
L 462.909091 132.825549 
" clip-path="url(#pa20ac0bb25)" style="fill: none; stroke: #808080; stroke-opacity: 0.01; stroke-width: 2"/>
    <path d="M 372.667363 236.325371 
L 372.625779 237.171837 
L 372.501427 238.01015 
L 372.295505 238.832238 
L 372.009995 239.630183 
L 371.647648 240.396302 
L 371.211953 241.123215 
L 370.707106 241.803922 
L 370.137969 242.431868 
L 369.510024 243.001005 
L 368.829316 243.505852 
L 368.102403 243.941547 
L 367.336285 244.303894 
L 366.53834 244.589403 
L 365.716252 244.795325 
L 364.877938 244.919677 
L 364.031473 244.961262 
L 363.185008 244.919677 
L 362.346694 244.795325 
L 361.524606 244.589403 
L 360.726661 244.303894 
L 359.960542 243.941547 
L 359.233629 243.505852 
L 358.552922 243.001005 
L 357.924976 242.431868 
L 357.355839 241.803922 
L 356.850993 241.123215 
L 356.415298 240.396302 
L 356.052951 239.630183 
L 355.767441 238.832238 
L 355.561519 238.01015 
L 355.437167 237.171837 
L 355.395583 236.325371 
L 355.437167 235.478906 
L 355.561519 234.640593 
L 355.767441 233.818505 
L 356.052951 233.020559 
L 356.415298 232.254441 
L 356.850993 231.527528 
L 357.355839 230.84682 
L 357.924976 230.218875 
L 358.552922 229.649738 
L 359.233629 229.144891 
L 359.960542 228.709196 
L 360.726661 228.346849 
L 361.524606 228.061339 
L 362.346694 227.855417 
L 363.185008 227.731065 
L 364.031473 227.689481 
L 364.877938 227.731065 
L 365.716252 227.855417 
L 366.53834 228.061339 
L 367.336285 228.346849 
L 368.102403 228.709196 
L 368.829316 229.144891 
L 369.510024 229.649738 
L 370.137969 230.218875 
L 370.707106 230.84682 
L 371.211953 231.527528 
L 371.647648 232.254441 
L 372.009995 233.020559 
L 372.295505 233.818505 
L 372.501427 234.640593 
L 372.625779 235.478906 
L 372.667363 236.325371 
" clip-path="url(#pa20ac0bb25)" style="fill: none; stroke: #808080; stroke-opacity: 0.01; stroke-width: 2"/>
    <path d="M 295.955631 155.595183 
L 295.914047 156.441649 
L 295.789694 157.279962 
L 295.583772 158.10205 
L 295.298263 158.899996 
L 294.935916 159.666114 
L 294.500221 160.393027 
L 293.995374 161.073734 
L 293.426237 161.70168 
L 292.798291 162.270817 
L 292.117584 162.775664 
L 291.390671 163.211359 
L 290.624553 163.573706 
L 289.826607 163.859215 
L 289.004519 164.065137 
L 288.166206 164.189489 
L 287.31974 164.231074 
L 286.473275 164.189489 
L 285.634962 164.065137 
L 284.812874 163.859215 
L 284.014928 163.573706 
L 283.24881 163.211359 
L 282.521897 162.775664 
L 281.84119 162.270817 
L 281.213244 161.70168 
L 280.644107 161.073734 
L 280.13926 160.393027 
L 279.703565 159.666114 
L 279.341218 158.899996 
L 279.055709 158.10205 
L 278.849786 157.279962 
L 278.725434 156.441649 
L 278.68385 155.595183 
L 278.725434 154.748718 
L 278.849786 153.910405 
L 279.055709 153.088317 
L 279.341218 152.290371 
L 279.703565 151.524253 
L 280.13926 150.79734 
L 280.644107 150.116633 
L 281.213244 149.488687 
L 281.84119 148.91955 
L 282.521897 148.414703 
L 283.24881 147.979008 
L 284.014928 147.616661 
L 284.812874 147.331152 
L 285.634962 147.125229 
L 286.473275 147.000877 
L 287.31974 146.959293 
L 288.166206 147.000877 
L 289.004519 147.125229 
L 289.826607 147.331152 
L 290.624553 147.616661 
L 291.390671 147.979008 
L 292.117584 148.414703 
L 292.798291 148.91955 
L 293.426237 149.488687 
L 293.995374 150.116633 
L 294.500221 150.79734 
L 294.935916 151.524253 
L 295.298263 152.290371 
L 295.583772 153.088317 
L 295.789694 153.910405 
L 295.914047 154.748718 
L 295.955631 155.595183 
" clip-path="url(#pa20ac0bb25)" style="fill: none; stroke: #808080; stroke-opacity: 0.01; stroke-width: 2"/>
    <path d="M 182.320428 236.021227 
L 182.278844 236.867692 
L 182.154492 237.706006 
L 181.94857 238.528094 
L 181.66306 239.326039 
L 181.300713 240.092157 
L 180.865018 240.819071 
L 180.360171 241.499778 
L 179.791035 242.127724 
L 179.163089 242.69686 
L 178.482382 243.201707 
L 177.755468 243.637402 
L 176.98935 243.999749 
L 176.191405 244.285259 
L 175.369317 244.491181 
L 174.531003 244.615533 
L 173.684538 244.657117 
L 172.838073 244.615533 
L 171.999759 244.491181 
L 171.177671 244.285259 
L 170.379726 243.999749 
L 169.613607 243.637402 
L 168.886694 243.201707 
L 168.205987 242.69686 
L 167.578041 242.127724 
L 167.008904 241.499778 
L 166.504058 240.819071 
L 166.068363 240.092157 
L 165.706016 239.326039 
L 165.420506 238.528094 
L 165.214584 237.706006 
L 165.090232 236.867692 
L 165.048648 236.021227 
L 165.090232 235.174762 
L 165.214584 234.336448 
L 165.420506 233.51436 
L 165.706016 232.716415 
L 166.068363 231.950296 
L 166.504058 231.223383 
L 167.008904 230.542676 
L 167.578041 229.91473 
L 168.205987 229.345593 
L 168.886694 228.840747 
L 169.613607 228.405052 
L 170.379726 228.042705 
L 171.177671 227.757195 
L 171.999759 227.551273 
L 172.838073 227.426921 
L 173.684538 227.385337 
L 174.531003 227.426921 
L 175.369317 227.551273 
L 176.191405 227.757195 
L 176.98935 228.042705 
L 177.755468 228.405052 
L 178.482382 228.840747 
L 179.163089 229.345593 
L 179.791035 229.91473 
L 180.360171 230.542676 
L 180.865018 231.223383 
L 181.300713 231.950296 
L 181.66306 232.716415 
L 181.94857 233.51436 
L 182.154492 234.336448 
L 182.278844 235.174762 
L 182.320428 236.021227 
" clip-path="url(#pa20ac0bb25)" style="fill: none; stroke: #808080; stroke-opacity: 0.01; stroke-width: 2"/>
    <path d="M 180.672823 271.974449 
L 180.631239 272.820914 
L 180.506887 273.659228 
L 180.300965 274.481316 
L 180.015455 275.279261 
L 179.653108 276.04538 
L 179.217413 276.772293 
L 178.712566 277.453 
L 178.143429 278.080946 
L 177.515484 278.650082 
L 176.834776 279.154929 
L 176.107863 279.590624 
L 175.341745 279.952971 
L 174.543799 280.238481 
L 173.721711 280.444403 
L 172.883398 280.568755 
L 172.036933 280.610339 
L 171.190468 280.568755 
L 170.352154 280.444403 
L 169.530066 280.238481 
L 168.732121 279.952971 
L 167.966002 279.590624 
L 167.239089 279.154929 
L 166.558382 278.650082 
L 165.930436 278.080946 
L 165.361299 277.453 
L 164.856452 276.772293 
L 164.420757 276.04538 
L 164.05841 275.279261 
L 163.772901 274.481316 
L 163.566979 273.659228 
L 163.442627 272.820914 
L 163.401042 271.974449 
L 163.442627 271.127984 
L 163.566979 270.28967 
L 163.772901 269.467582 
L 164.05841 268.669637 
L 164.420757 267.903518 
L 164.856452 267.176605 
L 165.361299 266.495898 
L 165.930436 265.867952 
L 166.558382 265.298816 
L 167.239089 264.793969 
L 167.966002 264.358274 
L 168.732121 263.995927 
L 169.530066 263.710417 
L 170.352154 263.504495 
L 171.190468 263.380143 
L 172.036933 263.338559 
L 172.883398 263.380143 
L 173.721711 263.504495 
L 174.543799 263.710417 
L 175.341745 263.995927 
L 176.107863 264.358274 
L 176.834776 264.793969 
L 177.515484 265.298816 
L 178.143429 265.867952 
L 178.712566 266.495898 
L 179.217413 267.176605 
L 179.653108 267.903518 
L 180.015455 268.669637 
L 180.300965 269.467582 
L 180.506887 270.28967 
L 180.631239 271.127984 
L 180.672823 271.974449 
" clip-path="url(#pa20ac0bb25)" style="fill: none; stroke: #808080; stroke-opacity: 0.01; stroke-width: 2"/>
    <path d="M 213.010752 249.251427 
L 212.969168 250.097892 
L 212.844816 250.936206 
L 212.638894 251.758294 
L 212.353384 252.556239 
L 211.991037 253.322358 
L 211.555342 254.049271 
L 211.050496 254.729978 
L 210.481359 255.357924 
L 209.853413 255.927061 
L 209.172706 256.431908 
L 208.445793 256.867603 
L 207.679674 257.22995 
L 206.881729 257.515459 
L 206.059641 257.721381 
L 205.221327 257.845733 
L 204.374862 257.887318 
L 203.528397 257.845733 
L 202.690083 257.721381 
L 201.867995 257.515459 
L 201.07005 257.22995 
L 200.303932 256.867603 
L 199.577018 256.431908 
L 198.896311 255.927061 
L 198.268365 255.357924 
L 197.699229 254.729978 
L 197.194382 254.049271 
L 196.758687 253.322358 
L 196.39634 252.556239 
L 196.11083 251.758294 
L 195.904908 250.936206 
L 195.780556 250.097892 
L 195.738972 249.251427 
L 195.780556 248.404962 
L 195.904908 247.566649 
L 196.11083 246.744561 
L 196.39634 245.946615 
L 196.758687 245.180497 
L 197.194382 244.453584 
L 197.699229 243.772876 
L 198.268365 243.144931 
L 198.896311 242.575794 
L 199.577018 242.070947 
L 200.303932 241.635252 
L 201.07005 241.272905 
L 201.867995 240.987395 
L 202.690083 240.781473 
L 203.528397 240.657121 
L 204.374862 240.615537 
L 205.221327 240.657121 
L 206.059641 240.781473 
L 206.881729 240.987395 
L 207.679674 241.272905 
L 208.445793 241.635252 
L 209.172706 242.070947 
L 209.853413 242.575794 
L 210.481359 243.144931 
L 211.050496 243.772876 
L 211.555342 244.453584 
L 211.991037 245.180497 
L 212.353384 245.946615 
L 212.638894 246.744561 
L 212.844816 247.566649 
L 212.969168 248.404962 
L 213.010752 249.251427 
" clip-path="url(#pa20ac0bb25)" style="fill: none; stroke: #808080; stroke-opacity: 0.01; stroke-width: 2"/>
    <path d="M 221.835916 175.281771 
L 221.794332 176.128237 
L 221.66998 176.96655 
L 221.464057 177.788638 
L 221.178548 178.586584 
L 220.816201 179.352702 
L 220.380506 180.079615 
L 219.875659 180.760322 
L 219.306522 181.388268 
L 218.678576 181.957405 
L 217.997869 182.462252 
L 217.270956 182.897947 
L 216.504838 183.260294 
L 215.706892 183.545803 
L 214.884804 183.751725 
L 214.046491 183.876078 
L 213.200026 183.917662 
L 212.35356 183.876078 
L 211.515247 183.751725 
L 210.693159 183.545803 
L 209.895213 183.260294 
L 209.129095 182.897947 
L 208.402182 182.462252 
L 207.721475 181.957405 
L 207.093529 181.388268 
L 206.524392 180.760322 
L 206.019545 180.079615 
L 205.58385 179.352702 
L 205.221503 178.586584 
L 204.935994 177.788638 
L 204.730072 176.96655 
L 204.605719 176.128237 
L 204.564135 175.281771 
L 204.605719 174.435306 
L 204.730072 173.596993 
L 204.935994 172.774905 
L 205.221503 171.976959 
L 205.58385 171.210841 
L 206.019545 170.483928 
L 206.524392 169.803221 
L 207.093529 169.175275 
L 207.721475 168.606138 
L 208.402182 168.101291 
L 209.129095 167.665596 
L 209.895213 167.303249 
L 210.693159 167.01774 
L 211.515247 166.811817 
L 212.35356 166.687465 
L 213.200026 166.645881 
L 214.046491 166.687465 
L 214.884804 166.811817 
L 215.706892 167.01774 
L 216.504838 167.303249 
L 217.270956 167.665596 
L 217.997869 168.101291 
L 218.678576 168.606138 
L 219.306522 169.175275 
L 219.875659 169.803221 
L 220.380506 170.483928 
L 220.816201 171.210841 
L 221.178548 171.976959 
L 221.464057 172.774905 
L 221.66998 173.596993 
L 221.794332 174.435306 
L 221.835916 175.281771 
" clip-path="url(#pa20ac0bb25)" style="fill: none; stroke: #808080; stroke-opacity: 0.01; stroke-width: 2"/>
    <path d="M 180.016654 215.065968 
L 179.97507 215.912434 
L 179.850718 216.750747 
L 179.644796 217.572835 
L 179.359286 218.370781 
L 178.996939 219.136899 
L 178.561244 219.863812 
L 178.056397 220.544519 
L 177.48726 221.172465 
L 176.859315 221.741602 
L 176.178607 222.246449 
L 175.451694 222.682144 
L 174.685576 223.044491 
L 173.88763 223.33 
L 173.065542 223.535923 
L 172.227229 223.660275 
L 171.380764 223.701859 
L 170.534299 223.660275 
L 169.695985 223.535923 
L 168.873897 223.33 
L 168.075952 223.044491 
L 167.309833 222.682144 
L 166.58292 222.246449 
L 165.902213 221.741602 
L 165.274267 221.172465 
L 164.70513 220.544519 
L 164.200283 219.863812 
L 163.764589 219.136899 
L 163.402242 218.370781 
L 163.116732 217.572835 
L 162.91081 216.750747 
L 162.786458 215.912434 
L 162.744874 215.065968 
L 162.786458 214.219503 
L 162.91081 213.38119 
L 163.116732 212.559102 
L 163.402242 211.761156 
L 163.764589 210.995038 
L 164.200283 210.268125 
L 164.70513 209.587418 
L 165.274267 208.959472 
L 165.902213 208.390335 
L 166.58292 207.885488 
L 167.309833 207.449793 
L 168.075952 207.087446 
L 168.873897 206.801937 
L 169.695985 206.596014 
L 170.534299 206.471662 
L 171.380764 206.430078 
L 172.227229 206.471662 
L 173.065542 206.596014 
L 173.88763 206.801937 
L 174.685576 207.087446 
L 175.451694 207.449793 
L 176.178607 207.885488 
L 176.859315 208.390335 
L 177.48726 208.959472 
L 178.056397 209.587418 
L 178.561244 210.268125 
L 178.996939 210.995038 
L 179.359286 211.761156 
L 179.644796 212.559102 
L 179.850718 213.38119 
L 179.97507 214.219503 
L 180.016654 215.065968 
" clip-path="url(#pa20ac0bb25)" style="fill: none; stroke: #808080; stroke-opacity: 0.01; stroke-width: 2"/>
    <path d="M 142.450981 220.232845 
L 142.409396 221.07931 
L 142.285044 221.917624 
L 142.079122 222.739712 
L 141.793613 223.537657 
L 141.431266 224.303775 
L 140.995571 225.030689 
L 140.490724 225.711396 
L 139.921587 226.339342 
L 139.293641 226.908478 
L 138.612934 227.413325 
L 137.886021 227.84902 
L 137.119902 228.211367 
L 136.321957 228.496877 
L 135.499869 228.702799 
L 134.661556 228.827151 
L 133.81509 228.868735 
L 132.968625 228.827151 
L 132.130312 228.702799 
L 131.308224 228.496877 
L 130.510278 228.211367 
L 129.74416 227.84902 
L 129.017247 227.413325 
L 128.336539 226.908478 
L 127.708594 226.339342 
L 127.139457 225.711396 
L 126.63461 225.030689 
L 126.198915 224.303775 
L 125.836568 223.537657 
L 125.551059 222.739712 
L 125.345136 221.917624 
L 125.220784 221.07931 
L 125.1792 220.232845 
L 125.220784 219.38638 
L 125.345136 218.548066 
L 125.551059 217.725978 
L 125.836568 216.928033 
L 126.198915 216.161914 
L 126.63461 215.435001 
L 127.139457 214.754294 
L 127.708594 214.126348 
L 128.336539 213.557211 
L 129.017247 213.052365 
L 129.74416 212.61667 
L 130.510278 212.254323 
L 131.308224 211.968813 
L 132.130312 211.762891 
L 132.968625 211.638539 
L 133.81509 211.596955 
L 134.661556 211.638539 
L 135.499869 211.762891 
L 136.321957 211.968813 
L 137.119902 212.254323 
L 137.886021 212.61667 
L 138.612934 213.052365 
L 139.293641 213.557211 
L 139.921587 214.126348 
L 140.490724 214.754294 
L 140.995571 215.435001 
L 141.431266 216.161914 
L 141.793613 216.928033 
L 142.079122 217.725978 
L 142.285044 218.548066 
L 142.409396 219.38638 
L 142.450981 220.232845 
" clip-path="url(#pa20ac0bb25)" style="fill: none; stroke: #808080; stroke-opacity: 0.01; stroke-width: 2"/>
   </g>
   <g id="matplotlib.axis_1">
    <g id="xtick_1"/>
    <g id="xtick_2"/>
    <g id="xtick_3"/>
    <g id="xtick_4"/>
    <g id="xtick_5"/>
   </g>
   <g id="matplotlib.axis_2">
    <g id="ytick_1"/>
    <g id="ytick_2"/>
    <g id="ytick_3"/>
    <g id="ytick_4"/>
    <g id="ytick_5"/>
    <g id="ytick_6"/>
    <g id="ytick_7"/>
   </g>
   <g id="PathCollection_1">
    <defs>
     <path id="mcd6627e1b2" d="M 0 1.118034 
C 0.296506 1.118034 0.580908 1.000231 0.790569 0.790569 
C 1.000231 0.580908 1.118034 0.296506 1.118034 0 
C 1.118034 -0.296506 1.000231 -0.580908 0.790569 -0.790569 
C 0.580908 -1.000231 0.296506 -1.118034 0 -1.118034 
C -0.296506 -1.118034 -0.580908 -1.000231 -0.790569 -0.790569 
C -1.000231 -0.580908 -1.118034 -0.296506 -1.118034 0 
C -1.118034 0.296506 -1.000231 0.580908 -0.790569 0.790569 
C -0.580908 1.000231 -0.296506 1.118034 0 1.118034 
z
" style="stroke: #000000; stroke-opacity: 0.01"/>
    </defs>
    <g clip-path="url(#pa20ac0bb25)">
     <use xlink:href="#mcd6627e1b2" x="77.694621" y="267.341806" style="fill-opacity: 0.01; stroke: #000000; stroke-opacity: 0.01"/>
     <use xlink:href="#mcd6627e1b2" x="93.542565" y="304.869579" style="fill-opacity: 0.01; stroke: #000000; stroke-opacity: 0.01"/>
     <use xlink:href="#mcd6627e1b2" x="101.31279" y="262.614307" style="fill-opacity: 0.01; stroke: #000000; stroke-opacity: 0.01"/>
     <use xlink:href="#mcd6627e1b2" x="49.726799" y="296.634397" style="fill-opacity: 0.01; stroke: #000000; stroke-opacity: 0.01"/>
     <use xlink:href="#mcd6627e1b2" x="81.978781" y="229.615217" style="fill-opacity: 0.01; stroke: #000000; stroke-opacity: 0.01"/>
     <use xlink:href="#mcd6627e1b2" x="359.302962" y="260.809855" style="fill-opacity: 0.01; stroke: #000000; stroke-opacity: 0.01"/>
     <use xlink:href="#mcd6627e1b2" x="306.204501" y="205.108508" style="fill-opacity: 0.01; stroke: #000000; stroke-opacity: 0.01"/>
     <use xlink:href="#mcd6627e1b2" x="259.118897" y="150.95506" style="fill-opacity: 0.01; stroke: #000000; stroke-opacity: 0.01"/>
     <use xlink:href="#mcd6627e1b2" x="314.571786" y="170.08666" style="fill-opacity: 0.01; stroke: #000000; stroke-opacity: 0.01"/>
     <use xlink:href="#mcd6627e1b2" x="454.273201" y="132.825549" style="fill-opacity: 0.01; stroke: #000000; stroke-opacity: 0.01"/>
     <use xlink:href="#mcd6627e1b2" x="364.031473" y="236.325371" style="fill-opacity: 0.01; stroke: #000000; stroke-opacity: 0.01"/>
     <use xlink:href="#mcd6627e1b2" x="287.31974" y="155.595183" style="fill-opacity: 0.01; stroke: #000000; stroke-opacity: 0.01"/>
     <use xlink:href="#mcd6627e1b2" x="173.684538" y="236.021227" style="fill-opacity: 0.01; stroke: #000000; stroke-opacity: 0.01"/>
     <use xlink:href="#mcd6627e1b2" x="172.036933" y="271.974449" style="fill-opacity: 0.01; stroke: #000000; stroke-opacity: 0.01"/>
     <use xlink:href="#mcd6627e1b2" x="204.374862" y="249.251427" style="fill-opacity: 0.01; stroke: #000000; stroke-opacity: 0.01"/>
     <use xlink:href="#mcd6627e1b2" x="213.200026" y="175.281771" style="fill-opacity: 0.01; stroke: #000000; stroke-opacity: 0.01"/>
     <use xlink:href="#mcd6627e1b2" x="171.380764" y="215.065968" style="fill-opacity: 0.01; stroke: #000000; stroke-opacity: 0.01"/>
     <use xlink:href="#mcd6627e1b2" x="133.81509" y="220.232845" style="fill-opacity: 0.01; stroke: #000000; stroke-opacity: 0.01"/>
    </g>
   </g>
   <g id="line2d_1">
    <path d="M 91.667746 231.353775 
L 93.069673 223.018654 
L 93.069673 223.018654 
L 82.537358 243.224235 
L 89.06311 249.985715 
L 89.06311 249.985715 
L 80.192028 264.525681 
L 81.282131 259.737487 
L 81.282131 259.737487 
L 80.139717 250.777378 
L 80.139717 250.777378 
L 85.100186 268.377818 
L 85.100186 268.377818 
L 90.459598 244.152871 
L 90.459598 244.152871 
L 78.380749 241.663608 
L 78.380749 241.663608 
L 83.282523 257.633712 
L 83.282523 257.633712 
L 91.232942 256.17082 
L 91.232942 256.17082 
L 99.913324 271.103504 
L 99.913324 271.103504 
L 100.256368 266.930581 
L 100.256368 266.930581 
L 87.964456 269.581952 
L 90.257054 278.301827 
L 90.257054 278.301827 
L 85.486189 299.176419 
L 85.486189 299.176419 
L 106.303999 287.074425 
L 106.303999 287.074425 
L 102.850942 289.301397 
L 102.850942 289.301397 
L 105.095173 287.463662 
L 112.11632 284.266138 
L 93.483148 292.604086 
L 93.483148 292.604086 
L 91.929012 290.91071 
L 91.929012 290.91071 
L 76.957112 279.565825 
L 76.957112 279.565825 
L 75.255308 282.04644 
L 90.182763 282.074471 
L 90.182763 282.074471 
L 104.570752 280.901636 
L 104.570752 280.901636 
L 95.877952 271.702713 
L 95.877952 271.702713 
L 93.680819 257.644732 
L 93.680819 257.644732 
L 81.199016 243.946853 
L 81.199016 243.946853 
L 90.032667 242.05359 
L 90.032667 242.05359 
L 67.649929 254.724869 
L 68.824588 256.231181 
L 68.824588 256.231181 
L 83.840785 251.77745 
L 83.840785 251.77745 
L 96.864076 243.848021 
L 96.864076 243.848021 
L 107.760974 234.128477 
L 120.490326 237.422789 
L 120.490326 237.422789 
L 122.830754 242.392504 
L 122.830754 242.392504 
L 159.707266 265.402378 
L 197.271547 274.997678 
L 227.527671 256.685586 
L 226.053377 212.3608 
L 241.018003 190.439347 
L 264.385552 188.174323 
L 306.253819 133.89509 
L 313.311549 109.37879 
L 331.980558 62.454564 
L 331.980558 62.454564 
L 283.546426 71.964865 
L 287.29141 81.143698 
L 287.29141 81.143698 
L 303.696756 68.074768 
L 303.696756 68.074768 
L 279.642344 81.14905 
L 266.196155 94.813747 
L 293.38984 91.693577 
L 303.280187 108.847364 
L 266.697419 132.573377 
L 266.697419 132.573377 
L 276.883294 101.917456 
L 277.13744 108.052051 
L 304.144593 138.23791 
L 304.144593 138.23791 
L 293.337815 101.499809 
L 279.155557 59.580389 
L 279.155557 59.580389 
L 308.848718 93.902583 
L 308.848718 93.902583 
L 356.86089 92.544925 
L 374.766065 81.720017 
L 392.016001 114.592079 
L 392.016001 114.592079 
L 400.809364 94.961266 
L 421.263113 73.348304 
L 393.192381 71.960163 
L 393.192381 71.960163 
L 429.521535 120.434514 
L 396.726947 153.273561 
L 376.735377 171.363487 
L 360.99516 189.806082 
L 360.99516 189.806082 
L 378.18826 186.427131 
L 379.454432 229.75868 
L 377.915051 222.913425 
L 386.939797 211.085724 
L 363.856952 193.87435 
L 363.856952 193.87435 
L 363.80099 165.445508 
L 363.80099 165.445508 
L 369.662829 114.144112 
L 365.306672 131.810024 
L 387.885032 136.34395 
L 410.196028 173.164007 
L 410.196028 173.164007 
L 431.655848 192.229387 
L 364.248163 153.149761 
L 364.248163 153.149761 
L 357.937165 151.674546 
L 357.937165 151.674546 
L 340.50582 185.408139 
L 325.059619 200.034446 
L 294.004484 155.704435 
L 299.092601 155.003575 
L 299.092601 155.003575 
L 270.062389 149.458489 
L 325.889754 137.4985 
L 297.254286 133.378311 
L 297.254286 133.378311 
L 317.021198 167.425338 
L 288.295977 146.255238 
L 288.295977 146.255238 
L 290.700458 141.078836 
L 329.41968 191.2647 
L 286.096491 212.708318 
L 286.096491 212.708318 
L 304.05873 184.507946 
L 299.56528 206.811923 
L 299.56528 206.811923 
L 306.187044 186.248051 
L 306.187044 186.248051 
L 288.126473 212.490664 
L 288.126473 212.490664 
L 267.872811 194.027445 
L 267.872811 194.027445 
L 277.499431 150.3774 
L 277.499431 150.3774 
L 265.332385 157.93113 
L 265.332385 157.93113 
L 276.149547 149.901563 
L 276.149547 149.901563 
L 309.834154 138.389052 
L 325.563749 116.294557 
L 325.563749 116.294557 
L 314.356922 95.737075 
L 313.159958 97.563746 
L 342.187249 100.885788 
L 308.062974 128.822412 
L 334.821109 139.905381 
L 314.647407 153.883766 
L 332.318743 175.764266 
L 332.318743 175.764266 
L 325.696527 221.993609 
L 345.510936 208.849394 
L 345.510936 208.849394 
L 364.28918 164.256254 
L 430.295933 107.75833 
L 430.295933 107.75833 
L 417.422979 99.460393 
L 417.422979 99.460393 
L 403.131798 63.760492 
L 393.388345 75.294363 
L 406.548283 102.633196 
L 406.548283 102.633196 
L 376.581601 65.435108 
L 331.069716 83.862768 
L 323.645316 91.05652 
L 323.645316 91.05652 
L 348.126539 105.148064 
L 373.445252 108.628098 
L 382.787569 98.447105 
L 374.527089 67.240375 
L 375.54051 90.390079 
L 375.54051 90.390079 
L 353.416816 70.234513 
L 353.416816 70.234513 
L 374.636253 65.026621 
L 386.384075 90.550039 
L 379.935926 122.131238 
L 379.935926 122.131238 
L 300.796554 129.52389 
L 276.542504 153.328012 
L 287.167688 175.536805 
L 334.65974 180.17365 
L 294.155255 197.375445 
L 271.490993 118.181122 
L 290.508071 124.589544 
L 320.516953 132.365879 
L 301.391408 169.592436 
L 327.218439 129.003057 
L 327.218439 129.003057 
L 344.565867 164.90809 
L 373.677853 140.467613 
L 373.677853 140.467613 
L 332.5336 160.663818 
L 293.162301 159.731164 
L 293.162301 159.731164 
L 287.80556 141.998571 
L 273.747666 138.258707 
L 282.186575 183.686152 
L 279.170903 204.453917 
L 279.170903 204.453917 
L 273.126012 230.737124 
L 293.670391 211.840126 
L 293.670391 211.840126 
L 302.60658 221.875965 
L 302.60658 221.875965 
L 355.367696 172.798611 
L 348.629741 170.657776 
L 348.629741 170.657776 
L 353.0153 152.08304 
L 351.165038 187.794532 
L 389.584079 168.794726 
L 384.239621 172.124826 
L 384.239621 172.124826 
L 353.87581 134.078153 
L 353.87581 134.078153 
L 423.04415 92.327162 
L 423.04415 92.327162 
L 413.508907 63.59601 
L 413.508907 63.59601 
L 394.206624 92.228263 
L 394.206624 92.228263 
L 425.17747 97.848689 
L 425.17747 97.848689 
L 406.534711 92.504553 
L 375.781033 120.550224 
L 378.918281 118.252436 
L 380.100567 139.267224 
L 382.445169 152.900382 
L 360.686059 154.972911 
L 316.826036 138.830095 
L 276.978442 167.102174 
L 267.174836 134.758608 
L 267.174836 134.758608 
L 268.222213 118.758182 
L 268.222213 118.758182 
L 277.98604 165.885688 
L 277.98604 165.885688 
L 273.574908 134.810113 
L 273.574908 134.810113 
L 268.131764 136.608028 
L 268.131764 136.608028 
L 308.657729 146.861507 
L 308.657729 146.861507 
L 321.568018 138.102216 
L 367.325091 135.234906 
L 367.325091 135.234906 
L 344.943135 141.192631 
L 344.943135 141.192631 
L 346.131053 112.744389 
L 346.131053 112.744389 
L 336.216986 138.241749 
L 336.216986 138.241749 
L 316.068688 109.675324 
L 337.265007 76.32176 
L 393.092961 105.666448 
L 359.973733 83.036434 
L 358.959608 75.516626 
L 358.959608 75.516626 
L 298.838235 86.756274 
L 298.838235 86.756274 
L 353.275354 91.110729 
L 353.275354 91.110729 
L 351.641749 115.725276 
L 351.641749 115.725276 
L 385.937117 123.669741 
L 359.057646 114.752196 
L 359.057646 114.752196 
L 375.832405 121.409146 
L 375.832405 121.409146 
L 389.053241 142.277953 
L 428.251078 192.601137 
L 423.405989 145.664977 
L 379.76869 155.834131 
L 337.960228 165.414125 
L 296.967144 178.145129 
L 254.663624 187.654653 
L 220.592067 198.268229 
L 221.162751 241.340449 
L 210.345549 274.235621 
L 178.026649 274.533226 
L 178.026649 274.533226 
L 177.759373 279.847904 
L 177.759373 279.847904 
L 168.461828 258.961585 
L 168.461828 258.961585 
L 163.105238 258.653268 
L 171.919003 253.578634 
L 171.919003 253.578634 
L 158.392879 260.820195 
L 158.392879 260.820195 
L 176.754307 246.468222 
L 176.754307 246.468222 
L 172.229219 237.042916 
L 172.229219 237.042916 
L 172.037524 260.974178 
L 172.037524 260.974178 
L 157.999801 267.979912 
L 157.999801 267.979912 
L 170.625968 251.349126 
L 170.625968 251.349126 
L 174.252541 252.230208 
L 168.808238 240.615525 
L 163.05134 221.600525 
L 163.05134 221.600525 
L 144.176463 216.370684 
L 144.176463 216.370684 
L 161.554021 219.38814 
L 161.554021 219.38814 
L 154.896902 217.599137 
L 154.896902 217.599137 
L 162.040723 220.534174 
L 162.040723 220.534174 
L 163.640726 230.446639 
L 163.640726 230.446639 
L 175.067143 220.599409 
L 175.067143 220.599409 
L 153.537763 213.515074 
L 153.537763 213.515074 
L 160.002801 213.459629 
L 160.002801 213.459629 
L 172.840071 209.019391 
L 172.759344 205.018814 
L 172.759344 205.018814 
L 176.151145 209.343855 
L 176.151145 209.343855 
L 161.496594 223.748085 
L 161.496594 223.748085 
L 158.951725 239.048981 
L 158.951725 239.048981 
L 161.230318 246.326997 
L 161.230318 246.326997 
L 135.89287 249.484746 
L 135.89287 249.484746 
L 134.069641 226.835534 
L 134.069641 226.835534 
L 128.771154 234.420013 
L 128.771154 234.420013 
" clip-path="url(#pa20ac0bb25)" style="fill: none; stroke: #1f77b4; stroke-opacity: 0.35; stroke-width: 1.5; stroke-linecap: square"/>
   </g>
  </g>
  <g id="axes_2">
   <g id="patch_3">
    <path d="M 20 394.92 
L 484 394.92 
L 484 367.162845 
L 20 367.162845 
z
" style="fill: #ffffff"/>
   </g>
   <g id="PolyCollection_1">
    <defs>
     <path id="me7a5525662" d="M 192.342857 -37.08 
L 73.028571 -37.08 
L 73.028571 -64.837155 
L 192.342857 -64.837155 
L 192.342857 -64.837155 
L 192.342857 -37.08 
z
" style="stroke: #f98c0a; stroke-opacity: 0.6"/>
    </defs>
    <g clip-path="url(#pdd7c5f539d)">
     <use xlink:href="#me7a5525662" x="0" y="432" style="fill: #f98c0a; fill-opacity: 0.6; stroke: #f98c0a; stroke-opacity: 0.6"/>
    </g>
   </g>
   <g id="PolyCollection_2">
    <defs>
     <path id="m0c6344f4d6" d="M 311.657143 -37.08 
L 194.729143 -37.08 
L 194.729143 -64.837155 
L 311.657143 -64.837155 
L 311.657143 -64.837155 
L 311.657143 -37.08 
z
" style="stroke: #ba3655; stroke-opacity: 0.6"/>
    </defs>
    <g clip-path="url(#pdd7c5f539d)">
     <use xlink:href="#m0c6344f4d6" x="0" y="432" style="fill: #ba3655; fill-opacity: 0.6; stroke: #ba3655; stroke-opacity: 0.6"/>
    </g>
   </g>
   <g id="PolyCollection_3">
    <defs>
     <path id="m160185b0a3" d="M 430.971429 -37.08 
L 314.838857 -37.08 
L 314.838857 -64.837155 
L 430.971429 -64.837155 
L 430.971429 -64.837155 
L 430.971429 -37.08 
z
" style="stroke: #550f6d; stroke-opacity: 0.6"/>
    </defs>
    <g clip-path="url(#pdd7c5f539d)">
     <use xlink:href="#m160185b0a3" x="0" y="432" style="fill: #550f6d; fill-opacity: 0.6; stroke: #550f6d; stroke-opacity: 0.6"/>
    </g>
   </g>
   <g id="matplotlib.axis_3">
    <g id="xtick_6">
     <g id="line2d_2">
      <defs>
       <path id="m9614ca410f" d="M 0 0 
L 0 3.5 
" style="stroke: #000000; stroke-width: 0.8"/>
      </defs>
      <g>
       <use xlink:href="#m9614ca410f" x="72.630857" y="394.92" style="stroke: #000000; stroke-width: 0.8"/>
      </g>
     </g>
     <g id="text_1">
      <!-- 08 AM -->
      <g transform="translate(56.94492 409.518438) scale(0.1 -0.1)">
       <defs>
        <path id="DejaVuSans-30" d="M 2034 4250 
Q 1547 4250 1301 3770 
Q 1056 3291 1056 2328 
Q 1056 1369 1301 889 
Q 1547 409 2034 409 
Q 2525 409 2770 889 
Q 3016 1369 3016 2328 
Q 3016 3291 2770 3770 
Q 2525 4250 2034 4250 
z
M 2034 4750 
Q 2819 4750 3233 4129 
Q 3647 3509 3647 2328 
Q 3647 1150 3233 529 
Q 2819 -91 2034 -91 
Q 1250 -91 836 529 
Q 422 1150 422 2328 
Q 422 3509 836 4129 
Q 1250 4750 2034 4750 
z
" transform="scale(0.015625)"/>
        <path id="DejaVuSans-38" d="M 2034 2216 
Q 1584 2216 1326 1975 
Q 1069 1734 1069 1313 
Q 1069 891 1326 650 
Q 1584 409 2034 409 
Q 2484 409 2743 651 
Q 3003 894 3003 1313 
Q 3003 1734 2745 1975 
Q 2488 2216 2034 2216 
z
M 1403 2484 
Q 997 2584 770 2862 
Q 544 3141 544 3541 
Q 544 4100 942 4425 
Q 1341 4750 2034 4750 
Q 2731 4750 3128 4425 
Q 3525 4100 3525 3541 
Q 3525 3141 3298 2862 
Q 3072 2584 2669 2484 
Q 3125 2378 3379 2068 
Q 3634 1759 3634 1313 
Q 3634 634 3220 271 
Q 2806 -91 2034 -91 
Q 1263 -91 848 271 
Q 434 634 434 1313 
Q 434 1759 690 2068 
Q 947 2378 1403 2484 
z
M 1172 3481 
Q 1172 3119 1398 2916 
Q 1625 2713 2034 2713 
Q 2441 2713 2670 2916 
Q 2900 3119 2900 3481 
Q 2900 3844 2670 4047 
Q 2441 4250 2034 4250 
Q 1625 4250 1398 4047 
Q 1172 3844 1172 3481 
z
" transform="scale(0.015625)"/>
        <path id="DejaVuSans-20" transform="scale(0.015625)"/>
        <path id="DejaVuSans-41" d="M 2188 4044 
L 1331 1722 
L 3047 1722 
L 2188 4044 
z
M 1831 4666 
L 2547 4666 
L 4325 0 
L 3669 0 
L 3244 1197 
L 1141 1197 
L 716 0 
L 50 0 
L 1831 4666 
z
" transform="scale(0.015625)"/>
        <path id="DejaVuSans-4d" d="M 628 4666 
L 1569 4666 
L 2759 1491 
L 3956 4666 
L 4897 4666 
L 4897 0 
L 4281 0 
L 4281 4097 
L 3078 897 
L 2444 897 
L 1241 4097 
L 1241 0 
L 628 0 
L 628 4666 
z
" transform="scale(0.015625)"/>
       </defs>
       <use xlink:href="#DejaVuSans-30"/>
       <use xlink:href="#DejaVuSans-38" x="63.623047"/>
       <use xlink:href="#DejaVuSans-20" x="127.246094"/>
       <use xlink:href="#DejaVuSans-41" x="159.033203"/>
       <use xlink:href="#DejaVuSans-4d" x="227.441406"/>
      </g>
     </g>
    </g>
    <g id="xtick_7">
     <g id="line2d_3">
      <g>
       <use xlink:href="#m9614ca410f" x="231.716571" y="394.92" style="stroke: #000000; stroke-width: 0.8"/>
      </g>
     </g>
     <g id="text_2">
      <!-- 09 AM -->
      <g transform="translate(216.030634 409.518438) scale(0.1 -0.1)">
       <defs>
        <path id="DejaVuSans-39" d="M 703 97 
L 703 672 
Q 941 559 1184 500 
Q 1428 441 1663 441 
Q 2288 441 2617 861 
Q 2947 1281 2994 2138 
Q 2813 1869 2534 1725 
Q 2256 1581 1919 1581 
Q 1219 1581 811 2004 
Q 403 2428 403 3163 
Q 403 3881 828 4315 
Q 1253 4750 1959 4750 
Q 2769 4750 3195 4129 
Q 3622 3509 3622 2328 
Q 3622 1225 3098 567 
Q 2575 -91 1691 -91 
Q 1453 -91 1209 -44 
Q 966 3 703 97 
z
M 1959 2075 
Q 2384 2075 2632 2365 
Q 2881 2656 2881 3163 
Q 2881 3666 2632 3958 
Q 2384 4250 1959 4250 
Q 1534 4250 1286 3958 
Q 1038 3666 1038 3163 
Q 1038 2656 1286 2365 
Q 1534 2075 1959 2075 
z
" transform="scale(0.015625)"/>
       </defs>
       <use xlink:href="#DejaVuSans-30"/>
       <use xlink:href="#DejaVuSans-39" x="63.623047"/>
       <use xlink:href="#DejaVuSans-20" x="127.246094"/>
       <use xlink:href="#DejaVuSans-41" x="159.033203"/>
       <use xlink:href="#DejaVuSans-4d" x="227.441406"/>
      </g>
     </g>
    </g>
    <g id="xtick_8">
     <g id="line2d_4">
      <g>
       <use xlink:href="#m9614ca410f" x="390.802286" y="394.92" style="stroke: #000000; stroke-width: 0.8"/>
      </g>
     </g>
     <g id="text_3">
      <!-- 10 AM -->
      <g transform="translate(375.116348 409.518438) scale(0.1 -0.1)">
       <defs>
        <path id="DejaVuSans-31" d="M 794 531 
L 1825 531 
L 1825 4091 
L 703 3866 
L 703 4441 
L 1819 4666 
L 2450 4666 
L 2450 531 
L 3481 531 
L 3481 0 
L 794 0 
L 794 531 
z
" transform="scale(0.015625)"/>
       </defs>
       <use xlink:href="#DejaVuSans-31"/>
       <use xlink:href="#DejaVuSans-30" x="63.623047"/>
       <use xlink:href="#DejaVuSans-20" x="127.246094"/>
       <use xlink:href="#DejaVuSans-41" x="159.033203"/>
       <use xlink:href="#DejaVuSans-4d" x="227.441406"/>
      </g>
     </g>
    </g>
   </g>
   <g id="matplotlib.axis_4"/>
   <g id="patch_4">
    <path d="M 20 394.92 
L 20 367.162845 
" style="fill: none; stroke: #000000; stroke-width: 0.8; stroke-linejoin: miter; stroke-linecap: square"/>
   </g>
   <g id="patch_5">
    <path d="M 484 394.92 
L 484 367.162845 
" style="fill: none; stroke: #000000; stroke-width: 0.8; stroke-linejoin: miter; stroke-linecap: square"/>
   </g>
   <g id="patch_6">
    <path d="M 20 394.92 
L 484 394.92 
" style="fill: none; stroke: #000000; stroke-width: 0.8; stroke-linejoin: miter; stroke-linecap: square"/>
   </g>
   <g id="patch_7">
    <path d="M 20 367.162845 
L 484 367.162845 
" style="fill: none; stroke: #000000; stroke-width: 0.8; stroke-linejoin: miter; stroke-linecap: square"/>
   </g>
   <g id="text_4">
    <!-- timestamps -->
    <g transform="translate(216.510938 361.162845) scale(0.12 -0.12)">
     <defs>
      <path id="DejaVuSans-74" d="M 1172 4494 
L 1172 3500 
L 2356 3500 
L 2356 3053 
L 1172 3053 
L 1172 1153 
Q 1172 725 1289 603 
Q 1406 481 1766 481 
L 2356 481 
L 2356 0 
L 1766 0 
Q 1100 0 847 248 
Q 594 497 594 1153 
L 594 3053 
L 172 3053 
L 172 3500 
L 594 3500 
L 594 4494 
L 1172 4494 
z
" transform="scale(0.015625)"/>
      <path id="DejaVuSans-69" d="M 603 3500 
L 1178 3500 
L 1178 0 
L 603 0 
L 603 3500 
z
M 603 4863 
L 1178 4863 
L 1178 4134 
L 603 4134 
L 603 4863 
z
" transform="scale(0.015625)"/>
      <path id="DejaVuSans-6d" d="M 3328 2828 
Q 3544 3216 3844 3400 
Q 4144 3584 4550 3584 
Q 5097 3584 5394 3201 
Q 5691 2819 5691 2113 
L 5691 0 
L 5113 0 
L 5113 2094 
Q 5113 2597 4934 2840 
Q 4756 3084 4391 3084 
Q 3944 3084 3684 2787 
Q 3425 2491 3425 1978 
L 3425 0 
L 2847 0 
L 2847 2094 
Q 2847 2600 2669 2842 
Q 2491 3084 2119 3084 
Q 1678 3084 1418 2786 
Q 1159 2488 1159 1978 
L 1159 0 
L 581 0 
L 581 3500 
L 1159 3500 
L 1159 2956 
Q 1356 3278 1631 3431 
Q 1906 3584 2284 3584 
Q 2666 3584 2933 3390 
Q 3200 3197 3328 2828 
z
" transform="scale(0.015625)"/>
      <path id="DejaVuSans-65" d="M 3597 1894 
L 3597 1613 
L 953 1613 
Q 991 1019 1311 708 
Q 1631 397 2203 397 
Q 2534 397 2845 478 
Q 3156 559 3463 722 
L 3463 178 
Q 3153 47 2828 -22 
Q 2503 -91 2169 -91 
Q 1331 -91 842 396 
Q 353 884 353 1716 
Q 353 2575 817 3079 
Q 1281 3584 2069 3584 
Q 2775 3584 3186 3129 
Q 3597 2675 3597 1894 
z
M 3022 2063 
Q 3016 2534 2758 2815 
Q 2500 3097 2075 3097 
Q 1594 3097 1305 2825 
Q 1016 2553 972 2059 
L 3022 2063 
z
" transform="scale(0.015625)"/>
      <path id="DejaVuSans-73" d="M 2834 3397 
L 2834 2853 
Q 2591 2978 2328 3040 
Q 2066 3103 1784 3103 
Q 1356 3103 1142 2972 
Q 928 2841 928 2578 
Q 928 2378 1081 2264 
Q 1234 2150 1697 2047 
L 1894 2003 
Q 2506 1872 2764 1633 
Q 3022 1394 3022 966 
Q 3022 478 2636 193 
Q 2250 -91 1575 -91 
Q 1294 -91 989 -36 
Q 684 19 347 128 
L 347 722 
Q 666 556 975 473 
Q 1284 391 1588 391 
Q 1994 391 2212 530 
Q 2431 669 2431 922 
Q 2431 1156 2273 1281 
Q 2116 1406 1581 1522 
L 1381 1569 
Q 847 1681 609 1914 
Q 372 2147 372 2553 
Q 372 3047 722 3315 
Q 1072 3584 1716 3584 
Q 2034 3584 2315 3537 
Q 2597 3491 2834 3397 
z
" transform="scale(0.015625)"/>
      <path id="DejaVuSans-61" d="M 2194 1759 
Q 1497 1759 1228 1600 
Q 959 1441 959 1056 
Q 959 750 1161 570 
Q 1363 391 1709 391 
Q 2188 391 2477 730 
Q 2766 1069 2766 1631 
L 2766 1759 
L 2194 1759 
z
M 3341 1997 
L 3341 0 
L 2766 0 
L 2766 531 
Q 2569 213 2275 61 
Q 1981 -91 1556 -91 
Q 1019 -91 701 211 
Q 384 513 384 1019 
Q 384 1609 779 1909 
Q 1175 2209 1959 2209 
L 2766 2209 
L 2766 2266 
Q 2766 2663 2505 2880 
Q 2244 3097 1772 3097 
Q 1472 3097 1187 3025 
Q 903 2953 641 2809 
L 641 3341 
Q 956 3463 1253 3523 
Q 1550 3584 1831 3584 
Q 2591 3584 2966 3190 
Q 3341 2797 3341 1997 
z
" transform="scale(0.015625)"/>
      <path id="DejaVuSans-70" d="M 1159 525 
L 1159 -1331 
L 581 -1331 
L 581 3500 
L 1159 3500 
L 1159 2969 
Q 1341 3281 1617 3432 
Q 1894 3584 2278 3584 
Q 2916 3584 3314 3078 
Q 3713 2572 3713 1747 
Q 3713 922 3314 415 
Q 2916 -91 2278 -91 
Q 1894 -91 1617 61 
Q 1341 213 1159 525 
z
M 3116 1747 
Q 3116 2381 2855 2742 
Q 2594 3103 2138 3103 
Q 1681 3103 1420 2742 
Q 1159 2381 1159 1747 
Q 1159 1113 1420 752 
Q 1681 391 2138 391 
Q 2594 391 2855 752 
Q 3116 1113 3116 1747 
z
" transform="scale(0.015625)"/>
     </defs>
     <use xlink:href="#DejaVuSans-74"/>
     <use xlink:href="#DejaVuSans-69" x="39.208984"/>
     <use xlink:href="#DejaVuSans-6d" x="66.992188"/>
     <use xlink:href="#DejaVuSans-65" x="164.404297"/>
     <use xlink:href="#DejaVuSans-73" x="225.927734"/>
     <use xlink:href="#DejaVuSans-74" x="278.027344"/>
     <use xlink:href="#DejaVuSans-61" x="317.236328"/>
     <use xlink:href="#DejaVuSans-6d" x="378.515625"/>
     <use xlink:href="#DejaVuSans-70" x="475.927734"/>
     <use xlink:href="#DejaVuSans-73" x="539.404297"/>
    </g>
   </g>
  </g>
 </g>
 <defs>
  <clipPath id="pa20ac0bb25">
   <rect x="20" y="46.884135" width="464" height="279.317588"/>
  </clipPath>
  <clipPath id="pdd7c5f539d">
   <rect x="20" y="367.162845" width="464" height="27.757155"/>
  </clipPath>
 </defs>
</svg>
